<svg width="19" height="18" viewBox="0 0 19 18" fill="none" xmlns="http://www.w3.org/2000/svg">
<g clip-path="url(#clip0_1809_568)">
<mask id="mask0_1809_568" style="mask-type:luminance" maskUnits="userSpaceOnUse" x="0" y="0" width="19" height="18">
<path d="M0.5 0H18.5V18H0.5V0Z" fill="white"/>
</mask>
<g mask="url(#mask0_1809_568)">
<path d="M12.9848 15.7244C13.4652 15.1636 13.8858 14.4957 14.2254 13.7359H15.4111C14.7493 14.5602 13.923 15.2374 12.9848 15.7244ZM3.58837 13.7359H4.774C5.11316 14.4957 5.53426 15.1636 6.01458 15.7244C5.07634 15.2376 4.25 14.5603 3.58837 13.7359ZM6.01458 2.27323C5.53426 2.83408 5.11316 3.50197 4.774 4.26223H3.58837C4.25009 3.43782 5.0764 2.76041 6.01458 2.27323ZM15.4111 4.26223H14.2254C13.8858 3.50197 13.4652 2.83408 12.9848 2.27323C13.9231 2.76026 14.7495 3.43769 15.4111 4.26223ZM15.1681 8.52539C15.1245 7.33834 14.9208 6.21807 14.5864 5.2096H16.0562C16.6426 6.22208 16.9845 7.35748 17.0547 8.52539H15.1681ZM15.1681 9.47276H17.0547C16.9844 10.6407 16.6425 11.776 16.0562 12.7885H14.5864C14.9208 11.7801 15.1245 10.6598 15.1681 9.47276ZM9.97363 12.7885V9.47276H14.2216C14.1752 10.6764 13.9549 11.8019 13.5978 12.7885H9.97363ZM9.97363 16.5397V13.7359H13.1942C12.4193 15.2815 11.2748 16.3327 9.97363 16.5397ZM9.02626 13.7359V16.5397C7.72505 16.3327 6.58016 15.2815 5.80521 13.7359H9.02626ZM4.77779 9.47276H9.02626V12.7885H5.40163C5.04447 11.8019 4.82421 10.6764 4.77779 9.47276ZM3.83137 8.52539H1.94469C2.01521 7.35759 2.35693 6.2223 2.94274 5.2096H4.41353C4.07863 6.21807 3.87542 7.33834 3.83137 8.52539ZM9.02626 5.2096V8.52539H4.77779C4.82421 7.32176 5.04447 6.19629 5.40163 5.2096H9.02626ZM9.02626 1.45802V4.26223H5.80521C6.58063 2.71613 7.72505 1.66502 9.02626 1.45802ZM13.5978 5.2096C13.9549 6.19629 14.1752 7.32176 14.2216 8.52539H9.97363V5.2096H13.5978ZM9.97363 4.26223V1.45802C11.2748 1.66502 12.4188 2.71613 13.1937 4.26223H9.97363ZM1.94469 9.47276H3.83137C3.87495 10.6598 4.07863 11.7801 4.41353 12.7885H2.94274C2.35699 11.7758 2.01528 10.6405 1.94469 9.47276ZM9.49995 0.472759C4.79105 0.472759 0.973633 4.29018 0.973633 8.99907C0.973633 13.708 4.79105 17.5254 9.49995 17.5254C14.2088 17.5254 18.0263 13.708 18.0263 8.99907C18.0263 4.29018 14.2088 0.472759 9.49995 0.472759Z" fill="black"/>
</g>
</g>
<defs>
<clipPath id="clip0_1809_568">
<rect width="18" height="18" fill="white" transform="translate(0.5)"/>
</clipPath>
</defs>
</svg>
