<svg width="54" height="55" viewBox="0 0 54 55" fill="none" xmlns="http://www.w3.org/2000/svg">
<path fill-rule="evenodd" clip-rule="evenodd" d="M18.7207 12.9563L24.8906 12.9458L25.323 13.2411C25.5656 13.3993 25.8398 13.7052 25.9559 13.9478C26.0613 14.1798 26.1562 14.5067 26.1562 14.686C26.1562 14.8653 26.0824 15.2661 25.9875 15.5825C25.8926 15.8989 25.7344 16.2786 25.65 16.4263C25.5551 16.5739 25.3652 16.8271 25.2176 16.9958C25.0699 17.154 24.7746 17.3966 24.5742 17.5337C24.3738 17.6603 23.9414 17.8501 23.625 17.945C23.182 18.0716 22.5914 18.1138 19.248 18.1138L15.082 20.5396C12.7934 21.8685 10.9055 23.0075 10.8844 23.0603C10.8738 23.1341 11.127 23.1763 11.5699 23.1763C12.1711 23.1763 12.3293 23.2185 12.5297 23.4188C12.6562 23.5454 12.7723 23.7669 12.7723 23.9146C12.7723 24.0622 12.6773 24.2942 12.3609 24.7056L1.58203 24.7583L1.57148 27.5532L2.23594 28.0278C2.60508 28.281 3.13242 28.7134 3.41719 28.9771C3.69141 29.2407 4.06055 29.7153 4.21875 30.0317C4.37695 30.3481 4.53516 30.7595 4.57734 30.9282C4.60898 31.097 4.71445 32.1728 4.79883 33.3013C4.89375 34.6513 5.02031 35.5899 5.15742 36.0435C5.27344 36.4231 5.5582 37.0138 5.77969 37.3618C6.01172 37.7099 6.40195 38.195 6.65508 38.4376C6.9082 38.6696 7.36172 39.0177 7.64648 39.197C7.9418 39.3868 8.51133 39.6399 8.91211 39.7665C9.6082 39.988 9.84023 39.9985 12.9199 39.9985C15.757 39.9985 16.2844 39.9669 16.9277 39.7981C17.3285 39.6927 18.0668 39.4185 18.5625 39.1864C19.0582 38.9649 19.7965 38.522 20.1973 38.2056C20.598 37.8997 21.1254 37.4145 21.368 37.1298C21.6 36.8556 21.948 36.3915 22.1484 36.0962C22.3488 35.8114 22.6336 35.2841 22.7918 34.936C22.95 34.588 23.1609 33.9974 23.2559 33.6177C23.3508 33.238 23.4773 32.2888 23.5301 31.5083C23.6039 30.3798 23.6777 29.979 23.8676 29.5571C24.0047 29.2724 24.3211 28.8188 24.5742 28.5552C24.8379 28.3021 25.3125 27.9751 25.6289 27.8274C26.0824 27.606 26.3777 27.5532 27 27.5532C27.6223 27.5532 27.9176 27.606 28.3711 27.8274C28.6875 27.9751 29.1621 28.3021 29.4258 28.5552C29.6789 28.8188 29.9953 29.2724 30.1324 29.5571C30.3223 29.979 30.3961 30.3798 30.4699 31.5083C30.5227 32.2888 30.6387 33.238 30.7441 33.6177C30.8391 33.9974 31.0922 34.6829 31.3242 35.147C31.5457 35.611 31.9992 36.3493 32.3473 36.7817C32.6953 37.2142 33.3281 37.847 33.7605 38.1739C34.193 38.5009 34.9418 38.9649 35.4375 39.1864C35.9332 39.4185 36.6609 39.6927 37.0723 39.7981C37.7156 39.9669 38.243 39.9985 41.0801 39.9985C44.1598 39.9985 44.3918 39.988 45.0879 39.7665C45.4992 39.6399 46.1109 39.3552 46.459 39.1231C46.807 38.9017 47.3133 38.4798 47.577 38.195C47.8406 37.9103 48.1781 37.4673 48.3258 37.2036C48.484 36.9399 48.7055 36.4337 48.8215 36.0751C48.9797 35.6005 49.0852 34.8095 49.2012 33.2802C49.2855 32.0989 49.4332 30.9177 49.5176 30.6435C49.602 30.3587 49.7918 29.9579 49.9289 29.747C50.066 29.5255 50.3824 29.1563 50.6355 28.9243C50.8887 28.6923 51.3949 28.281 52.4285 27.5532L52.418 24.7583H43.6324C37.9688 24.7583 34.6887 24.8005 34.3828 24.8743C34.1191 24.9376 33.4758 25.1802 32.959 25.4122C32.1469 25.7813 31.8832 25.8552 31.1133 25.8974C30.4277 25.929 29.9637 25.8868 29.1621 25.7075C28.4344 25.5388 27.7699 25.4649 27 25.4649C26.2301 25.4649 25.5656 25.5388 24.8379 25.7075C24.0363 25.8868 23.5723 25.929 22.8867 25.8974C22.1168 25.8552 21.8531 25.7813 21.041 25.4122C20.5242 25.1802 19.8809 24.9376 19.6172 24.8743C19.3535 24.811 18.3516 24.7583 17.3707 24.7583C16.0207 24.7583 15.5355 24.7267 15.293 24.6001C15.0715 24.4841 14.9555 24.3364 14.9133 24.1044C14.8711 23.8513 14.9133 23.6825 15.0609 23.4927C15.2613 23.229 15.2719 23.229 17.2863 23.2079C18.784 23.1868 19.4801 23.2185 19.9863 23.3345C20.366 23.4188 21.0832 23.6825 21.5895 23.9146C22.3066 24.231 22.6547 24.3364 23.0977 24.3364C23.4141 24.3364 24.1523 24.231 24.7324 24.1149C25.4707 23.9462 26.1562 23.8829 27 23.8829C27.8438 23.8829 28.5293 23.9462 29.2676 24.1149C29.8477 24.231 30.5859 24.3364 30.9023 24.3364C31.3453 24.3364 31.6934 24.231 32.4 23.9146C32.9168 23.6825 33.6234 23.4188 33.982 23.3345C34.5094 23.2079 35.5113 23.1763 38.8863 23.1763C41.6496 23.1763 43.1367 23.1341 43.1367 23.0708C43.1367 23.0075 43.0102 22.9021 42.852 22.8177C42.6832 22.7333 42.4617 22.5646 42.3457 22.438C42.2191 22.3009 42.1348 22.0688 42.1453 21.8685C42.1559 21.6575 42.2508 21.4782 42.409 21.3517C42.5461 21.2462 42.7781 21.1618 42.9258 21.1724C43.0734 21.1724 43.9594 21.6259 46.6172 23.1763H48.3047C49.4965 23.1763 49.9816 23.1446 49.9711 23.0603C49.95 22.997 47.0918 21.2567 43.6113 19.2001C40.1309 17.1435 36.9984 15.3188 36.6504 15.1396C36.3023 14.9603 35.7117 14.7493 35.332 14.6755C34.868 14.5806 33.8344 14.5278 32.0836 14.5278C30.143 14.5278 29.5207 14.5595 29.468 14.6649C29.4363 14.7282 29.4574 14.9603 29.5207 15.1606C29.5734 15.361 29.7211 15.6563 29.8477 15.8251C29.9637 15.9833 30.2168 16.1942 30.3961 16.2892C30.6914 16.4474 31.1238 16.4896 35.2793 16.5845L37.7367 18.0083C39.5297 19.0419 40.2363 19.5165 40.3523 19.7274C40.4578 19.9384 40.4684 20.086 40.3945 20.3075C40.3312 20.4763 40.1625 20.645 39.9516 20.7399C39.6668 20.856 39.5508 20.856 39.3398 20.7505C39.1922 20.6872 38.127 20.0755 34.8574 18.1665L32.6426 18.1138C30.4805 18.061 30.4172 18.0505 29.8477 17.7657C29.5312 17.597 29.0883 17.2911 28.8773 17.0802C28.6559 16.8692 28.3605 16.4368 28.2129 16.1415C28.0652 15.8356 27.9176 15.3294 27.8754 15.0341C27.8227 14.5911 27.8543 14.3802 28.0336 14.0005C28.1707 13.7052 28.4133 13.4204 29.1094 12.9458H32.1469C35.1633 12.9458 35.1738 12.9458 36.123 13.2411C36.9457 13.4942 38.1375 14.1587 45.1406 18.2614C50.4562 21.3728 53.3461 23.1341 54 23.8091V25.9185C54 27.3845 53.9578 28.1122 53.8629 28.3021C53.7996 28.4497 53.2828 28.9032 52.7344 29.2935C52.1859 29.6837 51.627 30.1161 51.5004 30.2532C51.3738 30.3903 51.1945 30.6751 51.1102 30.8755C51.0258 31.097 50.8887 32.1095 50.7832 33.354C50.6883 34.5142 50.5723 35.6743 50.509 35.938C50.4562 36.2017 50.3086 36.6763 50.182 36.9927C50.0555 37.3091 49.834 37.7626 49.6969 37.9946C49.5492 38.2267 49.2539 38.6591 49.043 38.9438C48.8215 39.2392 48.368 39.6927 48.0199 39.9563C47.6824 40.2306 47.0812 40.6208 46.6699 40.8212C46.2586 41.0321 45.5414 41.2958 45.0563 41.4118C44.2863 41.6122 43.875 41.6333 41.1012 41.6333C38.032 41.6333 38.0109 41.6333 36.7559 41.3169C35.9648 41.1165 35.1422 40.8212 34.541 40.5259C34.0242 40.2728 33.2016 39.7454 32.7164 39.3657C32.2418 38.986 31.5879 38.3638 31.2609 37.9735C30.9445 37.5728 30.4805 36.9294 30.2379 36.5181C30.0059 36.1067 29.6684 35.4001 29.4996 34.936C29.3309 34.472 29.1305 33.7442 29.0461 33.3329C28.9617 32.911 28.8984 32.2044 28.8984 31.772C28.8984 31.3396 28.8457 30.7806 28.793 30.538C28.7297 30.2849 28.5398 29.9263 28.3395 29.7259C28.1602 29.5255 27.8438 29.304 27.6539 29.2302C27.4746 29.1458 27.1688 29.0825 27 29.0825C26.8207 29.0825 26.5148 29.1563 26.3145 29.2407C26.1141 29.3251 25.8187 29.5255 25.6711 29.6942C25.5234 29.8524 25.3441 30.095 25.2914 30.2427C25.2281 30.3903 25.1437 31.1286 25.091 31.8774C25.0383 32.8372 24.9223 33.5333 24.7324 34.1978C24.5848 34.7146 24.2578 35.5478 24.0152 36.0329C23.7727 36.5181 23.2664 37.2985 22.8867 37.7731C22.507 38.2478 21.8004 38.9544 21.3047 39.3446C20.809 39.7349 19.9758 40.2728 19.459 40.5259C18.8684 40.8212 18.0352 41.1165 17.2441 41.3169C15.9785 41.6333 15.968 41.6333 12.8355 41.6333C9.97734 41.6333 9.6293 41.6122 8.88047 41.4118C8.4375 41.2853 7.73086 41.0216 7.33008 40.8212C6.91875 40.6208 6.31758 40.2306 5.96953 39.9563C5.63203 39.6927 5.12578 39.1653 4.84102 38.7856C4.55625 38.406 4.18711 37.8048 4.00781 37.4462C3.83906 37.077 3.61758 36.4864 3.5332 36.1278C3.44883 35.7587 3.30117 34.5142 3.2168 33.354C3.11133 32.1095 2.97422 31.097 2.88984 30.8755C2.80547 30.6751 2.62617 30.3903 2.49961 30.2532C2.37305 30.1161 1.81406 29.6837 1.26562 29.2935C0.717188 28.9032 0.200391 28.4497 0.126563 28.3021C0.0421875 28.1122 0 27.4056 0 26.0239C0 24.463 0.0316406 23.9462 0.158203 23.6825C0.242578 23.4927 0.474609 23.2396 0.664453 23.113C0.84375 22.997 4.53516 20.8138 8.85938 18.2614C15.4723 14.3696 16.875 13.5786 17.7188 13.2938L18.7207 12.9563ZM17.5078 15.0552C17.2441 15.1923 15.3246 16.2997 13.2363 17.5337C11.148 18.7677 8.22656 20.4868 6.75 21.3622C5.27344 22.2376 4.05 22.997 4.02891 23.0603C4.01836 23.1446 4.53516 23.1763 5.69531 23.1763H7.38281L18.7207 16.5845C22.8762 16.4896 23.3086 16.4474 23.5934 16.2997C23.7832 16.1942 24.0363 15.9833 24.1523 15.8251C24.2789 15.6669 24.4266 15.361 24.4793 15.1606C24.5426 14.9603 24.5637 14.7388 24.532 14.6649C24.4793 14.5595 23.8465 14.5278 21.8531 14.5384C20.1551 14.5384 19.0266 14.5911 18.6152 14.686C18.2672 14.7599 17.7715 14.9286 17.5078 15.0552ZM19.8809 25.8657L20.5664 26.2032C20.9988 26.4142 21.4207 26.72 21.7055 27.047C21.9586 27.3212 22.2539 27.7431 22.3594 27.9751C22.4754 28.2071 22.6125 28.6606 22.6758 28.9771C22.7602 29.42 22.7391 29.8946 22.623 30.9282C22.5281 31.6876 22.4016 32.563 22.3488 32.8794C22.2855 33.1958 22.1168 33.7653 21.9691 34.145C21.8215 34.5247 21.4945 35.1364 21.252 35.5161C21.0094 35.8958 20.5453 36.4653 20.2078 36.7817C19.8809 37.0981 19.4062 37.4989 19.1637 37.6677C18.9211 37.8364 18.4359 38.1001 18.0879 38.2583C17.7398 38.4271 17.1703 38.638 16.8223 38.7329C16.3266 38.8806 15.5988 38.9333 13.3945 38.9755C11.4645 39.0071 10.3676 38.986 9.86133 38.9017C9.45 38.8278 8.88047 38.6591 8.5957 38.522C8.30039 38.3849 7.81523 38.0474 7.49883 37.7626C7.19297 37.4884 6.81328 37.0454 6.66563 36.7817C6.50742 36.5181 6.30703 36.0856 6.20156 35.8114C6.06445 35.4528 5.94844 34.5142 5.80078 32.5946C5.68477 31.097 5.58984 29.5149 5.58984 29.0825C5.58984 28.4813 5.65313 28.1649 5.84297 27.7642C5.96953 27.4794 6.22266 27.0786 6.39141 26.8782C6.56016 26.6884 6.86602 26.4247 7.06641 26.3087C7.2668 26.1821 7.6043 26.0239 7.80469 25.9501C8.08945 25.8552 9.55547 25.8235 19.8809 25.8657ZM7.43555 28.1228C7.21406 28.4392 7.17188 28.629 7.17188 29.188C7.17188 29.5677 7.2668 31.0337 7.37227 32.4575C7.51992 34.4614 7.61484 35.147 7.77305 35.5161C7.88906 35.7798 8.14219 36.17 8.34258 36.4021C8.54297 36.6235 8.96484 36.9294 9.28125 37.0876L9.86133 37.3618C15.4934 37.3618 15.9469 37.3407 16.5059 37.172C16.8539 37.056 17.4129 36.8345 17.7398 36.6657C18.0773 36.497 18.6469 36.0856 19.0055 35.7376C19.3746 35.4001 19.8281 34.8622 20.0074 34.5563C20.1973 34.2399 20.4504 33.7126 20.5664 33.3856C20.6824 33.0481 20.8723 32.0778 20.9883 31.2235C21.1043 30.327 21.157 29.4833 21.1254 29.2407C21.0832 29.0087 20.9039 28.6079 20.7246 28.3548C20.5348 28.07 20.2184 27.7853 19.9336 27.6376L19.459 27.395C9.00703 27.4056 8.34258 27.4161 8.03672 27.5743C7.84687 27.6692 7.57266 27.9118 7.43555 28.1228ZM41.2383 25.813L41.4492 26.1083C41.5758 26.2665 41.6707 26.4563 41.6602 26.5302C41.6602 26.604 41.6074 26.7622 41.5547 26.8993C41.4914 27.0259 41.3332 27.1946 41.1855 27.2685C40.9957 27.3634 40.0781 27.395 37.7367 27.395C34.5938 27.395 34.5305 27.395 34.0664 27.6376C33.7816 27.7853 33.4652 28.07 33.2754 28.3548C33.0961 28.6079 32.9168 29.0087 32.8746 29.2407C32.843 29.4833 32.8957 30.327 33.0117 31.2235C33.1277 32.0778 33.3176 33.0481 33.4336 33.3856C33.5496 33.7126 33.8027 34.2399 33.9926 34.5563C34.1719 34.8622 34.6254 35.4001 34.9945 35.7376C35.3531 36.0856 35.9227 36.497 36.2602 36.6657C36.5871 36.8345 37.1461 37.056 37.4941 37.172C38.0531 37.3407 38.5066 37.3618 41.1328 37.3618C43.9488 37.3618 44.1703 37.3513 44.6133 37.1403C44.877 37.0243 45.2672 36.7606 45.4887 36.5603C45.7207 36.3704 46.016 35.9696 46.1531 35.6743C46.3852 35.2103 46.4379 34.8411 46.6172 32.5103C46.7332 31.0653 46.8281 29.5677 46.8281 29.188C46.8281 28.6396 46.7754 28.4286 46.5855 28.1333C46.4484 27.9329 46.1637 27.6798 45.9527 27.5849C45.7102 27.4688 45.3199 27.395 44.9297 27.395C44.3918 27.395 44.2547 27.3528 44.0332 27.1313C43.8855 26.9837 43.7695 26.7411 43.7695 26.5829C43.7695 26.4142 43.8645 26.1821 44.0016 26.045C44.223 25.813 44.3074 25.8024 45.1934 25.8446C45.9 25.8763 46.2586 25.9396 46.5961 26.1083C46.8387 26.2349 47.2078 26.4985 47.4188 26.6884C47.6297 26.8782 47.9355 27.3106 48.1043 27.6587C48.368 28.186 48.4102 28.4181 48.4102 29.0825C48.4102 29.5149 48.3152 31.0864 48.1992 32.563C48.0832 34.0396 47.925 35.4423 47.8512 35.6743C47.7668 35.9063 47.598 36.2966 47.4715 36.5497C47.3555 36.7923 47.0496 37.2142 46.807 37.4778C46.5539 37.7415 46.1426 38.0896 45.8789 38.2583C45.6152 38.4165 45.1406 38.638 44.8242 38.7435C44.3074 38.9228 43.8961 38.9438 41.0801 38.9438C38.3379 38.9438 37.8211 38.9122 37.2305 38.754C36.8508 38.6485 36.218 38.406 35.8066 38.2056C35.3953 38.0157 34.8996 37.7415 34.6992 37.5833C34.4988 37.4251 34.0559 37.0349 33.7184 36.6974C33.3703 36.3704 32.8957 35.7692 32.6426 35.3579C32.3895 34.9571 32.0625 34.261 31.9148 33.8286C31.7566 33.3646 31.5668 32.331 31.4297 31.2974C31.2609 29.9052 31.2293 29.4411 31.3242 28.9771C31.3875 28.6606 31.5246 28.2071 31.6406 27.9751C31.7461 27.7431 32.0203 27.3423 32.2418 27.0892C32.4633 26.836 32.8535 26.5091 33.1172 26.3614C33.3809 26.2138 33.7816 26.0239 34.0137 25.9606C34.309 25.8657 35.4691 25.8235 41.2383 25.813Z" fill="url(#paint0_linear_1937_1929)"/>
<defs>
<linearGradient id="paint0_linear_1937_1929" x1="-5.61236" y1="2.55896" x2="64.3394" y2="2.85124" gradientUnits="userSpaceOnUse">
<stop stop-color="#BF8327"/>
<stop offset="0.485" stop-color="#F4DC60"/>
<stop offset="1" stop-color="#BF8327"/>
</linearGradient>
</defs>
</svg>
