<svg width="24" height="18" viewBox="0 0 24 18" fill="none" xmlns="http://www.w3.org/2000/svg">
<path d="M22.8333 7.91671H3.78176L9.51585 2.18263C9.61932 2.0827 9.70185 1.96316 9.75863 1.83099C9.8154 1.69881 9.84529 1.55666 9.84654 1.41282C9.84779 1.26897 9.82038 1.12632 9.7659 0.99318C9.71143 0.860043 9.63099 0.739086 9.52928 0.637369C9.42756 0.535652 9.3066 0.455211 9.17346 0.40074C9.04033 0.346269 8.89767 0.318859 8.75383 0.320109C8.60999 0.321359 8.46783 0.351244 8.33566 0.408021C8.20349 0.464797 8.08395 0.547328 7.98401 0.650797L0.400681 8.23413C0.197588 8.43729 0.0834961 8.71279 0.0834961 9.00005C0.0834961 9.28731 0.197588 9.56281 0.400681 9.76596L7.98401 17.3493C8.18833 17.5466 8.46199 17.6558 8.74603 17.6534C9.03008 17.6509 9.30179 17.537 9.50265 17.3361C9.70351 17.1352 9.81744 16.8635 9.81991 16.5795C9.82238 16.2954 9.71319 16.0218 9.51585 15.8175L3.78176 10.0834H22.8333C23.1206 10.0834 23.3961 9.96924 23.5993 9.76608C23.8025 9.56291 23.9166 9.28736 23.9166 9.00005C23.9166 8.71273 23.8025 8.43718 23.5993 8.23401C23.3961 8.03085 23.1206 7.91671 22.8333 7.91671Z" fill="black"/>
</svg>
