<svg width="29" height="25" viewBox="0 0 29 25" fill="none" xmlns="http://www.w3.org/2000/svg">
<g clip-path="url(#clip0_58_380)">
<path d="M28.6677 12.1872L28.6667 12.1863L22.7476 7.27023C22.3041 6.90195 21.5869 6.90332 21.1455 7.27344C20.7041 7.64352 20.7058 8.24209 21.1493 8.61042L25.1234 11.911H1.13281C0.50716 11.911 0 12.3342 0 12.8564C0 13.3785 0.50716 13.8018 1.13281 13.8018H25.1233L21.1493 17.1023C20.7059 17.4707 20.7042 18.0692 21.1455 18.4393C21.5869 18.8095 22.3042 18.8108 22.7476 18.4425L28.6668 13.5265L28.6678 13.5256C29.1115 13.156 29.1101 12.5555 28.6677 12.1872Z" fill="black"/>
</g>
<defs>
<clipPath id="clip0_58_380">
<rect width="29" height="24.2021" fill="white" transform="translate(0 0.75531)"/>
</clipPath>
</defs>
</svg>
