<svg width="60" height="26" viewBox="0 0 60 26" fill="none" xmlns="http://www.w3.org/2000/svg">
<g clip-path="url(#clip0_58_400)">
<path d="M3.80561 5.65817L6.11133 0.223877H7.59391L3.80561 8.83988L0 0.223877H1.49911L3.80561 5.65817Z" fill="black"/>
<path d="M12.2085 4.28281C12.2085 1.90947 14.0043 0.00109863 16.277 0.00109863C18.5504 0.00109863 20.3462 1.91029 20.3462 4.28281C20.3462 6.65616 18.5339 8.53002 16.277 8.53002C14.0209 8.53084 12.2085 6.65616 12.2085 4.28281ZM13.5266 4.26556C13.5266 5.9168 14.6472 7.2575 16.2778 7.2575C17.9091 7.2575 19.0288 5.91597 19.0288 4.26556C19.0288 2.63158 17.9091 1.2728 16.2778 1.2728C14.6472 1.27361 13.5266 2.6324 13.5266 4.26556Z" fill="black"/>
<path d="M33.1812 7.91115C33.1812 9.20091 33.1812 10.319 32.3904 11.3845C31.6656 12.3473 30.545 12.8115 29.3922 12.8115C27.2343 12.8115 25.6361 11.3845 25.5865 9.09658H26.9047C26.9212 10.5926 27.9591 11.5389 29.3757 11.5389C31.4185 11.5389 31.8631 9.97397 31.8631 8.15103V7.18822H31.8301C31.2044 8.03109 30.1831 8.52975 29.1451 8.52975C26.8882 8.52975 25.4552 6.55237 25.4552 4.29897C25.4552 2.02913 26.9047 0 29.1946 0C30.2656 0 31.2044 0.498656 31.8301 1.37603H31.8631V0.224276H33.1812V7.91115ZM26.8063 4.17984C26.8063 5.76207 27.6955 7.25805 29.3434 7.25805C31.04 7.25805 31.9292 5.83108 31.9292 4.1971C31.9292 2.58037 30.9574 1.27334 29.3269 1.27334C27.7947 1.27334 26.8063 2.6658 26.8063 4.17984Z" fill="black"/>
<path d="M41.0082 4.72904C41.0082 6.08782 41.1569 7.25683 42.7544 7.25683C44.3526 7.25683 44.5006 6.08699 44.5006 4.72904V0.223877H45.8187V4.8843C45.8187 7.0342 45.0443 8.53016 42.7544 8.53016C40.4644 8.53016 39.6901 7.0342 39.6901 4.8843V0.223877H41.0082V4.72904Z" fill="black"/>
<path d="M52.9193 4.55774C52.9358 6.05371 53.9572 7.25805 55.4564 7.25805C56.5769 7.25805 57.3016 6.55319 57.8124 5.58956L58.9322 6.25991C58.1909 7.70413 56.9389 8.52975 55.3572 8.52975C53.0507 8.52975 51.568 6.68956 51.568 4.36798C51.568 1.97738 52.9027 0 55.3241 0C57.8116 0 59.1297 2.14989 58.9975 4.55693L52.9193 4.55774ZM57.6149 3.38873C57.4339 2.2189 56.4942 1.27334 55.3415 1.27334C54.2051 1.27334 53.1506 2.2189 52.9862 3.38873H57.6149Z" fill="black"/>
<path d="M9.49055 21.8961C9.49842 22.6372 9.99262 23.2335 10.7174 23.2335C11.2588 23.2335 11.6098 22.8844 11.8568 22.4071L12.3983 22.7389C12.0394 23.4545 11.4343 23.8628 10.6694 23.8628C9.5543 23.8628 8.83661 22.9518 8.83661 21.8016C8.83661 20.6178 9.4819 19.6385 10.6529 19.6385C11.856 19.6385 12.4935 20.7033 12.4298 21.8954L9.49055 21.8961ZM11.7616 21.317C11.6743 20.7378 11.2202 20.2695 10.6623 20.2695C10.1122 20.2695 9.6023 20.7378 9.52282 21.317H11.7616Z" fill="black"/>
<path d="M14.6772 19.7501H15.4185L16.7405 22.6197L17.9516 19.7493H18.6765L15.9119 26.0001H15.1872L16.3983 23.3771L14.6772 19.7501Z" fill="black"/>
<path d="M21.5764 21.8961C21.5842 22.6372 22.0785 23.2335 22.8032 23.2335C23.3446 23.2335 23.6956 22.8844 23.9427 22.4071L24.4841 22.7389C24.1253 23.4545 23.5201 23.8628 22.7552 23.8628C21.6401 23.8628 20.9224 22.9518 20.9224 21.8016C20.9224 20.6178 21.5677 19.6385 22.7387 19.6385C23.9419 19.6385 24.5793 20.7033 24.5156 21.8954L21.5764 21.8961ZM23.8467 21.317C23.7594 20.7378 23.3053 20.2695 22.7473 20.2695C22.1972 20.2695 21.6873 20.7378 21.6079 21.317H23.8467Z" fill="black"/>
<path d="M28.6352 22.4572L29.7983 19.4423L30.9693 22.4572L32.0844 19.7487H32.8091L30.9528 24.0321L29.7975 21.0517L28.6423 24.0321L26.8017 19.7487H27.5264L28.6352 22.4572Z" fill="black"/>
<path d="M35.7493 21.8961C35.7573 22.6372 36.2514 23.2335 36.9762 23.2335C37.5176 23.2335 37.8686 22.8844 38.1157 22.4071L38.6571 22.7389C38.2982 23.4545 37.6931 23.8628 36.9282 23.8628C35.8131 23.8628 35.0954 22.9518 35.0954 21.8016C35.0954 20.6178 35.7407 19.6385 36.9116 19.6385C38.1149 19.6385 38.7523 20.7033 38.6885 21.8954L35.7493 21.8961ZM38.0197 21.317C37.9323 20.7378 37.4782 20.2695 36.9203 20.2695C36.3703 20.2695 35.8603 20.7378 35.7808 21.317H38.0197Z" fill="black"/>
<path d="M44.9754 23.7519H44.3379V23.1982H44.3222C43.9957 23.641 43.5573 23.8628 43.0316 23.8628C41.9322 23.8628 41.239 22.8663 41.239 21.7588C41.239 20.6178 41.9165 19.6385 43.0395 19.6385C43.5494 19.6385 44.0114 19.8941 44.3222 20.3196H44.3379V19.7487H44.9754V23.7519ZM41.8922 21.7079C41.8922 22.4917 42.3226 23.2327 43.119 23.2327C43.9397 23.2327 44.3694 22.5262 44.3694 21.717C44.3694 20.9161 43.8997 20.2695 43.1103 20.2695C42.3698 20.2687 41.8922 20.9588 41.8922 21.7079Z" fill="black"/>
<path d="M48.7517 20.1833H48.7674C48.9902 19.8678 49.1814 19.6385 49.5961 19.6385C49.811 19.6385 49.9864 19.715 50.1698 19.8259L49.8668 20.4477C49.7393 20.3541 49.652 20.2687 49.4844 20.2687C48.7832 20.2687 48.7517 21.2307 48.7517 21.7507V23.7519H48.1143V19.7495H48.7517V20.1833Z" fill="black"/>
</g>
<defs>
<clipPath id="clip0_58_400">
<rect width="60" height="26" fill="white"/>
</clipPath>
</defs>
</svg>
