<svg width="18" height="18" viewBox="0 0 18 18" fill="none" xmlns="http://www.w3.org/2000/svg">
<g clip-path="url(#clip0_1913_4033)">
<path d="M13.5703 8.08594C13.9586 8.08594 14.2734 7.77114 14.2734 7.38281C14.2734 6.99449 13.9586 6.67969 13.5703 6.67969C13.182 6.67969 12.8672 6.99449 12.8672 7.38281C12.8672 7.77114 13.182 8.08594 13.5703 8.08594Z" fill="#BF8327"/>
<path d="M15.1875 1.40625H14.2734V0.703125C14.2734 0.314789 13.9586 0 13.5703 0C13.182 0 12.8672 0.314789 12.8672 0.703125V1.40625H9.66797V0.703125C9.66797 0.314789 9.35318 0 8.96484 0C8.57651 0 8.26172 0.314789 8.26172 0.703125V1.40625H5.09766V0.703125C5.09766 0.314789 4.78287 0 4.39453 0C4.0062 0 3.69141 0.314789 3.69141 0.703125V1.40625H2.8125C1.26169 1.40625 0 2.66794 0 4.21875V15.1875C0 16.7383 1.26169 18 2.8125 18H8.19141C8.57974 18 8.89453 17.6852 8.89453 17.2969C8.89453 16.9085 8.57974 16.5938 8.19141 16.5938H2.8125C2.03709 16.5938 1.40625 15.9629 1.40625 15.1875V4.21875C1.40625 3.44334 2.03709 2.8125 2.8125 2.8125H3.69141V3.51562C3.69141 3.90396 4.0062 4.21875 4.39453 4.21875C4.78287 4.21875 5.09766 3.90396 5.09766 3.51562V2.8125H8.26172V3.51562C8.26172 3.90396 8.57651 4.21875 8.96484 4.21875C9.35318 4.21875 9.66797 3.90396 9.66797 3.51562V2.8125H12.8672V3.51562C12.8672 3.90396 13.182 4.21875 13.5703 4.21875C13.9586 4.21875 14.2734 3.90396 14.2734 3.51562V2.8125H15.1875C15.9629 2.8125 16.5938 3.44334 16.5938 4.21875V8.22656C16.5938 8.6149 16.9085 8.92969 17.2969 8.92969C17.6852 8.92969 18 8.6149 18 8.22656V4.21875C18 2.66794 16.7383 1.40625 15.1875 1.40625Z" fill="#BF8327"/>
<path d="M13.7463 9.49219C11.4007 9.49219 9.49243 11.4005 9.49243 13.7461C9.49243 16.0917 11.4007 18 13.7463 18C16.092 18 18.0002 16.0917 18.0002 13.7461C18.0002 11.4005 16.092 9.49219 13.7463 9.49219ZM13.7463 16.5938C12.1762 16.5938 10.8987 15.3163 10.8987 13.7461C10.8987 12.1759 12.1762 10.8984 13.7463 10.8984C15.3165 10.8984 16.594 12.1759 16.594 13.7461C16.594 15.3163 15.3165 16.5938 13.7463 16.5938Z" fill="#BF8327"/>
<path d="M14.7659 13.043H14.4495V12.3047C14.4495 11.9164 14.1347 11.6016 13.7463 11.6016C13.358 11.6016 13.0432 11.9164 13.0432 12.3047V13.7461C13.0432 14.1344 13.358 14.4492 13.7463 14.4492H14.7659C15.1542 14.4492 15.469 14.1344 15.469 13.7461C15.469 13.3578 15.1542 13.043 14.7659 13.043Z" fill="#BF8327"/>
<path d="M10.5117 8.08594C10.9 8.08594 11.2148 7.77114 11.2148 7.38281C11.2148 6.99449 10.9 6.67969 10.5117 6.67969C10.1234 6.67969 9.80859 6.99449 9.80859 7.38281C9.80859 7.77114 10.1234 8.08594 10.5117 8.08594Z" fill="#BF8327"/>
<path d="M7.45337 11.1445C7.84169 11.1445 8.15649 10.8297 8.15649 10.4414C8.15649 10.0531 7.84169 9.73828 7.45337 9.73828C7.06504 9.73828 6.75024 10.0531 6.75024 10.4414C6.75024 10.8297 7.06504 11.1445 7.45337 11.1445Z" fill="#BF8327"/>
<path d="M4.39478 8.08594C4.7831 8.08594 5.0979 7.77114 5.0979 7.38281C5.0979 6.99449 4.7831 6.67969 4.39478 6.67969C4.00645 6.67969 3.69165 6.99449 3.69165 7.38281C3.69165 7.77114 4.00645 8.08594 4.39478 8.08594Z" fill="#BF8327"/>
<path d="M4.39478 11.1445C4.7831 11.1445 5.0979 10.8297 5.0979 10.4414C5.0979 10.0531 4.7831 9.73828 4.39478 9.73828C4.00645 9.73828 3.69165 10.0531 3.69165 10.4414C3.69165 10.8297 4.00645 11.1445 4.39478 11.1445Z" fill="#BF8327"/>
<path d="M4.39478 14.2031C4.7831 14.2031 5.0979 13.8883 5.0979 13.5C5.0979 13.1117 4.7831 12.7969 4.39478 12.7969C4.00645 12.7969 3.69165 13.1117 3.69165 13.5C3.69165 13.8883 4.00645 14.2031 4.39478 14.2031Z" fill="#BF8327"/>
<path d="M7.45337 14.2031C7.84169 14.2031 8.15649 13.8883 8.15649 13.5C8.15649 13.1117 7.84169 12.7969 7.45337 12.7969C7.06504 12.7969 6.75024 13.1117 6.75024 13.5C6.75024 13.8883 7.06504 14.2031 7.45337 14.2031Z" fill="#BF8327"/>
<path d="M7.45337 8.08594C7.84169 8.08594 8.15649 7.77114 8.15649 7.38281C8.15649 6.99449 7.84169 6.67969 7.45337 6.67969C7.06504 6.67969 6.75024 6.99449 6.75024 7.38281C6.75024 7.77114 7.06504 8.08594 7.45337 8.08594Z" fill="#BF8327"/>
</g>
<defs>
<clipPath id="clip0_1913_4033">
<rect width="18" height="18" fill="white"/>
</clipPath>
</defs>
</svg>
