<svg width="20" height="20" viewBox="0 0 20 20" fill="none" xmlns="http://www.w3.org/2000/svg">
<path d="M4.62671 0.820312C5.15723 0.820312 5.65221 1.04135 6.06519 1.44629H6.06421C6.32044 1.68387 6.57958 1.94642 6.82495 2.19922L7.20386 2.58496L8.31519 3.69629L8.46851 3.86133C8.80442 4.25388 8.98702 4.70211 8.98706 5.16602C8.98706 5.63056 8.80108 6.07873 8.46753 6.4707L8.31519 6.63574C8.19944 6.75149 8.08501 6.86614 7.97437 6.98047L7.97339 6.98145C7.6855 7.27611 7.3846 7.57844 7.06616 7.87207C7.30498 8.39231 7.63925 8.91519 8.12964 9.53613L8.52417 10.0029C9.44957 11.0623 10.415 11.9061 11.4626 12.5713L11.6462 12.6777C11.712 12.7131 11.7823 12.7487 11.8572 12.7861L12.1121 12.9199L13.3542 11.6787L13.5154 11.5303C13.8996 11.2047 14.3428 11.0254 14.8093 11.0254C15.3417 11.0255 15.8404 11.2592 16.2488 11.6826L18.49 13.9238L18.6414 14.0879C18.9721 14.4797 19.1442 14.9251 19.1453 15.3809C19.1462 15.8362 18.9765 16.2863 18.6501 16.6875L18.5007 16.8564C18.3267 17.038 18.1456 17.2152 17.9695 17.3838C17.71 17.6358 17.472 17.8635 17.2634 18.1152L17.2625 18.1143C17.2585 18.1195 17.2562 18.1249 17.2537 18.1279C17.2493 18.133 17.2441 18.1364 17.241 18.1396L17.2419 18.1406C16.5988 18.8389 15.8046 19.1797 14.8279 19.1797C14.7375 19.1797 14.651 19.1756 14.5662 19.1719H14.5623C13.1432 19.08 11.876 18.5446 10.9431 18.1025L10.9412 18.1016C8.63291 16.9827 6.5928 15.4305 4.87085 13.4766L4.53003 13.0801C3.05764 11.311 2.06121 9.64862 1.40015 7.85449L1.25073 7.42773C0.930003 6.45063 0.806507 5.60342 0.87085 4.79395V4.79297L0.906006 4.51465C1.01424 3.87633 1.30743 3.31645 1.7771 2.84668L3.17554 1.44824L3.33862 1.30469C3.72692 0.989949 4.16553 0.820323 4.62671 0.820312ZM4.62671 2.09277C4.45341 2.09279 4.25719 2.17411 4.06519 2.35938L2.67944 3.74512C2.35156 4.07307 2.17948 4.44777 2.13843 4.90234C2.08895 5.52738 2.18777 6.21527 2.46655 7.05371L2.59741 7.42285L2.59839 7.42383L2.71655 7.73145C3.32631 9.26479 4.21913 10.7172 5.51343 12.2754H5.5144C7.18796 14.2778 9.20406 15.8544 11.5007 16.9658H11.4998C12.3501 17.3705 13.4618 17.8351 14.6492 17.9111H14.6482C14.712 17.9149 14.7744 17.918 14.8318 17.918C15.4416 17.9179 15.9019 17.7222 16.2937 17.3027C16.5469 16.9997 16.8275 16.7322 17.0867 16.4805V16.4795L17.3396 16.2344C17.4208 16.1536 17.4994 16.0732 17.5759 15.9912L17.5779 15.9893L17.7117 15.8301C17.8231 15.675 17.8708 15.5302 17.8718 15.3984C17.8728 15.2678 17.8278 15.1286 17.7205 14.9824L17.5916 14.834L15.3425 12.5889L15.3376 12.584C15.2051 12.4412 15.0186 12.3087 14.8093 12.3086C14.6824 12.3086 14.5424 12.3567 14.3982 12.4629L14.2537 12.5889L12.8582 13.9834C12.7913 14.0503 12.5515 14.2891 12.1755 14.2891C12.0248 14.289 11.8776 14.2516 11.7322 14.1768V14.1758C11.7205 14.1699 11.7107 14.1645 11.7048 14.1611C11.6982 14.1574 11.6954 14.1564 11.6931 14.1553L11.6843 14.1504L11.6765 14.1455C11.5622 14.0728 11.4322 14.0053 11.283 13.9307H11.281C11.1266 13.8516 10.9427 13.7634 10.7722 13.6523V13.6514C9.45681 12.8156 8.26419 11.7328 7.1355 10.3408L7.13452 10.3389C6.50419 9.54621 6.09555 8.87568 5.80054 8.16699L5.79565 8.1543C5.79552 8.15392 5.79504 8.15275 5.7937 8.14941C5.79194 8.14501 5.78858 8.13597 5.78491 8.125C5.7443 8.00318 5.7043 7.84321 5.72632 7.66406C5.74895 7.48042 5.83418 7.2935 6.0144 7.11328L6.04077 7.08691L6.30054 6.84961C6.5554 6.60954 6.80027 6.35952 7.06128 6.0957L7.06226 6.09473L7.23511 5.9209C7.2928 5.86227 7.35056 5.80252 7.40894 5.74414C7.62125 5.53182 7.7077 5.34005 7.70776 5.17383C7.70776 5.04924 7.65914 4.91005 7.54565 4.75879L7.40894 4.60254L6.29565 3.48926C6.23101 3.42277 6.16608 3.35671 6.10132 3.29102C6.03669 3.22546 5.9718 3.15946 5.90796 3.09375V3.09277C5.65346 2.83451 5.42196 2.59726 5.17651 2.37012L5.16968 2.36426V2.36328C4.98138 2.17192 4.7938 2.09277 4.62671 2.09277Z" fill="#BF8327" stroke="#BF8327" stroke-width="0.358475"/>
</svg>
