<svg width="27" height="27" viewBox="0 0 27 27" fill="none" xmlns="http://www.w3.org/2000/svg">
<path fill-rule="evenodd" clip-rule="evenodd" d="M22.3607 6.83568C22.4688 6.93027 22.5571 7.04539 22.6203 7.17435C22.6836 7.30331 22.7205 7.44354 22.729 7.58689C22.7375 7.73023 22.7173 7.87383 22.6697 8.00933C22.6221 8.14483 22.5481 8.26953 22.4518 8.37618L11.0472 21.0176C10.9504 21.1247 10.8333 21.2113 10.7026 21.2726C10.5718 21.3338 10.4302 21.3684 10.2859 21.3742C10.1417 21.3801 9.99767 21.3571 9.86241 21.3067C9.72714 21.2562 9.60333 21.1793 9.49822 21.0804L2.89886 14.8762C2.70088 14.6874 2.58101 14.4313 2.56293 14.1585C2.54486 13.8857 2.6299 13.6161 2.80124 13.4028C2.89373 13.2873 3.00877 13.1916 3.13939 13.1218C3.27 13.052 3.41346 13.0094 3.56106 12.9966C3.70866 12.9839 3.85732 13.0012 3.99801 13.0476C4.1387 13.0939 4.26848 13.1684 4.37949 13.2663L9.4993 17.8662C9.71308 18.0583 9.99451 18.1578 10.2817 18.1428C10.5689 18.1278 10.8384 17.9994 11.0309 17.786L20.8399 6.92343C21.0308 6.712 21.2975 6.58415 21.582 6.56752C21.8666 6.5509 22.1464 6.64684 22.3607 6.83459V6.83568Z" fill="#29993C"/>
</svg>
