<svg width="38" height="38" viewBox="0 0 38 38" fill="none" xmlns="http://www.w3.org/2000/svg">
<path d="M37.3594 0.171875H0.640625C0.382031 0.171875 0.171875 0.382031 0.171875 0.640625V37.3594C0.171875 37.618 0.382031 37.8281 0.640625 37.8281H37.3594C37.618 37.8281 37.8281 37.618 37.8281 37.3594V0.640625C37.8281 0.382031 37.618 0.171875 37.3594 0.171875ZM36.8906 1.17812V36.8227H1.10938V1.17812H36.8906ZM27.6383 32.0805V33.8648C27.6383 34.1234 27.8484 34.3336 28.107 34.3336H28.6531C29.5109 34.3336 29.9742 33.6312 29.9742 32.9711C29.9742 32.6266 29.8594 32.3008 29.65 32.0555C29.407 31.7695 29.0531 31.6125 28.6539 31.6125H28.1078C28.0462 31.6123 27.9852 31.6243 27.9283 31.6477C27.8713 31.6711 27.8196 31.7056 27.7759 31.7491C27.7323 31.7925 27.6977 31.8442 27.6741 31.901C27.6505 31.9579 27.6383 32.0189 27.6383 32.0805ZM28.5758 32.5492H28.6531C28.7781 32.5492 28.8711 32.5859 28.9352 32.6625C28.9992 32.7383 29.0359 32.8508 29.0359 32.9711C29.0359 33.0711 29.0086 33.3961 28.6523 33.3961H28.575V32.5492H28.5758ZM32.7352 24.2977C32.7352 24.0391 32.9453 23.8289 33.2039 23.8289H34.9195C35.1781 23.8289 35.3883 24.0391 35.3883 24.2977C35.3883 24.5562 35.1781 24.7664 34.9195 24.7664H33.2039C32.9453 24.7664 32.7352 24.5562 32.7352 24.2977ZM32.7352 29.5953C32.7352 29.3367 32.9453 29.1266 33.2039 29.1266H34.9195C35.1781 29.1266 35.3883 29.3367 35.3883 29.5953C35.3883 29.8539 35.1781 30.0641 34.9195 30.0641H33.2039C32.9453 30.0641 32.7352 29.8539 32.7352 29.5953ZM32.7352 26.9461C32.7352 26.6875 32.9453 26.4773 33.2039 26.4773H34.9195C35.1781 26.4773 35.3883 26.6875 35.3883 26.9461C35.3883 27.2047 35.1781 27.4148 34.9195 27.4148H33.2039C32.9453 27.4148 32.7352 27.2047 32.7352 26.9461ZM32.7352 34.8922C32.7352 34.6336 32.9453 34.4234 33.2039 34.4234H34.9195C35.1781 34.4234 35.3883 34.6336 35.3883 34.8922C35.3883 35.1508 35.1781 35.3609 34.9195 35.3609H33.2039C32.9453 35.3609 32.7352 35.1516 32.7352 34.8922ZM32.7352 32.2437C32.7352 31.9852 32.9453 31.775 33.2039 31.775H34.9195C35.1781 31.775 35.3883 31.9852 35.3883 32.2437C35.3883 32.5023 35.1781 32.7125 34.9195 32.7125H33.2039C32.9453 32.7125 32.7352 32.5023 32.7352 32.2437ZM32.7352 11.0539C32.7352 10.7953 32.9453 10.5852 33.2039 10.5852H34.9195C35.1781 10.5852 35.3883 10.7953 35.3883 11.0539C35.3883 11.3125 35.1781 11.5227 34.9195 11.5227H33.2039C32.9453 11.5227 32.7352 11.3125 32.7352 11.0539ZM32.7352 5.75625C32.7352 5.49766 32.9453 5.2875 33.2039 5.2875H34.9195C35.1781 5.2875 35.3883 5.49766 35.3883 5.75625C35.3883 6.01484 35.1781 6.225 34.9195 6.225H33.2039C32.9453 6.225 32.7352 6.01563 32.7352 5.75625ZM24.7242 32.3961V32.4172H25.2414C25.5 32.4172 25.7102 32.6273 25.7102 32.8859C25.7102 33.1445 25.5 33.3547 25.2414 33.3547H24.7242V33.8648C24.7242 34.1234 24.5141 34.3336 24.2555 34.3336C23.9969 34.3336 23.7867 34.1234 23.7867 33.8648V31.9273C23.7867 31.6688 23.9969 31.4586 24.2555 31.4586H25.2414C25.5 31.4586 25.7102 31.6688 25.7102 31.9273C25.7102 32.1859 25.5 32.3961 25.2414 32.3961H24.7242ZM32.7352 3.10781C32.7352 2.84922 32.9453 2.63906 33.2039 2.63906H34.9195C35.1781 2.63906 35.3883 2.84922 35.3883 3.10781C35.3883 3.36641 35.1781 3.57656 34.9195 3.57656H33.2039C32.9453 3.57656 32.7352 3.36641 32.7352 3.10781ZM21.0617 27.0437V27.4273H21.9516C22.2102 27.4273 22.4203 27.6375 22.4203 27.8961C22.4203 28.1547 22.2102 28.3648 21.9516 28.3648H21.0617V28.7758H21.9516C22.2102 28.7758 22.4203 28.9859 22.4203 29.2445C22.4203 29.5031 22.2102 29.7133 21.9516 29.7133H20.593C20.3344 29.7133 20.1242 29.5031 20.1242 29.2445V26.575C20.1242 26.3164 20.3344 26.1062 20.593 26.1062H21.9516C22.2102 26.1062 22.4203 26.3164 22.4203 26.575C22.4203 26.8336 22.2102 27.0437 21.9516 27.0437H21.0617ZM32.7352 21.6484C32.7352 21.3898 32.9453 21.1797 33.2039 21.1797H34.9195C35.1781 21.1797 35.3883 21.3898 35.3883 21.6484C35.3883 21.907 35.1781 22.1172 34.9195 22.1172H33.2039C32.9453 22.1172 32.7352 21.9078 32.7352 21.6484ZM17.8789 33.6672C17.9422 33.918 17.7906 34.1734 17.5398 34.2367C17.3188 34.293 17.1062 34.3203 16.9062 34.3203C16.343 34.3203 15.8781 34.1039 15.6055 33.6969C15.2891 33.2242 15.3062 32.5961 15.6492 32.1344C16.0445 31.6008 16.7555 31.4273 17.5492 31.6695C17.7969 31.7453 17.9367 32.007 17.8609 32.2547C17.7852 32.5023 17.5234 32.6414 17.2758 32.5664C16.8711 32.443 16.5531 32.4891 16.4023 32.693C16.2969 32.8352 16.2898 33.0336 16.3844 33.175C16.5234 33.382 16.8687 33.4398 17.3094 33.3281C17.4299 33.2977 17.5575 33.3164 17.6642 33.3799C17.771 33.4435 17.8482 33.5468 17.8789 33.6672ZM12.8562 32.3961V32.4172H13.3734C13.632 32.4172 13.8422 32.6273 13.8422 32.8859C13.8422 33.1445 13.632 33.3547 13.3734 33.3547H12.8562V33.3961H13.3734C13.632 33.3961 13.8422 33.6063 13.8422 33.8648C13.8422 34.1234 13.632 34.3336 13.3734 34.3336H12.3875C12.1289 34.3336 11.9187 34.1234 11.9187 33.8648V31.9273C11.9187 31.6688 12.1289 31.4586 12.3875 31.4586H13.3734C13.632 31.4586 13.8422 31.6688 13.8422 31.9273C13.8422 32.1859 13.632 32.3961 13.3734 32.3961H12.8562ZM32.7352 19C32.7352 18.7414 32.9453 18.5312 33.2039 18.5312H34.9195C35.1781 18.5312 35.3883 18.7414 35.3883 19C35.3883 19.2586 35.1781 19.4688 34.9195 19.4688H33.2039C32.9453 19.4688 32.7352 19.2586 32.7352 19ZM32.7352 16.3516C32.7352 16.093 32.9453 15.8828 33.2039 15.8828H34.9195C35.1781 15.8828 35.3883 16.093 35.3883 16.3516C35.3883 16.6102 35.1781 16.8203 34.9195 16.8203H33.2039C32.9453 16.8203 32.7352 16.6102 32.7352 16.3516ZM26.043 26.1234C25.7844 26.1234 25.5742 26.3336 25.5742 26.5922V29.1375C25.5742 29.3961 25.7844 29.6063 26.043 29.6063H26.8219C27.9273 29.6063 28.5062 28.7289 28.5062 27.8625C28.5062 27.418 28.3586 27 28.0914 26.6859C27.7836 26.3234 27.3328 26.1242 26.8227 26.1242H26.043V26.1234ZM27.3766 27.2922C27.4984 27.4352 27.5687 27.643 27.5687 27.8617C27.5687 27.9445 27.5477 28.668 26.8219 28.668H26.5117V27.0602H26.8219C27.0594 27.0609 27.2461 27.1391 27.3766 27.2922ZM32.7352 13.7023C32.7352 13.4438 32.9453 13.2336 33.2039 13.2336H34.9195C35.1781 13.2336 35.3883 13.4438 35.3883 13.7023C35.3883 13.9609 35.1781 14.1711 34.9195 14.1711H33.2039C32.9453 14.1711 32.7352 13.9617 32.7352 13.7023ZM32.7352 8.40547C32.7352 8.14687 32.9453 7.93672 33.2039 7.93672H34.9195C35.1781 7.93672 35.3883 8.14687 35.3883 8.40547C35.3883 8.66406 35.1781 8.87422 34.9195 8.87422H33.2039C32.9453 8.87422 32.7352 8.66406 32.7352 8.40547ZM20.718 32.3961V32.4172H21.2352C21.4937 32.4172 21.7039 32.6273 21.7039 32.8859C21.7039 33.1445 21.4937 33.3547 21.2352 33.3547H20.718V33.3961H21.2352C21.4937 33.3961 21.7039 33.6063 21.7039 33.8648C21.7039 34.1234 21.4937 34.3336 21.2352 34.3336H20.2492C19.9906 34.3336 19.7805 34.1234 19.7805 33.8648V31.9273C19.7805 31.6688 19.9906 31.4586 20.2492 31.4586H21.2352C21.4937 31.4586 21.7039 31.6688 21.7039 31.9273C21.7039 32.1859 21.4937 32.3961 21.2352 32.3961H20.718ZM2.61172 16.3516C2.61172 16.093 2.82187 15.8828 3.08047 15.8828H4.79609C5.05469 15.8828 5.26484 16.093 5.26484 16.3516C5.26484 16.6102 5.05469 16.8203 4.79609 16.8203H3.08047C2.82187 16.8203 2.61172 16.6102 2.61172 16.3516ZM2.61172 21.6484C2.61172 21.3898 2.82187 21.1797 3.08047 21.1797H4.79609C5.05469 21.1797 5.26484 21.3898 5.26484 21.6484C5.26484 21.907 5.05469 22.1172 4.79609 22.1172H3.08047C2.82187 22.1172 2.61172 21.9078 2.61172 21.6484ZM2.61172 19C2.61172 18.7414 2.82187 18.5312 3.08047 18.5312H4.79609C5.05469 18.5312 5.26484 18.7414 5.26484 19C5.26484 19.2586 5.05469 19.4688 4.79609 19.4688H3.08047C2.82187 19.4688 2.61172 19.2586 2.61172 19ZM2.61172 13.7023C2.61172 13.4438 2.82187 13.2336 3.08047 13.2336H4.79609C5.05469 13.2336 5.26484 13.4438 5.26484 13.7023C5.26484 13.9609 5.05469 14.1711 4.79609 14.1711H3.08047C2.82187 14.1711 2.61172 13.9617 2.61172 13.7023ZM2.61172 8.40547C2.61172 8.14687 2.82187 7.93672 3.08047 7.93672H4.79609C5.05469 7.93672 5.26484 8.14687 5.26484 8.40547C5.26484 8.66406 5.05469 8.87422 4.79609 8.87422H3.08047C2.82187 8.87422 2.61172 8.66406 2.61172 8.40547ZM2.61172 11.0539C2.61172 10.7953 2.82187 10.5852 3.08047 10.5852H4.79609C5.05469 10.5852 5.26484 10.7953 5.26484 11.0539C5.26484 11.3125 5.05469 11.5227 4.79609 11.5227H3.08047C2.82187 11.5227 2.61172 11.3125 2.61172 11.0539ZM2.61172 34.8922C2.61172 34.6336 2.82187 34.4234 3.08047 34.4234H4.79609C5.05469 34.4234 5.26484 34.6336 5.26484 34.8922C5.26484 35.1508 5.05469 35.3609 4.79609 35.3609H3.08047C2.82187 35.3609 2.61172 35.1516 2.61172 34.8922ZM2.61172 32.2437C2.61172 31.9852 2.82187 31.775 3.08047 31.775H4.79609C5.05469 31.775 5.26484 31.9852 5.26484 32.2437C5.26484 32.5023 5.05469 32.7125 4.79609 32.7125H3.08047C2.82187 32.7125 2.61172 32.5023 2.61172 32.2437ZM2.61172 26.9461C2.61172 26.6875 2.82187 26.4773 3.08047 26.4773H4.79609C5.05469 26.4773 5.26484 26.6875 5.26484 26.9461C5.26484 27.2047 5.05469 27.4148 4.79609 27.4148H3.08047C2.82187 27.4148 2.61172 27.2047 2.61172 26.9461ZM2.61172 29.5953C2.61172 29.3367 2.82187 29.1266 3.08047 29.1266H4.79609C5.05469 29.1266 5.26484 29.3367 5.26484 29.5953C5.26484 29.8539 5.05469 30.0641 4.79609 30.0641H3.08047C2.82187 30.0641 2.61172 29.8539 2.61172 29.5953ZM2.61172 24.2977C2.61172 24.0391 2.82187 23.8289 3.08047 23.8289H4.79609C5.05469 23.8289 5.26484 24.0391 5.26484 24.2977C5.26484 24.5562 5.05469 24.7664 4.79609 24.7664H3.08047C2.82187 24.7664 2.61172 24.5562 2.61172 24.2977ZM17.1992 9.78125V3.95703C17.1992 3.69844 17.4094 3.48828 17.668 3.48828H21.1906C21.4492 3.48828 21.6594 3.69844 21.6594 3.95703C21.6594 4.21563 21.4492 4.42578 21.1906 4.42578H18.1367V6.40078H20.9844C21.243 6.40078 21.4531 6.61094 21.4531 6.86953C21.4531 7.12813 21.243 7.33828 20.9844 7.33828H18.1367V9.3125H20.9844C21.243 9.3125 21.4531 9.52266 21.4531 9.78125C21.4531 10.0398 21.243 10.25 20.9844 10.25H17.668C17.4086 10.25 17.1992 10.0406 17.1992 9.78125ZM2.61172 5.75625C2.61172 5.49766 2.82187 5.2875 3.08047 5.2875H4.79609C5.05469 5.2875 5.26484 5.49766 5.26484 5.75625C5.26484 6.01484 5.05469 6.225 4.79609 6.225H3.08047C2.82187 6.225 2.61172 6.01563 2.61172 5.75625ZM15.818 26.0844H15.0344C14.7758 26.0844 14.5656 26.2945 14.5656 26.5531V29.2852C14.5656 29.5437 14.7758 29.7539 15.0344 29.7539C15.293 29.7539 15.5031 29.5437 15.5031 29.2852V28.5117H15.818C16.1734 28.5117 16.4883 28.3703 16.7039 28.1125C16.8883 27.8938 16.9891 27.6047 16.9891 27.3C16.9898 26.607 16.4859 26.0844 15.818 26.0844ZM15.9867 27.5094C15.9609 27.5398 15.9195 27.5742 15.818 27.5742H15.5031V27.0219H15.818C16.0297 27.0219 16.0523 27.2164 16.0523 27.3C16.0523 27.382 16.0281 27.4602 15.9867 27.5094ZM24.3773 19.9977H26.6258C26.6344 19.9977 26.6438 19.9984 26.6523 19.9992C26.6594 20 26.6656 20 26.6727 20.0008C26.6812 20.0016 26.6891 20.0031 26.6977 20.0047C26.7047 20.0062 26.7117 20.007 26.7188 20.0086C26.7266 20.0102 26.7336 20.0125 26.7414 20.0141C26.7484 20.0164 26.7563 20.018 26.7633 20.0203C26.7703 20.0227 26.7766 20.025 26.7836 20.0273C26.7914 20.0305 26.7992 20.0328 26.807 20.0367C26.8133 20.0391 26.8188 20.0422 26.825 20.0453C26.8388 20.052 26.8521 20.0595 26.8648 20.068C26.8727 20.0727 26.8805 20.0781 26.8883 20.0828C26.8898 20.0844 26.8922 20.0852 26.8945 20.0867C26.8977 20.0891 26.9008 20.0922 26.9039 20.0945C26.9109 20.1 26.918 20.1055 26.9242 20.1109C26.9297 20.1156 26.9352 20.1211 26.9406 20.1258C26.9461 20.1313 26.9516 20.1359 26.957 20.1414C26.9625 20.1477 26.968 20.1531 26.9734 20.1594L26.9867 20.175C26.9922 20.1813 26.9969 20.1883 27.0016 20.1953C27.0055 20.2008 27.0094 20.207 27.0133 20.2125C27.0172 20.2195 27.0219 20.2258 27.0258 20.2328C27.0297 20.2398 27.0328 20.2461 27.0367 20.2531L27.0461 20.2719C27.0492 20.2797 27.0531 20.2875 27.0562 20.2953C27.0586 20.3016 27.0609 20.307 27.0625 20.3133C27.0656 20.3219 27.068 20.3305 27.0703 20.3391C27.0719 20.3453 27.0734 20.3516 27.075 20.357C27.0773 20.3656 27.0789 20.3742 27.0805 20.3828C27.082 20.3898 27.0828 20.3969 27.0836 20.4039C27.0844 20.4117 27.0859 20.4195 27.0859 20.4273C27.0867 20.4359 27.0867 20.4438 27.0875 20.4523C27.0875 20.457 27.0883 20.4609 27.0883 20.4656V20.4734C27.0883 20.482 27.0875 20.4914 27.0867 20.5C27.0859 20.507 27.0859 20.5133 27.0852 20.5203C27.0844 20.5289 27.0828 20.5367 27.0812 20.5453C27.0797 20.5523 27.0789 20.5594 27.0773 20.5664C27.0758 20.5742 27.0734 20.582 27.0711 20.5891C27.0688 20.5961 27.0672 20.6039 27.0648 20.6109C27.0625 20.618 27.0602 20.625 27.057 20.6313C27.0539 20.6391 27.0516 20.6469 27.0477 20.6539C27.0453 20.6602 27.0422 20.6664 27.0391 20.6719L27.0273 20.6953C27.0242 20.7008 27.0203 20.7063 27.0172 20.7117C27.0125 20.7195 27.0078 20.7273 27.0023 20.7344C27.0008 20.7367 27 20.7383 26.9984 20.7406L25.2984 23.0828H26.6195C26.8781 23.0828 27.0883 23.293 27.0883 23.5516C27.0883 23.8102 26.8781 24.0203 26.6195 24.0203H24.3789C24.2023 24.0203 24.0414 23.9211 23.9609 23.7648C23.8805 23.6086 23.8961 23.4195 23.9992 23.2766L25.6992 20.9344H24.3781C24.1195 20.9344 23.9094 20.7242 23.9094 20.4656C23.9094 20.207 24.118 19.9977 24.3773 19.9977ZM20.8156 12.1859V16.8625C20.8156 17.1211 21.0258 17.3312 21.2844 17.3312C21.543 17.3312 21.7531 17.1211 21.7531 16.8625V15.2047H22.6258C23.1336 15.2047 23.582 15.0039 23.8875 14.6406C24.1523 14.3258 24.2977 13.9078 24.2977 13.4648C24.2977 12.5969 23.7234 11.718 22.6258 11.718H21.2844C21.0258 11.7172 20.8156 11.9273 20.8156 12.1859ZM21.7531 12.6547H22.6258C23.3398 12.6547 23.3602 13.3813 23.3602 13.4641C23.3602 13.6844 23.2906 13.893 23.1695 14.0367C23.0414 14.1891 22.8578 14.2672 22.6258 14.2672H21.7531V12.6547ZM13.507 16.8039V12.1477C13.507 11.8891 13.7172 11.6789 13.9758 11.6789H16.2641C16.5227 11.6789 16.7328 11.8891 16.7328 12.1477C16.7328 12.4062 16.5227 12.6164 16.2641 12.6164H14.4445V14.0414H16.2641C16.5227 14.0414 16.7328 14.2516 16.7328 14.5102C16.7328 14.7688 16.5227 14.9789 16.2641 14.9789H14.4445V16.8039C14.4445 17.0625 14.2344 17.2727 13.9758 17.2727C13.7172 17.2727 13.507 17.0625 13.507 16.8039ZM18.9656 24.1242C20.018 24.1242 20.8742 23.2 20.8742 22.0641C20.8742 20.9281 20.018 20.0039 18.9656 20.0039C17.9133 20.0039 17.057 20.9281 17.057 22.0641C17.057 23.2 17.9133 24.1242 18.9656 24.1242ZM18.9656 20.9414C19.5008 20.9414 19.9367 21.4453 19.9367 22.0641C19.9367 22.6828 19.5008 23.1867 18.9656 23.1867C18.4305 23.1867 17.9945 22.6828 17.9945 22.0641C17.9945 21.4453 18.4305 20.9414 18.9656 20.9414ZM8.49453 34.5117C8.75313 34.5117 8.96328 34.3016 8.96328 34.043V33.5172H9.12187C9.43437 33.5172 9.71172 33.3922 9.90312 33.1641C10.0648 32.9719 10.1539 32.7195 10.1539 32.4531C10.1539 31.8453 9.71016 31.3867 9.12266 31.3867H8.49531C8.23672 31.3867 8.02656 31.5969 8.02656 31.8555V34.043C8.02578 34.3016 8.23594 34.5117 8.49453 34.5117ZM8.96328 32.3242H9.12187C9.15 32.3242 9.21562 32.3242 9.21562 32.4531C9.21562 32.5055 9.19922 32.5438 9.18516 32.5609C9.17969 32.5672 9.16953 32.5797 9.12187 32.5797H8.96328V32.3242ZM2.61172 3.10781C2.61172 2.84922 2.82187 2.63906 3.08047 2.63906H4.79609C5.05469 2.63906 5.26484 2.84922 5.26484 3.10781C5.26484 3.36641 5.05469 3.57656 4.79609 3.57656H3.08047C2.82187 3.57656 2.61172 3.36641 2.61172 3.10781ZM9.49375 29.2422V26.5789C9.49375 26.3203 9.70391 26.1102 9.9625 26.1102C10.2211 26.1102 10.4313 26.3203 10.4313 26.5789V28.7734H11.2625C11.5211 28.7734 11.7313 28.9836 11.7313 29.2422C11.7313 29.5008 11.5211 29.7109 11.2625 29.7109H9.9625C9.70391 29.7109 9.49375 29.5008 9.49375 29.2422ZM10.718 20.5086C10.718 20.25 10.9281 20.0398 11.1867 20.0398H13.807C14.0656 20.0398 14.2758 20.25 14.2758 20.5086C14.2758 20.7672 14.0656 20.9773 13.807 20.9773H12.9656V23.8359C12.9656 24.0945 12.7555 24.3047 12.4969 24.3047C12.2383 24.3047 12.0281 24.0945 12.0281 23.8359V20.9773H11.1867C10.9273 20.9773 10.718 20.768 10.718 20.5086Z" fill="black"/>
</svg>
