<svg width="70" height="70" viewBox="0 0 70 70" fill="none" xmlns="http://www.w3.org/2000/svg">
<path fill-rule="evenodd" clip-rule="evenodd" d="M6.72656 5.74219H16.2695V8.20312H8.20312V16.2695H5.87891L5.85156 6.53516L6.72656 5.74219ZM36.1621 5.81055L36.1895 10.5C36.2168 13.0703 36.2715 15.1758 36.3262 15.1758C36.3945 15.1758 37.2285 15.2441 38.2129 15.3125C39.1836 15.3945 40.6055 15.5586 41.3574 15.668C42.1094 15.791 43.3672 16.0234 44.1602 16.2012C44.9531 16.3926 46.2383 16.7207 47.0312 16.9531C47.8242 17.1992 49.1777 17.6641 50.0391 18.0059C50.9004 18.3477 52.3496 18.9902 53.252 19.4414C54.1543 19.8926 55.3164 20.5078 55.8496 20.8223C56.3691 21.123 57.4219 21.793 58.1738 22.2988C58.9258 22.8047 60.0605 23.6387 60.7031 24.1582C61.3457 24.6641 62.6582 25.8535 63.6152 26.7969C64.5859 27.7402 65.8164 29.0254 66.3633 29.668C66.8965 30.3105 67.5938 31.1719 67.8945 31.582C68.209 31.9922 68.7969 32.8535 69.2344 33.4961C69.6582 34.1523 70 34.8086 70 35C70 35.1914 69.7949 35.6562 69.5625 36.0254C69.3164 36.4082 68.5098 37.543 67.7578 38.5547C66.8418 39.7988 65.6523 41.1387 64.1211 42.6699C62.877 43.9141 61.3457 45.3496 60.7031 45.8555C60.0605 46.3613 58.707 47.332 57.6953 48.0156C56.6836 48.6855 54.7695 49.7793 53.457 50.4355C52.1445 51.0918 50.2578 51.9258 49.2871 52.2812C48.3027 52.6367 46.5664 53.1836 45.418 53.4707C44.2832 53.7578 42.5879 54.127 41.6582 54.2773C40.7422 54.4277 39.1836 54.6055 38.2129 54.6875C37.2285 54.7559 36.3945 54.8242 36.3262 54.8242C36.2715 54.8242 36.2168 56.9297 36.1621 64.1895H33.8379L33.7695 54.8242L32.7031 54.7559C32.1289 54.7148 31.0352 54.6191 30.2832 54.5371C29.5312 54.4688 28.0273 54.2227 26.9336 54.0039C25.8398 53.7852 24.2129 53.4023 23.3105 53.1426C22.4082 52.8828 20.9316 52.377 20.0293 52.0215C19.127 51.666 17.4043 50.873 16.2012 50.2578C14.998 49.6426 13.207 48.6172 12.2363 47.9609C11.252 47.3047 9.93945 46.3613 9.29688 45.8418C8.6543 45.3359 7.3418 44.1465 6.37109 43.2031C5.41406 42.2598 4.16992 40.9746 3.63672 40.332C3.10352 39.6895 2.40625 38.8281 2.10547 38.418C1.79102 38.0078 1.18945 37.1465 0.765625 36.5039C0.328125 35.8477 0 35.1914 0 35C0 34.8086 0.205078 34.3574 0.4375 33.9746C0.683594 33.6055 1.18945 32.8672 1.55859 32.334C1.92773 31.8145 2.74805 30.7617 3.36328 30.0098C3.97852 29.2578 5.30469 27.8359 6.30273 26.8652C7.31445 25.8809 8.6543 24.6641 9.29688 24.1445C9.93945 23.6387 11.2246 22.709 12.168 22.0801C13.1113 21.4512 14.4922 20.6172 15.2441 20.207C15.9961 19.8105 17.2266 19.1953 17.9785 18.8535C18.7305 18.498 20.1113 17.9375 21.0547 17.5957C21.998 17.2676 23.625 16.7617 24.6777 16.4883C25.7305 16.2285 27.3574 15.8867 28.3008 15.7363C29.2441 15.5859 30.8027 15.3945 31.7871 15.3125C32.7578 15.2441 33.6055 15.1758 33.6602 15.1758C33.7285 15.1758 33.7559 13.0977 33.7422 10.5547C33.7285 8.01172 33.7695 5.87891 33.8379 5.82422C33.9062 5.76953 34.4531 5.75586 36.1621 5.81055ZM28.7793 18.6758C28.0957 18.9492 27.084 19.4141 26.5234 19.7285C25.9629 20.043 25.0332 20.6445 24.4727 21.0684C23.9121 21.4922 23.0098 22.2988 22.4766 22.8594C21.9434 23.4062 21.2188 24.2539 20.8633 24.7461C20.5078 25.2383 19.9746 26.0723 19.6875 26.5918C19.3867 27.125 18.9355 28.1094 18.6758 28.7793C18.416 29.4629 18.0742 30.6387 17.9238 31.418C17.7598 32.1836 17.6367 33.0312 17.6367 33.291V33.7695H24.4727V36.2305H17.6367C17.6367 36.9688 17.7598 37.8164 17.9238 38.5957C18.0742 39.3613 18.416 40.5508 18.6758 41.2207C18.9355 41.9043 19.4141 42.916 19.7285 43.4766C20.043 44.0371 20.6445 44.9668 21.0684 45.5273C21.4922 46.0879 22.3262 47.0176 22.9141 47.5781C23.502 48.1523 24.3906 48.8906 24.8828 49.2461C25.375 49.6016 26.3594 50.1895 27.0703 50.5449C27.7812 50.9141 28.8887 51.3789 29.5312 51.584C30.1738 51.7891 31.1719 52.0488 31.7461 52.1582C32.334 52.2676 33.0312 52.3633 33.291 52.3633H33.7695V45.5273H36.2305V52.3633C36.9688 52.3633 37.666 52.2676 38.2402 52.1582C38.8281 52.0488 39.8262 51.7891 40.4688 51.584C41.1113 51.3789 42.2188 50.9141 42.9297 50.5449C43.6406 50.1895 44.625 49.6016 45.1172 49.2461C45.6094 48.8906 46.4297 48.207 46.9492 47.7148C47.4688 47.2227 48.2617 46.3613 48.7129 45.8008C49.1641 45.2402 49.7793 44.3516 50.0801 43.8184C50.3809 43.2988 50.8457 42.3691 51.1055 41.7676C51.3516 41.166 51.707 40.0859 51.8984 39.375C52.0762 38.6641 52.2812 37.666 52.3359 37.1465L52.4316 36.2305H45.5273V33.7695H52.3633C52.3633 33.0312 52.2676 32.334 52.1582 31.7598C52.0488 31.1719 51.7891 30.1738 51.584 29.5312C51.3789 28.8887 50.9141 27.7812 50.5449 27.0703C50.1758 26.3594 49.6016 25.375 49.2461 24.8828C48.8906 24.3906 48.1797 23.543 47.6465 22.9824C47.1133 22.4355 46.293 21.6699 45.8008 21.2734C45.3223 20.8906 44.4199 20.2754 43.8184 19.9199C43.2168 19.5645 42.1094 19.0312 41.3574 18.7305C40.6055 18.4434 39.3613 18.0742 38.582 17.9238C37.8164 17.7598 36.9688 17.6367 36.709 17.6367H36.2305V24.4727H33.7695V17.6367C32.8672 17.6504 32.0195 17.7734 31.3086 17.9238C30.5977 18.0742 29.4492 18.416 28.7793 18.6758ZM20.3027 20.3984C19.5508 20.6992 18.1016 21.3691 17.0898 21.9023C16.0781 22.4219 14.6289 23.2559 13.877 23.748C13.125 24.2402 11.8945 25.1152 11.1426 25.6895C10.3906 26.2637 8.8457 27.6582 7.71094 28.7793C6.57617 29.9141 5.23633 31.3496 4.73047 31.9922C4.22461 32.6348 3.52734 33.5645 3.17188 34.084L2.5293 35C3.52734 36.4355 4.22461 37.3652 4.73047 38.0078C5.23633 38.6504 6.57617 40.0996 7.71094 41.2207C8.8457 42.3555 10.3906 43.7363 11.1426 44.3105C11.8945 44.8848 13.125 45.7598 13.877 46.252C14.6289 46.7441 16.0781 47.5781 17.0898 48.1113C18.1016 48.6309 19.5508 49.3008 20.3027 49.6016C21.0547 49.9023 21.8203 50.1895 22.0117 50.2441C22.2578 50.3125 21.9297 49.916 20.9043 48.8633C20.1113 48.043 19.0859 46.7852 18.6074 46.0742C18.1289 45.3633 17.5684 44.4336 17.3633 44.0234C17.1445 43.6133 16.7891 42.8066 16.5703 42.2461C16.3516 41.6855 15.9961 40.5781 15.8047 39.7852C15.6133 38.9922 15.3945 37.8848 15.3398 37.3242L15.2441 36.2988L5.87891 36.2305V33.7695L15.2441 33.7012C15.3945 32.1152 15.6133 31.0078 15.8047 30.2148C15.9961 29.4219 16.3516 28.3145 16.5703 27.7539C16.7891 27.1934 17.1445 26.3867 17.3633 25.9766C17.5684 25.5664 18.1289 24.6367 18.6074 23.9258C19.0859 23.2148 20.1113 21.9707 20.8906 21.1641C21.6836 20.3438 22.2715 19.6875 22.2031 19.7012C22.1348 19.7012 21.9844 19.7422 21.875 19.7832C21.7656 19.8242 21.0547 20.0977 20.3027 20.3984ZM51.3926 23.9258C51.8711 24.6367 52.4453 25.5938 52.6641 26.0449C52.8965 26.4961 53.252 27.3301 53.4707 27.8906C53.6895 28.4512 54.0176 29.5312 54.209 30.2832C54.4004 31.0352 54.5918 32.1152 54.6465 32.6758L54.7559 33.7012L64.1211 33.7695V36.2305L54.7559 36.2988C54.5918 37.8848 54.4004 38.9648 54.209 39.7168C54.0176 40.4688 53.6895 41.5488 53.4707 42.1094C53.252 42.6699 52.8965 43.5039 52.6641 43.9551C52.4453 44.4062 51.8711 45.3633 51.3926 46.0742C50.9141 46.7852 49.875 48.043 49.082 48.8633C48.0566 49.916 47.7422 50.3125 47.9883 50.2441C48.1797 50.1895 48.877 49.9297 49.5605 49.6699C50.2305 49.4102 51.6523 48.7539 52.7051 48.207C53.7441 47.6738 55.3164 46.7715 56.1914 46.1973C57.0527 45.623 58.3516 44.707 59.0625 44.1602C59.7734 43.5996 61.25 42.2598 62.3574 41.166C63.4512 40.0723 64.7363 38.6641 65.2285 38.0625C65.707 37.4473 66.4043 36.5039 66.7871 35.9707L67.4707 35C66.4727 33.5645 65.7754 32.6348 65.2695 31.9922C64.7637 31.3496 63.4102 29.9004 62.2891 28.7793C61.1543 27.6445 59.6094 26.2637 58.8574 25.6895C58.1055 25.1152 56.875 24.2402 56.123 23.748C55.3711 23.2559 53.9219 22.4219 52.9102 21.8887C51.8984 21.3691 50.3672 20.6582 49.5195 20.3164C48.6855 19.9746 47.9062 19.6875 47.8105 19.6875C47.7285 19.6875 48.2891 20.3438 49.082 21.1504C49.8887 21.9707 50.9141 23.2012 51.3926 23.9258ZM53.7305 5.74219H63.3008L64.1211 6.5625V16.2695H61.7969V8.20312H53.7305V5.74219ZM5.87891 53.7305H8.20312V61.7969H16.2695V64.2578H6.69922L5.87891 63.4375V53.7305ZM61.7969 53.7305H64.1211V63.4375L63.3008 64.2578H53.7305V61.7969H61.7969V53.7305ZM35.4375 26.8789C36.0254 26.9062 36.9551 27.0703 37.4883 27.248C38.0488 27.4258 38.9238 27.8633 39.498 28.2324C40.0586 28.6152 40.7832 29.2305 41.1113 29.5996C41.4395 29.9824 41.9043 30.6797 42.1641 31.1719C42.4238 31.6641 42.7383 32.4297 42.875 32.8809C43.0391 33.4141 43.1211 34.1523 43.1211 35C43.1211 35.8477 43.0391 36.5859 42.875 37.1191C42.7383 37.5703 42.4238 38.3359 42.1641 38.8281C41.9043 39.3203 41.4395 40.0312 41.1113 40.4004C40.7832 40.7832 40.0859 41.3711 39.5664 41.7266C39.0469 42.0684 38.1309 42.5332 37.5293 42.7383C36.627 43.0391 36.1895 43.1074 35.0684 43.1211C34.1387 43.1211 33.4414 43.0391 32.8809 42.875C32.4297 42.7383 31.623 42.4102 31.1035 42.1367C30.5156 41.8223 29.791 41.2891 29.2578 40.7422C28.7109 40.1953 28.1641 39.4844 27.8633 38.8965C27.5898 38.377 27.2754 37.5977 27.1523 37.1875C27.043 36.7773 26.9062 36.0938 26.8516 35.6836C26.8105 35.2734 26.8379 34.4805 26.9199 33.9473C27.002 33.4004 27.2344 32.5117 27.4395 31.9785C27.6582 31.4453 28.123 30.5977 28.5059 30.1055C28.875 29.5996 29.5996 28.8887 30.1055 28.5059C30.5977 28.1367 31.4453 27.6582 31.9785 27.4531C32.5117 27.2344 33.2773 27.0156 33.6602 26.9473C34.0566 26.8652 34.8633 26.8379 35.4375 26.8789ZM32.4297 29.8047C31.9648 30.0234 31.2676 30.5293 30.8984 30.8984C30.5156 31.2812 30.0234 31.9648 29.8047 32.4434C29.5723 32.9082 29.3262 33.6738 29.2578 34.1523C29.1667 34.7174 29.1667 35.2871 29.2578 35.8613C29.3262 36.3262 29.5723 37.0918 29.8047 37.5703C30.0234 38.0352 30.5156 38.7324 30.8984 39.1016C31.2676 39.4844 31.9648 39.9766 32.4297 40.1953C32.9082 40.4141 33.6738 40.6602 34.1387 40.7422C34.7129 40.8333 35.2826 40.8333 35.8477 40.7422C36.3262 40.6602 37.0918 40.4141 37.5566 40.1953C38.0352 39.9766 38.7188 39.4844 39.1016 39.1016C39.4707 38.7324 39.9629 38.0352 40.1953 37.5703C40.4141 37.0918 40.6602 36.3262 40.7422 35.8613C40.8379 35.2871 40.8379 34.7129 40.7422 34.1523C40.6602 33.6738 40.4414 32.9492 40.25 32.5391C40.0586 32.1289 39.7031 31.541 39.457 31.2402C39.2109 30.9395 38.7051 30.4883 38.3359 30.2422C37.9668 29.9961 37.3516 29.6816 36.9824 29.5449C36.5996 29.4082 35.9297 29.2578 35.4785 29.2168C35.0273 29.1758 34.3438 29.2031 33.9746 29.2715C33.5918 29.3398 32.9082 29.5723 32.4297 29.8047Z" fill="url(#paint0_linear_1913_4108)"/>
<defs>
<linearGradient id="paint0_linear_1913_4108" x1="-7.27528" y1="-15.4445" x2="83.4039" y2="-15.2037" gradientUnits="userSpaceOnUse">
<stop stop-color="#BF8327"/>
<stop offset="0.485" stop-color="#F4DC60"/>
<stop offset="1" stop-color="#BF8327"/>
</linearGradient>
</defs>
</svg>
