<svg width="55" height="55" viewBox="0 0 55 55" fill="none" xmlns="http://www.w3.org/2000/svg">
<path fill-rule="evenodd" clip-rule="evenodd" d="M27.3418 13.6257C29.0926 13.6152 29.757 13.6574 31.2441 13.8789C32.2355 14.0265 33.6066 14.2796 34.3027 14.4484C34.9988 14.6277 36.1379 14.9546 36.834 15.1972C37.5301 15.4398 38.859 15.9988 39.7871 16.4523C40.7152 16.9058 42.0441 17.6546 42.7402 18.1187C43.4363 18.5828 44.3117 19.205 44.6914 19.5214C45.0711 19.8273 45.8937 20.5867 46.516 21.1984C47.1488 21.8101 47.9609 22.675 48.3195 23.1074C48.6887 23.5398 49.2898 24.3519 49.6695 24.9004C50.0492 25.4488 50.5344 26.1976 50.7453 26.5668C50.9562 26.9254 51.125 27.3156 51.125 27.4316C51.125 27.5476 50.9984 27.864 50.8402 28.1488C50.682 28.423 50.2285 29.1402 49.8172 29.7519C49.4059 30.3531 48.8152 31.1652 48.5094 31.5449C48.2035 31.9246 47.4863 32.6945 46.9273 33.2746C46.3684 33.8441 45.4719 34.6773 44.9551 35.1097C44.4383 35.5527 43.4574 36.2699 42.793 36.7129C42.1285 37.1453 41.0105 37.7992 40.3145 38.1578C39.6184 38.5164 38.5742 38.991 37.9941 39.223C37.4141 39.455 36.4648 39.7925 35.8848 39.9718C35.3047 40.1511 34.3977 40.3937 33.8809 40.5203C33.3641 40.6363 32.1512 40.8578 31.1914 40.9949C29.8414 41.1953 29.0187 41.248 27.5 41.248C25.9707 41.248 25.1586 41.1953 23.7559 40.9843C22.775 40.8367 21.3934 40.5836 20.6973 40.4148C20.0012 40.2355 18.8621 39.9086 18.166 39.666C17.4699 39.4234 16.141 38.8644 15.2129 38.4004C14.2848 37.9468 12.998 37.2296 12.3652 36.8078C11.7219 36.3964 10.8676 35.7847 10.4668 35.4683C10.066 35.1414 9.19062 34.3609 8.53672 33.7175C7.87227 33.0742 7.03906 32.1882 6.68047 31.7558C6.31133 31.3234 5.71016 30.5113 5.33047 29.9629C4.95078 29.4144 4.46562 28.6656 4.25469 28.307C4.04375 27.9378 3.875 27.5371 3.875 27.4105C3.875 27.2734 4.12813 26.7671 4.42344 26.2714C4.71875 25.7757 5.20391 25.048 5.48867 24.6367C5.78398 24.2359 6.33242 23.5187 6.72266 23.0546C7.11289 22.5906 7.85117 21.789 8.36797 21.2722C8.88477 20.766 9.72852 19.9961 10.2559 19.5742C10.7832 19.1629 11.7324 18.4668 12.3652 18.0449C12.998 17.623 14.2848 16.9164 15.2129 16.4629C16.141 16.0093 17.5121 15.4293 18.2715 15.1656C19.0309 14.9125 20.191 14.5644 20.8555 14.4062C21.5199 14.248 22.7855 14.016 23.6504 13.8789C24.8527 13.6996 25.7281 13.6363 27.3418 13.6257ZM22.0156 15.8195C21.4672 15.9461 20.5812 16.1675 20.0645 16.3152C19.5477 16.4734 18.6512 16.7793 18.0816 17.0007C17.5227 17.2328 16.5734 17.6546 15.9828 17.95C15.3816 18.2558 14.4641 18.7621 13.9473 19.089C13.4199 19.4054 12.5445 20.0171 11.9961 20.4285C11.4477 20.8398 10.4984 21.6519 9.89727 22.2214C9.29609 22.8015 8.4207 23.7191 7.96719 24.2675C7.50313 24.816 6.79648 25.7546 6.3957 26.3558L5.66797 27.4316C6.79648 29.1086 7.50313 30.0472 7.96719 30.5957C8.4207 31.1441 9.29609 32.0617 9.89727 32.6418C10.4984 33.2113 11.4477 34.0234 11.9961 34.4347C12.5445 34.8461 13.4199 35.4578 13.9473 35.7742C14.4641 36.1011 15.3922 36.6179 16.0039 36.9238C16.6156 37.2296 17.5859 37.6621 18.166 37.8941C18.7461 38.1156 19.7164 38.4425 20.3281 38.6113C20.9398 38.7906 21.9102 39.0226 22.4902 39.1281C23.0703 39.2441 24.0406 39.3918 24.6523 39.4656C25.359 39.5394 26.6457 39.5711 28.1855 39.5394C30.0207 39.4972 30.9172 39.4234 31.877 39.2546C32.573 39.1281 33.6594 38.8961 34.3027 38.7168C34.9461 38.548 36.0324 38.1894 36.7285 37.9257C37.4246 37.6515 38.5637 37.1453 39.2598 36.7867C39.9559 36.4386 41.0738 35.7742 41.7383 35.3312C42.4027 34.8882 43.4047 34.1394 43.9531 33.6754C44.5016 33.2113 45.3559 32.4203 45.8516 31.9035C46.3473 31.3867 47.0539 30.5851 47.423 30.1211C47.7922 29.657 48.3723 28.866 48.7098 28.3597L49.332 27.4316C48.3723 25.9972 47.7922 25.2062 47.423 24.7421C47.0539 24.2781 46.3473 23.4765 45.8516 22.9597C45.3559 22.4429 44.5016 21.6519 43.9531 21.1879C43.4047 20.7238 42.4027 19.975 41.7383 19.532C41.0738 19.089 39.9559 18.4246 39.2598 18.0765C38.5637 17.7179 37.4457 17.2117 36.7812 16.9586C36.1168 16.6949 35.0199 16.3363 34.3555 16.157C33.691 15.9777 32.5941 15.7351 31.9297 15.6086C30.9488 15.4293 30.1895 15.3871 27.9219 15.3554C25.9602 15.3238 24.8105 15.3554 24.0723 15.4609C23.4922 15.5347 22.5641 15.7035 22.0156 15.8195ZM27.9219 16.9269C29.3246 16.9586 29.6938 17.0113 30.5059 17.2539C31.0227 17.4015 31.8559 17.739 32.3516 17.9921C32.8473 18.2453 33.6488 18.7832 34.1445 19.1734C34.6402 19.5742 35.368 20.2914 35.7582 20.7871C36.1801 21.3039 36.6969 22.1265 37.0027 22.7382C37.2875 23.3183 37.625 24.1726 37.7516 24.6367C37.952 25.3539 37.9836 25.7441 37.9836 27.3261C37.9836 28.866 37.9414 29.2984 37.7621 29.9629C37.6461 30.3953 37.3824 31.1336 37.1926 31.5976C37.0027 32.0617 36.5703 32.8421 36.2434 33.3379C35.9059 33.8336 35.3363 34.5402 34.9672 34.9199C34.598 35.289 34.018 35.8058 33.6699 36.0589C33.3219 36.3121 32.668 36.7129 32.225 36.9343C31.7715 37.1558 31.0121 37.4617 30.5375 37.5988C30.0523 37.7359 29.1875 37.9046 28.6074 37.9679C27.9008 38.0418 27.2258 38.0418 26.5508 37.9785C26.0023 37.9152 25.2852 37.7992 24.9688 37.7254C24.6523 37.641 24.009 37.43 23.5449 37.2507C23.0809 37.0714 22.2477 36.6285 21.6992 36.2699C21.1508 35.9007 20.3914 35.2996 20.0117 34.9199C19.632 34.5402 19.0309 33.7808 18.6617 33.2324C18.3031 32.6839 17.8602 31.8613 17.6914 31.4183C17.5121 30.9648 17.3012 30.3214 17.2168 29.9945C17.1219 29.657 17.0059 28.9293 16.9531 28.3808C16.8898 27.7269 16.9004 27.0097 16.9637 26.3242C17.027 25.7441 17.1957 24.8793 17.3328 24.4046C17.4699 23.9195 17.7758 23.1601 17.9973 22.7171C18.2187 22.2636 18.6301 21.5992 18.8937 21.2406C19.1574 20.8714 19.6742 20.2808 20.0434 19.9328C20.402 19.5742 21.0559 19.0363 21.4883 18.7515C21.9207 18.4562 22.6168 18.066 23.0176 17.8761C23.4184 17.6863 24.0934 17.4332 24.4941 17.3171C24.8949 17.1906 25.475 17.0429 25.7598 16.9902C26.0551 16.9375 27.0254 16.9164 27.9219 16.9269ZM25.1797 18.8359C24.8 18.9308 24.2094 19.1418 23.8613 19.3C23.5133 19.4582 22.9438 19.7746 22.6063 20.0066C22.2582 20.2281 21.7414 20.6289 21.4461 20.8925C21.1613 21.1562 20.6973 21.673 20.4125 22.0527C20.1172 22.4324 19.7059 23.1179 19.4844 23.582C19.2523 24.0461 18.9781 24.8265 18.8516 25.3222C18.7355 25.8179 18.6406 26.5773 18.6406 27.0097V27.8007C26.2238 20.207 27.7637 18.5933 27.6793 18.5511C27.6055 18.5089 27.4789 18.4773 27.3945 18.4773C27.3102 18.4879 26.9305 18.53 26.5508 18.5722C26.1711 18.625 25.5594 18.741 25.1797 18.8359ZM18.9992 30.1211C19.0414 30.2898 19.284 30.8699 19.5477 31.3867C19.8008 31.914 20.1594 32.5046 20.3281 32.705L20.634 33.0742L33.1426 20.5656C32.573 20.091 31.9719 19.7324 31.4551 19.4687C30.9383 19.2156 30.3582 18.973 30.1895 18.9414C29.8836 18.8781 29.5988 19.1523 24.3992 24.3414C19.1469 29.5937 18.9359 29.8152 18.9992 30.1211ZM21.8574 34.2976C22.427 34.7722 23.0281 35.1308 23.5449 35.3945C24.0617 35.6476 24.6418 35.8902 24.8105 35.9218C25.1164 35.9851 25.4012 35.7109 30.6113 30.5007L36.0957 25.0164C35.8742 24.3097 35.6316 23.7718 35.4207 23.3711C35.2098 22.9703 34.8934 22.4535 34.7246 22.232C34.5453 22.0105 34.3871 21.8312 34.3555 21.8418C34.3238 21.8418 31.4973 24.6472 28.0801 28.0644L21.8574 34.2976ZM31.7082 31.682C28.1328 35.2574 27.173 36.2804 27.3102 36.3332C27.4156 36.3753 27.8691 36.3543 28.3121 36.3015C28.7656 36.2488 29.4406 36.1328 29.8203 36.0273C30.2 35.9324 30.7906 35.7214 31.1387 35.5738C31.4867 35.4156 32.0562 35.0992 32.3937 34.8671C32.7418 34.6351 33.2586 34.2343 33.5434 33.9812C33.8387 33.7175 34.2711 33.2429 34.5137 32.9265C34.7563 32.5996 35.1043 32.0828 35.2836 31.7664C35.4629 31.4394 35.7266 30.8488 35.8742 30.448C36.0113 30.0367 36.1801 29.425 36.2539 29.0769C36.3172 28.7289 36.3594 28.1382 36.3277 27.7691L36.2855 27.0941L31.7082 31.682Z" fill="url(#paint0_linear_1968_3754)"/>
<defs>
<linearGradient id="paint0_linear_1968_3754" x1="-1.03581" y1="3.62258" x2="60.1722" y2="3.85498" gradientUnits="userSpaceOnUse">
<stop stop-color="#BF8327"/>
<stop offset="0.485" stop-color="#F4DC60"/>
<stop offset="1" stop-color="#BF8327"/>
</linearGradient>
</defs>
</svg>
