<svg width="165" height="165" viewBox="0 0 165 165" fill="none" xmlns="http://www.w3.org/2000/svg">
<g clip-path="url(#clip0_84_745)">
<path d="M59.2322 113.687C42.6765 100.661 41.2665 78.7566 52.3596 61.9531C63.6554 44.8487 85.2621 33.9603 105.548 33.7222C109.774 33.6772 109.492 39.7737 105.456 40.1551C87.8275 41.8289 70.4781 50.0274 59.629 64.2791C54.883 70.4399 52.1966 77.9382 51.9505 85.7112C51.5791 95.9052 56.752 103.41 62.212 111.391C63.5273 113.31 60.7522 114.869 59.2322 113.687Z" fill="#EBC363"/>
<path d="M72.4465 130.678C63.9325 126.464 54.1587 122.376 47.9845 114.843C47.7514 114.586 47.6263 114.248 47.6353 113.901C47.6442 113.554 47.7864 113.223 48.0325 112.978C48.2785 112.733 48.6095 112.592 48.9568 112.584C49.3041 112.576 49.641 112.703 49.8978 112.937C56.6242 118.4 64.0761 122.07 71.8979 125.53C72.7741 120.03 72.7814 114.248 74.4893 108.979C74.6398 108.506 74.9531 108.103 75.3733 107.84C75.7936 107.577 76.2935 107.471 76.7841 107.542C77.2748 107.613 77.7243 107.856 78.0528 108.227C78.3812 108.599 78.5672 109.075 78.5777 109.57C78.5593 116.248 77.6087 122.891 75.7535 129.306C75.654 129.634 75.4831 129.935 75.2533 130.189C75.0234 130.442 74.7402 130.642 74.424 130.773C74.1078 130.904 73.7665 130.964 73.4246 130.947C73.0827 130.931 72.7486 130.839 72.4465 130.678Z" fill="#EBC363"/>
</g>
<defs>
<clipPath id="clip0_84_745">
<rect width="120.53" height="120.53" fill="white" transform="matrix(0.492006 0.870592 0.870592 -0.492006 0 59.3015)"/>
</clipPath>
</defs>
</svg>
