<svg width="159" height="159" viewBox="0 0 159 159" fill="none" xmlns="http://www.w3.org/2000/svg">
<path d="M105.332 108.06C120.377 93.3156 119.403 71.3872 106.553 55.8859C93.4692 40.1075 70.809 31.6266 50.6166 33.5901C46.4111 34.0036 47.3526 40.0336 51.4056 39.9751C69.1121 39.7271 87.2483 45.9956 99.5791 58.9866C104.965 64.5963 108.449 71.7591 109.537 79.4596C111.012 89.5531 106.683 97.5743 102.121 106.101C101.021 108.151 103.949 109.4 105.332 108.06Z" fill="#EBC363"/>
<path d="M94.0379 126.384C102.045 121.272 111.317 116.148 116.638 107.99C116.842 107.708 116.93 107.359 116.883 107.015C116.837 106.671 116.659 106.358 116.388 106.141C116.117 105.924 115.773 105.819 115.427 105.849C115.081 105.879 114.759 106.041 114.529 106.302C108.435 112.463 101.425 116.919 94.025 121.207C92.5574 115.834 91.923 110.087 89.6537 105.034C89.4529 104.581 89.0977 104.214 88.6514 103.998C88.2051 103.782 87.6967 103.731 87.2166 103.855C86.7366 103.979 86.316 104.269 86.0298 104.674C85.7436 105.078 85.6103 105.572 85.6537 106.066C86.3962 112.702 88.0616 119.203 90.6016 125.379C90.7361 125.694 90.9386 125.975 91.1946 126.202C91.4507 126.429 91.7538 126.597 92.0824 126.693C92.4109 126.789 92.7567 126.811 93.0948 126.758C93.4329 126.704 93.755 126.577 94.0379 126.384Z" fill="#EBC363"/>
</svg>
