<svg width="40" height="40" viewBox="0 0 40 40" fill="none" xmlns="http://www.w3.org/2000/svg">
<path fill-rule="evenodd" clip-rule="evenodd" d="M4.76562 0H35.2345V3.51562H34.0627V37.0702H32.8908V3.51562H7.10938V5.85938H5.9375V3.51562H4.76562V0ZM5.9375 2.34375H34.0626V1.17188H5.9375V2.34375ZM31.7189 4.6875V5.85938H30.547V4.6875H31.7189ZM5.9375 37.0702V7.03125H7.10938V37.0702H5.9375ZM31.7189 7.03125V8.20312H30.547V7.03125H31.7189ZM17.2751 12.8468H22.725V14.0187H18.447V15.7652H22.2386V16.9371H18.447V18.6837H22.725V19.8555H17.2751V12.8468ZM14.307 22.5748H17.8113V23.7467H15.4788V25.0069H17.3249V26.1788H15.4788V27.5384H14.307V22.5748ZM21.6029 22.5748H23.8913C24.8837 22.5748 25.6932 23.3844 25.6932 24.3768C25.6932 25.3692 24.8837 26.1788 23.8913 26.1788H22.7748V27.5384H21.6029V22.5748ZM22.7748 25.0069H23.8913C24.2365 25.0069 24.5213 24.722 24.5213 24.3768C24.5213 24.0316 24.2365 23.7467 23.8913 23.7467H22.7748V25.0069ZM12.618 31.0427H11.5257V29.8709H14.8821V31.0427H13.7898V34.2755H12.618V31.0427ZM25.809 29.8709H28.4745V31.0427H26.9809V31.9529H27.988V33.1248H26.9809V34.2755H25.809V29.8709Z" fill="black"/>
<path fill-rule="evenodd" clip-rule="evenodd" d="M19.0638 31.1871C18.547 31.704 18.547 32.5419 19.0638 33.0588C19.5807 33.5756 20.4186 33.5756 20.9354 33.0587C21.4523 32.5419 21.4522 31.7039 20.9354 31.1871C20.4186 30.6703 19.5806 30.6703 19.0638 31.1871ZM18.2352 33.8874C17.2607 32.9129 17.2607 31.333 18.2351 30.3585C19.2096 29.384 20.7895 29.384 21.764 30.3584C22.7385 31.3329 22.7386 32.9128 21.7641 33.8873C20.7896 34.8618 19.2097 34.8619 18.2352 33.8874Z" fill="black"/>
<path fill-rule="evenodd" clip-rule="evenodd" d="M15.8923 8.06812C17.1103 9.45042 18.5293 9.82593 19.9998 9.82593C21.4704 9.82593 22.8894 9.45042 24.1074 8.06812C22.8894 6.68581 21.4704 6.3103 19.9998 6.3103C18.5293 6.3103 17.1103 6.68581 15.8923 8.06812ZM14.6695 7.71227C16.2246 5.67794 18.1424 5.13843 19.9998 5.13843C21.8573 5.13843 23.7751 5.67794 25.3302 7.71227L25.6022 8.06812L25.3302 8.42396C23.7751 10.4583 21.8573 10.9978 19.9998 10.9978C18.1424 10.9978 16.2246 10.4583 14.6695 8.42396L14.3975 8.06812L14.6695 7.71227Z" fill="black"/>
<path fill-rule="evenodd" clip-rule="evenodd" d="M20 6.3103C19.0292 6.3103 18.2422 7.0973 18.2422 8.06812C18.2422 9.03893 19.0292 9.82593 20 9.82593C20.9708 9.82593 21.7578 9.03893 21.7578 8.06812C21.7578 7.0973 20.9708 6.3103 20 6.3103ZM17.0703 8.06812C17.0703 6.45009 18.382 5.13843 20 5.13843C21.618 5.13843 22.9297 6.45009 22.9297 8.06812C22.9297 9.68614 21.618 10.9978 20 10.9978C18.382 10.9978 17.0703 9.68614 17.0703 8.06812Z" fill="black"/>
<path fill-rule="evenodd" clip-rule="evenodd" d="M4.76562 36.4843H35.2345V40H31.7189V38.8281H34.0626V37.6562H5.9375V38.8281H30.547V40H4.76562V36.4843Z" fill="black"/>
</svg>
