<svg width="48" height="48" viewBox="0 0 48 48" fill="none" xmlns="http://www.w3.org/2000/svg">
<path fill-rule="evenodd" clip-rule="evenodd" d="M22.5937 10.3219C23.2405 10.3125 24.0187 10.3594 24.328 10.4063C24.6374 10.4625 25.5468 10.6031 26.3437 10.7344C27.1405 10.8656 28.6218 11.1563 29.6249 11.3813C30.628 11.6063 32.1655 11.9906 33.0468 12.225C33.928 12.4688 35.6999 13.0125 36.9843 13.4438C38.278 13.875 39.9843 14.4938 40.7812 14.8125C41.578 15.1313 42.8249 15.675 43.5468 16.0219C44.2687 16.3688 45.178 16.8563 45.5624 17.1094C45.9468 17.3531 46.453 17.7375 46.6874 17.9531C46.9218 18.1781 47.1843 18.5156 47.2874 18.7125C47.4468 19.0594 47.4468 19.0969 47.2968 19.5938C47.203 19.875 46.9874 20.4094 46.8093 20.7656C46.6311 21.1313 46.2749 21.6938 46.0312 22.0313C45.7874 22.3688 45.3093 22.8938 44.9812 23.2125C44.6624 23.5219 44.1187 23.9719 43.7812 24.2063C43.4437 24.45 42.7874 24.8344 42.328 25.0781C41.8687 25.3125 41.0249 25.6594 40.453 25.8375C39.8812 26.025 38.9155 26.2594 38.2968 26.3625C37.3218 26.5313 36.9093 26.55 35.2499 26.5031C33.6843 26.4656 33.1218 26.4094 32.203 26.2125C31.5843 26.0813 30.6187 25.8281 30.0468 25.6406C29.4749 25.4531 28.378 24.9938 27.6093 24.6094C26.8312 24.2344 25.8655 23.6813 25.453 23.4C25.0405 23.1094 24.3655 22.5844 23.953 22.2281C23.5405 21.8719 22.9687 21.3188 22.678 20.9906C22.3874 20.6625 21.9093 20.0531 21.6093 19.6406C21.3187 19.2281 20.8687 18.4688 20.6155 17.9531C20.3718 17.4375 20.053 16.5938 19.903 16.0781C19.678 15.2625 19.6499 14.9719 19.6405 13.7813C19.6405 12.9188 19.6874 12.1969 19.7812 11.8125C19.8655 11.4281 20.0062 11.1094 20.1562 10.9406C20.2874 10.8 20.6249 10.6031 20.9062 10.5094C21.2999 10.3688 21.6937 10.3219 22.5937 10.3219ZM21.0655 11.3719C20.9249 11.4375 20.803 11.5313 20.803 11.5781C20.803 11.6344 20.9812 11.8406 21.2062 12.0563C21.4312 12.2625 22.0124 12.6656 22.4999 12.9563C22.9874 13.2469 23.8499 13.7063 24.4218 13.9688C24.9937 14.2313 26.1655 14.7375 27.0468 15.0844C27.928 15.4406 29.6343 16.05 30.8437 16.4438C32.053 16.8469 33.8062 17.3719 34.7343 17.625C35.6624 17.8781 36.9937 18.2156 37.6874 18.375C38.3812 18.5344 39.5062 18.7688 40.1718 18.8906C40.8374 19.0125 41.9155 19.1813 42.5624 19.2656C43.2093 19.3406 44.1937 19.4063 44.7655 19.4063C45.3374 19.4063 45.9562 19.3594 46.153 19.3125C46.3405 19.2563 46.4999 19.1906 46.4999 19.1531C46.5093 19.1063 46.4062 18.9563 46.2937 18.8063C46.1718 18.6563 45.7405 18.3094 45.328 18.0375C44.9155 17.7656 43.9218 17.2313 43.1249 16.8375C42.328 16.4531 41.1468 15.9281 40.4999 15.675C39.853 15.4219 38.6718 14.9719 37.8749 14.6906C37.078 14.4094 35.7093 13.9594 34.828 13.6969C33.9468 13.4344 32.2874 12.9938 31.1249 12.7125C29.9624 12.4219 28.2749 12.0469 27.3749 11.8688C26.4749 11.6906 25.2749 11.475 24.703 11.4C24.1312 11.325 23.2499 11.2406 22.7343 11.2125C22.2187 11.1938 21.6937 11.1938 21.5624 11.2125C21.4312 11.2406 21.2062 11.3063 21.0655 11.3719ZM20.8124 15.9375C20.9249 16.3219 21.178 16.9969 21.3843 17.4375C21.5905 17.8781 21.9843 18.5719 22.2655 18.9844C22.5374 19.3969 23.0718 20.0719 23.4562 20.475C23.8312 20.8875 24.4312 21.4594 24.7968 21.75C25.1624 22.0406 25.7718 22.4906 26.1562 22.7531C26.5405 23.0156 27.2812 23.4375 27.7968 23.7C28.3124 23.9625 29.1187 24.3188 29.578 24.4969C30.0374 24.675 30.8437 24.9281 31.3593 25.0594C31.8749 25.2 32.7374 25.3781 33.2812 25.4625C33.8812 25.5563 34.8468 25.6125 35.7655 25.6125C36.853 25.6125 37.5655 25.5563 38.3437 25.4156C38.9343 25.3125 39.8624 25.0781 40.4062 24.8813C40.9499 24.6938 41.6624 24.4031 41.9999 24.2344C42.3374 24.0656 42.8999 23.7188 43.2655 23.4563C43.6312 23.2031 44.1843 22.725 44.5124 22.3969C44.8405 22.0688 45.2905 21.525 45.5155 21.1875C45.7405 20.85 45.9468 20.5125 45.9749 20.4375C46.0218 20.3156 45.8249 20.2969 44.5593 20.2875C43.5468 20.2781 42.6468 20.2125 41.7187 20.0719C40.9687 19.9594 39.7499 19.7344 38.9999 19.5844C38.2499 19.425 36.8155 19.0969 35.8124 18.8438C34.8093 18.5906 33.2905 18.1781 32.4374 17.9156C31.5843 17.6625 30.3843 17.2688 29.7655 17.0625C29.1468 16.8469 28.0499 16.4438 27.328 16.1719C26.6062 15.9 25.4249 15.4125 24.703 15.0938C23.9812 14.775 23.0062 14.3063 22.5468 14.0438C22.0874 13.7813 21.4874 13.4156 21.2343 13.2281C20.9718 13.0313 20.7093 12.8438 20.6437 12.7969C20.5499 12.7406 20.5312 12.9656 20.5687 13.9781C20.5968 14.8875 20.6624 15.4313 20.8124 15.9375ZM2.95303 19.5C3.31865 19.5 3.98428 19.5656 4.45303 19.6406C4.92178 19.725 5.82178 19.9313 6.46865 20.1094C7.11553 20.2875 8.14678 20.6063 8.76553 20.8219C9.38428 21.0281 10.4155 21.4031 11.0624 21.6563C11.7093 21.9 12.9749 22.4156 13.8749 22.8094C14.7749 23.1938 16.2562 23.8688 17.1562 24.3094C18.0562 24.75 19.453 25.4625 20.2499 25.9031C21.0468 26.3344 22.2749 27.0375 22.9687 27.4781C23.6624 27.9094 24.6374 28.5656 25.1249 28.9313C25.6124 29.2969 26.2499 29.85 26.5405 30.15C26.8312 30.45 27.1593 30.8813 27.2624 31.1063C27.3749 31.3219 27.4687 31.5844 27.4687 31.6875C27.4687 31.7906 27.328 32.1563 27.1499 32.5125C26.9812 32.8594 26.6437 33.3938 26.4093 33.7031C26.1843 34.0125 25.7249 34.5188 25.3968 34.8188C25.0687 35.1281 24.5062 35.5688 24.1405 35.8031C23.7843 36.0375 23.1843 36.3563 22.828 36.525C22.4718 36.6938 21.8343 36.9281 21.4218 37.0594C21.0093 37.1906 20.1749 37.3875 19.5655 37.4906C18.8155 37.6219 18.0749 37.6875 17.203 37.6875C16.2843 37.6875 15.5718 37.6219 14.5968 37.4531C13.8655 37.3313 12.8812 37.1156 12.4218 36.9844C11.953 36.8438 11.203 36.5906 10.7343 36.4125C10.2655 36.2344 9.4499 35.85 8.90615 35.5594C8.3624 35.2781 7.66865 34.8656 7.35928 34.6594C7.0499 34.4531 6.45928 34.0219 6.04678 33.7031C5.63428 33.3844 4.8749 32.6813 4.35928 32.1469C3.84365 31.6031 3.15928 30.7875 2.8499 30.3281C2.53115 29.8594 2.08115 29.1 1.84678 28.6406C1.6124 28.1813 1.32178 27.5063 1.19053 27.1406C1.06865 26.775 0.881152 26.1281 0.787402 25.6875C0.674902 25.1531 0.618652 24.5063 0.618652 23.7188C0.628027 22.8656 0.674902 22.3313 0.824902 21.75C0.928027 21.3094 1.1249 20.7094 1.25615 20.4188C1.4624 19.9688 1.56553 19.8469 1.90303 19.6875C2.1749 19.5656 2.50303 19.5 2.95303 19.5ZM2.2874 20.7938C2.3624 20.9344 2.64365 21.2625 2.91553 21.5156C3.19678 21.7781 3.6749 22.1813 3.98428 22.4156C4.29365 22.6594 5.03428 23.1656 5.6249 23.5594C6.21553 23.9438 7.22803 24.5625 7.8749 24.9375C8.52178 25.3031 9.90928 26.0438 10.9687 26.5688C12.028 27.1031 13.6312 27.8719 14.5312 28.2656C15.4312 28.6688 16.8655 29.2688 17.7187 29.5969C18.5718 29.9344 19.8374 30.3938 20.5312 30.6281C21.2249 30.8531 22.3687 31.1906 23.0624 31.3594C23.7562 31.5375 24.6843 31.725 25.1249 31.7813C25.5655 31.8281 26.0624 31.8563 26.2312 31.8281C26.3905 31.8 26.5312 31.725 26.5312 31.6688C26.5312 31.6031 26.4187 31.3781 26.2687 31.1719C26.1187 30.9656 25.7062 30.5625 25.3499 30.2719C24.9937 29.9813 24.3843 29.5219 23.9999 29.2406C23.6155 28.9594 22.5374 28.275 21.6093 27.7219C20.6812 27.1594 18.928 26.2125 17.7187 25.6031C16.5093 25.0031 14.7562 24.1875 13.828 23.7938C12.8999 23.4 11.4187 22.8 10.5468 22.4719C9.6749 22.1344 8.44678 21.6938 7.82803 21.4781C7.20928 21.2719 6.15928 20.9438 5.48428 20.7656C4.63115 20.5219 4.00303 20.4094 3.3749 20.3813C2.84053 20.3531 2.41865 20.3719 2.3249 20.4375C2.1749 20.5219 2.1749 20.5594 2.2874 20.7938ZM1.5749 22.7063C1.51865 23.1375 1.4999 23.8406 1.5374 24.2813C1.56553 24.7219 1.6499 25.35 1.7249 25.6875C1.7999 26.025 1.99678 26.6813 2.16553 27.1406C2.34365 27.6 2.6624 28.3031 2.8874 28.6875C3.10303 29.0719 3.53428 29.7281 3.84365 30.1406C4.15303 30.5531 4.75303 31.2469 5.1749 31.6781C5.60615 32.1094 6.29053 32.7281 6.70303 33.0469C7.11553 33.375 7.79053 33.8438 8.20303 34.1063C8.61553 34.3594 9.29053 34.7344 9.70303 34.9406C10.1155 35.1469 10.8562 35.4656 11.3437 35.6531C11.8312 35.8313 12.6562 36.0938 13.1718 36.225C13.6874 36.3563 14.6343 36.5344 15.2812 36.6188C16.1155 36.7219 16.828 36.7594 17.7655 36.7219C18.4874 36.6938 19.4155 36.6 19.828 36.5156C20.2405 36.4313 20.9624 36.2344 21.4218 36.0844C21.8812 35.925 22.5374 35.6531 22.8749 35.475C23.2124 35.3063 23.7843 34.9313 24.1405 34.6594C24.5062 34.3875 25.0405 33.8625 25.3405 33.5063C25.6405 33.15 25.8843 32.8406 25.8749 32.8125C25.8749 32.7844 25.5468 32.7375 25.153 32.6906C24.7499 32.6531 23.9343 32.5125 23.3437 32.3813C22.753 32.25 21.403 31.8563 20.3437 31.5C19.2843 31.1531 17.6624 30.5625 16.7343 30.1875C15.8062 29.8125 14.353 29.1938 13.4999 28.8094C12.6468 28.425 11.1562 27.7031 10.1718 27.1969C9.1874 26.6906 7.96865 26.0344 7.45303 25.7344C6.9374 25.4438 6.0749 24.9188 5.53115 24.5813C4.9874 24.2438 4.14365 23.6719 3.65615 23.3063C3.16865 22.9406 2.5499 22.425 2.27803 22.1531C1.94053 21.8156 1.77178 21.7031 1.73428 21.7969C1.70615 21.8625 1.63115 22.275 1.5749 22.7063Z" fill="black"/>
</svg>
