<svg width="55" height="55" viewBox="0 0 55 55" fill="none" xmlns="http://www.w3.org/2000/svg">
<path fill-rule="evenodd" clip-rule="evenodd" d="M27.3312 11.4004C28.3227 11.4004 29.4195 11.4531 29.7676 11.5164C30.1156 11.5797 30.9699 11.7484 31.666 11.8855C32.3621 12.0227 33.5012 12.318 34.1973 12.55C35.0516 12.8348 35.5262 13.0562 35.6527 13.2145C35.7582 13.3516 35.8426 13.5836 35.832 13.7523C35.832 13.9105 35.716 14.1531 35.5684 14.3008C35.4313 14.4484 35.2203 14.5645 35.0938 14.5645C34.9777 14.5645 34.3238 14.3746 33.6383 14.1531C32.9633 13.9211 31.9297 13.6363 31.3496 13.5203C30.7695 13.4043 29.7781 13.2566 29.1348 13.1828C28.4809 13.1195 27.4262 13.0879 26.709 13.1195C26.0129 13.1512 25.0109 13.2566 24.4941 13.3516C23.9773 13.4359 23.0281 13.6574 22.3848 13.8367C21.7414 14.016 20.7605 14.3535 20.191 14.575C19.632 14.807 18.6828 15.2289 18.0816 15.5242C17.491 15.8301 16.5523 16.3363 16.0039 16.6738C15.4555 17.0113 14.5484 17.5914 14 17.9816C13.4516 18.3613 12.5445 19.0363 11.9961 19.4688C11.4477 19.9117 10.625 20.5973 10.1715 20.998C9.72852 21.4094 9.36992 21.7574 9.38047 21.7891C9.40156 21.8207 9.67578 21.7047 9.99219 21.5148C10.3086 21.3355 10.9414 20.998 11.3844 20.7766C11.8379 20.5445 12.323 20.3652 12.4707 20.3652C12.6184 20.3652 12.8504 20.4812 12.998 20.6289C13.1457 20.7766 13.2617 20.998 13.2617 21.1352C13.2617 21.2617 13.1879 21.4727 13.093 21.5992C12.998 21.7258 12.5129 22.0527 12.0066 22.327C11.5109 22.6012 10.4352 23.2234 9.62305 23.7086C8.81094 24.1937 7.53477 25.027 5.41484 26.5352L5.83672 26.5668C6.06875 26.5879 6.89141 26.4402 7.72461 26.2293C8.53672 26.0184 9.21172 25.8391 9.21172 25.8285C9.22227 25.8074 9.41211 25.4594 9.63359 25.0375C9.85508 24.6156 10.1187 24.2254 10.2242 24.1621C10.3297 24.1094 10.5301 24.0566 10.6777 24.0566C10.8254 24.0566 11.0574 24.1727 11.2051 24.3203C11.3527 24.468 11.4688 24.7 11.4688 24.8477C11.4688 24.9953 11.3211 25.4066 10.8148 26.4297L11.5004 27.1152C11.8801 27.4949 12.2176 27.9168 12.2598 28.0645C12.302 28.2227 12.2703 28.4547 12.1859 28.6234C12.1121 28.7816 11.9328 28.9609 11.7852 29.0242C11.6375 29.0875 11.4055 29.1086 11.2578 29.0664C11.1102 29.0242 10.6566 28.6656 9.51758 27.5266L8.19922 27.8641C7.38711 28.075 6.49062 28.2332 4.81367 28.3281L5.64687 29.2773C6.10039 29.7941 6.92305 30.6906 7.47148 31.2602C8.00937 31.8297 8.48398 32.2938 8.51562 32.2938C8.54727 32.2938 8.66328 31.8719 8.7793 31.3656C8.91641 30.7434 9.06406 30.3637 9.22227 30.1949C9.35937 30.0578 9.58086 29.9629 9.78125 29.9629C9.98164 29.9629 10.1926 30.0578 10.3613 30.2266C10.509 30.3742 10.625 30.5852 10.625 30.7012C10.625 30.8172 10.5723 31.1652 10.509 31.4605C10.4563 31.7664 10.4246 32.0301 10.4563 32.0406C10.4879 32.0617 10.6777 31.9773 10.857 31.8613C11.0469 31.7453 11.3316 31.6504 11.4898 31.6504C11.6691 31.6504 11.8906 31.7559 12.0488 31.9141C12.2176 32.0828 12.3125 32.2938 12.3125 32.4941C12.3125 32.684 12.2176 32.9055 12.0699 33.0426C11.9328 33.1797 11.532 33.4645 11.1734 33.6754C10.7375 33.9426 10.5441 34.1184 10.5934 34.2027C10.6461 34.2766 11.2473 34.7934 11.9434 35.3418C12.6395 35.9008 13.8207 36.7551 14.5801 37.2613C15.3395 37.757 16.2254 38.316 16.5523 38.4953C16.8898 38.6746 17.1641 38.7801 17.1641 38.7168C17.1641 38.6535 17.0586 38.4848 16.9215 38.316C16.7844 38.1578 16.4785 37.7465 16.2465 37.3984C16.0145 37.0504 15.6453 36.4176 15.4344 35.9957C15.2234 35.5844 15.0547 35.1098 15.0547 34.941C15.0547 34.7828 15.1602 34.5508 15.2973 34.4137C15.4449 34.2555 15.6559 34.1711 15.8984 34.1711C16.1199 34.1711 16.3309 34.2555 16.4363 34.3609C16.5313 34.4664 16.8266 34.9832 17.0902 35.5C17.3645 36.0168 17.9023 36.85 18.2926 37.3457C18.6828 37.8309 19.3684 38.548 19.8113 38.9277C20.2543 39.3074 20.9926 39.8348 21.4461 40.109C21.8996 40.3727 22.6379 40.7418 23.0703 40.9211C23.5027 41.0898 24.2938 41.343 24.8105 41.4801C25.6121 41.6805 26.034 41.7121 27.5 41.7121C29.0293 41.7121 29.3668 41.6699 30.2422 41.4379C30.7906 41.2902 31.6027 41.0266 32.0352 40.8367C32.4676 40.6574 33.2059 40.2777 33.6699 40.0035C34.134 39.7188 34.9355 39.0859 35.4523 38.6008C35.9586 38.1156 36.6125 37.409 36.8867 37.0293C37.1715 36.6496 37.5828 35.9852 37.8148 35.5527C38.0469 35.1203 38.3844 34.3609 38.5531 33.8652C38.7219 33.3695 38.9434 32.5152 39.0383 31.9668C39.1332 31.4184 39.207 30.5324 39.207 30.0156C39.207 29.4988 39.1332 28.634 39.0488 28.1172C38.9539 27.6004 38.7324 26.7355 38.5637 26.2188C38.3844 25.702 38.0574 24.9109 37.8254 24.4785C37.5828 24.0461 37.1715 23.3816 36.8867 23.002C36.6125 22.6223 36.0219 21.9684 35.5789 21.5465C35.1359 21.1352 34.3871 20.534 33.902 20.2176C33.4273 19.9012 32.7102 19.5004 32.2988 19.3105C31.8875 19.1312 31.2547 18.8887 30.875 18.7727C30.4953 18.6566 29.7359 18.4879 29.1875 18.4141C28.6391 18.3297 27.8586 18.2559 27.4473 18.2559C27.0465 18.2559 26.3715 18.3086 25.9707 18.3613C25.5699 18.4246 24.8527 18.5617 24.3887 18.6883C23.9246 18.8043 23.0281 19.1523 22.3848 19.4582C21.7414 19.7641 20.8449 20.302 20.3809 20.65C19.9168 20.998 19.2312 21.6098 18.8727 22.0105C18.5035 22.4113 17.9973 23.0441 17.7441 23.4238C17.491 23.8035 17.0902 24.5102 16.8582 25.0059C16.6262 25.5016 16.3098 26.3348 16.1621 26.8516C16.0145 27.3684 15.8457 28.2016 15.7824 28.6973C15.7191 29.193 15.698 30.1527 15.7297 30.8383C15.793 32.0512 15.7824 32.0828 15.5293 32.3359C15.3922 32.4836 15.1496 32.5996 15.002 32.5996C14.8543 32.5996 14.6223 32.4941 14.4641 32.357C14.2531 32.1672 14.1793 31.9668 14.0844 31.334C14.0316 30.9016 14 29.9945 14.0316 29.3301C14.0633 28.6656 14.1687 27.7375 14.2637 27.2734C14.3691 26.8094 14.559 26.0711 14.7066 25.6387C14.8543 25.2063 15.1707 24.468 15.4027 24.0039C15.6242 23.5398 16.0355 22.8332 16.3098 22.4219C16.5734 22.0211 17.2273 21.2406 17.7652 20.6816C18.3031 20.1332 18.7355 19.648 18.7461 19.5953C18.7461 19.5531 18.0078 19.7852 17.1113 20.1016C15.7719 20.5762 15.4344 20.6605 15.2129 20.5762C15.0652 20.5129 14.8754 20.3652 14.791 20.2281C14.7066 20.1016 14.6328 19.8906 14.6328 19.7535C14.6328 19.627 14.7383 19.4055 14.8648 19.2684C15.0125 19.1207 15.5926 18.8254 16.2676 18.5828C16.9109 18.3402 17.9973 17.9816 18.6934 17.7812C19.3895 17.5809 20.5285 17.2961 21.2246 17.1484C21.9207 17.0113 23.0598 16.8215 23.7559 16.7266C24.452 16.6316 25.7598 16.5367 26.6562 16.4945C27.616 16.4629 28.8711 16.484 29.7148 16.5578C30.4953 16.6211 31.6871 16.7688 32.3516 16.8848C33.016 16.9902 34.0602 17.2012 34.6719 17.3488C35.2836 17.4859 36.4016 17.8023 37.1504 18.0449C37.8992 18.2875 38.975 18.6672 39.5234 18.8887C40.0719 19.1102 41.0738 19.532 41.7383 19.8379C42.4027 20.1332 43.5102 20.6816 44.1852 21.0613C44.8707 21.4305 45.4719 21.7363 45.5352 21.7363C45.5984 21.7363 45.2293 21.3672 44.7336 20.9137C44.2379 20.4707 43.3414 19.7219 42.7508 19.2684C42.1707 18.8043 41.116 18.0555 40.4199 17.5914C39.7238 17.1379 38.7746 16.5367 38.3211 16.2625C37.857 15.9988 37.4246 15.6824 37.3402 15.5664C37.2664 15.4504 37.2031 15.2605 37.2031 15.1445C37.1926 15.0285 37.2875 14.807 37.4141 14.6383C37.5828 14.4168 37.7094 14.3535 38.0152 14.3535C38.3316 14.3535 38.7219 14.5328 39.7871 15.1762C40.5359 15.6191 41.6328 16.3258 42.2129 16.7371C42.793 17.1484 43.7844 17.9184 44.4277 18.4352C45.0711 18.952 46.1785 19.9223 46.8957 20.5867C47.6234 21.2512 48.7836 22.4008 49.4797 23.1602C50.1652 23.9195 51.2094 25.1113 51.7789 25.818C52.5172 26.7461 52.8125 27.1996 52.8125 27.4C52.823 27.5793 52.6648 27.9062 52.4223 28.2227C52.2113 28.5074 51.5996 29.2668 51.0617 29.9102C50.5344 30.5535 49.5008 31.6926 48.7836 32.4414C48.0559 33.1902 46.9062 34.3082 46.2207 34.9199C45.5457 35.5316 44.5543 36.3754 44.0164 36.7973C43.4891 37.2191 42.2973 38.0734 41.3691 38.6957C40.441 39.3285 38.9434 40.2039 38.0469 40.6574C37.1504 41.1215 35.8953 41.691 35.252 41.9441C34.6086 42.1867 33.5434 42.5348 32.8789 42.7141C32.2145 42.8934 31.1914 43.1148 30.6113 43.2203C29.8414 43.3574 29.0082 43.4102 27.5 43.4102C25.9918 43.4102 25.1586 43.3574 24.3887 43.2203C23.8086 43.1148 22.8172 42.8934 22.1738 42.7246C21.5305 42.5559 20.4652 42.2078 19.8008 41.9547C19.1363 41.7016 17.8707 41.132 17.0059 40.6891C16.1305 40.2566 14.7066 39.4234 13.8418 38.8434C12.9664 38.2738 11.6691 37.3246 10.9414 36.7445C10.2137 36.175 9.07461 35.1941 8.41016 34.5824C7.7457 33.9707 6.74375 33.0004 6.19531 32.4309C5.64687 31.8508 4.78203 30.9121 4.28633 30.332C3.79063 29.752 3.11563 28.9293 2.77813 28.5074C2.3668 27.9695 2.1875 27.6531 2.1875 27.4316C2.1875 27.2102 2.3668 26.8937 2.77813 26.3453C3.11563 25.934 3.79063 25.1113 4.28633 24.5312C4.78203 23.9512 5.64687 23.0125 6.19531 22.4324C6.74375 21.8629 7.7457 20.8926 8.41016 20.2809C9.07461 19.6691 10.2137 18.6883 10.9414 18.1187C11.6691 17.5387 12.9664 16.5895 13.8418 16.0199C14.7066 15.4398 16.1305 14.6066 17.0059 14.1742C17.8707 13.7313 19.1047 13.1723 19.748 12.9191C20.3914 12.6766 21.4566 12.3285 22.1211 12.1492C22.7855 11.9699 23.8086 11.7484 24.3887 11.6641C24.9688 11.5691 25.4645 11.4742 25.4855 11.4426C25.5066 11.4215 26.3398 11.4004 27.3312 11.4004ZM38.7008 22.4746C39.0277 22.9703 39.4391 23.677 39.6289 24.0566C39.8187 24.4363 40.1246 25.2168 40.3145 25.7969C40.5043 26.377 40.7363 27.3473 40.8312 27.959C40.9262 28.5707 41 29.4672 41 29.9629C41 30.4586 40.9262 31.3129 40.8418 31.8613C40.768 32.4098 40.5676 33.2957 40.4199 33.8125C40.2723 34.3293 39.8926 35.2785 39.5762 35.9219C39.2598 36.5547 38.7113 37.4617 38.3633 37.9258C38.0152 38.3898 37.7305 38.8012 37.7305 38.8434C37.7305 38.8961 37.7621 38.9066 37.8043 38.8855C37.857 38.8645 38.3422 38.5691 38.8906 38.2422C39.4391 37.9047 40.1773 37.4406 40.5254 37.2086C40.8734 36.9766 41.5801 36.4703 42.0863 36.0906C42.5926 35.7109 43.0145 35.3734 43.0145 35.3418C43.0145 35.3102 42.8141 35.1941 42.5715 35.0781C42.3289 34.9621 42.0652 34.7723 41.9914 34.6562C41.907 34.5402 41.8438 34.3188 41.8438 34.15C41.8438 33.9918 41.9598 33.7492 42.1074 33.6016C42.2445 33.4539 42.4871 33.3379 42.6348 33.3379C42.7824 33.3379 43.0461 33.4117 43.2148 33.4961L43.5312 33.6543C43.5312 32.2727 43.5629 32.1461 43.7949 31.9141C43.9426 31.7664 44.1746 31.6504 44.3434 31.6504C44.5016 31.6398 44.7547 31.7348 44.9023 31.8508C45.1238 32.0195 45.1766 32.1672 45.2188 32.7684L45.2715 33.475C47.0539 31.777 48.1613 30.6168 48.8891 29.8047L50.2074 28.3281C48.3512 28.2332 48.1297 28.1699 47.5391 27.8641L46.8535 27.516L44.9867 28.1172C44.3434 29.3828 44.0691 29.7941 43.9531 29.8574C43.8371 29.9102 43.6262 29.9629 43.4785 29.9629C43.3309 29.9629 43.0988 29.8469 42.9512 29.6992C42.8035 29.5516 42.6875 29.3195 42.6875 29.1719C42.6875 29.0242 42.8563 28.5602 43.0672 28.1383L43.4574 27.3789C42.8562 25.5754 42.6875 24.9531 42.6875 24.816C42.6875 24.6895 42.8035 24.468 42.9512 24.3203C43.0988 24.1621 43.3309 24.0566 43.4996 24.0566C43.6578 24.0566 43.9004 24.1305 44.0375 24.2148C44.1957 24.3203 44.3645 24.6789 44.5859 25.375L44.9023 26.377C46.3367 25.8813 46.8324 25.7441 46.9379 25.7441C47.0328 25.7441 47.5074 25.934 47.982 26.1766C48.6148 26.4824 48.9629 26.5984 49.216 26.5668C49.5746 26.5352 49.5641 26.5246 48.3723 25.6809C47.7078 25.2062 46.5477 24.4469 45.7988 23.9828C45.05 23.5188 43.9742 22.907 43.4258 22.6117C42.8773 22.3164 41.8016 21.7891 41.0527 21.441C40.3039 21.093 39.0383 20.5762 38.2578 20.2809C37.4773 19.9855 36.6969 19.7113 36.5281 19.6691C36.2539 19.5953 36.3383 19.7219 37.1609 20.5867C37.6777 21.1352 38.3738 21.9789 38.7008 22.4746ZM27.4156 21.5359C27.8691 21.5359 28.5863 21.5887 28.9977 21.673C29.4195 21.7574 30.0523 21.9262 30.4004 22.0527C30.7484 22.1687 31.2863 22.4113 31.5816 22.5801C31.8875 22.7594 32.1828 22.9914 32.2461 23.1074C32.3094 23.2234 32.3516 23.4555 32.3516 23.6348C32.3516 23.8562 32.2672 24.0145 32.0563 24.1621C31.898 24.2887 31.6766 24.373 31.5605 24.373C31.4445 24.373 30.9699 24.1832 30.5059 23.9512C30.0418 23.7191 29.3141 23.466 28.8922 23.3711C28.4809 23.2867 27.8375 23.2129 27.4684 23.2129C27.1098 23.2129 26.477 23.2867 26.0762 23.3711C25.6754 23.4555 24.9582 23.7086 24.4941 23.9406C24.009 24.1832 23.3656 24.6156 22.9754 24.9742C22.6063 25.3117 22.1211 25.8496 21.9102 26.166C21.6887 26.4824 21.3934 27.0309 21.2457 27.3789C21.098 27.727 20.9187 28.3176 20.8449 28.6973C20.7711 29.1191 20.7395 29.773 20.7711 30.3848C20.8133 30.9543 20.9293 31.682 21.0559 32.0723C21.1719 32.452 21.4461 33.0637 21.6676 33.4328C21.8891 33.802 22.3637 34.3926 22.7117 34.7512C23.0703 35.0992 23.6609 35.5738 24.0301 35.7953C24.3992 36.0168 25.0109 36.291 25.3906 36.407C25.7809 36.5336 26.5086 36.6496 27.0781 36.6918C27.6898 36.7234 28.3438 36.6918 28.7656 36.618C29.1453 36.5441 29.7359 36.3648 30.084 36.2172C30.432 36.0695 30.9805 35.7742 31.2969 35.5527C31.6133 35.3418 32.1512 34.8566 32.4887 34.4875C32.8473 34.0973 33.2797 33.4539 33.5223 32.9688C33.7543 32.5047 34.0074 31.798 34.0918 31.3867C34.1762 30.9754 34.25 30.3531 34.25 29.984C34.25 29.6254 34.1762 28.982 34.0918 28.5602C33.9969 28.1488 33.7437 27.4211 33.5117 26.957C33.2797 26.493 33.0898 25.9973 33.0898 25.8496C33.0898 25.702 33.1953 25.4805 33.3219 25.3434C33.5117 25.1641 33.6594 25.1113 33.9863 25.1324C34.3344 25.1641 34.4398 25.2273 34.693 25.5859C34.8512 25.818 35.1359 26.3875 35.3152 26.8516C35.4945 27.3156 35.7055 28.0434 35.7898 28.4547C35.8742 28.8766 35.9375 29.5727 35.9375 29.984C35.9375 30.4059 35.8426 31.2074 35.7266 31.7559C35.5895 32.4098 35.3574 33.0848 35.0516 33.707C34.7879 34.2238 34.3449 34.941 34.0707 35.2891C33.7859 35.6371 33.248 36.175 32.8684 36.4809C32.4992 36.7867 31.7609 37.2508 31.2441 37.5145C30.7273 37.7676 29.9152 38.0734 29.4512 38.1895C28.8711 38.3371 28.2594 38.4004 27.5 38.4004C26.7617 38.4004 26.1008 38.3301 25.5172 38.1895C25.0426 38.0734 24.3359 37.8309 23.9352 37.6516C23.5449 37.4723 22.9438 37.1242 22.5957 36.8711C22.2477 36.6285 21.6992 36.1434 21.3723 35.8059C21.0453 35.4578 20.5813 34.8777 20.3387 34.498C20.0961 34.1184 19.7586 33.4539 19.6004 33.0215C19.4316 32.5891 19.2418 31.9457 19.1785 31.5977C19.1152 31.2496 19.0625 30.4902 19.0625 29.9102C19.0625 29.3301 19.1363 28.5496 19.2207 28.1699C19.3156 27.7902 19.5055 27.1785 19.6531 26.7988C19.8008 26.4191 20.1805 25.7336 20.4863 25.2695C20.7922 24.8055 21.3195 24.1727 21.657 23.8563C22.0051 23.5398 22.4902 23.1391 22.7539 22.9703C23.0176 22.791 23.566 22.4957 23.9668 22.3059C24.3676 22.116 24.9898 21.8945 25.3379 21.8102C25.6859 21.7152 26.1078 21.6203 26.2871 21.5992C26.4664 21.5781 26.9727 21.5465 27.4156 21.5359ZM27.7637 25.7969C28.1117 25.8285 28.6074 25.9234 28.8711 26.0078C29.1348 26.1027 29.525 26.2926 29.7359 26.4297C30.0734 26.6512 30.2105 26.6828 30.6324 26.6301C30.9699 26.5809 31.3145 26.6125 31.666 26.725C32.0352 26.841 32.341 27.052 32.6785 27.4C32.9633 27.6953 33.2164 28.0855 33.2902 28.3281C33.3535 28.5602 33.4062 28.9188 33.4062 29.1191C33.4062 29.3195 33.3535 29.6781 33.2902 29.9102C33.2164 30.1527 32.9633 30.543 32.6785 30.8383C32.3832 31.1441 32.0352 31.3973 31.782 31.4711C31.4867 31.566 31.3285 31.6926 31.1914 31.9668C31.0859 32.1672 30.7906 32.568 30.548 32.8527C30.2316 33.1902 29.8203 33.4855 29.3035 33.7492C28.5652 34.1078 28.4492 34.1289 27.5105 34.1289C26.6035 34.1289 26.4242 34.0973 25.8125 33.8125C25.4328 33.6332 24.8949 33.2746 24.6207 33.0215C24.2937 32.7262 23.9668 32.2727 23.7453 31.8086C23.5027 31.3023 23.3656 30.8488 23.3129 30.3848C23.2812 29.9629 23.3023 29.4777 23.3867 29.1191C23.4605 28.8027 23.6398 28.2965 23.7875 28.0117C23.9352 27.7164 24.2727 27.2734 24.5363 26.9992C24.8 26.7355 25.2852 26.398 25.6016 26.2398C25.918 26.0816 26.3926 25.9129 26.6562 25.8602C26.9199 25.7969 27.4156 25.7758 27.7637 25.7969ZM25.7598 28.2227C25.4328 28.5391 25.1797 28.9188 25.0953 29.1719C25.032 29.4039 24.9688 29.7625 24.9688 29.9629C24.9688 30.1633 25.032 30.5219 25.0953 30.7539C25.1797 31.007 25.4328 31.3867 25.7598 31.7031C26.0762 32.0301 26.4559 32.2832 26.709 32.3676C26.941 32.4309 27.3207 32.4941 27.5527 32.4941C27.7848 32.4941 28.2172 32.3781 28.502 32.241C28.7973 32.1039 29.1559 31.8613 29.3246 31.6926L29.6094 31.3867C28.7445 30.4902 28.5547 30.1738 28.4598 29.8047C28.3754 29.5094 28.3332 29.0875 28.3648 28.8555C28.3859 28.6234 28.4809 28.2859 28.5652 28.1066C28.7023 27.7902 28.7023 27.7691 28.4492 27.6426C28.3016 27.5688 27.9219 27.4949 27.6055 27.4738C27.2891 27.4527 26.8566 27.4949 26.6562 27.5582C26.4559 27.632 26.0445 27.9273 25.7598 28.2227ZM30.0312 29.1191C30.0312 29.3195 30.1262 29.5305 30.2949 29.6992C30.4637 29.868 30.6746 29.9629 30.875 29.9629C31.0859 29.9629 31.2969 29.868 31.4551 29.6992C31.6238 29.541 31.7188 29.309 31.7188 29.1191C31.7188 28.9188 31.6238 28.7078 31.4551 28.5391C31.2863 28.3703 31.0754 28.2754 30.875 28.2754C30.6641 28.2754 30.4531 28.3703 30.2949 28.5391C30.1473 28.6867 30.0418 28.9188 30.0312 29.1191Z" fill="url(#paint0_linear_1968_3757)"/>
<defs>
<linearGradient id="paint0_linear_1968_3757" x1="-3.07414" y1="-0.189342" x2="62.5067" y2="0.0408945" gradientUnits="userSpaceOnUse">
<stop stop-color="#BF8327"/>
<stop offset="0.485" stop-color="#F4DC60"/>
<stop offset="1" stop-color="#BF8327"/>
</linearGradient>
</defs>
</svg>
