<svg width="70" height="70" viewBox="0 0 70 70" fill="none" xmlns="http://www.w3.org/2000/svg">
<path d="M67.1279 2.05078H2.87012C2.41758 2.05078 2.0498 2.41855 2.0498 2.87109V67.1289C2.0498 67.5814 2.41758 67.9492 2.87012 67.9492H67.1279C67.5805 67.9492 67.9482 67.5814 67.9482 67.1289V2.87109C67.9482 2.41855 67.5805 2.05078 67.1279 2.05078ZM66.3076 3.81172V66.1897H3.69043V3.81172H66.3076ZM50.116 57.8908V61.0135C50.116 61.466 50.4838 61.8338 50.9363 61.8338H51.892C53.3932 61.8338 54.2039 60.6047 54.2039 59.4494C54.2039 58.8465 54.0029 58.2764 53.6365 57.8471C53.2113 57.3467 52.592 57.0719 51.8934 57.0719H50.9377C50.8299 57.0716 50.7232 57.0925 50.6235 57.1335C50.5238 57.1745 50.4333 57.2348 50.3569 57.3108C50.2806 57.3869 50.22 57.4773 50.1787 57.5768C50.1373 57.6764 50.1161 57.7831 50.116 57.8908ZM51.7566 58.7111H51.892C52.1107 58.7111 52.2734 58.7754 52.3855 58.9094C52.4977 59.042 52.5619 59.2389 52.5619 59.4494C52.5619 59.6244 52.5141 60.1932 51.8906 60.1932H51.7553V58.7111H51.7566ZM59.0355 44.2709C59.0355 43.8184 59.4033 43.4506 59.8559 43.4506H62.8582C63.3107 43.4506 63.6785 43.8184 63.6785 44.2709C63.6785 44.7234 63.3107 45.0912 62.8582 45.0912H59.8559C59.4033 45.0912 59.0355 44.7234 59.0355 44.2709ZM59.0355 53.5418C59.0355 53.0893 59.4033 52.7215 59.8559 52.7215H62.8582C63.3107 52.7215 63.6785 53.0893 63.6785 53.5418C63.6785 53.9943 63.3107 54.3621 62.8582 54.3621H59.8559C59.4033 54.3621 59.0355 53.9943 59.0355 53.5418ZM59.0355 48.9057C59.0355 48.4531 59.4033 48.0854 59.8559 48.0854H62.8582C63.3107 48.0854 63.6785 48.4531 63.6785 48.9057C63.6785 49.3582 63.3107 49.726 62.8582 49.726H59.8559C59.4033 49.726 59.0355 49.3582 59.0355 48.9057ZM59.0355 62.8113C59.0355 62.3588 59.4033 61.991 59.8559 61.991H62.8582C63.3107 61.991 63.6785 62.3588 63.6785 62.8113C63.6785 63.2639 63.3107 63.6316 62.8582 63.6316H59.8559C59.4033 63.6316 59.0355 63.2652 59.0355 62.8113ZM59.0355 58.1766C59.0355 57.724 59.4033 57.3562 59.8559 57.3562H62.8582C63.3107 57.3562 63.6785 57.724 63.6785 58.1766C63.6785 58.6291 63.3107 58.9969 62.8582 58.9969H59.8559C59.4033 58.9969 59.0355 58.6291 59.0355 58.1766ZM59.0355 21.0943C59.0355 20.6418 59.4033 20.274 59.8559 20.274H62.8582C63.3107 20.274 63.6785 20.6418 63.6785 21.0943C63.6785 21.5469 63.3107 21.9146 62.8582 21.9146H59.8559C59.4033 21.9146 59.0355 21.5469 59.0355 21.0943ZM59.0355 11.8234C59.0355 11.3709 59.4033 11.0031 59.8559 11.0031H62.8582C63.3107 11.0031 63.6785 11.3709 63.6785 11.8234C63.6785 12.276 63.3107 12.6438 62.8582 12.6438H59.8559C59.4033 12.6438 59.0355 12.2773 59.0355 11.8234ZM45.0164 58.4432V58.4801H45.9215C46.374 58.4801 46.7418 58.8479 46.7418 59.3004C46.7418 59.7529 46.374 60.1207 45.9215 60.1207H45.0164V61.0135C45.0164 61.466 44.6486 61.8338 44.1961 61.8338C43.7436 61.8338 43.3758 61.466 43.3758 61.0135V57.6229C43.3758 57.1703 43.7436 56.8025 44.1961 56.8025H45.9215C46.374 56.8025 46.7418 57.1703 46.7418 57.6229C46.7418 58.0754 46.374 58.4432 45.9215 58.4432H45.0164ZM59.0355 7.18867C59.0355 6.73613 59.4033 6.36836 59.8559 6.36836H62.8582C63.3107 6.36836 63.6785 6.73613 63.6785 7.18867C63.6785 7.64121 63.3107 8.00898 62.8582 8.00898H59.8559C59.4033 8.00898 59.0355 7.64121 59.0355 7.18867ZM38.607 49.0766V49.7479H40.1643C40.6168 49.7479 40.9846 50.1156 40.9846 50.5682C40.9846 51.0207 40.6168 51.3885 40.1643 51.3885H38.607V52.1076H40.1643C40.6168 52.1076 40.9846 52.4754 40.9846 52.9279C40.9846 53.3805 40.6168 53.7482 40.1643 53.7482H37.7867C37.3342 53.7482 36.9664 53.3805 36.9664 52.9279V48.2562C36.9664 47.8037 37.3342 47.4359 37.7867 47.4359H40.1643C40.6168 47.4359 40.9846 47.8037 40.9846 48.2562C40.9846 48.7088 40.6168 49.0766 40.1643 49.0766H38.607ZM59.0355 39.6348C59.0355 39.1822 59.4033 38.8145 59.8559 38.8145H62.8582C63.3107 38.8145 63.6785 39.1822 63.6785 39.6348C63.6785 40.0873 63.3107 40.4551 62.8582 40.4551H59.8559C59.4033 40.4551 59.0355 40.0887 59.0355 39.6348ZM33.0371 60.6676C33.1479 61.1064 32.8826 61.5535 32.4438 61.6643C32.0568 61.7627 31.685 61.8105 31.335 61.8105C30.3492 61.8105 29.5357 61.4318 29.0586 60.7195C28.5049 59.8924 28.535 58.7932 29.1352 57.9852C29.827 57.0514 31.0711 56.7479 32.4602 57.1717C32.8936 57.3043 33.1383 57.7623 33.0057 58.1957C32.873 58.6291 32.415 58.8725 31.9816 58.7412C31.2734 58.5252 30.717 58.6059 30.4531 58.9627C30.2686 59.2115 30.2563 59.5588 30.4217 59.8063C30.665 60.1686 31.2693 60.2697 32.0404 60.0742C32.2513 60.021 32.4746 60.0536 32.6614 60.1649C32.8483 60.2761 32.9834 60.4569 33.0371 60.6676ZM24.2475 58.4432V58.4801H25.1525C25.6051 58.4801 25.9729 58.8479 25.9729 59.3004C25.9729 59.7529 25.6051 60.1207 25.1525 60.1207H24.2475V60.1932H25.1525C25.6051 60.1932 25.9729 60.5609 25.9729 61.0135C25.9729 61.466 25.6051 61.8338 25.1525 61.8338H23.4271C22.9746 61.8338 22.6068 61.466 22.6068 61.0135V57.6229C22.6068 57.1703 22.9746 56.8025 23.4271 56.8025H25.1525C25.6051 56.8025 25.9729 57.1703 25.9729 57.6229C25.9729 58.0754 25.6051 58.4432 25.1525 58.4432H24.2475ZM59.0355 35C59.0355 34.5475 59.4033 34.1797 59.8559 34.1797H62.8582C63.3107 34.1797 63.6785 34.5475 63.6785 35C63.6785 35.4525 63.3107 35.8203 62.8582 35.8203H59.8559C59.4033 35.8203 59.0355 35.4525 59.0355 35ZM59.0355 30.3652C59.0355 29.9127 59.4033 29.5449 59.8559 29.5449H62.8582C63.3107 29.5449 63.6785 29.9127 63.6785 30.3652C63.6785 30.8178 63.3107 31.1855 62.8582 31.1855H59.8559C59.4033 31.1855 59.0355 30.8178 59.0355 30.3652ZM47.3242 47.466C46.8717 47.466 46.5039 47.8338 46.5039 48.2863V52.7406C46.5039 53.1932 46.8717 53.5609 47.3242 53.5609H48.6873C50.6219 53.5609 51.635 52.0256 51.635 50.5094C51.635 49.7314 51.3766 49 50.909 48.4504C50.3703 47.816 49.5814 47.4674 48.6887 47.4674H47.3242V47.466ZM49.658 49.5113C49.8713 49.7615 49.9943 50.1252 49.9943 50.508C49.9943 50.6529 49.9574 51.9189 48.6873 51.9189H48.1445V49.1053H48.6873C49.1029 49.1066 49.4297 49.2434 49.658 49.5113ZM59.0355 25.7291C59.0355 25.2766 59.4033 24.9088 59.8559 24.9088H62.8582C63.3107 24.9088 63.6785 25.2766 63.6785 25.7291C63.6785 26.1816 63.3107 26.5494 62.8582 26.5494H59.8559C59.4033 26.5494 59.0355 26.183 59.0355 25.7291ZM59.0355 16.4596C59.0355 16.007 59.4033 15.6393 59.8559 15.6393H62.8582C63.3107 15.6393 63.6785 16.007 63.6785 16.4596C63.6785 16.9121 63.3107 17.2799 62.8582 17.2799H59.8559C59.4033 17.2799 59.0355 16.9121 59.0355 16.4596ZM38.0055 58.4432V58.4801H38.9105C39.3631 58.4801 39.7309 58.8479 39.7309 59.3004C39.7309 59.7529 39.3631 60.1207 38.9105 60.1207H38.0055V60.1932H38.9105C39.3631 60.1932 39.7309 60.5609 39.7309 61.0135C39.7309 61.466 39.3631 61.8338 38.9105 61.8338H37.1852C36.7326 61.8338 36.3648 61.466 36.3648 61.0135V57.6229C36.3648 57.1703 36.7326 56.8025 37.1852 56.8025H38.9105C39.3631 56.8025 39.7309 57.1703 39.7309 57.6229C39.7309 58.0754 39.3631 58.4432 38.9105 58.4432H38.0055ZM6.31953 30.3652C6.31953 29.9127 6.6873 29.5449 7.13984 29.5449H10.1422C10.5947 29.5449 10.9625 29.9127 10.9625 30.3652C10.9625 30.8178 10.5947 31.1855 10.1422 31.1855H7.13984C6.6873 31.1855 6.31953 30.8178 6.31953 30.3652ZM6.31953 39.6348C6.31953 39.1822 6.6873 38.8145 7.13984 38.8145H10.1422C10.5947 38.8145 10.9625 39.1822 10.9625 39.6348C10.9625 40.0873 10.5947 40.4551 10.1422 40.4551H7.13984C6.6873 40.4551 6.31953 40.0887 6.31953 39.6348ZM6.31953 35C6.31953 34.5475 6.6873 34.1797 7.13984 34.1797H10.1422C10.5947 34.1797 10.9625 34.5475 10.9625 35C10.9625 35.4525 10.5947 35.8203 10.1422 35.8203H7.13984C6.6873 35.8203 6.31953 35.4525 6.31953 35ZM6.31953 25.7291C6.31953 25.2766 6.6873 24.9088 7.13984 24.9088H10.1422C10.5947 24.9088 10.9625 25.2766 10.9625 25.7291C10.9625 26.1816 10.5947 26.5494 10.1422 26.5494H7.13984C6.6873 26.5494 6.31953 26.183 6.31953 25.7291ZM6.31953 16.4596C6.31953 16.007 6.6873 15.6393 7.13984 15.6393H10.1422C10.5947 15.6393 10.9625 16.007 10.9625 16.4596C10.9625 16.9121 10.5947 17.2799 10.1422 17.2799H7.13984C6.6873 17.2799 6.31953 16.9121 6.31953 16.4596ZM6.31953 21.0943C6.31953 20.6418 6.6873 20.274 7.13984 20.274H10.1422C10.5947 20.274 10.9625 20.6418 10.9625 21.0943C10.9625 21.5469 10.5947 21.9146 10.1422 21.9146H7.13984C6.6873 21.9146 6.31953 21.5469 6.31953 21.0943ZM6.31953 62.8113C6.31953 62.3588 6.6873 61.991 7.13984 61.991H10.1422C10.5947 61.991 10.9625 62.3588 10.9625 62.8113C10.9625 63.2639 10.5947 63.6316 10.1422 63.6316H7.13984C6.6873 63.6316 6.31953 63.2652 6.31953 62.8113ZM6.31953 58.1766C6.31953 57.724 6.6873 57.3562 7.13984 57.3562H10.1422C10.5947 57.3562 10.9625 57.724 10.9625 58.1766C10.9625 58.6291 10.5947 58.9969 10.1422 58.9969H7.13984C6.6873 58.9969 6.31953 58.6291 6.31953 58.1766ZM6.31953 48.9057C6.31953 48.4531 6.6873 48.0854 7.13984 48.0854H10.1422C10.5947 48.0854 10.9625 48.4531 10.9625 48.9057C10.9625 49.3582 10.5947 49.726 10.1422 49.726H7.13984C6.6873 49.726 6.31953 49.3582 6.31953 48.9057ZM6.31953 53.5418C6.31953 53.0893 6.6873 52.7215 7.13984 52.7215H10.1422C10.5947 52.7215 10.9625 53.0893 10.9625 53.5418C10.9625 53.9943 10.5947 54.3621 10.1422 54.3621H7.13984C6.6873 54.3621 6.31953 53.9943 6.31953 53.5418ZM6.31953 44.2709C6.31953 43.8184 6.6873 43.4506 7.13984 43.4506H10.1422C10.5947 43.4506 10.9625 43.8184 10.9625 44.2709C10.9625 44.7234 10.5947 45.0912 10.1422 45.0912H7.13984C6.6873 45.0912 6.31953 44.7234 6.31953 44.2709ZM31.8477 18.8672V8.6748C31.8477 8.22227 32.2154 7.85449 32.668 7.85449H38.8326C39.2852 7.85449 39.6529 8.22227 39.6529 8.6748C39.6529 9.12734 39.2852 9.49512 38.8326 9.49512H33.4883V12.9514H38.4717C38.9242 12.9514 39.292 13.3191 39.292 13.7717C39.292 14.2242 38.9242 14.592 38.4717 14.592H33.4883V18.0469H38.4717C38.9242 18.0469 39.292 18.4146 39.292 18.8672C39.292 19.3197 38.9242 19.6875 38.4717 19.6875H32.668C32.2141 19.6875 31.8477 19.3211 31.8477 18.8672ZM6.31953 11.8234C6.31953 11.3709 6.6873 11.0031 7.13984 11.0031H10.1422C10.5947 11.0031 10.9625 11.3709 10.9625 11.8234C10.9625 12.276 10.5947 12.6438 10.1422 12.6438H7.13984C6.6873 12.6438 6.31953 12.2773 6.31953 11.8234ZM29.4305 47.3977H28.0592C27.6066 47.3977 27.2389 47.7654 27.2389 48.218V52.999C27.2389 53.4516 27.6066 53.8193 28.0592 53.8193C28.5117 53.8193 28.8795 53.4516 28.8795 52.999V51.6455H29.4305C30.0525 51.6455 30.6035 51.398 30.9809 50.9469C31.3035 50.5641 31.4799 50.0582 31.4799 49.525C31.4812 48.3123 30.5994 47.3977 29.4305 47.3977ZM29.7258 49.8914C29.6807 49.9447 29.6082 50.0049 29.4305 50.0049H28.8795V49.0383H29.4305C29.801 49.0383 29.8406 49.3787 29.8406 49.525C29.8406 49.6686 29.7982 49.8053 29.7258 49.8914ZM44.4094 36.7459H48.3441C48.3592 36.7459 48.3756 36.7473 48.3906 36.7486C48.4029 36.75 48.4139 36.75 48.4262 36.7514C48.4412 36.7527 48.4549 36.7555 48.4699 36.7582C48.4822 36.7609 48.4945 36.7623 48.5068 36.765C48.5205 36.7678 48.5328 36.7719 48.5465 36.7746C48.5588 36.7787 48.5725 36.7814 48.5848 36.7855C48.5971 36.7896 48.608 36.7938 48.6203 36.7979C48.634 36.8033 48.6477 36.8074 48.6613 36.8143C48.6723 36.8184 48.6818 36.8238 48.6928 36.8293C48.7169 36.8409 48.7402 36.8542 48.7625 36.8689C48.7762 36.8772 48.7898 36.8867 48.8035 36.8949C48.8063 36.8977 48.8103 36.899 48.8145 36.9018C48.8199 36.9059 48.8254 36.9113 48.8309 36.9154C48.8432 36.925 48.8555 36.9346 48.8664 36.9441C48.876 36.9523 48.8855 36.9619 48.8951 36.9701C48.9047 36.9797 48.9143 36.9879 48.9238 36.9975C48.9334 37.0084 48.943 37.018 48.9525 37.0289L48.9758 37.0563C48.9854 37.0672 48.9936 37.0795 49.0018 37.0918C49.0086 37.1014 49.0154 37.1123 49.0223 37.1219C49.0291 37.1342 49.0373 37.1451 49.0441 37.1574C49.051 37.1697 49.0564 37.1807 49.0633 37.193L49.0797 37.2258C49.0852 37.2395 49.092 37.2531 49.0975 37.2668C49.1016 37.2777 49.1057 37.2873 49.1084 37.2982C49.1139 37.3133 49.118 37.3283 49.1221 37.3434C49.1248 37.3543 49.1275 37.3652 49.1303 37.3748C49.1344 37.3898 49.1371 37.4049 49.1398 37.4199C49.1426 37.4322 49.1439 37.4445 49.1453 37.4568C49.1467 37.4705 49.1494 37.4842 49.1494 37.4978C49.1508 37.5129 49.1508 37.5266 49.1521 37.5416C49.1521 37.5498 49.1535 37.5566 49.1535 37.5648V37.5785C49.1535 37.5936 49.1521 37.61 49.1508 37.625C49.1494 37.6373 49.1494 37.6482 49.148 37.6605C49.1467 37.6756 49.1439 37.6893 49.1412 37.7043C49.1385 37.7166 49.1371 37.7289 49.1344 37.7412C49.1316 37.7549 49.1275 37.7686 49.1234 37.7809C49.1193 37.7932 49.1166 37.8068 49.1125 37.8191C49.1084 37.8314 49.1043 37.8438 49.0988 37.8547C49.0934 37.8684 49.0893 37.882 49.0824 37.8943C49.0783 37.9053 49.0728 37.9162 49.0674 37.9258L49.0469 37.9668C49.0414 37.9764 49.0346 37.9859 49.0291 37.9955C49.0209 38.0092 49.0127 38.0229 49.0031 38.0352C49.0004 38.0393 48.999 38.042 48.9963 38.0461L46.0213 42.1449H48.3332C48.7857 42.1449 49.1535 42.5127 49.1535 42.9652C49.1535 43.4178 48.7857 43.7855 48.3332 43.7855H44.4121C44.1031 43.7855 43.8215 43.6119 43.6807 43.3385C43.5398 43.065 43.5672 42.7342 43.7477 42.484L46.7227 38.3852H44.4107C43.9582 38.3852 43.5904 38.0174 43.5904 37.5648C43.5904 37.1123 43.9555 36.7459 44.4094 36.7459ZM38.1764 23.0754V31.2594C38.1764 31.7119 38.5441 32.0797 38.9967 32.0797C39.4492 32.0797 39.817 31.7119 39.817 31.2594V28.3582H41.3441C42.2328 28.3582 43.0176 28.0068 43.5521 27.3711C44.0156 26.8201 44.2699 26.0887 44.2699 25.3135C44.2699 23.7945 43.265 22.2564 41.3441 22.2564H38.9967C38.5441 22.2551 38.1764 22.6229 38.1764 23.0754ZM39.817 23.8957H41.3441C42.5938 23.8957 42.6293 25.1672 42.6293 25.3121C42.6293 25.6977 42.5076 26.0627 42.2957 26.3143C42.0715 26.5809 41.7502 26.7176 41.3441 26.7176H39.817V23.8957ZM25.3863 31.1568V23.0084C25.3863 22.5559 25.7541 22.1881 26.2066 22.1881H30.2111C30.6637 22.1881 31.0314 22.5559 31.0314 23.0084C31.0314 23.4609 30.6637 23.8287 30.2111 23.8287H27.027V26.3225H30.2111C30.6637 26.3225 31.0314 26.6902 31.0314 27.1428C31.0314 27.5953 30.6637 27.9631 30.2111 27.9631H27.027V31.1568C27.027 31.6094 26.6592 31.9771 26.2066 31.9771C25.7541 31.9771 25.3863 31.6094 25.3863 31.1568ZM34.9389 43.9674C36.7805 43.9674 38.2789 42.35 38.2789 40.3621C38.2789 38.3742 36.7805 36.7568 34.9389 36.7568C33.0973 36.7568 31.5988 38.3742 31.5988 40.3621C31.5988 42.35 33.0973 43.9674 34.9389 43.9674ZM34.9389 38.3975C35.8754 38.3975 36.6383 39.2793 36.6383 40.3621C36.6383 41.4449 35.8754 42.3268 34.9389 42.3268C34.0023 42.3268 33.2395 41.4449 33.2395 40.3621C33.2395 39.2793 34.0023 38.3975 34.9389 38.3975ZM16.6145 62.1455C17.067 62.1455 17.4348 61.7777 17.4348 61.3252V60.4051H17.7123C18.2592 60.4051 18.7445 60.1863 19.0795 59.7871C19.3625 59.4508 19.5184 59.0092 19.5184 58.543C19.5184 57.4793 18.7418 56.6768 17.7137 56.6768H16.6158C16.1633 56.6768 15.7955 57.0445 15.7955 57.4971V61.3252C15.7941 61.7777 16.1619 62.1455 16.6145 62.1455ZM17.4348 58.3174H17.7123C17.7615 58.3174 17.8764 58.3174 17.8764 58.543C17.8764 58.6346 17.8477 58.7016 17.823 58.7316C17.8135 58.7426 17.7957 58.7645 17.7123 58.7645H17.4348V58.3174ZM6.31953 7.18867C6.31953 6.73613 6.6873 6.36836 7.13984 6.36836H10.1422C10.5947 6.36836 10.9625 6.73613 10.9625 7.18867C10.9625 7.64121 10.5947 8.00898 10.1422 8.00898H7.13984C6.6873 8.00898 6.31953 7.64121 6.31953 7.18867ZM18.3631 52.9238V48.2631C18.3631 47.8105 18.7309 47.4428 19.1834 47.4428C19.6359 47.4428 20.0037 47.8105 20.0037 48.2631V52.1035H21.4584C21.9109 52.1035 22.2787 52.4713 22.2787 52.9238C22.2787 53.3764 21.9109 53.7441 21.4584 53.7441H19.1834C18.7309 53.7441 18.3631 53.3764 18.3631 52.9238ZM20.5055 37.64C20.5055 37.1875 20.8732 36.8197 21.3258 36.8197H25.9113C26.3639 36.8197 26.7316 37.1875 26.7316 37.64C26.7316 38.0926 26.3639 38.4604 25.9113 38.4604H24.4389V43.4629C24.4389 43.9154 24.0711 44.2832 23.6186 44.2832C23.166 44.2832 22.7982 43.9154 22.7982 43.4629V38.4604H21.3258C20.8719 38.4604 20.5055 38.0939 20.5055 37.64Z" fill="url(#paint0_linear_1913_4062)"/>
<defs>
<linearGradient id="paint0_linear_1913_4062" x1="-4.79919" y1="-21.809" x2="80.567" y2="-21.6195" gradientUnits="userSpaceOnUse">
<stop stop-color="#BF8327"/>
<stop offset="0.485" stop-color="#F4DC60"/>
<stop offset="1" stop-color="#BF8327"/>
</linearGradient>
</defs>
</svg>
