<svg width="54" height="55" viewBox="0 0 54 55" fill="none" xmlns="http://www.w3.org/2000/svg">
<g clip-path="url(#clip0_1968_3762)">
<path d="M53.2716 27.2598C49.1251 18.5509 38.3417 12.7032 26.4355 12.7032H26.3808C14.4991 12.725 3.7383 18.5709 -0.402508 27.2598C-0.532497 27.5395 -0.532497 27.8556 -0.402508 28.1354C3.74583 36.846 14.5274 42.6901 26.4355 42.6901H26.4901C38.3718 42.6719 49.1327 36.8261 53.2735 28.1354C53.4016 27.8574 53.4016 27.5395 53.2716 27.2598ZM26.4845 40.5974H26.4336C15.5597 40.5974 5.73523 35.4364 1.7847 27.6958C5.72581 19.9752 15.5353 14.8123 26.3846 14.7942H26.4355C37.3093 14.7942 47.1338 19.9588 51.0844 27.6958C47.1433 35.42 37.3338 40.5828 26.4845 40.5974Z" fill="url(#paint0_linear_1968_3762)"/>
<path d="M34.3349 27.4978C34.3349 31.5815 30.9043 34.8932 26.6693 34.8932C22.4306 34.8932 19 31.5815 19 27.4978C19 23.414 22.4325 20.106 26.6693 20.106C27.9862 20.106 29.2258 20.4275 30.3109 20.9925C29.1938 21.403 28.4025 22.4421 28.4025 23.6629C28.4025 25.2415 29.7288 26.5259 31.3715 26.5259C32.4604 26.5259 33.4118 25.9573 33.9242 25.1144C34.1917 25.8592 34.3349 26.6603 34.3349 27.4978Z" fill="url(#paint1_linear_1968_3762)"/>
<path d="M26.6691 16.5073C20.3844 16.5073 15.2715 21.4376 15.2715 27.4978C15.2715 33.5581 20.3844 38.4884 26.6691 38.4884C32.95 38.4884 38.0629 33.5581 38.0629 27.4978C38.0629 21.4376 32.95 16.5073 26.6691 16.5073ZM26.6691 36.3956C21.5807 36.3956 17.4417 32.4027 17.4417 27.4978C17.4417 22.5912 21.5825 18.6001 26.6691 18.6001C31.7575 18.6001 35.8926 22.593 35.8926 27.4978C35.8945 32.4045 31.7575 36.3956 26.6691 36.3956Z" fill="url(#paint2_linear_1968_3762)"/>
<mask id="mask0_1968_3762" style="mask-type:luminance" maskUnits="userSpaceOnUse" x="0" y="13" width="53" height="29">
<path d="M52.2847 27.6977C48.3191 19.3667 37.9558 13.7333 26.3812 13.7515C14.8348 13.7679 4.53361 19.4048 0.584961 27.6977C4.55245 36.0286 14.9158 41.662 26.4885 41.6438C38.0349 41.6275 48.3361 35.9923 52.2847 27.6977Z" fill="white"/>
</mask>
<g mask="url(#mask0_1968_3762)">
<path d="M7.21631 39.7854C7.01473 39.7854 6.81316 39.7309 6.63042 39.6182C6.12553 39.3058 5.98047 38.6591 6.3045 38.1722L9.32816 33.6379L8.68198 30.2082C8.61793 29.8703 8.73096 29.5233 8.98152 29.2817L10.7901 27.5378C11.2139 27.129 11.8997 27.129 12.3236 27.5378C12.7474 27.9465 12.7474 28.6077 12.3236 29.0165L10.9182 30.3717L11.5399 33.6688C11.5888 33.9304 11.5342 34.1993 11.3854 34.4209L8.13188 39.3021C7.92277 39.6164 7.57237 39.7854 7.21631 39.7854Z" fill="url(#paint3_linear_1968_3762)"/>
</g>
<mask id="mask1_1968_3762" style="mask-type:luminance" maskUnits="userSpaceOnUse" x="0" y="13" width="53" height="29">
<path d="M52.2847 27.6977C48.3191 19.3667 37.9558 13.7333 26.3812 13.7515C14.8348 13.7679 4.53361 19.4048 0.584961 27.6977C4.55245 36.0286 14.9158 41.662 26.4885 41.6438C38.0349 41.6275 48.3361 35.9923 52.2847 27.6977Z" fill="white"/>
</mask>
<g mask="url(#mask1_1968_3762)">
<path d="M10.4701 34.9042C9.92375 34.9042 9.45466 34.5082 9.39438 33.9741C9.32844 33.4001 9.75797 32.8823 10.3533 32.8187L13.6068 32.4699C14.2002 32.4064 14.739 32.8206 14.8049 33.3946C14.8709 33.9687 14.4413 34.4864 13.846 34.55L10.5925 34.8988C10.5511 34.9024 10.5096 34.9042 10.4701 34.9042Z" fill="url(#paint4_linear_1968_3762)"/>
</g>
<mask id="mask2_1968_3762" style="mask-type:luminance" maskUnits="userSpaceOnUse" x="0" y="13" width="53" height="29">
<path d="M52.2847 27.6977C48.3191 19.3667 37.9558 13.7333 26.3812 13.7515C14.8348 13.7679 4.53361 19.4048 0.584961 27.6977C4.55245 36.0286 14.9158 41.662 26.4885 41.6438C38.0349 41.6275 48.3361 35.9923 52.2847 27.6977Z" fill="white"/>
</mask>
<g mask="url(#mask2_1968_3762)">
<path d="M52.4145 36.9969C52.2224 36.9969 52.0283 36.9479 51.8513 36.8443L43.5338 31.9631C43.2098 31.7723 43.0139 31.4344 43.0139 31.0693V28.2608L40.4047 27.1418C40.2012 27.0546 40.0298 26.9092 39.9149 26.724L38.8298 24.98C38.5208 24.4841 38.6885 23.8428 39.2028 23.5449C39.7152 23.247 40.3821 23.4086 40.691 23.9027L41.5991 25.3633L44.5398 26.624C44.9317 26.7912 45.1841 27.1672 45.1841 27.5796V30.4789L52.9797 35.0549C53.4921 35.3547 53.6541 35.9996 53.3414 36.4919C53.1379 36.8171 52.78 36.9969 52.4145 36.9969Z" fill="url(#paint5_linear_1968_3762)"/>
</g>
<mask id="mask3_1968_3762" style="mask-type:luminance" maskUnits="userSpaceOnUse" x="0" y="13" width="53" height="29">
<path d="M52.2847 27.6977C48.3191 19.3667 37.9558 13.7333 26.3812 13.7515C14.8348 13.7679 4.53361 19.4048 0.584961 27.6977C4.55245 36.0286 14.9158 41.662 26.4885 41.6438C38.0349 41.6275 48.3361 35.9923 52.2847 27.6977Z" fill="white"/>
</mask>
<g mask="url(#mask3_1968_3762)">
<path d="M44.0971 28.6277C43.9144 28.6277 43.7298 28.5841 43.5602 28.4897C43.0402 28.2026 42.8594 27.565 43.157 27.0618L44.6039 24.6203C44.9015 24.1189 45.5647 23.9445 46.0846 24.2315C46.6046 24.5185 46.7854 25.1562 46.4878 25.6594L45.0409 28.1009C44.8413 28.4388 44.4739 28.6277 44.0971 28.6277Z" fill="url(#paint6_linear_1968_3762)"/>
</g>
<mask id="mask4_1968_3762" style="mask-type:luminance" maskUnits="userSpaceOnUse" x="0" y="13" width="53" height="29">
<path d="M52.2847 27.6977C48.3191 19.3667 37.9558 13.7333 26.3812 13.7515C14.8348 13.7679 4.53361 19.4048 0.584961 27.6977C4.55245 36.0286 14.9158 41.662 26.4885 41.6438C38.0349 41.6275 48.3361 35.9923 52.2847 27.6977Z" fill="white"/>
</mask>
<g mask="url(#mask4_1968_3762)">
<path d="M44.101 32.1157C44.0294 32.1157 43.9597 32.1084 43.8862 32.0957L40.271 31.3981C39.6833 31.2855 39.3027 30.7333 39.4195 30.1665C39.5363 29.5997 40.109 29.2346 40.6968 29.3454L44.312 30.0429C44.8998 30.1556 45.2803 30.7078 45.1635 31.2746C45.0599 31.7705 44.6059 32.1157 44.101 32.1157Z" fill="url(#paint7_linear_1968_3762)"/>
</g>
<mask id="mask5_1968_3762" style="mask-type:luminance" maskUnits="userSpaceOnUse" x="0" y="13" width="53" height="29">
<path d="M52.2847 27.6977C48.3191 19.3667 37.9558 13.7333 26.3812 13.7515C14.8348 13.7679 4.53361 19.4048 0.584961 27.6977C4.55245 36.0286 14.9158 41.662 26.4885 41.6438C38.0349 41.6275 48.3361 35.9923 52.2847 27.6977Z" fill="white"/>
</mask>
<g mask="url(#mask5_1968_3762)">
<path d="M11.9183 25.4905C11.549 25.4905 11.1911 25.3089 10.9876 24.9819L9.90252 23.2379C9.80079 23.0744 9.74804 22.8891 9.74804 22.7002V20.2605L6.7112 16.3548C6.35137 15.8934 6.44934 15.2376 6.92785 14.8906C7.40824 14.5436 8.08644 14.6381 8.44627 15.0995L11.6998 19.2832C11.841 19.4648 11.9164 19.6846 11.9164 19.9099V22.4095L12.847 23.9046C13.156 24.4006 12.9883 25.0418 12.4759 25.3397C12.3007 25.4415 12.1086 25.4905 11.9183 25.4905Z" fill="url(#paint8_linear_1968_3762)"/>
</g>
<mask id="mask6_1968_3762" style="mask-type:luminance" maskUnits="userSpaceOnUse" x="0" y="13" width="53" height="29">
<path d="M52.2847 27.6977C48.3191 19.3667 37.9558 13.7333 26.3812 13.7515C14.8348 13.7679 4.53361 19.4048 0.584961 27.6977C4.55245 36.0286 14.9158 41.662 26.4885 41.6438C38.0349 41.6275 48.3361 35.9923 52.2847 27.6977Z" fill="white"/>
</mask>
<g mask="url(#mask6_1968_3762)">
<path d="M14.0882 21.6537C14.011 21.6537 13.9319 21.6465 13.8527 21.6283L10.5974 20.9325C10.0134 20.8072 9.64411 20.2477 9.7741 19.6845C9.90409 19.1214 10.4843 18.7671 11.0683 18.8907L14.3218 19.5882C14.9058 19.7136 15.2751 20.2731 15.1451 20.8363C15.0321 21.3231 14.5837 21.6537 14.0882 21.6537Z" fill="url(#paint9_linear_1968_3762)"/>
</g>
<mask id="mask7_1968_3762" style="mask-type:luminance" maskUnits="userSpaceOnUse" x="0" y="13" width="53" height="29">
<path d="M52.2847 27.6977C48.3191 19.3667 37.9558 13.7333 26.3812 13.7515C14.8348 13.7679 4.53361 19.4048 0.584961 27.6977C4.55245 36.0286 14.9158 41.662 26.4885 41.6438C38.0349 41.6275 48.3361 35.9923 52.2847 27.6977Z" fill="white"/>
</mask>
<g mask="url(#mask7_1968_3762)">
<path d="M6.49297 29.6741C6.02011 29.6741 5.58681 29.3744 5.45117 28.9147L4.84079 26.8529L0.121629 23.9281C-0.383255 23.6157 -0.528315 22.969 -0.204285 22.4821C0.119746 21.9953 0.790412 21.8554 1.2953 22.1678L6.35733 25.307C6.57963 25.445 6.74164 25.6557 6.81323 25.8992L7.53664 28.3407C7.70054 28.8966 7.36709 29.4743 6.79251 29.6341C6.69266 29.6614 6.59093 29.6741 6.49297 29.6741Z" fill="url(#paint10_linear_1968_3762)"/>
</g>
<mask id="mask8_1968_3762" style="mask-type:luminance" maskUnits="userSpaceOnUse" x="0" y="13" width="53" height="29">
<path d="M52.2847 27.6977C48.3191 19.3667 37.9558 13.7333 26.3812 13.7515C14.8348 13.7679 4.53361 19.4048 0.584961 27.6977C4.55245 36.0286 14.9158 41.662 26.4885 41.6438C38.0349 41.6275 48.3361 35.9923 52.2847 27.6977Z" fill="white"/>
</mask>
<g mask="url(#mask8_1968_3762)">
<path d="M5.76959 27.2326C5.2308 27.2326 4.76359 26.8457 4.69389 26.317C4.62041 25.743 5.04052 25.2216 5.63583 25.1489L8.5295 24.8002C9.12293 24.7293 9.66549 25.1344 9.74084 25.7085C9.81432 26.2825 9.39421 26.8039 8.7989 26.8765L5.90523 27.2253C5.86002 27.2308 5.81292 27.2326 5.76959 27.2326Z" fill="url(#paint11_linear_1968_3762)"/>
</g>
<mask id="mask9_1968_3762" style="mask-type:luminance" maskUnits="userSpaceOnUse" x="0" y="13" width="53" height="29">
<path d="M52.2847 27.6977C48.3191 19.3667 37.9558 13.7333 26.3812 13.7515C14.8348 13.7679 4.53361 19.4048 0.584961 27.6977C4.55245 36.0286 14.9158 41.662 26.4885 41.6438C38.0349 41.6275 48.3361 35.9923 52.2847 27.6977Z" fill="white"/>
</mask>
<g mask="url(#mask9_1968_3762)">
<path d="M42.2928 41.1806C41.9198 41.1806 41.5562 40.9953 41.3546 40.661L38.9866 36.7462L37.1064 35.8397C36.5714 35.5818 36.3529 34.9532 36.6223 34.4355C36.8898 33.9196 37.5416 33.7089 38.0785 33.9686L40.2488 35.015C40.4372 35.1058 40.5935 35.2475 40.7009 35.4237L43.2329 39.6074C43.5343 40.107 43.3591 40.7464 42.8429 41.0389C42.6658 41.1352 42.4774 41.1806 42.2928 41.1806Z" fill="url(#paint12_linear_1968_3762)"/>
</g>
<mask id="mask10_1968_3762" style="mask-type:luminance" maskUnits="userSpaceOnUse" x="0" y="13" width="53" height="29">
<path d="M52.2847 27.6977C48.3191 19.3667 37.9558 13.7333 26.3812 13.7515C14.8348 13.7679 4.53361 19.4048 0.584961 27.6977C4.55245 36.0286 14.9158 41.662 26.4885 41.6438C38.0349 41.6275 48.3361 35.9923 52.2847 27.6977Z" fill="white"/>
</mask>
<g mask="url(#mask10_1968_3762)">
<path d="M39.0371 22.7002C38.9241 22.7002 38.8073 22.682 38.6943 22.6457C38.1253 22.4622 37.8182 21.87 38.0085 21.3232L38.7319 19.2305C38.7903 19.0615 38.8921 18.9107 39.0277 18.7908L43.3663 14.956C43.809 14.5654 44.4948 14.5945 44.8998 15.0196C45.3048 15.4446 45.2747 16.1077 44.8339 16.4983L40.7025 20.1497L40.0676 21.9845C39.915 22.4241 39.4911 22.7002 39.0371 22.7002Z" fill="url(#paint13_linear_1968_3762)"/>
</g>
<mask id="mask11_1968_3762" style="mask-type:luminance" maskUnits="userSpaceOnUse" x="0" y="13" width="53" height="29">
<path d="M52.2847 27.6977C48.3191 19.3667 37.9558 13.7333 26.3812 13.7515C14.8348 13.7679 4.53361 19.4048 0.584961 27.6977C4.55245 36.0286 14.9158 41.662 26.4885 41.6438C38.0349 41.6275 48.3361 35.9923 52.2847 27.6977Z" fill="white"/>
</mask>
<g mask="url(#mask11_1968_3762)">
<path d="M39.7605 20.6093C39.6569 20.6093 39.5533 20.5947 39.4478 20.5657L35.8326 19.5193C35.258 19.354 34.934 18.7709 35.1054 18.2168C35.2769 17.6627 35.8835 17.3484 36.4562 17.5156L40.0714 18.5619C40.646 18.7273 40.97 19.3104 40.7986 19.8645C40.6573 20.3168 40.2277 20.6093 39.7605 20.6093Z" fill="url(#paint14_linear_1968_3762)"/>
</g>
</g>
<defs>
<linearGradient id="paint0_linear_1968_3762" x1="-6.09878" y1="1.84595" x2="63.6838" y2="2.12422" gradientUnits="userSpaceOnUse">
<stop stop-color="#BF8327"/>
<stop offset="0.485" stop-color="#F4DC60"/>
<stop offset="1" stop-color="#BF8327"/>
</linearGradient>
<linearGradient id="paint1_linear_1968_3762" x1="17.4062" y1="14.752" x2="37.2713" y2="14.7977" gradientUnits="userSpaceOnUse">
<stop stop-color="#BF8327"/>
<stop offset="0.485" stop-color="#F4DC60"/>
<stop offset="1" stop-color="#BF8327"/>
</linearGradient>
<linearGradient id="paint2_linear_1968_3762" x1="12.9027" y1="8.54868" x2="42.4271" y2="8.61664" gradientUnits="userSpaceOnUse">
<stop stop-color="#BF8327"/>
<stop offset="0.485" stop-color="#F4DC60"/>
<stop offset="1" stop-color="#BF8327"/>
</linearGradient>
<linearGradient id="paint3_linear_1968_3762" x1="5.45527" y1="22.6857" x2="13.888" y2="22.6954" gradientUnits="userSpaceOnUse">
<stop stop-color="#BF8327"/>
<stop offset="0.485" stop-color="#F4DC60"/>
<stop offset="1" stop-color="#BF8327"/>
</linearGradient>
<linearGradient id="paint4_linear_1968_3762" x1="8.82397" y1="31.5798" x2="15.8501" y2="31.6145" gradientUnits="userSpaceOnUse">
<stop stop-color="#BF8327"/>
<stop offset="0.485" stop-color="#F4DC60"/>
<stop offset="1" stop-color="#BF8327"/>
</linearGradient>
<linearGradient id="paint5_linear_1968_3762" x1="37.1339" y1="18.4707" x2="56.3396" y2="18.5172" gradientUnits="userSpaceOnUse">
<stop stop-color="#BF8327"/>
<stop offset="0.485" stop-color="#F4DC60"/>
<stop offset="1" stop-color="#BF8327"/>
</linearGradient>
<linearGradient id="paint6_linear_1968_3762" x1="42.6377" y1="22.4515" x2="47.3239" y2="22.4598" gradientUnits="userSpaceOnUse">
<stop stop-color="#BF8327"/>
<stop offset="0.485" stop-color="#F4DC60"/>
<stop offset="1" stop-color="#BF8327"/>
</linearGradient>
<linearGradient id="paint7_linear_1968_3762" x1="38.7971" y1="28.3153" x2="46.2924" y2="28.3498" gradientUnits="userSpaceOnUse">
<stop stop-color="#BF8327"/>
<stop offset="0.485" stop-color="#F4DC60"/>
<stop offset="1" stop-color="#BF8327"/>
</linearGradient>
<linearGradient id="paint8_linear_1968_3762" x1="5.81775" y1="10.7676" x2="14.2483" y2="10.7789" gradientUnits="userSpaceOnUse">
<stop stop-color="#BF8327"/>
<stop offset="0.485" stop-color="#F4DC60"/>
<stop offset="1" stop-color="#BF8327"/>
</linearGradient>
<linearGradient id="paint9_linear_1968_3762" x1="9.18441" y1="17.8568" x2="16.2095" y2="17.8871" gradientUnits="userSpaceOnUse">
<stop stop-color="#BF8327"/>
<stop offset="0.485" stop-color="#F4DC60"/>
<stop offset="1" stop-color="#BF8327"/>
</linearGradient>
<linearGradient id="paint10_linear_1968_3762" x1="-1.20377" y1="19.2233" x2="9.10172" y2="19.247" gradientUnits="userSpaceOnUse">
<stop stop-color="#BF8327"/>
<stop offset="0.485" stop-color="#F4DC60"/>
<stop offset="1" stop-color="#BF8327"/>
</linearGradient>
<linearGradient id="paint11_linear_1968_3762" x1="4.15927" y1="23.9085" x2="10.7187" y2="23.9387" gradientUnits="userSpaceOnUse">
<stop stop-color="#BF8327"/>
<stop offset="0.485" stop-color="#F4DC60"/>
<stop offset="1" stop-color="#BF8327"/>
</linearGradient>
<linearGradient id="paint12_linear_1968_3762" x1="35.7924" y1="31.2058" x2="44.6967" y2="31.2243" gradientUnits="userSpaceOnUse">
<stop stop-color="#BF8327"/>
<stop offset="0.485" stop-color="#F4DC60"/>
<stop offset="1" stop-color="#BF8327"/>
</linearGradient>
<linearGradient id="paint13_linear_1968_3762" x1="37.2004" y1="11.7774" x2="46.5701" y2="11.7961" gradientUnits="userSpaceOnUse">
<stop stop-color="#BF8327"/>
<stop offset="0.485" stop-color="#F4DC60"/>
<stop offset="1" stop-color="#BF8327"/>
</linearGradient>
<linearGradient id="paint14_linear_1968_3762" x1="34.4583" y1="16.3343" x2="41.952" y2="16.365" gradientUnits="userSpaceOnUse">
<stop stop-color="#BF8327"/>
<stop offset="0.485" stop-color="#F4DC60"/>
<stop offset="1" stop-color="#BF8327"/>
</linearGradient>
<clipPath id="clip0_1968_3762">
<rect width="54" height="54" fill="white" transform="translate(0 0.71582)"/>
</clipPath>
</defs>
</svg>
