<svg width="14" height="14" viewBox="0 0 14 14" fill="none" xmlns="http://www.w3.org/2000/svg">
<path d="M5.66118 7.72323C5.61722 7.72323 4.69504 7.72351 4.26972 7.72309C4.05076 7.72295 3.97264 7.64427 3.97264 7.42391C3.97229 6.85789 3.97229 6.29187 3.97264 5.72585C3.97278 5.50829 4.05538 5.42527 4.27154 5.42513C4.69686 5.42485 5.614 5.42499 5.66118 5.42499V4.19271C5.66146 3.63635 5.76072 3.10379 6.04338 2.61617C6.33276 2.11707 6.75388 1.77519 7.29358 1.57751C7.63924 1.45081 7.99806 1.40027 8.36486 1.39999C8.82378 1.39971 9.2827 1.40013 9.74176 1.40097C9.93902 1.40125 10.0265 1.48847 10.0269 1.68713C10.0278 2.21955 10.0278 2.75197 10.0269 3.28425C10.0267 3.48501 9.9428 3.56565 9.74106 3.56789C9.36488 3.57195 8.98842 3.56943 8.61266 3.58455C8.23312 3.58455 8.03348 3.76991 8.03348 4.16275C8.02438 4.57827 8.0297 4.99421 8.0297 5.42485C8.06526 5.42485 9.14536 5.42471 9.6502 5.42485C9.87952 5.42485 9.95792 5.50367 9.95792 5.73425C9.95792 6.29719 9.95778 6.86027 9.95736 7.42321C9.95722 7.65043 9.88358 7.72295 9.65286 7.72309C9.14802 7.72337 8.07212 7.72323 8.02508 7.72323V12.2795C8.02508 12.5224 7.94864 12.5998 7.70896 12.5998H5.95574C5.74392 12.5998 5.66132 12.5175 5.66132 12.3057L5.66118 7.72323Z" fill="#3D6AD6"/>
</svg>
