<svg width="70" height="70" viewBox="0 0 70 70" fill="none" xmlns="http://www.w3.org/2000/svg">
<path d="M0.0279605 29.7746C-0.000110811 30.9572 0.431773 31.4229 0.778523 31.7975C0.889198 31.9186 0.985837 32.0221 1.05901 32.1447C1.22214 32.4192 1.33834 32.7602 1.40415 33.1588C2.83325 41.8218 3.15492 43.0026 6.78119 44.9126C8.51701 45.8277 12.0862 46.4413 15.6616 46.4413C18.4497 46.4413 22.4767 46.0743 25.8257 44.3275C30.7049 41.7815 32.5228 32.9933 32.6082 32.5511C32.613 32.5064 32.7571 31.4579 34.9862 31.4579H34.9885L35.1249 31.4568C37.2395 31.4568 37.3851 32.5064 37.4006 32.6197C37.4756 32.9933 39.294 41.7801 44.1729 44.3275C47.5221 46.0755 51.5492 46.4413 54.3372 46.4413C57.9126 46.4413 61.4811 45.8263 63.2172 44.9126C66.8439 43.0026 67.1656 41.8206 68.594 33.1576C68.6596 32.7602 68.7765 32.4195 68.9396 32.1438C69.0123 32.0212 69.1087 31.9174 69.2196 31.7964C69.5664 31.4218 69.999 30.9547 69.9704 29.7734C69.9656 29.5755 69.9741 29.2235 69.9824 28.8376C69.9967 28.2483 70.0098 27.5848 69.9895 27.2272C69.8871 25.475 68.3368 24.7615 67.5565 24.6345C62.5679 23.6099 56.5786 23.3131 50.2556 23.7671L49.9254 23.7905C46.0686 24.0634 43.9444 24.2134 41.4127 25.3471C40.8301 25.6108 40.2543 25.8896 39.6861 26.183C38.7342 26.6734 37.3594 27.2053 36.6205 27.3673C36.3233 27.4336 36.0218 27.4985 35.7549 27.5521C35.3707 27.6301 34.6273 27.6301 34.243 27.5521C33.9537 27.4928 33.665 27.4312 33.3767 27.3673C32.6397 27.2053 31.2649 26.6734 30.3123 26.183C29.7778 25.9085 29.1738 25.6106 28.5859 25.3471C26.0542 24.2134 23.9305 24.0634 20.0736 23.7905L19.743 23.7671C13.4182 23.3145 7.42038 23.6122 2.46694 24.6308C1.66323 24.7624 0.113785 25.4762 0.0113938 27.2283C-0.0106951 27.5857 0.00380077 28.2495 0.0173762 28.8385C0.024279 29.2258 0.0325624 29.5785 0.0279605 29.7746ZM68.5342 27.622V28.9184L66.9196 28.2704L68.5342 27.622ZM40.5379 29.4819C40.7822 28.8754 42.3202 26.8549 51.8614 26.2995C53.5342 26.2024 54.9532 26.1547 56.1996 26.1547C61.8256 26.1547 63.6162 27.1662 64.6813 28.7974C65.3189 29.7732 65.7524 31.8146 65.7572 33.1086C65.7692 35.9346 65.2008 40.9578 61.2823 42.8569C59.4867 43.7267 56.7942 44.2462 54.0811 44.2462C48.8732 44.2462 44.7104 42.4757 42.9481 39.5114C39.2402 33.2832 40.4923 29.5857 40.5379 29.4819ZM5.31434 28.7964C6.38082 27.1646 8.17095 26.1538 13.7963 26.1538C15.0431 26.1538 16.4621 26.2014 18.1349 26.2985C27.6741 26.8549 29.2136 28.8756 29.487 29.5525C29.5017 29.5859 30.7546 33.2849 27.0505 39.5119C25.2864 42.4761 21.1249 44.2467 15.9177 44.2467C13.2035 44.2467 10.5108 43.7272 8.71466 42.8574C4.79594 40.9582 4.22831 35.9351 4.23958 33.1091C4.24441 31.8132 4.67745 29.7723 5.31434 28.7964ZM1.46052 27.622L3.07439 28.2702L1.46052 28.9182V27.622Z" fill="url(#paint0_linear_1913_4090)"/>
<defs>
<linearGradient id="paint0_linear_1913_4090" x1="-7.27527" y1="15.2761" x2="83.4003" y2="15.8919" gradientUnits="userSpaceOnUse">
<stop stop-color="#BF8327"/>
<stop offset="0.485" stop-color="#F4DC60"/>
<stop offset="1" stop-color="#BF8327"/>
</linearGradient>
</defs>
</svg>
