<svg width="40" height="40" viewBox="0 0 40 40" fill="none" xmlns="http://www.w3.org/2000/svg">
<g clip-path="url(#clip0_81_184)">
<path d="M39.5672 23.0565L35.9197 7.3922L35.9152 7.37369C35.6552 6.33376 34.9476 5.4804 33.9736 5.03244C32.9996 4.58447 31.8911 4.60259 30.9326 5.08197L28.8584 6.119C28.2795 6.40845 28.0449 7.11228 28.3343 7.69119C28.6238 8.27009 29.3275 8.5047 29.9065 8.21525L31.9806 7.17822C32.1374 7.09935 32.31 7.0569 32.4855 7.05405C32.6611 7.0512 32.835 7.088 32.9943 7.16173C33.1527 7.23416 33.2929 7.34117 33.4046 7.47489C33.5163 7.60861 33.5966 7.76565 33.6396 7.93447L36.7376 21.2392C36.6533 21.2328 36.5687 21.2294 36.4841 21.2291H24.6245C23.5672 21.2291 22.5761 21.6981 21.9059 22.5157C21.6167 22.8678 21.3986 23.2728 21.264 23.7081C20.4313 23.5255 19.569 23.5255 18.7364 23.7081C18.6017 23.2728 18.3837 22.8678 18.0944 22.5157C17.424 21.698 16.4332 21.229 15.3758 21.229H3.51615C3.43115 21.229 3.34677 21.2331 3.26271 21.2392L6.36075 7.93447C6.40375 7.76564 6.48402 7.6086 6.59568 7.47488C6.70734 7.34116 6.84754 7.23415 7.00599 7.16173C7.16531 7.08802 7.33922 7.05122 7.51475 7.05407C7.69028 7.05693 7.8629 7.09936 8.01974 7.17822L10.0939 8.21525C10.6728 8.5047 11.3765 8.27001 11.666 7.69119C11.9554 7.11228 11.7208 6.40845 11.1419 6.119L9.06779 5.08197C8.10911 4.60259 7.00052 4.58454 6.02661 5.03244C5.05271 5.48056 4.34505 6.33384 4.08513 7.37384C4.08349 7.38001 4.08208 7.38611 4.0806 7.39228L0.433099 23.0565C0.0346798 23.7811 -0.0943487 24.6234 0.06888 25.434L1.09826 30.581C1.64411 33.3101 4.06036 35.2909 6.84365 35.2909H12.0483C14.8315 35.2909 17.2479 33.3101 17.7937 30.581L18.6757 26.1717C19.5254 25.8285 20.4752 25.8285 21.3249 26.1717L22.2068 30.581C22.7526 33.3101 25.1689 35.291 27.9522 35.291H33.1569C35.9401 35.291 38.3565 33.3102 38.9023 30.581L39.9317 25.4342C40.0947 24.6234 39.9656 23.7812 39.5672 23.0565ZM16.5249 24.9744L15.4955 30.1213C15.168 31.7588 13.7183 32.9473 12.0483 32.9473H6.84365C5.17372 32.9473 3.72396 31.7588 3.39646 30.1213L2.36708 24.9743C2.33278 24.8043 2.33677 24.6288 2.37877 24.4606C2.42077 24.2923 2.49972 24.1356 2.6099 24.0017C2.71961 23.8674 2.85786 23.7592 3.0146 23.685C3.17135 23.6108 3.34265 23.5725 3.51607 23.5727H15.3759C15.7284 23.5727 16.0586 23.7291 16.2821 24.0017C16.3923 24.1356 16.4712 24.2924 16.5132 24.4606C16.5552 24.6289 16.5592 24.8044 16.5249 24.9744ZM37.6333 24.9744L36.6039 30.1213C36.2764 31.7588 34.8266 32.9473 33.1567 32.9473H27.952C26.282 32.9473 24.8322 31.7588 24.5048 30.1213L23.4754 24.9743C23.4063 24.6287 23.4948 24.2741 23.7183 24.0016C23.9417 23.7291 24.272 23.5727 24.6244 23.5727H36.4842C36.8367 23.5727 37.167 23.729 37.3904 24.0016C37.5006 24.1355 37.5796 24.2923 37.6216 24.4606C37.6636 24.6289 37.6676 24.8044 37.6333 24.9744Z" fill="black"/>
</g>
<defs>
<clipPath id="clip0_81_184">
<rect width="40" height="40" fill="white"/>
</clipPath>
</defs>
</svg>
