<svg width="49" height="18" viewBox="0 0 49 18" fill="none" xmlns="http://www.w3.org/2000/svg">
<path d="M47.5588 4.00186H45.4053C44.2138 1.59615 41.7544 0 38.9663 0H33.0866C30.8012 0 28.6248 1.08146 27.3217 2.92578C25.8314 1.85547 23.1495 1.86921 21.6784 2.92578C20.3764 1.08319 18.2009 0 15.9135 0H10.0338C7.24383 0 4.78567 1.59759 3.59477 4.00186H1.44118C0.645263 4.00186 0 4.64712 0 5.44304C0 6.23895 0.645263 6.88421 1.44118 6.88421H2.85747C2.83722 7.37562 2.86771 7.86781 2.94845 8.35296L3.41492 11.1515C4.33823 16.6916 11.137 18.8931 16.2672 17.1046C19.8386 15.8596 22.9344 12.0458 22.9344 6.04718C22.9344 4.6525 26.0657 4.6696 26.0657 6.04718C26.0657 12.01 29.1366 15.8509 32.7329 17.1046C37.9194 18.9126 44.6695 16.6459 45.5852 11.1515L46.0516 8.35296C46.1324 7.86781 46.1629 7.37562 46.1426 6.88421H47.5588C48.3547 6.88421 49 6.23895 49 5.44304C49 4.64712 48.3547 4.00186 47.5588 4.00186ZM15.3184 14.3829C11.7178 15.6381 6.85183 14.2403 6.25807 10.6778L5.79161 7.8792C5.35993 5.28902 7.3647 2.88245 10.0337 2.88245H15.9134C22.2188 2.88235 20.6601 12.5207 15.3184 14.3829ZM43.2084 7.8791L42.7419 10.6778C42.147 14.2471 37.2724 15.6348 33.6816 14.3829C28.3413 12.5212 26.7692 2.88245 33.0866 2.88245H38.9663C41.6378 2.88235 43.6397 5.29142 43.2084 7.8791Z" fill="white"/>
</svg>
