<svg width="55" height="55" viewBox="0 0 55 55" fill="none" xmlns="http://www.w3.org/2000/svg">
<path fill-rule="evenodd" clip-rule="evenodd" d="M31.7711 1.27539L32.5621 1.53906C32.9945 1.68672 33.5852 1.93984 33.8699 2.09805C34.1547 2.25625 34.6926 2.68867 35.0723 3.06836C35.5047 3.51133 35.8738 4.01758 36.1059 4.49219C36.3063 4.90352 36.5277 5.47305 36.7281 6.3168L37.382 6.38008C37.7512 6.41172 38.3418 6.54883 38.7004 6.68594C39.0695 6.8125 39.5758 7.04453 39.8395 7.20273C40.1031 7.35039 40.5883 7.75117 40.9363 8.08867C41.2738 8.43672 41.6746 8.92188 41.8223 9.18555C41.9805 9.44922 42.223 9.96602 42.3602 10.3457C42.6133 11.0102 42.6238 11.1262 42.7188 17.4648L45.3449 19.8906C46.7898 21.2301 48.1398 22.5063 48.3297 22.7383C48.5195 22.9703 48.7938 23.3922 48.9414 23.6875C49.0891 23.9723 49.2578 24.5207 49.3211 24.9004C49.3949 25.2801 50.3758 31.7348 51.5148 39.2441C52.6434 46.7535 53.6031 53.0184 53.6242 53.166C53.677 53.4191 53.6453 53.4297 52.8438 53.5668C52.3902 53.6406 52.0105 53.6934 52 53.6723C51.9895 53.6512 51.0191 47.323 49.859 39.6133C48.6988 31.9035 47.6969 25.3434 47.6441 25.0586C47.5914 24.7738 47.4121 24.3414 47.2434 24.1094C47.0852 23.8773 44.6488 21.5465 41.8328 18.9309C39.0273 16.3152 36.6227 14.1215 36.4855 14.0582C36.359 13.9844 36.127 13.9316 35.9793 13.9316C35.8211 13.9316 35.5891 14.0582 35.3992 14.248C35.2305 14.4273 35.0934 14.6805 35.0934 14.8281C35.0934 14.9758 35.1355 15.1973 35.1883 15.3344C35.241 15.4609 36.9496 17.5914 42.6871 24.584V32.4941H40.9996V28.8027L39.3121 27.959L39.2488 28.4652C39.2172 28.7395 39.1223 29.3406 39.0379 29.8047C38.943 30.2687 38.732 31.0281 38.268 32.3359L38.5633 32.7051C38.732 32.9055 39.2383 33.4328 39.6918 33.8652C40.1559 34.2977 40.8625 34.8777 41.2633 35.1414C41.6746 35.4156 42.2863 35.7742 42.6344 35.9535C42.9824 36.1223 43.6469 36.407 44.1004 36.5652C44.5645 36.734 45.0074 36.966 45.0813 37.082C45.2078 37.2613 45.1656 38.3688 44.8492 44.5703C44.6488 48.5781 44.459 52.2379 44.3746 53.5879H43.5309C42.9297 53.5879 42.6871 53.5457 42.6871 53.4613C42.6871 53.3875 42.782 51.6156 42.898 49.5273C43.0141 47.4391 43.109 45.5828 43.109 45.0977L41.1262 44.4859C40.0398 44.159 39.0906 43.8848 39.0273 43.8848C38.9535 43.8848 38.8586 43.9902 38.8164 44.1273C38.7742 44.2539 38.4789 44.718 38.1414 45.1504C37.8145 45.5828 37.2449 46.2262 36.8758 46.5742C36.5066 46.9223 35.8949 47.4285 35.5152 47.7027C35.1355 47.9664 34.4711 48.3777 34.0387 48.6098C33.6063 48.8418 32.752 49.2109 32.1402 49.4219C31.5285 49.6223 30.632 49.8754 30.1363 49.9703C29.5246 50.0969 28.6914 50.1496 27.4996 50.1496C26.234 50.1602 25.5168 50.1074 24.8629 49.9703C24.3672 49.8648 23.5867 49.6539 23.1227 49.5062C22.6586 49.3586 21.9203 49.0738 21.4879 48.8734C21.0555 48.673 20.2961 48.2512 19.8004 47.9242C19.2625 47.5762 18.5031 46.9328 17.902 46.3211C17.3535 45.7516 16.7102 44.9816 16.4781 44.5914C16.2461 44.2117 16.0141 43.8953 15.9508 43.8848C15.8875 43.8848 14.991 44.1484 13.9469 44.4754C12.9027 44.8023 12.0062 45.0977 11.9641 45.1293C11.9219 45.1715 11.9535 46.648 12.0379 48.4199C12.1328 50.1918 12.2277 52.0797 12.3121 53.5879H10.6246L10.5719 52.723C10.5402 52.2379 10.3504 48.5676 10.15 44.5703C9.83359 38.3688 9.79141 37.2613 9.91797 37.082C9.9918 36.966 10.4348 36.734 10.8988 36.5652C11.3523 36.407 12.0168 36.1223 12.3648 35.9535C12.7129 35.7742 13.3352 35.4156 13.7359 35.1414C14.1367 34.8777 14.8434 34.2977 15.3074 33.8652C15.7609 33.4328 16.2672 32.9055 16.7312 32.3359L16.4359 31.4922C16.2672 31.0281 16.0563 30.2687 15.9613 29.8047C15.877 29.3406 15.782 28.7395 15.6871 27.959L13.9996 28.8027V32.4941H12.3121V24.584L16.0141 20.0805C18.0496 17.5914 19.7582 15.4609 19.8109 15.3344C19.8637 15.1973 19.9059 14.9758 19.9059 14.8281C19.9059 14.6805 19.7687 14.4273 19.5895 14.248C19.4102 14.0688 19.157 13.9316 19.0094 13.9316C18.8617 13.9316 18.6402 13.9844 18.5137 14.0582C18.3766 14.1215 15.9613 16.3363 13.1348 18.9625C10.2977 21.5887 7.87188 23.9195 7.72422 24.141C7.57656 24.352 7.41836 24.7949 7.35508 25.1113C7.2918 25.4277 6.28984 31.9773 5.12969 39.666C3.96953 47.3547 3.00977 53.6512 2.99922 53.6723C2.98867 53.6934 2.60898 53.6406 1.32227 53.4297L1.38555 53.1133C1.42773 52.9445 2.37695 46.6797 3.50547 39.1914C4.63398 31.7031 5.6043 25.2801 5.67812 24.9004C5.74141 24.5207 5.93125 23.9301 6.11055 23.582C6.33203 23.1285 6.72227 22.6645 7.47109 21.9473C8.04063 21.3988 9.35898 20.1648 12.291 17.4648L12.3016 13.668C12.3121 10.7254 12.3438 9.66016 12.4703 8.92188C12.5652 8.39453 12.7867 7.61406 12.9555 7.18164C13.1348 6.74922 13.4934 6.03203 13.7676 5.59961C14.0418 5.16719 14.5902 4.47109 15.0016 4.05977C15.4023 3.64844 16.0773 3.08945 16.4781 2.82578C16.8789 2.56211 17.5012 2.22461 17.8492 2.06641C18.1973 1.9082 18.8828 1.67617 19.3785 1.53906C20.2645 1.30703 20.3699 1.29648 31.7711 1.27539ZM19.1148 3.38477C18.7668 3.50078 18.1762 3.775 17.7965 3.98594C17.3957 4.20742 16.7523 4.72422 16.2566 5.21992C15.7293 5.74727 15.2547 6.34844 15.0016 6.8125C14.7695 7.21328 14.4742 7.90938 14.3266 8.3418C14.0734 9.10117 14.0629 9.24883 14.0207 12.5078L13.9785 15.8828C15.8137 14.1637 16.5836 13.4465 16.8895 13.1828C17.1848 12.9191 17.5961 12.6133 17.7965 12.4973C18.0602 12.3602 18.3871 12.3074 18.9039 12.2969C19.4312 12.2969 19.7687 12.3602 20.0641 12.5078C20.2961 12.6238 20.623 12.8664 20.8023 13.0352C20.9711 13.2145 21.2137 13.5414 21.3297 13.7734C21.4773 14.0688 21.5406 14.4062 21.5406 14.9336C21.5406 15.4187 21.4773 15.7984 21.3508 16.041C21.2559 16.2414 20.7285 16.9691 20.1695 17.6547C19.6211 18.3297 19.1676 18.9098 19.1676 18.9414C19.1676 18.973 20.5281 18.9836 22.1945 18.9625C25.1687 18.9309 25.2531 18.9203 26.0758 18.6461C26.5398 18.4879 27.257 18.1609 27.6578 17.9184C28.0691 17.6758 28.702 17.159 29.0816 16.7793C29.4613 16.3891 29.9359 15.7984 30.1363 15.4504C30.3367 15.1129 30.6109 14.5223 30.748 14.1426C30.8746 13.7629 31.0961 13.3727 31.2227 13.2672C31.3492 13.1617 31.5813 13.0773 31.7395 13.0879C31.9398 13.0879 32.2457 13.2777 32.6887 13.668C33.0578 13.9844 33.3848 14.2375 33.427 14.248C33.4797 14.248 33.5535 14.0793 33.6168 13.8789C33.6801 13.6785 33.9227 13.3094 34.1652 13.0562C34.4605 12.7609 34.8191 12.5395 35.1988 12.4129C35.5996 12.2758 35.9477 12.2336 36.3063 12.2652C36.591 12.2969 37.0023 12.4129 37.2027 12.5078C37.4031 12.6133 37.8145 12.9191 38.1098 13.1828C38.4156 13.4465 39.1855 14.1637 39.8395 14.7754L41.0207 15.8828L40.9469 11.2316C40.3141 9.93437 39.9977 9.49141 39.6602 9.18555C39.3859 8.93242 38.848 8.58437 38.4684 8.40508C37.8883 8.14141 37.6035 8.08867 36.6438 8.03594C35.6734 7.9832 35.473 7.94102 35.3148 7.76172C35.2094 7.63516 35.1145 7.26602 35.0617 6.8125C35.009 6.2957 34.8824 5.85273 34.6293 5.33594C34.4078 4.87188 34.0809 4.41836 33.7539 4.12305C33.4797 3.86992 32.9418 3.51133 32.5621 3.33203L31.8766 3.01562C23.2914 2.99453 20.5598 3.02617 20.275 3.07891C19.9797 3.12109 19.4629 3.26875 19.1148 3.38477ZM30.4 17.8129C29.9359 18.298 29.2293 18.9203 28.818 19.184C28.4066 19.4582 27.7 19.8273 27.2359 20.0172C26.7719 20.1965 25.9598 20.4285 25.443 20.5234C24.7152 20.65 23.7027 20.6816 21.0871 20.6816C17.9652 20.6816 17.6594 20.6922 17.5223 20.8609C17.3957 21.0191 17.3746 21.6836 17.4062 25.0586C17.4379 28.7184 17.459 29.1297 17.6594 29.8574C17.7754 30.2898 18.0285 31.007 18.2184 31.4395C18.3977 31.8719 18.7984 32.6102 19.1148 33.0742C19.4207 33.5383 20.043 34.2766 20.4965 34.709C20.9605 35.152 21.6883 35.7215 22.1207 35.9957C22.5531 36.2699 23.2703 36.6285 23.7027 36.8078C24.1352 36.9766 24.8207 37.2086 25.232 37.3035C25.7699 37.4406 26.3922 37.4934 27.4996 37.4934C28.607 37.4934 29.2293 37.4406 29.7672 37.3035C30.1785 37.2086 30.8641 36.9766 31.2965 36.8078C31.7289 36.6285 32.4461 36.2699 32.8785 35.9957C33.3109 35.7215 34.0387 35.152 34.5027 34.709C34.9562 34.2766 35.5785 33.5383 35.8844 33.0742C36.2008 32.6102 36.6016 31.8719 36.7809 31.4395C36.9707 31.007 37.2238 30.2898 37.3398 29.8574C37.5402 29.1297 37.5613 28.7289 37.593 25.0586L37.6246 21.0508C35.5152 18.4879 34.7031 17.6547 33.6379 16.7266C32.8152 15.9988 32.1297 15.4082 32.1086 15.4082C32.098 15.4082 31.8977 15.7562 31.6656 16.1676C31.4336 16.5789 30.8641 17.3172 30.4 17.8129ZM13.9996 25.2168V26.9043L15.6871 26.0605C15.6871 23.8563 15.666 23.2129 15.6555 23.2129C15.6344 23.2129 15.2547 23.6664 14.8117 24.2148L13.9996 25.2168ZM39.3121 26.0605L40.9996 26.9043V25.2168C39.9133 23.8668 39.5336 23.4027 39.4492 23.3184C39.3227 23.1812 39.3016 23.3816 39.3121 24.6051V26.0605ZM15.666 35.8059C15.223 36.1645 14.4637 36.6918 13.9785 36.9766C13.4934 37.2613 12.7445 37.6516 12.3121 37.8309L11.5211 38.1684C11.5633 39.3707 11.6266 40.5309 11.6793 41.5117C11.7426 42.5031 11.7953 43.3258 11.8059 43.3363C11.827 43.3469 14.0207 42.6824 16.6891 41.8492L21.5406 40.3305L21.5934 37.6621C20.4859 36.9133 19.8848 36.4492 19.5473 36.1539C19.2098 35.848 18.6402 35.2469 18.2816 34.7934C17.923 34.3398 17.6066 33.9813 17.5855 33.9813C17.5539 33.9918 17.2902 34.2555 17.0055 34.5824C16.7102 34.8988 16.109 35.4473 15.666 35.8059ZM35.7262 35.8691C35.3465 36.2383 34.6715 36.7973 34.218 37.1031L33.4059 37.6621L33.4586 40.3305C40.9785 42.6719 43.1723 43.3469 43.1828 43.3363C43.1934 43.3258 43.2461 42.5031 43.3094 41.5117C43.3621 40.5309 43.4254 39.3707 43.4465 38.9488L43.4781 38.1684C42.2441 37.6516 41.5586 37.3035 41.1578 37.0715C40.7465 36.8289 40.0398 36.3543 39.5758 36.0062C39.1117 35.6582 38.4262 35.057 38.0676 34.6773C37.709 34.2871 37.3926 33.9707 37.3715 33.9707C37.3398 33.9707 37.1184 34.2449 36.8652 34.5824C36.6227 34.9199 36.1059 35.4895 35.7262 35.8691ZM23.1227 41.4379C23.0066 41.6066 22.648 41.7648 21.8781 42.0074L20.8023 42.3344C21.5301 42.9883 22.0574 43.3891 22.4371 43.6316C22.8062 43.8742 23.4074 44.2012 23.7555 44.3594C24.1035 44.5176 24.768 44.7391 25.232 44.8656C25.8965 45.0449 26.3605 45.0977 27.4996 45.0977C28.6281 45.0977 29.0922 45.0449 29.7672 44.8656C30.2313 44.7391 30.8957 44.5176 31.2438 44.3594C31.5918 44.2012 32.1824 43.8742 32.5621 43.6316C32.9313 43.3891 33.4586 42.9883 33.7223 42.7562L34.1969 42.3344C32.3406 41.7648 31.982 41.6066 31.866 41.4379C31.75 41.2586 31.7078 40.8789 31.7078 39.8559C31.7184 39.1176 31.6762 38.5059 31.634 38.5059C31.5918 38.5059 31.2965 38.6008 30.9801 38.7062C30.6531 38.8117 30.0625 38.9699 29.6617 39.0438C29.1977 39.1387 28.3223 39.1914 27.3414 39.1809C25.9914 39.1703 25.6117 39.1281 24.7574 38.8961C24.1984 38.7484 23.65 38.5902 23.534 38.5586C23.3125 38.4848 23.3125 38.5164 23.2914 39.8453C23.2809 40.8578 23.2387 41.2586 23.1227 41.4379ZM17.691 43.3258C17.6594 43.3363 17.7227 43.484 17.8387 43.6527C17.9441 43.8109 18.2605 44.2223 18.5348 44.5809C18.8195 44.9289 19.368 45.4668 19.7582 45.7938C20.1484 46.1102 20.6863 46.5004 20.95 46.6691C21.2137 46.8379 21.7199 47.1121 22.068 47.2914C22.416 47.4602 23.1016 47.7449 23.5973 47.9031C24.0824 48.0613 25.0316 48.2723 25.7066 48.3777C26.5715 48.5043 27.2465 48.5359 28.0797 48.4938C28.7125 48.4621 29.5879 48.3566 30.0309 48.2617C30.4633 48.1773 31.1594 47.977 31.5813 47.8398C32.0031 47.7027 32.6676 47.418 33.0578 47.2176C33.4481 47.0277 34.102 46.627 34.5133 46.3422C34.9141 46.0574 35.5469 45.509 35.9055 45.1398C36.2641 44.7707 36.7281 44.2328 36.9391 43.948C37.1395 43.6527 37.3082 43.3891 37.3082 43.368C37.3082 43.3363 37.0551 43.2309 36.7492 43.1254C36.4434 43.0305 36.127 42.9461 36.0426 42.9461C35.9477 42.9355 35.6207 43.1992 35.3043 43.5262C34.9773 43.8531 34.4395 44.3383 34.0914 44.6125C33.7434 44.8762 33.0789 45.298 32.6148 45.5406C32.1508 45.7938 31.4125 46.1102 30.9801 46.2578C30.5371 46.416 29.7566 46.6059 29.2398 46.6902C28.7125 46.7746 27.932 46.8379 27.4996 46.8379C27.0566 46.8379 26.2762 46.7746 25.7594 46.6902C25.232 46.6059 24.4516 46.416 24.0191 46.2578C23.5762 46.1102 22.8484 45.7938 22.3844 45.5406C21.9203 45.298 21.2559 44.8762 20.9078 44.6125C20.5598 44.3383 20.0113 43.8531 19.6949 43.5262C19.3469 43.1781 19.0199 42.9461 18.9039 42.9461C18.7879 42.9566 18.4715 43.0305 18.2184 43.1254C17.9547 43.2098 17.7121 43.3047 17.691 43.3258ZM22.1102 21.7469C22.1418 21.7469 22.9539 22.3375 23.9137 23.0547C24.8629 23.7613 25.6855 24.4258 25.7277 24.5207C25.7699 24.6156 25.8121 24.8055 25.8121 24.932C25.8121 25.0586 25.7277 25.2906 25.6117 25.4277C25.4219 25.6703 25.1477 25.7441 23.207 26.1344C21.9941 26.377 20.9711 26.5562 20.9289 26.5246C20.8867 26.5035 20.7918 26.1555 20.718 25.7547C20.6441 25.3539 20.6125 24.9953 20.6441 24.9637C20.6652 24.9426 21.1715 24.816 21.7516 24.7C22.3316 24.5734 22.8168 24.4574 22.8273 24.4258C22.8379 24.4047 22.4582 24.0777 21.0871 23.0547L21.5723 22.4008C21.8359 22.0422 22.0785 21.7469 22.1102 21.7469ZM32.8996 21.768C32.9313 21.7785 33.1844 22.0738 33.9016 23.0547L33.0156 23.7191C32.5305 24.0777 32.1508 24.4047 32.1613 24.4258C32.1719 24.4574 32.6676 24.5734 33.2477 24.6895C33.8277 24.816 34.3129 24.9215 34.334 24.932C34.3551 24.9531 34.3129 25.2906 34.2391 25.6914C34.1652 26.1027 34.102 26.4613 34.0809 26.4824C34.0598 26.5141 33.0367 26.3453 31.8027 26.1027C29.8516 25.723 29.5246 25.6281 29.3664 25.4172C29.2609 25.2801 29.1766 25.048 29.1766 24.9004C29.1766 24.7633 29.2398 24.5629 29.3137 24.4574C29.3875 24.3625 30.2102 23.7086 31.1383 23.0125C32.0664 22.3164 32.8574 21.7574 32.8996 21.768Z" fill="url(#paint0_linear_1968_3750)"/>
<defs>
<linearGradient id="paint0_linear_1968_3750" x1="-4.1153" y1="-17.6976" x2="63.6588" y2="-17.5474" gradientUnits="userSpaceOnUse">
<stop stop-color="#BF8327"/>
<stop offset="0.485" stop-color="#F4DC60"/>
<stop offset="1" stop-color="#BF8327"/>
</linearGradient>
</defs>
</svg>
