<svg width="40" height="41" viewBox="0 0 40 41" fill="none" xmlns="http://www.w3.org/2000/svg">
<mask id="path-1-inside-1_1807_9699" fill="white">
<path fill-rule="evenodd" clip-rule="evenodd" d="M19.9609 2.77539C20.1328 2.77539 20.4844 2.8457 20.7422 2.93164C21 3.02539 21.6719 3.35352 22.2266 3.67383C22.7813 3.99414 23.6797 4.46289 24.2188 4.7207C24.7578 4.9707 25.5469 5.32227 25.9766 5.49414C26.4063 5.66602 27.1406 5.93164 27.6172 6.08789C28.0938 6.25195 28.9375 6.49414 29.4922 6.64258C30.0469 6.7832 30.8906 6.97852 31.3672 7.06445C31.8438 7.15039 32.6485 7.27539 33.1641 7.3457C33.836 7.43164 34.2344 7.52539 34.5703 7.68164C34.8281 7.79883 35.1953 8.05664 35.3906 8.24414C35.5781 8.43945 35.8438 8.82227 36.2109 9.61133V15.1191C36.2109 20.0645 36.1953 20.7207 36.0703 21.5254C35.9922 22.0176 35.8047 22.9004 35.6563 23.4785C35.5078 24.0566 35.2266 24.9395 35.0313 25.4316C34.8359 25.9238 34.4844 26.6973 34.2578 27.1504C34.0234 27.6035 33.5938 28.3379 33.2891 28.791C32.9922 29.2441 32.5078 29.9082 32.2109 30.2754C31.9219 30.6348 31.3594 31.252 30.9766 31.6426C30.5859 32.0254 29.9688 32.5879 29.6094 32.877C29.2422 33.166 28.6094 33.627 28.2031 33.9004C27.7969 34.1738 26.0547 35.1738 24.3359 36.127C22.4453 37.1738 21.0078 37.9238 20.7031 38.0176C20.4219 38.0957 20.1094 38.166 20 38.166C19.8906 38.166 19.5938 38.1035 19.3359 38.0332C19.0469 37.9473 17.6328 37.2129 15.625 36.0957C13.8438 35.1035 12.0859 34.0957 11.7188 33.8457C11.3516 33.6035 10.7734 33.1816 10.4297 32.9004C10.0859 32.627 9.50782 32.1113 9.14064 31.752C8.77345 31.3926 8.21876 30.7988 7.91407 30.4316C7.60939 30.0645 7.10157 29.3848 6.78126 28.9082C6.46876 28.4316 6.00782 27.666 5.76564 27.1895C5.52345 26.7129 5.16407 25.9238 4.96876 25.4316C4.77345 24.9395 4.4922 24.0566 4.34376 23.4785C4.19532 22.9004 4.00001 21.916 3.90626 21.291C3.75782 20.2129 3.75001 19.8848 3.78907 9.61133L4.02345 9.10352C4.15626 8.82227 4.42189 8.43945 4.60939 8.24414C4.8047 8.05664 5.17189 7.79883 5.4297 7.68164C5.78126 7.51758 6.18751 7.42383 7.03126 7.31445C7.65626 7.22852 8.6172 7.07227 9.1797 6.95508C9.7422 6.83789 10.7266 6.5957 11.3672 6.4082C12.0156 6.2207 12.9063 5.92383 13.3594 5.75977C13.8125 5.58789 14.5 5.30664 14.8828 5.13477C15.2656 4.96289 15.9219 4.6582 16.3281 4.45508C16.7344 4.25195 17.4375 3.86914 17.8906 3.61133C18.3438 3.3457 18.9219 3.04883 19.1797 2.95508C19.4375 2.86133 19.7891 2.7832 19.9609 2.77539ZM18.6328 6.06445C18.0703 6.37695 17.1094 6.86914 16.4844 7.1582C15.8594 7.43945 14.8594 7.86133 14.2578 8.08789C13.6563 8.31445 12.6328 8.65039 11.9922 8.83008C11.3438 9.01758 10.2891 9.27539 9.64845 9.4082C9.00001 9.54102 8.03907 9.70508 7.50001 9.77539C6.85939 9.86133 6.47657 9.94727 6.38282 10.0332C6.2422 10.1504 6.2422 10.4082 6.26564 15.3926C6.29689 19.9082 6.32032 20.7285 6.4297 21.3691C6.50782 21.7754 6.67189 22.4941 6.79689 22.9707C6.92189 23.4473 7.18751 24.2363 7.38282 24.7285C7.57814 25.2207 7.89064 25.8926 8.06251 26.2129C8.2422 26.5332 8.57814 27.0957 8.82032 27.4629C9.06251 27.8301 9.50782 28.4238 9.81251 28.791C10.1172 29.1582 10.6797 29.752 11.0625 30.1191C11.4453 30.4863 11.9688 30.9473 12.2266 31.1426C12.4844 31.3457 12.9453 31.666 13.2422 31.8535C13.5391 32.0488 15.1641 32.9707 16.8359 33.9004C18.5078 34.8301 19.9453 35.5879 20.0234 35.5879C20.0938 35.5879 21.5547 34.8066 23.2656 33.8613C24.9688 32.9082 26.6094 31.9629 26.9141 31.7598C27.2188 31.5566 27.7266 31.1816 28.0469 30.9238C28.3672 30.6582 28.9688 30.1035 29.375 29.6816C29.7891 29.252 30.336 28.627 30.6016 28.2832C30.8594 27.9395 31.2578 27.3613 31.4766 26.9941C31.7031 26.627 32.0391 26.0098 32.2188 25.627C32.4063 25.2441 32.6484 24.6816 32.7578 24.377C32.8672 24.0723 33.0547 23.5098 33.1641 23.127C33.2734 22.7441 33.4375 22.041 33.5313 21.5645C33.6875 20.7598 33.6953 20.3926 33.7266 15.4316C33.7578 10.4004 33.7578 10.1504 33.6172 10.0332C33.5234 9.94727 33.1406 9.86133 32.5 9.77539C31.9609 9.70508 31 9.54102 30.3516 9.4082C29.711 9.27539 28.6406 9.00977 27.9922 8.82227C27.3359 8.63477 26.3281 8.30664 25.7656 8.0957C25.1953 7.88477 24.2891 7.50977 23.75 7.26758C23.2109 7.02539 22.5078 6.68164 22.1875 6.50977C21.8672 6.33008 21.2734 6.00195 20.8828 5.77539C20.4844 5.54102 20.0781 5.35352 19.9766 5.35352C19.875 5.35352 19.7656 5.38477 19.7188 5.42383C19.6797 5.46289 19.1953 5.75195 18.6328 6.06445ZM25.4297 15.0488C25.6901 15.0436 25.9063 15.0931 26.0781 15.1973C26.2109 15.2832 26.3984 15.4707 26.4844 15.6035C26.5859 15.7754 26.6406 15.9941 26.6406 16.252C26.6328 16.4629 26.5938 16.7207 26.5391 16.8145C26.4844 16.9082 25.0703 18.4551 23.3984 20.2441C21.7266 22.0332 20.2031 23.6348 20.0234 23.7988C19.8125 23.9941 19.5781 24.1191 19.3984 24.1504C19.2344 24.1816 18.9688 24.1582 18.8125 24.1113C18.6016 24.0488 17.9141 23.4941 16.4688 22.2051C15.2109 21.0879 14.375 20.291 14.3203 20.1504C14.2734 20.0254 14.2109 19.8535 14.1875 19.7676C14.1641 19.6816 14.1797 19.4707 14.2188 19.2988C14.2656 19.1191 14.4063 18.877 14.5469 18.7363C14.6875 18.5957 14.9453 18.4473 15.1172 18.4004C15.3203 18.3535 15.5313 18.3535 15.7266 18.4004C15.8828 18.4473 16.2188 18.6504 16.4688 18.8613C16.7109 19.0723 17.3906 19.666 17.9688 20.1895C18.5469 20.7051 19.0469 21.1348 19.0859 21.1348C19.1172 21.1348 20.3828 19.8066 21.9063 18.1816C23.4219 16.5645 24.75 15.1973 24.8516 15.1426C24.9531 15.0957 25.2188 15.0488 25.4297 15.0488Z"/>
</mask>
<path fill-rule="evenodd" clip-rule="evenodd" d="M19.9609 2.77539C20.1328 2.77539 20.4844 2.8457 20.7422 2.93164C21 3.02539 21.6719 3.35352 22.2266 3.67383C22.7813 3.99414 23.6797 4.46289 24.2188 4.7207C24.7578 4.9707 25.5469 5.32227 25.9766 5.49414C26.4063 5.66602 27.1406 5.93164 27.6172 6.08789C28.0938 6.25195 28.9375 6.49414 29.4922 6.64258C30.0469 6.7832 30.8906 6.97852 31.3672 7.06445C31.8438 7.15039 32.6485 7.27539 33.1641 7.3457C33.836 7.43164 34.2344 7.52539 34.5703 7.68164C34.8281 7.79883 35.1953 8.05664 35.3906 8.24414C35.5781 8.43945 35.8438 8.82227 36.2109 9.61133V15.1191C36.2109 20.0645 36.1953 20.7207 36.0703 21.5254C35.9922 22.0176 35.8047 22.9004 35.6563 23.4785C35.5078 24.0566 35.2266 24.9395 35.0313 25.4316C34.8359 25.9238 34.4844 26.6973 34.2578 27.1504C34.0234 27.6035 33.5938 28.3379 33.2891 28.791C32.9922 29.2441 32.5078 29.9082 32.2109 30.2754C31.9219 30.6348 31.3594 31.252 30.9766 31.6426C30.5859 32.0254 29.9688 32.5879 29.6094 32.877C29.2422 33.166 28.6094 33.627 28.2031 33.9004C27.7969 34.1738 26.0547 35.1738 24.3359 36.127C22.4453 37.1738 21.0078 37.9238 20.7031 38.0176C20.4219 38.0957 20.1094 38.166 20 38.166C19.8906 38.166 19.5938 38.1035 19.3359 38.0332C19.0469 37.9473 17.6328 37.2129 15.625 36.0957C13.8438 35.1035 12.0859 34.0957 11.7188 33.8457C11.3516 33.6035 10.7734 33.1816 10.4297 32.9004C10.0859 32.627 9.50782 32.1113 9.14064 31.752C8.77345 31.3926 8.21876 30.7988 7.91407 30.4316C7.60939 30.0645 7.10157 29.3848 6.78126 28.9082C6.46876 28.4316 6.00782 27.666 5.76564 27.1895C5.52345 26.7129 5.16407 25.9238 4.96876 25.4316C4.77345 24.9395 4.4922 24.0566 4.34376 23.4785C4.19532 22.9004 4.00001 21.916 3.90626 21.291C3.75782 20.2129 3.75001 19.8848 3.78907 9.61133L4.02345 9.10352C4.15626 8.82227 4.42189 8.43945 4.60939 8.24414C4.8047 8.05664 5.17189 7.79883 5.4297 7.68164C5.78126 7.51758 6.18751 7.42383 7.03126 7.31445C7.65626 7.22852 8.6172 7.07227 9.1797 6.95508C9.7422 6.83789 10.7266 6.5957 11.3672 6.4082C12.0156 6.2207 12.9063 5.92383 13.3594 5.75977C13.8125 5.58789 14.5 5.30664 14.8828 5.13477C15.2656 4.96289 15.9219 4.6582 16.3281 4.45508C16.7344 4.25195 17.4375 3.86914 17.8906 3.61133C18.3438 3.3457 18.9219 3.04883 19.1797 2.95508C19.4375 2.86133 19.7891 2.7832 19.9609 2.77539ZM18.6328 6.06445C18.0703 6.37695 17.1094 6.86914 16.4844 7.1582C15.8594 7.43945 14.8594 7.86133 14.2578 8.08789C13.6563 8.31445 12.6328 8.65039 11.9922 8.83008C11.3438 9.01758 10.2891 9.27539 9.64845 9.4082C9.00001 9.54102 8.03907 9.70508 7.50001 9.77539C6.85939 9.86133 6.47657 9.94727 6.38282 10.0332C6.2422 10.1504 6.2422 10.4082 6.26564 15.3926C6.29689 19.9082 6.32032 20.7285 6.4297 21.3691C6.50782 21.7754 6.67189 22.4941 6.79689 22.9707C6.92189 23.4473 7.18751 24.2363 7.38282 24.7285C7.57814 25.2207 7.89064 25.8926 8.06251 26.2129C8.2422 26.5332 8.57814 27.0957 8.82032 27.4629C9.06251 27.8301 9.50782 28.4238 9.81251 28.791C10.1172 29.1582 10.6797 29.752 11.0625 30.1191C11.4453 30.4863 11.9688 30.9473 12.2266 31.1426C12.4844 31.3457 12.9453 31.666 13.2422 31.8535C13.5391 32.0488 15.1641 32.9707 16.8359 33.9004C18.5078 34.8301 19.9453 35.5879 20.0234 35.5879C20.0938 35.5879 21.5547 34.8066 23.2656 33.8613C24.9688 32.9082 26.6094 31.9629 26.9141 31.7598C27.2188 31.5566 27.7266 31.1816 28.0469 30.9238C28.3672 30.6582 28.9688 30.1035 29.375 29.6816C29.7891 29.252 30.336 28.627 30.6016 28.2832C30.8594 27.9395 31.2578 27.3613 31.4766 26.9941C31.7031 26.627 32.0391 26.0098 32.2188 25.627C32.4063 25.2441 32.6484 24.6816 32.7578 24.377C32.8672 24.0723 33.0547 23.5098 33.1641 23.127C33.2734 22.7441 33.4375 22.041 33.5313 21.5645C33.6875 20.7598 33.6953 20.3926 33.7266 15.4316C33.7578 10.4004 33.7578 10.1504 33.6172 10.0332C33.5234 9.94727 33.1406 9.86133 32.5 9.77539C31.9609 9.70508 31 9.54102 30.3516 9.4082C29.711 9.27539 28.6406 9.00977 27.9922 8.82227C27.3359 8.63477 26.3281 8.30664 25.7656 8.0957C25.1953 7.88477 24.2891 7.50977 23.75 7.26758C23.2109 7.02539 22.5078 6.68164 22.1875 6.50977C21.8672 6.33008 21.2734 6.00195 20.8828 5.77539C20.4844 5.54102 20.0781 5.35352 19.9766 5.35352C19.875 5.35352 19.7656 5.38477 19.7188 5.42383C19.6797 5.46289 19.1953 5.75195 18.6328 6.06445ZM25.4297 15.0488C25.6901 15.0436 25.9063 15.0931 26.0781 15.1973C26.2109 15.2832 26.3984 15.4707 26.4844 15.6035C26.5859 15.7754 26.6406 15.9941 26.6406 16.252C26.6328 16.4629 26.5938 16.7207 26.5391 16.8145C26.4844 16.9082 25.0703 18.4551 23.3984 20.2441C21.7266 22.0332 20.2031 23.6348 20.0234 23.7988C19.8125 23.9941 19.5781 24.1191 19.3984 24.1504C19.2344 24.1816 18.9688 24.1582 18.8125 24.1113C18.6016 24.0488 17.9141 23.4941 16.4688 22.2051C15.2109 21.0879 14.375 20.291 14.3203 20.1504C14.2734 20.0254 14.2109 19.8535 14.1875 19.7676C14.1641 19.6816 14.1797 19.4707 14.2188 19.2988C14.2656 19.1191 14.4063 18.877 14.5469 18.7363C14.6875 18.5957 14.9453 18.4473 15.1172 18.4004C15.3203 18.3535 15.5313 18.3535 15.7266 18.4004C15.8828 18.4473 16.2188 18.6504 16.4688 18.8613C16.7109 19.0723 17.3906 19.666 17.9688 20.1895C18.5469 20.7051 19.0469 21.1348 19.0859 21.1348C19.1172 21.1348 20.3828 19.8066 21.9063 18.1816C23.4219 16.5645 24.75 15.1973 24.8516 15.1426C24.9531 15.0957 25.2188 15.0488 25.4297 15.0488Z" fill="black" stroke="url(#paint0_linear_1807_9699)" stroke-width="0.740741" mask="url(#path-1-inside-1_1807_9699)"/>
<defs>
<linearGradient id="paint0_linear_1807_9699" x1="0.397272" y1="-10.0384" x2="42.4232" y2="-9.95293" gradientUnits="userSpaceOnUse">
<stop stop-color="#BF8327"/>
<stop offset="0.485" stop-color="#F4DC60"/>
<stop offset="1" stop-color="#BF8327"/>
</linearGradient>
</defs>
</svg>
