<svg width="40" height="40" viewBox="0 0 40 40" fill="none" xmlns="http://www.w3.org/2000/svg">
<path fill-rule="evenodd" clip-rule="evenodd" d="M27.3281 0.710921C27.4218 0.703109 27.6874 0.773421 27.9062 0.859359C28.2812 0.999984 28.7656 1.46092 32.789 5.48436C36.1015 8.81248 37.2968 10.0547 37.414 10.3125C37.5077 10.5078 37.5781 10.789 37.5781 10.9375C37.5781 11.0859 37.5077 11.3672 37.414 11.5625C37.289 11.8281 35.5702 13.6015 23.4765 25.7031H29.6874C34.8671 25.7031 35.9609 25.7187 36.289 25.8125C36.5702 25.8984 36.7734 26.0234 37.0077 26.2812C37.1952 26.4765 37.3749 26.7734 37.4218 26.9297C37.4687 27.1172 37.4999 29.1953 37.4999 32.3437C37.4999 36.1797 37.4765 37.539 37.3984 37.7656C37.3515 37.9297 37.1952 38.1875 37.0702 38.3437C36.9452 38.4922 36.7031 38.6797 36.539 38.7578C36.2656 38.8984 35.8281 38.9062 25.8984 38.9062C15.9296 38.9062 15.539 38.8984 15.2499 38.7578C15.0937 38.6797 14.914 38.5547 14.8593 38.4844C14.7734 38.375 14.7187 38.3828 14.2734 38.6328C14.0077 38.7812 13.4452 38.9922 13.0077 39.1015C12.5781 39.2031 12.0702 39.2969 11.8749 39.2969C11.6796 39.2969 11.1874 39.2109 10.7812 39.1094C10.3749 39.0156 9.82806 38.8203 9.57025 38.6875C9.31243 38.5469 8.89837 38.2812 8.64837 38.0859C8.40618 37.8906 8.039 37.5156 7.84368 37.2422C7.64056 36.9765 7.38275 36.5469 7.25775 36.289C7.13275 36.0312 6.98431 35.6094 6.914 35.3515C6.8515 35.0859 6.79681 34.5547 6.79681 34.1172C6.79681 33.664 6.8515 33.1484 6.92962 32.8281C7.00775 32.539 7.19525 32.0469 7.35931 31.7344C7.52337 31.4297 7.65618 31.1562 7.65618 31.1328C7.65618 31.1094 6.96087 31.0859 6.10931 31.0703C4.61712 31.0547 4.55462 31.0469 4.14056 30.8437C3.90618 30.7265 3.539 30.4687 3.33587 30.2578C3.12493 30.0547 2.86712 29.7031 2.76556 29.4922C2.65618 29.2734 2.539 28.8594 2.49993 28.5547C2.44525 28.2031 2.42962 23.7187 2.43743 16.0937C2.46087 4.33592 2.46087 4.17186 2.61712 3.78905C2.70306 3.5703 2.88275 3.24998 3.00775 3.0703C3.14056 2.89842 3.39837 2.62498 3.59368 2.46873C3.789 2.3203 4.14837 2.12498 4.39056 2.03123C4.82806 1.8828 5.01556 1.87498 10.2734 1.87498C15.5468 1.87498 15.7187 1.8828 16.1562 2.03123C16.3984 2.12498 16.7265 2.28905 16.8827 2.40623C17.039 2.52342 17.2968 2.77342 17.4531 2.96873C17.6093 3.16405 17.8124 3.51561 17.9062 3.74998C18.0702 4.15623 18.0781 4.32811 18.1327 9.2578L22.2109 5.17967C25.7031 1.68748 26.3515 1.0703 26.7187 0.906234C26.9531 0.796859 27.2265 0.710921 27.3202 0.710921H27.3281ZM25.4531 3.24998L24.0546 4.64842C24.6406 5.16405 24.9687 5.39842 25.164 5.49998C25.3593 5.60936 25.7265 5.74998 25.9843 5.81248C26.2421 5.8828 26.6171 5.93748 26.8202 5.93748C27.0312 5.93748 27.3827 5.89842 27.6015 5.85155C27.8281 5.80467 28.2265 5.65623 28.4843 5.52342C28.7421 5.39061 29.1327 5.10936 29.3515 4.89061C29.5702 4.67186 29.8124 4.36717 29.8827 4.21873L30.0234 3.9453C28.4062 2.33592 27.8202 1.8203 27.6796 1.7578C27.5468 1.6953 27.4062 1.64061 27.3671 1.64061C27.3359 1.64842 27.2031 1.6953 27.0781 1.74998C26.9531 1.81248 26.2187 2.48436 25.4531 3.24998ZM4.2265 3.1328C4.07806 3.24217 3.87493 3.43748 3.78118 3.56248C3.68743 3.68748 3.55462 3.9453 3.49212 4.14061C3.37493 4.45311 3.36712 5.71092 3.36712 16.4844C3.36712 26.914 3.38275 28.5234 3.48431 28.8281C3.54681 29.0234 3.71868 29.3203 3.85931 29.4922C3.99993 29.664 4.29681 29.8906 4.50775 30C4.87493 30.1875 4.95306 30.1953 6.68743 30.2265L8.48431 30.25C9.21087 29.7656 9.52337 29.5781 9.65618 29.5078C9.789 29.4453 10.1562 29.3125 10.4765 29.2109C10.9218 29.0703 11.2499 29.0312 11.8437 29.0312C12.2734 29.0234 12.8202 29.0781 13.0546 29.1328C13.289 29.1953 13.664 29.3125 13.8827 29.4062L14.2812 29.5703C14.3437 27.164 14.3749 26.9531 14.5156 26.6797C14.6093 26.5078 14.7656 26.289 14.8671 26.2031C14.9609 26.1094 15.1718 25.9687 15.3202 25.8906C15.5234 25.789 15.8124 25.7422 16.3984 25.7265L17.1952 25.7031C17.1952 6.08592 17.1796 4.51561 17.0859 4.17967C17.0156 3.96873 16.8515 3.64842 16.7031 3.47655C16.5624 3.30467 16.2656 3.07811 16.0546 2.96873C15.7265 2.80467 15.5312 2.77342 14.7343 2.74998L13.7968 2.71873C13.4374 3.72655 13.2734 4.08592 13.1952 4.15623C13.0702 4.28123 12.8202 4.29686 10.3046 4.29686C8.20306 4.29686 7.51556 4.27342 7.414 4.20311C7.33587 4.14842 7.17181 3.80467 7.05462 3.43748L6.82806 2.77342C5.57025 2.74998 5.04681 2.78123 4.8515 2.83592C4.64837 2.89061 4.36712 3.02342 4.2265 3.1328ZM7.85931 2.99217C7.89056 3.12498 7.92962 3.26561 7.94525 3.30467C7.96087 3.33592 9.01556 3.35936 10.2812 3.35936H12.5859C12.7734 2.90623 12.8202 2.76561 12.8202 2.7578C12.8202 2.74217 11.6952 2.73436 10.3124 2.73436H7.80462L7.85931 2.99217ZM29.8906 5.64061C29.6718 5.85155 29.2734 6.14061 28.9921 6.28905C28.7109 6.42967 28.2734 6.61717 28.0156 6.68748C27.7031 6.78123 27.2968 6.82811 26.8046 6.8203C26.2812 6.8203 25.9062 6.76561 25.5546 6.65623C25.2734 6.5703 24.8359 6.36717 24.5781 6.21092C24.3202 6.05467 23.9609 5.78123 23.7734 5.60155L23.4452 5.28123C22.3827 6.30467 21.1874 7.48436 20.1015 8.55467L18.1327 10.5156L18.1249 22.9375C18.3984 22.7187 18.6562 22.5547 18.8749 22.4219C19.0859 22.2969 19.5077 22.1094 19.8124 22.0156C20.2109 21.8906 20.5546 21.8437 21.1015 21.8437C21.6484 21.8437 21.9843 21.8906 22.3906 22.0156C22.6874 22.1094 23.1093 22.289 23.3281 22.414C23.539 22.539 23.9062 22.8125 24.1327 23.0234L24.5468 23.4062L33.0156 14.9375C32.3749 14.2344 32.0859 13.8203 31.9609 13.5625C31.8359 13.2969 31.6796 12.8828 31.6093 12.625C31.5468 12.3594 31.4921 11.875 31.4921 11.5312C31.4921 11.1875 31.5468 10.6953 31.6093 10.4375C31.6718 10.1719 31.8281 9.7578 31.9531 9.49998C32.0781 9.24217 32.4062 8.78905 32.6796 8.49217C32.9452 8.19529 33.289 7.88279 33.4296 7.78904L33.6952 7.62498C31.414 5.35155 30.7265 4.68748 30.7109 4.68748C30.6874 4.68748 30.5781 4.8203 30.4765 4.97655C30.3671 5.1328 30.1015 5.43748 29.8906 5.64061ZM33.8359 8.64842C33.5468 8.86717 33.1952 9.22655 32.9999 9.51561C32.8124 9.78123 32.6015 10.2031 32.5312 10.4531C32.4452 10.7344 32.3984 11.1484 32.3984 11.5703C32.4062 12.0156 32.4609 12.3672 32.5624 12.664C32.6484 12.8984 32.8046 13.2344 32.914 13.4062C33.0234 13.5781 33.2343 13.8281 33.3749 13.9687C33.5234 14.1172 33.6562 14.2265 33.6796 14.2265C33.7031 14.2265 34.3593 13.5859 35.1406 12.7969C36.1249 11.8047 36.5702 11.2969 36.6093 11.1406C36.6406 11.0078 36.6406 10.8125 36.6093 10.7109C36.5781 10.6015 36.0624 10.0078 35.4531 9.39061L34.3437 8.27342L33.8359 8.64842ZM19.3359 23.2109C19.1249 23.3359 18.8593 23.5156 18.7499 23.6172C18.6484 23.7109 18.4609 23.9062 18.3437 24.0469C18.1718 24.2422 18.1249 24.3828 18.1249 24.6719C18.1249 25.0156 18.1406 25.0547 18.5156 25.375L18.9062 25.7031H22.2265L23.8671 24.0625C23.3281 23.5156 23.0077 23.2734 22.8124 23.1719C22.6249 23.0625 22.2499 22.9219 21.9921 22.8594C21.7343 22.789 21.3124 22.7344 21.0546 22.7422C20.7968 22.7422 20.3984 22.7969 20.1562 22.8594C19.9218 22.9219 19.5546 23.0781 19.3359 23.2109ZM15.3671 27.039C15.2734 27.1719 15.2421 27.4297 15.2421 27.9531L15.2343 28.6719H36.5624C36.5624 27.125 36.5624 27.1015 36.3281 26.875L36.0937 26.6406C17.6874 26.6484 15.789 26.664 15.6562 26.75C15.5624 26.8047 15.4296 26.9375 15.3671 27.039ZM15.2343 29.9219C15.2343 30.1953 15.2968 30.3047 15.7109 30.7656C15.9687 31.0547 16.1796 31.3125 16.1796 31.3515C16.1718 31.3828 20.7656 31.4062 26.3671 31.4062H36.5624V29.6094H15.2343V29.9219ZM9.96087 30.3906C9.59368 30.5703 9.24993 30.8281 8.90618 31.1719C8.6015 31.4765 8.29681 31.8828 8.14837 32.1875C8.00775 32.4687 7.83587 32.9453 7.77337 33.2422C7.71087 33.5469 7.664 33.9297 7.65618 34.1015C7.65618 34.2734 7.69525 34.625 7.74212 34.8828C7.789 35.1406 7.94525 35.6015 8.08587 35.8984C8.2265 36.2109 8.51556 36.6484 8.75775 36.9062C8.99212 37.164 9.39056 37.5078 9.64837 37.6719C9.90618 37.8437 10.3671 38.0547 10.664 38.1484C11.039 38.2578 11.4218 38.3125 11.8749 38.3125C12.3359 38.3125 12.7109 38.2578 13.0859 38.1484C13.3906 38.0547 13.8437 37.8437 14.1015 37.6719C14.3593 37.5078 14.7421 37.1953 14.9452 36.9844C15.1484 36.7734 15.4374 36.375 15.5859 36.0937C15.7343 35.8125 15.914 35.3437 15.9843 35.039C16.0702 34.6562 16.1015 34.3047 16.0702 33.8672C16.0468 33.4844 15.9531 33.0312 15.8281 32.6953C15.7187 32.3984 15.4999 31.9609 15.3359 31.7265C15.1718 31.4922 14.8671 31.1484 14.6484 30.9609C14.4374 30.7734 14.0468 30.5156 13.789 30.3828C13.5312 30.2578 13.1327 30.1015 12.8906 30.039C12.6562 29.9765 12.2031 29.9297 11.8749 29.9297C11.5546 29.9297 11.1171 29.9765 10.8984 30.0312C10.6874 30.0781 10.2656 30.2422 9.96087 30.3906ZM16.8515 32.9297C16.9218 33.1953 16.9765 33.7109 16.9765 34.1015C16.9843 34.4922 16.9374 35 16.8827 35.2344C16.8281 35.4687 16.6484 35.9453 16.4921 36.289C16.3359 36.6328 16.039 37.1172 15.8359 37.3672C15.6327 37.6094 15.4765 37.8281 15.4921 37.8437C15.4999 37.8594 15.5859 37.9062 15.6874 37.9609C15.8124 38.0234 18.5624 38.0469 25.8984 38.0469C33.1406 38.0469 35.9921 38.0234 36.1171 37.9609C36.2109 37.914 36.3515 37.7969 36.4296 37.7031C36.5468 37.5547 36.5624 37.289 36.5624 34.9453V32.3437C21.1874 32.3437 16.7187 32.3672 16.7187 32.4062C16.7265 32.4375 16.7812 32.6719 16.8515 32.9297ZM10.2343 9.60936C10.3202 9.60936 10.4609 9.67967 10.5468 9.76561C10.6718 9.89061 10.7031 10.0234 10.7031 10.4687C10.7031 10.9844 10.7187 11.0156 10.8827 11.0156C10.9765 11.0156 11.2499 11.1094 11.4843 11.2187C11.7265 11.3281 12.039 11.5156 12.1874 11.6328C12.3437 11.7578 12.5781 12.0234 12.7187 12.2344C12.8906 12.4896 12.9583 12.6693 12.9218 12.7734C12.8984 12.8594 12.8202 12.9765 12.7499 13.0312C12.6796 13.0859 12.5546 13.125 12.4843 13.125C12.4062 13.125 12.164 12.9297 11.9374 12.6875C11.7031 12.4375 11.3593 12.164 11.1327 12.0625C10.8593 11.9297 10.6093 11.875 10.2734 11.8828C10.0156 11.8828 9.68743 11.9219 9.53118 11.9765C9.38275 12.0312 9.10931 12.1953 8.92181 12.3437C8.68743 12.5312 8.52337 12.75 8.40618 13.039C8.31243 13.2734 8.21868 13.6719 8.20306 13.9375C8.18743 14.2969 8.21868 14.5 8.33587 14.7656C8.42962 14.9609 8.61712 15.2344 8.76556 15.3828C8.90618 15.5234 9.164 15.7187 9.33587 15.8047C9.53118 15.9062 9.914 15.9844 10.3515 16.0234C10.9062 16.0781 11.1718 16.1484 11.6015 16.3594C11.9609 16.5312 12.2656 16.7578 12.4843 17C12.6718 17.2109 12.9218 17.5781 13.0312 17.8125C13.2187 18.1953 13.2421 18.3359 13.2421 19.0234C13.2421 19.7031 13.2187 19.8594 13.0468 20.2344C12.9296 20.4687 12.7187 20.8047 12.5781 20.9687C12.4296 21.1328 12.1484 21.3828 11.9531 21.5078C11.7656 21.6406 11.414 21.8125 10.7421 22.0156L10.7031 22.5547C10.6796 22.8828 10.6171 23.1562 10.5468 23.2344C10.4843 23.3047 10.3515 23.3672 10.2577 23.3672C10.1562 23.3594 10.0077 23.289 9.92181 23.2031C9.79681 23.0781 9.76556 22.9453 9.76556 22.5C9.76556 22.0312 9.74993 21.9531 9.63275 21.9531C9.55462 21.9531 9.30462 21.8594 9.06243 21.75C8.82806 21.6406 8.48431 21.4219 8.289 21.2656C8.1015 21.1094 7.86712 20.8359 7.76556 20.664C7.62493 20.4297 7.59368 20.3047 7.64837 20.1562C7.67962 20.0469 7.77337 19.9375 7.84368 19.9062C7.914 19.8672 8.02337 19.8437 8.08587 19.8437C8.15618 19.8437 8.39056 20.039 8.61712 20.289C8.8515 20.539 9.19525 20.8047 9.414 20.9062C9.67181 21.0312 9.95306 21.0937 10.2343 21.0937C10.4765 21.0937 10.8281 21.0469 11.0156 20.9844C11.2187 20.914 11.5234 20.7187 11.7187 20.5312C11.9062 20.3437 12.1327 20.039 12.2187 19.8437C12.3046 19.6406 12.3749 19.3125 12.3749 19.0625C12.3749 18.8281 12.3281 18.4922 12.2734 18.3203C12.2109 18.1484 12.0156 17.8515 11.8437 17.664C11.6718 17.4765 11.3827 17.2578 11.2109 17.164C11.0156 17.0703 10.6406 16.9844 10.1952 16.9453C9.64056 16.8906 9.38275 16.8203 8.94525 16.6094C8.59368 16.4375 8.28118 16.2109 8.05462 15.9687C7.86712 15.7578 7.62493 15.3906 7.50775 15.1562C7.33587 14.7812 7.30462 14.625 7.30462 13.9453C7.30462 13.2734 7.33587 13.1094 7.50775 12.7344C7.61712 12.5 7.84368 12.1562 8.01556 11.9687C8.18743 11.7812 8.48431 11.5234 8.67181 11.4062C8.86712 11.2812 9.19525 11.1328 9.76556 10.9765V10.4531C9.76556 10.0234 9.79681 9.89061 9.92181 9.76561C10.0077 9.67967 10.1484 9.60936 10.2343 9.60936ZM23.9062 9.85155C24.1484 9.85155 24.5859 9.89842 24.8827 9.96092C25.1874 10.0234 25.6952 10.2109 26.0156 10.3672C26.4062 10.5703 26.7734 10.8359 27.1249 11.1953C27.5234 11.5859 27.7343 11.8828 27.9687 12.3672C28.1327 12.7187 28.3124 13.2344 28.3671 13.5156C28.4218 13.8203 28.4452 14.289 28.4218 14.6875C28.3906 15.0859 28.2968 15.5547 28.1874 15.8594C28.0937 16.1406 27.8984 16.5469 27.7577 16.7578C27.6249 16.9765 27.289 17.3672 27.0234 17.625C26.7499 17.8906 26.3124 18.2109 26.0546 18.3437C25.7968 18.4687 25.3749 18.6406 25.1171 18.7109C24.8281 18.7969 24.3827 18.8515 23.9452 18.8515C23.5156 18.8515 23.0624 18.7969 22.7734 18.7187C22.5156 18.6406 22.0624 18.4531 21.7656 18.2969C21.4609 18.1328 21.0234 17.8047 20.7499 17.5312C20.4843 17.2656 20.1484 16.8203 19.9921 16.5156C19.8281 16.2187 19.6484 15.7656 19.5781 15.5078C19.5156 15.25 19.4609 14.7422 19.4531 14.375C19.4531 14.0078 19.5077 13.5 19.5781 13.2422C19.6484 12.9844 19.8281 12.5312 19.9843 12.2265C20.1562 11.8984 20.4765 11.4765 20.7812 11.164C21.1327 10.8125 21.4765 10.5625 21.8749 10.3672C22.2031 10.2031 22.6952 10.0234 22.9687 9.96873C23.2499 9.90623 23.6718 9.85155 23.9062 9.85155ZM22.1093 11.2656C21.9218 11.375 21.5781 11.664 21.3515 11.9062C21.1249 12.1484 20.8359 12.5625 20.7031 12.8359C20.5781 13.1015 20.4296 13.5469 20.3827 13.8281C20.3202 14.2109 20.3202 14.4687 20.3827 14.8828C20.4374 15.1875 20.5781 15.6406 20.6952 15.8984C20.8124 16.1562 21.0937 16.5625 21.3046 16.7969C21.5234 17.0312 21.9062 17.3359 22.1562 17.4765C22.414 17.6094 22.8281 17.7812 23.0859 17.8437C23.3437 17.914 23.7343 17.9687 23.9452 17.9687C24.164 17.9687 24.539 17.914 24.789 17.8515C25.0312 17.789 25.4218 17.6406 25.6484 17.5312C25.8749 17.414 26.2499 17.125 26.4921 16.8828C26.7499 16.625 27.0312 16.2422 27.1718 15.9375C27.3202 15.6328 27.4452 15.2109 27.4921 14.8828C27.5312 14.5625 27.5312 14.125 27.4921 13.8281C27.4531 13.5469 27.3124 13.1015 27.1874 12.8359C27.0624 12.5625 26.789 12.164 26.5859 11.9453C26.3827 11.7265 26.039 11.4375 25.8202 11.3047C25.6093 11.1719 25.2265 11 24.9843 10.9219C24.7031 10.8359 24.2968 10.7812 23.9296 10.789C23.5859 10.789 23.1406 10.8515 22.8906 10.9297C22.6562 11 22.3046 11.1562 22.1093 11.2656ZM10.2968 27.039C11.3437 27.0312 11.9374 27.0625 12.0546 27.125C12.1484 27.1719 12.2577 27.25 12.289 27.2969C12.3202 27.3437 12.3437 27.4453 12.3437 27.5234C12.3437 27.5937 12.2734 27.7265 12.1874 27.8125C12.039 27.9609 11.9296 27.9687 10.2968 27.9687C8.75775 27.9687 8.539 27.9531 8.414 27.8281C8.34368 27.7578 8.28118 27.625 8.28118 27.539C8.28118 27.4531 8.32806 27.3281 8.38275 27.2578C8.43743 27.1875 8.53118 27.1094 8.59368 27.0859C8.664 27.0625 9.42181 27.039 10.2968 27.039ZM11.8515 31.0937C11.8671 31.0937 11.9687 31.1406 12.0781 31.1953C12.1952 31.25 12.3046 31.3828 12.3359 31.5078C12.3593 31.625 12.4218 31.7187 12.4609 31.7187C12.5077 31.7187 12.7031 31.8437 12.8906 32C13.1874 32.2344 13.2421 32.3203 13.2265 32.5234C13.2187 32.664 13.164 32.8203 13.1093 32.875C13.0624 32.9219 12.9218 32.9687 12.7968 32.9687C12.664 32.9687 12.5156 32.8906 12.4062 32.7734C12.3046 32.6719 12.1249 32.5625 11.9921 32.539C11.8281 32.5 11.7031 32.5312 11.5468 32.6484C11.3827 32.7734 11.3281 32.8828 11.3281 33.0859C11.3281 33.2969 11.3827 33.3984 11.5468 33.5156C11.664 33.6094 11.8359 33.6797 11.9374 33.6719C12.0312 33.6719 12.2421 33.7265 12.4062 33.7969C12.5624 33.8594 12.7812 33.9922 12.8827 34.0859C12.9843 34.1797 13.1327 34.3984 13.2109 34.5703C13.2968 34.7422 13.3593 35 13.3593 35.1406C13.3593 35.2734 13.3046 35.5234 13.2421 35.6875C13.1718 35.8437 13.039 36.0625 12.9452 36.164C12.8515 36.2578 12.6874 36.3906 12.5781 36.4453C12.4687 36.5 12.3593 36.6406 12.3281 36.789C12.289 36.9297 12.1874 37.0703 12.0702 37.1328C11.914 37.2109 11.8359 37.2109 11.6796 37.1328C11.5624 37.0703 11.4609 36.9297 11.4296 36.789C11.3984 36.6484 11.3046 36.5156 11.2109 36.4844C11.1249 36.4531 10.9452 36.3203 10.8046 36.1797C10.6327 36.0234 10.5468 35.8672 10.5546 35.7265C10.5546 35.6015 10.6171 35.4453 10.6874 35.3672C10.7656 35.289 10.8827 35.2344 10.9609 35.2344C11.0312 35.2344 11.2109 35.3359 11.3515 35.4687C11.5182 35.6198 11.6874 35.6979 11.8593 35.7031C12.0077 35.7031 12.1718 35.6406 12.2656 35.5469C12.3515 35.4609 12.4218 35.289 12.4218 35.1562C12.4218 35.0312 12.3593 34.8594 12.289 34.7812C12.2109 34.7031 11.9921 34.6172 11.7968 34.5859C11.6093 34.5547 11.3202 34.4531 11.1562 34.3515C10.9999 34.2578 10.7812 34.0547 10.6718 33.9062C10.5624 33.7578 10.4531 33.4765 10.4218 33.2812C10.3906 33.0469 10.4218 32.8203 10.4999 32.6172C10.5624 32.4453 10.7577 32.1719 10.9374 32.0156C11.1093 31.8515 11.289 31.7187 11.3281 31.7187C11.3749 31.7187 11.4062 31.6484 11.3984 31.5703C11.3984 31.4844 11.4921 31.3437 11.6093 31.2578C11.7265 31.164 11.8359 31.0937 11.8515 31.0937ZM28.9687 33.7578C29.2265 33.75 29.4843 33.8047 29.6718 33.8984C29.8281 33.9844 30.0546 34.1484 30.1718 34.2734C30.289 34.3906 30.4374 34.625 30.5077 34.789C30.5702 34.9453 30.6249 35.2187 30.6249 35.3906C30.6249 35.5625 30.5702 35.8359 30.5077 36C30.4374 36.1562 30.289 36.3906 30.1718 36.5078C30.0546 36.6328 29.8281 36.7969 29.6718 36.8828C29.4921 36.9687 29.2109 37.0312 28.9687 37.0312C28.6874 37.0312 28.4452 36.9765 28.2031 36.8515C27.9765 36.7344 27.7656 36.5312 27.5937 36.289C27.3749 35.9531 27.3437 35.8359 27.3437 35.4297C27.3437 35.1406 27.4062 34.8437 27.4999 34.6484C27.5781 34.4765 27.7656 34.2422 27.9062 34.1328C28.0468 34.0156 28.2577 33.8828 28.3593 33.8437C28.4687 33.7969 28.7421 33.7578 28.9687 33.7578ZM28.3593 34.9765C28.2734 35.0937 28.2031 35.289 28.2031 35.414C28.2031 35.5312 28.2968 35.7344 28.3984 35.8594C28.5077 35.9922 28.7031 36.1094 28.8281 36.1328C28.9609 36.1562 29.1718 36.1172 29.2968 36.0547C29.4296 35.9922 29.5702 35.8672 29.6093 35.7812C29.6562 35.6953 29.6874 35.5234 29.6874 35.3906C29.6874 35.2656 29.6562 35.0859 29.6093 35C29.5702 34.914 29.414 34.789 29.2577 34.7265C29.1093 34.664 28.9609 34.6094 28.9296 34.6172C28.8984 34.6172 28.789 34.6484 28.6952 34.6875C28.6015 34.7265 28.4531 34.8515 28.3593 34.9765ZM33.8124 33.75C34.0624 33.75 34.3359 33.8047 34.5156 33.8984C34.6718 33.9844 34.8984 34.1484 35.0156 34.2734C35.1327 34.3906 35.2812 34.625 35.3515 34.789C35.414 34.9453 35.4687 35.2265 35.4687 35.414C35.4687 35.5937 35.4062 35.8828 35.3281 36.0547C35.2499 36.2265 35.0312 36.5 34.8437 36.664C34.6484 36.8281 34.3749 36.9765 34.2187 37.0078C34.0702 37.0312 33.7734 37.0312 33.5546 37.0078C33.3046 36.9844 33.0624 36.8906 32.8593 36.7422C32.6874 36.625 32.4687 36.3672 32.3671 36.1719C32.2421 35.9297 32.1874 35.6953 32.1874 35.414C32.1874 35.1875 32.2343 34.8828 32.2968 34.75C32.3515 34.6094 32.4999 34.3906 32.6327 34.2578C32.7577 34.1328 32.9843 33.9609 33.1327 33.8906C33.2812 33.8125 33.5781 33.75 33.8124 33.75ZM33.2343 34.9219C33.1484 35.0234 33.0859 35.2187 33.0859 35.3984C33.0859 35.625 33.1406 35.7578 33.3046 35.914C33.4687 36.0781 33.6015 36.1328 33.8202 36.1328C33.9843 36.1328 34.1796 36.0781 34.2577 36.0156C34.3359 35.9531 34.4452 35.7812 34.5077 35.6484C34.5937 35.4297 34.5937 35.3515 34.4921 35.1172C34.4296 34.9609 34.2734 34.7969 34.1406 34.7265C34.0156 34.664 33.8671 34.6094 33.8124 34.6172C33.7577 34.6172 33.6406 34.6484 33.5468 34.6797C33.4531 34.7187 33.3124 34.8203 33.2343 34.9219ZM18.039 35.7812C18.6249 35.7812 19.1406 35.8125 19.1874 35.8437C19.2343 35.875 19.3124 35.9765 19.3671 36.0781C19.4296 36.1953 19.4296 36.2969 19.3749 36.4062C19.3359 36.4922 19.2265 36.6015 19.1406 36.6406C19.0546 36.6875 18.5546 36.7187 18.0312 36.7187C17.3046 36.7187 17.0312 36.6953 16.8984 36.6015C16.7968 36.539 16.7187 36.3906 16.7031 36.2734C16.7031 36.164 16.7577 36 16.8359 35.9219C16.9609 35.7969 17.1171 35.7812 18.039 35.7812ZM21.9531 35.7812C22.7656 35.7812 23.0468 35.8047 23.1874 35.8984C23.289 35.9687 23.3593 36.0937 23.3593 36.2109C23.3593 36.3203 23.289 36.4765 23.2031 36.5625C23.0624 36.7031 22.9452 36.7187 22.0312 36.7187C21.4765 36.7187 20.9452 36.6875 20.8593 36.6406C20.7734 36.6015 20.6718 36.4922 20.6249 36.4062C20.5702 36.2969 20.5781 36.1953 20.6406 36.0781C20.6874 35.9765 20.7656 35.875 20.8124 35.8437C20.8593 35.8125 21.3749 35.7812 21.9531 35.7812ZM22.2734 12.3437C22.3593 12.3437 22.4843 12.375 22.5624 12.4219C22.6484 12.4687 22.8046 12.4609 22.9843 12.414C23.1562 12.3672 23.3827 12.3672 23.5312 12.4062C23.6796 12.4453 23.8437 12.5547 23.9062 12.6719C24.0156 12.8515 24.0156 12.8906 23.8906 13.0781C23.7812 13.2422 23.6874 13.2812 23.4374 13.2812C23.2031 13.2812 23.0937 13.3281 22.9687 13.4765C22.8749 13.5937 22.8359 13.7265 22.8671 13.8125C22.8906 13.8828 22.9452 13.9844 22.9765 14.0234C23.0077 14.0703 23.0937 14.125 23.1796 14.1484C23.2734 14.1875 23.4765 14.1094 23.7499 13.9375C24.0937 13.7265 24.2577 13.6719 24.5702 13.6719C24.8124 13.6797 25.0702 13.7344 25.2343 13.8359C25.3906 13.9219 25.5937 14.1015 25.6874 14.2422C25.7812 14.3828 25.8827 14.6328 25.914 14.8047C25.9374 14.9765 25.9218 15.2344 25.8749 15.375C25.8124 15.539 25.8124 15.6406 25.8593 15.664C25.9062 15.6875 25.9374 15.8125 25.9374 15.9375C25.9374 16.1015 25.8827 16.2109 25.7421 16.3125C25.5859 16.414 25.4999 16.4297 25.3671 16.3594C25.2734 16.3125 24.9609 16.289 24.6718 16.3047C24.1952 16.3281 24.1327 16.3125 24.0234 16.1562C23.9531 16.0547 23.914 15.8906 23.9374 15.7812C23.9609 15.6719 24.0702 15.539 24.1796 15.4922C24.289 15.4375 24.4296 15.4062 24.4921 15.4297C24.5624 15.4531 24.7031 15.414 24.8046 15.3515C24.9452 15.2656 24.9999 15.164 24.9999 15C24.9999 14.8359 24.9452 14.7265 24.8046 14.6328C24.6327 14.5156 24.5781 14.5078 24.4296 14.5937C24.3359 14.6484 24.1171 14.7812 23.9452 14.8828C23.7656 15 23.5156 15.0781 23.3437 15.0781C23.1796 15.0781 22.9374 15.0312 22.7968 14.9765C22.6562 14.914 22.4296 14.7422 22.289 14.5859C22.1406 14.4219 22.0156 14.1719 21.9843 14.0078C21.9609 13.8437 21.9609 13.5781 21.9843 13.4219C22.0156 13.25 21.9999 13.1094 21.9531 13.0859C21.914 13.0625 21.8749 12.9453 21.8749 12.8203C21.8671 12.6953 21.9218 12.5312 21.9921 12.4687C22.0624 12.3984 22.1874 12.3437 22.2734 12.3437Z" fill="black"/>
</svg>
