<svg width="14" height="14" viewBox="0 0 14 14" fill="none" xmlns="http://www.w3.org/2000/svg">
<g clip-path="url(#clip0_58_306)">
<path d="M0.874999 0.952509C-0.225167 2.09526 -7.48783e-07 3.30918 -7.48783e-07 6.99701C-7.48783e-07 10.0595 -0.534334 13.1296 2.26217 13.8523C3.13542 14.0769 10.8728 14.0769 11.7448 13.8512C12.9092 13.5508 13.8565 12.6063 13.986 10.9596C14.0041 10.7298 14.0041 3.26834 13.9854 3.03384C13.8477 1.27976 12.768 0.268842 11.3452 0.064092C11.0192 0.016842 10.9538 0.002842 9.28083 -7.46623e-05C3.34658 0.002842 2.04575 -0.261408 0.874999 0.952509Z" fill="url(#paint0_linear_58_306)"/>
<path d="M6.99883 1.83092C4.88074 1.83092 2.86941 1.6425 2.10116 3.61417C1.78383 4.4285 1.82991 5.48608 1.82991 7.00042C1.82991 8.32925 1.78733 9.57817 2.10116 10.3861C2.86766 12.3589 4.89533 12.1699 6.99766 12.1699C9.02591 12.1699 11.1172 12.3811 11.8947 10.3861C12.2127 9.56358 12.166 8.52175 12.166 7.00042C12.166 4.98092 12.2774 3.67717 11.298 2.69833C10.3063 1.70667 8.96524 1.83092 6.99649 1.83092H6.99883ZM6.53566 2.7625C10.9538 2.7555 11.5162 2.26433 11.2058 9.08758C11.0956 11.5008 9.25808 11.236 6.99941 11.236C2.88108 11.236 2.76266 11.1182 2.76266 6.99808C2.76266 2.83017 3.08933 2.76483 6.53566 2.76133V2.7625ZM9.75799 3.62058C9.59354 3.62058 9.43582 3.68591 9.31953 3.8022C9.20324 3.91849 9.13791 4.07621 9.13791 4.24067C9.13791 4.40512 9.20324 4.56284 9.31953 4.67913C9.43582 4.79542 9.59354 4.86075 9.75799 4.86075C9.92245 4.86075 10.0802 4.79542 10.1965 4.67913C10.3127 4.56284 10.3781 4.40512 10.3781 4.24067C10.3781 4.07621 10.3127 3.91849 10.1965 3.8022C10.0802 3.68591 9.92245 3.62058 9.75799 3.62058ZM6.99883 4.34567C6.65024 4.3457 6.30507 4.4144 5.98303 4.54784C5.66099 4.68127 5.36839 4.87683 5.12193 5.12335C4.62417 5.62121 4.34458 6.29641 4.34466 7.00042C4.34474 7.70442 4.62448 8.37956 5.12234 8.87732C5.6202 9.37507 6.2954 9.65466 6.99941 9.65458C7.70342 9.65451 8.37856 9.37477 8.87631 8.8769C9.37406 8.37904 9.65365 7.70384 9.65358 6.99983C9.6535 6.29583 9.37376 5.62069 8.8759 5.12293C8.37804 4.62518 7.70283 4.34559 6.99883 4.34567ZM6.99883 5.27725C9.27674 5.27725 9.27966 8.72358 6.99883 8.72358C4.72149 8.72358 4.71799 5.27725 6.99883 5.27725Z" fill="white"/>
</g>
<defs>
<linearGradient id="paint0_linear_58_306" x1="0.901844" y1="13.1057" x2="13.9134" y2="1.84441" gradientUnits="userSpaceOnUse">
<stop stop-color="#FFDD55"/>
<stop offset="0.5" stop-color="#FF543E"/>
<stop offset="1" stop-color="#C837AB"/>
</linearGradient>
<clipPath id="clip0_58_306">
<rect width="14" height="14" fill="white"/>
</clipPath>
</defs>
</svg>
