<svg width="41" height="41" viewBox="0 0 41 41" fill="none" xmlns="http://www.w3.org/2000/svg">
<path d="M39.6955 8.5067C32.6639 2.70264 26.6228 0 20.685 0C14.748 0 8.70691 2.70264 1.67364 8.5083C1.23482 8.87346 0.992981 9.38836 0.992981 9.95932C0.992981 10.5319 1.23562 11.0476 1.67525 11.4095C3.28241 12.7356 4.85755 13.9136 6.36622 14.9178C6.08195 15.2725 5.82249 15.6505 5.59107 16.0517C4.40111 18.1137 4.0848 20.516 4.7014 22.8151C5.26195 24.9075 6.53359 26.6868 8.31052 27.8864L7.44728 29.3823C6.73779 29.0563 5.88015 29.319 5.47976 30.0093L0.892082 37.9546C0.334738 38.9228 0.667864 40.168 1.63681 40.7301C1.94382 40.9073 2.29212 41.0004 2.64659 41C3.34968 41 4.03435 40.6364 4.41232 39.9862L8.99999 32.0393C9.39878 31.349 9.19698 30.4753 8.55956 30.0229L9.422 28.5278C10.6424 29.122 11.9621 29.4255 13.297 29.4255C14.0713 29.4255 14.8513 29.3238 15.6193 29.118C17.9191 28.5014 19.8418 27.0264 21.0333 24.9644C21.9398 23.3932 22.3386 21.6251 22.2049 19.8554C27.6646 19.4334 33.2444 16.7355 39.6963 11.4103C40.1368 11.0476 40.3794 10.5327 40.3794 9.95932C40.3778 9.38836 40.136 8.87346 39.6955 8.5067ZM7.88851 31.3986L3.30163 39.344C3.09423 39.7011 2.63378 39.8245 2.27823 39.6203C1.92109 39.4128 1.79777 38.9524 2.00277 38.5953L6.58964 30.6515C6.61197 30.6131 6.64397 30.5812 6.68247 30.559C6.72097 30.5368 6.76461 30.5251 6.80905 30.525C6.8515 30.525 6.89474 30.5354 6.93398 30.5586L7.34878 30.798C7.35439 30.8013 7.35919 30.8053 7.3648 30.8085C7.3688 30.8109 7.37361 30.8125 7.37761 30.8149L7.79562 31.0559C7.91413 31.124 7.95657 31.2809 7.88851 31.3986ZM19.921 24.3229C18.9009 26.0887 17.2552 27.3515 15.2861 27.8792C13.317 28.4069 11.2606 28.1362 9.49487 27.1161C7.72995 26.0975 6.46712 24.4519 5.93941 22.4827C5.41169 20.5136 5.68236 18.4572 6.70095 16.6923C7.00464 16.1662 7.36968 15.6781 7.78841 15.2381C7.79642 15.2301 7.80443 15.2213 7.81243 15.2124C8.76536 14.2195 9.97294 13.5012 11.3367 13.136C11.9941 12.9598 12.6612 12.8726 13.3242 12.8726C13.3819 12.8726 13.4403 12.8742 13.498 12.8758C13.5308 12.879 13.5644 12.8798 13.5973 12.8782C14.8257 12.923 16.0325 13.2665 17.1263 13.8992C18.8912 14.9178 20.1541 16.5634 20.6818 18.5325C20.7531 18.7983 20.8091 19.0666 20.8516 19.3349C20.8532 19.3461 20.8548 19.3581 20.8572 19.3693C21.119 21.075 20.7963 22.8062 19.921 24.3229ZM13.8543 9.95932C13.8543 6.19164 16.9189 3.12545 20.6858 3.12545C24.4527 3.12545 27.5173 6.19084 27.5173 9.95932C27.5173 13.4932 24.8627 16.3968 21.3985 16.7515C20.6337 15.0963 19.3805 13.7182 17.7693 12.7885C16.6138 12.1206 15.351 11.7282 14.0593 11.6201C13.923 11.0771 13.8542 10.5192 13.8543 9.95932ZM38.8795 10.4206C32.6054 15.5992 27.2282 18.205 22.0159 18.5837C21.9871 18.4556 21.9566 18.3275 21.9222 18.2002C21.903 18.1289 21.883 18.0576 21.8621 17.9871C23.6359 17.7301 25.2695 16.8957 26.5307 15.5864C27.9937 14.0673 28.7993 12.0686 28.7993 9.95932C28.7993 5.48375 25.1598 1.8434 20.6858 1.8434C16.2118 1.8434 12.5715 5.48455 12.5715 9.95932C12.5715 10.5151 12.6291 11.0676 12.7412 11.6089C12.1607 11.6474 11.5793 11.7435 11.0051 11.8972C9.58136 12.2792 8.30251 12.9895 7.25189 13.9648C5.7264 12.9606 4.12724 11.7699 2.49124 10.4198C2.3463 10.3004 2.27583 10.1499 2.27583 9.95932C2.27583 9.76553 2.3455 9.61818 2.49204 9.49566C15.7554 -1.45102 25.617 -1.45102 38.8779 9.49406C39.0269 9.61738 39.0958 9.76553 39.0958 9.95852C39.0958 10.1523 39.0269 10.2988 38.8795 10.4206ZM20.685 12.3056C21.9783 12.3056 23.0313 11.2534 23.0313 9.95932C23.0313 8.66605 21.9791 7.61303 20.685 7.61303C19.3909 7.61303 18.3387 8.66525 18.3387 9.95932C18.3395 11.2534 19.3917 12.3056 20.685 12.3056ZM20.685 8.89588C21.2712 8.89588 21.7484 9.37315 21.7484 9.95932C21.7484 10.5455 21.2712 11.0228 20.685 11.0228C20.0988 11.0228 19.6216 10.5455 19.6216 9.95932C19.6216 9.37315 20.0988 8.89588 20.685 8.89588Z" fill="black"/>
</svg>
