<svg width="70" height="70" viewBox="0 0 70 70" fill="none" xmlns="http://www.w3.org/2000/svg">
<g clip-path="url(#clip0_1913_4111)">
<path fill-rule="evenodd" clip-rule="evenodd" d="M23.6113 0C24.9102 0 26.2363 0.0546875 26.5645 0.123047C26.8789 0.191406 27.6992 0.355469 28.3691 0.478516C29.0391 0.615234 30.2422 0.916016 31.0352 1.17578C31.8281 1.43555 33.1133 1.95508 33.9063 2.33789C34.6992 2.7207 36.0527 3.5 36.9141 4.07422C37.9121 4.73047 39.0606 5.67383 40.0449 6.63086C40.8926 7.45117 42.041 8.72266 42.5742 9.43359C43.1211 10.1445 43.9004 11.3477 44.3242 12.0996C44.7481 12.8516 45.3086 13.9863 45.582 14.6289C45.8418 15.2715 46.2109 16.3379 46.416 17.0215C46.6074 17.6914 46.8535 18.7441 46.9629 19.3457C47.0859 19.9473 47.2227 20.9316 47.3731 22.627L48.4668 22.7227C49.0684 22.7773 50.0527 22.9141 50.6543 23.0371C51.2559 23.1465 52.3086 23.3926 52.9785 23.584C53.6621 23.7891 54.7285 24.1582 55.3711 24.418C56.0137 24.6914 57.1484 25.252 57.9004 25.6758C58.6524 26.0996 59.8555 26.8789 60.5664 27.4258C61.2774 27.959 62.5625 29.1348 63.4238 30.0234C64.3809 31.0215 65.3652 32.2246 65.9805 33.1543C66.5274 33.9883 67.2793 35.3008 67.6621 36.0938C68.0313 36.8867 68.5234 38.0898 68.7559 38.7598C68.9746 39.4297 69.2891 40.5508 69.4395 41.2207C69.5899 41.8906 69.7813 43.1211 69.877 43.9551C69.9727 44.8438 70 46.1836 69.959 47.2363C69.9043 48.207 69.7676 49.6016 69.6445 50.3125C69.5215 51.0234 69.207 52.3223 68.9473 53.1836C68.6875 54.0449 68.1133 55.5215 67.6621 56.4648C67.2109 57.4082 66.4453 58.7617 65.9668 59.4727C65.4883 60.1836 64.6133 61.332 64.0117 62.002C63.4238 62.6719 62.4258 63.6699 61.7832 64.2031C61.1543 64.7363 60.1152 65.5293 59.4727 65.9668C58.8301 66.4043 57.668 67.0742 56.875 67.4707C56.082 67.8672 54.8242 68.4141 54.0723 68.6738C53.3203 68.9336 52.0625 69.2754 51.2695 69.4395C50.4766 69.6035 49.5469 69.7949 49.1914 69.8633C48.8223 69.9453 47.5371 70 46.3203 70C44.8848 70 43.6953 69.918 42.9981 69.7812C42.3965 69.6719 41.3574 69.4531 40.6738 69.3027C40.0039 69.1387 38.8555 68.7969 38.1445 68.5371C37.4336 68.2637 36.3262 67.7852 35.6836 67.4707C35.041 67.1562 33.8516 66.4316 33.0176 65.8848C32.1289 65.2832 30.8848 64.2578 29.9551 63.3691C29.1074 62.5352 27.959 61.2773 27.4258 60.5664C26.8789 59.8555 26.0996 58.6523 25.6758 57.9004C25.252 57.1484 24.6914 56.0137 24.418 55.3711C24.1582 54.7285 23.7891 53.6484 23.584 52.9785C23.3926 52.3086 23.1465 51.2559 23.0371 50.6543C22.9141 50.0527 22.7773 49.0684 22.627 47.373L22.0801 47.332C21.7793 47.3184 20.918 47.209 20.166 47.0996C19.4141 46.9766 18.252 46.7441 17.5684 46.5664C16.8984 46.3887 15.6953 45.9785 14.9023 45.6641C14.1094 45.3633 12.8516 44.7617 12.0996 44.3242C11.3477 43.9004 10.1445 43.1211 9.43359 42.5742C8.72266 42.041 7.4375 40.8652 6.57617 39.9766C5.61914 38.9785 4.63477 37.7754 4.01953 36.8457C3.47266 36.0117 2.7207 34.6992 2.33789 33.9062C1.95508 33.1133 1.43555 31.8281 1.18945 31.0352C0.929688 30.2422 0.615234 29.1074 0.492188 28.5059C0.369141 27.9043 0.21875 26.8516 0.136719 26.1816C0.0683594 25.5117 0 24.418 0 23.748C0 23.0918 0.0683594 21.957 0.150391 21.2324C0.232422 20.4941 0.423828 19.3047 0.574219 18.5938C0.724609 17.8828 1.06641 16.6797 1.32617 15.9277C1.58594 15.1758 2.13281 13.918 2.5293 13.125C2.92578 12.332 3.5957 11.1699 4.0332 10.5273C4.4707 9.88477 5.26367 8.8457 5.79688 8.2168C6.33008 7.57422 7.32813 6.57617 7.99805 5.98828C8.68164 5.38672 9.81641 4.51172 10.5273 4.0332C11.2383 3.55469 12.5918 2.78906 13.5352 2.33789C14.4785 1.88672 15.9551 1.3125 16.8164 1.05273C17.6777 0.792969 19.0039 0.464844 19.7559 0.341797C20.5078 0.21875 21.1504 0.0820312 21.1777 0.0546875C21.2051 0.0273438 22.2988 0 23.6113 0ZM17.0898 3.32227C16.2969 3.58203 15.0664 4.07422 14.3555 4.42969C13.6445 4.78516 12.4414 5.48242 11.6895 5.98828C10.7461 6.60352 9.78906 7.42383 8.61328 8.59961C7.58789 9.625 6.54883 10.8281 6.05664 11.5527C5.60547 12.2227 4.9082 13.4258 4.51172 14.2188C4.11523 15.0117 3.58203 16.2969 3.32227 17.0898C3.0625 17.8828 2.73438 19.2637 2.57031 20.166C2.33789 21.5605 2.31055 22.1895 2.36523 24.3359C2.41992 26.209 2.51563 27.207 2.7207 28.1641C2.88477 28.875 3.21289 30.0234 3.44531 30.6934C3.67773 31.3633 4.14258 32.4844 4.4707 33.1543C4.8125 33.8242 5.37305 34.8223 5.71484 35.3418C6.04297 35.875 6.68555 36.7227 7.10938 37.2559C7.54688 37.7891 8.36719 38.6641 8.94141 39.1973C9.51563 39.7441 10.5137 40.5918 11.1836 41.084C11.8398 41.5762 13.084 42.3281 13.9453 42.7793C14.8066 43.2168 16.2285 43.8047 17.0898 44.0781C17.9512 44.3652 19.4004 44.7207 20.3027 44.8711C21.6836 45.1035 22.3125 45.1309 24.3359 45.0762C26.0039 45.0215 27.125 44.9121 28.0273 44.7207C28.7383 44.5703 29.8184 44.2695 30.4199 44.0781C31.0215 43.873 32.1016 43.4355 32.8125 43.1074C33.5234 42.7793 34.8223 42.041 35.6836 41.4668C36.791 40.7285 37.7344 39.9492 38.8418 38.8418C39.9492 37.7344 40.7285 36.791 41.4668 35.6836C42.041 34.8223 42.7793 33.5234 43.1074 32.8125C43.4356 32.1016 43.8731 31.0215 44.0781 30.4199C44.2695 29.8184 44.5703 28.7383 44.7207 28.0273C44.9121 27.125 45.0215 26.0039 45.0762 24.3359C45.1309 22.3125 45.1035 21.6836 44.8711 20.3027C44.7207 19.4004 44.3652 17.9512 44.0781 17.0898C43.8047 16.2285 43.2168 14.8066 42.7793 13.9453C42.3418 13.084 41.4941 11.7305 40.9063 10.9375C40.3047 10.1445 39.1836 8.90039 38.4043 8.14844C37.625 7.41016 36.4356 6.43945 35.752 5.98828C35.082 5.53711 33.9336 4.86719 33.2227 4.51172C32.5117 4.15625 31.3633 3.67773 30.6934 3.44531C30.0234 3.21289 28.875 2.88477 28.1641 2.7207C27.1387 2.48828 26.291 2.41992 24.1309 2.37891C21.875 2.33789 21.1504 2.37891 19.9609 2.59766C19.168 2.73438 17.8828 3.0625 17.0898 3.32227ZM47.2773 25.9355C47.2227 26.5234 47.0586 27.6445 46.8945 28.4375C46.7305 29.2305 46.4297 30.4336 46.1973 31.1035C45.9785 31.7734 45.3633 33.1953 44.8438 34.248C44.3242 35.3008 43.4766 36.75 42.9707 37.4609C42.4512 38.1719 41.3027 39.498 40.4004 40.4004C39.4981 41.3027 38.1719 42.4512 37.4609 42.9707C36.75 43.4766 35.3965 44.2832 34.4531 44.7617C33.5098 45.2402 32.1016 45.8555 31.3086 46.1152C30.5156 46.3887 29.2305 46.7305 28.4375 46.8945C27.6445 47.0586 26.5234 47.2227 25.9356 47.2773L24.8691 47.373C25.0059 48.7539 25.1699 49.7656 25.3066 50.5176C25.457 51.2695 25.7715 52.4453 25.9902 53.1152C26.2227 53.7852 26.6738 54.9062 27.002 55.5762C27.3164 56.2461 28.0137 57.4492 28.5469 58.2422C29.0664 59.0352 30.0508 60.252 30.707 60.9629C31.377 61.6738 32.416 62.6309 33.0176 63.0957C33.6191 63.5605 34.5078 64.1895 35 64.5039C35.4922 64.8047 36.4766 65.3379 37.1875 65.6797C37.8984 66.0078 38.9785 66.4453 39.5801 66.6504C40.1816 66.8555 41.2344 67.1426 41.9043 67.293C42.793 67.4844 43.8457 67.5801 45.6641 67.6348C47.8106 67.6895 48.4395 67.6621 49.834 67.4297C50.7363 67.2656 52.1172 66.9375 52.9102 66.6777C53.7031 66.418 54.9883 65.8848 55.7813 65.4883C56.5742 65.0918 57.7774 64.3945 58.4473 63.9434C59.1856 63.4375 60.3613 62.4258 61.3867 61.3867C62.4258 60.3613 63.4375 59.1855 63.9434 58.4473C64.3945 57.7773 65.0918 56.5742 65.4883 55.7812C65.8848 54.9883 66.418 53.7031 66.6777 52.9102C66.9375 52.1172 67.2656 50.7363 67.4297 49.834C67.6621 48.4395 67.6895 47.8105 67.6348 45.6641C67.5801 43.8594 67.4844 42.7793 67.293 41.9043C67.1426 41.2344 66.8555 40.1816 66.6641 39.5801C66.459 38.9785 65.9121 37.6797 65.4199 36.709C64.8867 35.6152 64.1211 34.3711 63.4649 33.4961C62.8633 32.7031 61.7695 31.4863 61.0313 30.7754C60.293 30.0781 59.0352 29.0664 58.2422 28.5469C57.4492 28.0137 56.2461 27.3164 55.5762 27.002C54.9063 26.6738 53.7852 26.2227 53.1152 25.9902C52.4453 25.7715 51.2695 25.457 50.5176 25.3066C49.7656 25.1699 48.7539 25.0059 48.2617 24.9512L47.3594 24.8691L47.2773 25.9355ZM24.2813 4.59375C25.5801 4.62109 26.7695 4.74414 27.5625 4.9082C28.2324 5.04492 29.2852 5.33203 29.8867 5.53711C30.4883 5.74219 31.5273 6.19336 32.2109 6.53516C32.8809 6.86328 33.8379 7.41016 34.3301 7.72461C34.8086 8.05273 35.6699 8.70898 36.2441 9.1875C36.8047 9.66602 37.666 10.5137 38.1445 11.0742C38.6231 11.6348 39.3477 12.5918 39.7305 13.1934C40.127 13.7949 40.6738 14.752 40.9609 15.3125C41.2344 15.873 41.6719 16.9531 41.918 17.7051C42.1777 18.457 42.4648 19.5918 42.5742 20.2344C42.6973 20.877 42.8203 21.9844 42.875 22.6953C42.9297 23.4609 42.9023 24.6094 42.8066 25.498C42.7246 26.3184 42.5195 27.5215 42.3691 28.1641C42.2188 28.8066 41.8496 29.9414 41.5625 30.6934C41.2754 31.4453 40.6602 32.6758 40.2227 33.4277C39.7715 34.1797 39.1152 35.1504 38.1582 36.3672L37.6387 35.9707C37.3652 35.752 36.9961 35.4102 36.5176 34.8633L37.4199 33.5918C37.9121 32.8945 38.582 31.7734 38.9102 31.1035C39.2383 30.4199 39.6621 29.4082 39.8398 28.8477C40.0176 28.2871 40.2773 27.2344 40.3867 26.5234C40.5098 25.8125 40.6191 24.541 40.6191 23.7207C40.6191 22.8867 40.5234 21.6289 40.4004 20.918C40.291 20.207 40.0039 19.0723 39.7852 18.416C39.5664 17.7598 39.1563 16.7754 38.8828 16.2285C38.6231 15.6816 38.1309 14.8477 37.8027 14.3555C37.4883 13.8633 36.8594 13.0566 36.4219 12.5508C35.9844 12.0449 35.2598 11.3066 34.8086 10.9238C34.3574 10.541 33.6465 9.99414 33.2363 9.70703C32.8125 9.41992 31.9238 8.91406 31.2539 8.57227C30.5703 8.24414 29.5313 7.80664 28.9297 7.61523C28.3281 7.41016 27.3027 7.16406 26.6738 7.04102C25.9902 6.91797 24.7598 6.83594 23.6934 6.83594C22.4492 6.83594 21.4648 6.91797 20.5488 7.0957C19.8242 7.24609 18.7578 7.5332 18.1973 7.72461C17.623 7.92969 16.584 8.39453 15.873 8.76367C15.1484 9.13281 14.1094 9.77539 12.5234 10.9785L11.7988 10.1719C11.2109 9.50195 11.1152 9.32422 11.252 9.17383C11.3477 9.06445 11.9219 8.61328 12.5234 8.16211C13.125 7.71094 14.3555 6.98633 15.2578 6.54883C16.1602 6.11133 17.3906 5.60547 17.9922 5.41406C18.5938 5.22266 19.5781 4.97656 20.1797 4.86719C20.7813 4.74414 21.4785 4.62109 21.752 4.59375C22.0117 4.56641 23.1465 4.55273 24.2813 4.59375ZM9.69336 11.334C9.89844 11.4844 10.2676 11.8125 11.0195 12.5645L10.5273 13.1523C10.2539 13.4805 9.84375 14.0137 9.625 14.3555C9.39258 14.6973 8.92774 15.5176 8.58594 16.2012C8.24414 16.8711 7.80664 17.9238 7.62891 18.5254C7.4375 19.127 7.17774 20.1387 7.05469 20.7812C6.93164 21.4648 6.83594 22.668 6.83594 23.7207C6.83594 24.7461 6.93164 25.9902 7.05469 26.6602C7.17774 27.3027 7.42383 28.3145 7.61524 28.916C7.82031 29.5176 8.29883 30.6523 8.70899 31.4453C9.10547 32.2383 9.73438 33.2773 10.1035 33.7695C10.4727 34.2617 11.1973 35.082 11.7168 35.6016C12.2363 36.1211 13.1113 36.9004 13.6855 37.3105C14.2461 37.7344 15.2578 38.3633 15.9414 38.7188C16.6113 39.0605 17.7188 39.5391 18.4023 39.7715C19.0723 39.9902 20.207 40.2773 20.9316 40.3867C21.6426 40.5098 22.9004 40.6055 23.7344 40.6055C24.5547 40.6055 25.7852 40.5098 26.4688 40.4004C27.1387 40.2773 28.0273 40.0859 28.4512 39.9629C28.8613 39.8398 29.6953 39.5391 30.2969 39.2793C30.8984 39.0332 31.7871 38.582 32.2793 38.2949C32.7578 37.9941 33.5508 37.4609 34.8906 36.4355L35.2324 36.7773C35.4238 36.9688 35.7656 37.3516 36.3809 38.1445L35.5879 38.7734C35.1641 39.1152 34.1934 39.7578 33.4414 40.209C32.6895 40.6602 31.459 41.2617 30.707 41.5488C29.9551 41.8359 28.8066 42.2051 28.1777 42.3555C27.5352 42.5195 26.332 42.7109 25.5117 42.793C24.6231 42.8887 23.4609 42.916 22.709 42.8613C21.9844 42.8203 20.877 42.6836 20.248 42.5742C19.6055 42.4648 18.4707 42.1641 17.7188 41.918C16.9668 41.6582 15.8867 41.2344 15.3262 40.9473C14.752 40.6602 13.8086 40.1133 13.207 39.7305C12.6055 39.334 11.6484 38.623 11.0879 38.1309C10.5273 37.6523 9.67969 36.791 9.20117 36.2305C8.72266 35.6699 8.06641 34.8086 7.73828 34.3164C7.42383 33.8242 6.87695 32.8672 6.53516 32.1973C6.20703 31.5137 5.75586 30.4746 5.55078 29.873C5.3457 29.2715 5.04492 28.1914 4.89453 27.4805C4.67578 26.4551 4.60742 25.6758 4.60742 23.7891C4.59375 21.998 4.66211 21.082 4.83984 20.166C4.97656 19.4824 5.27734 18.375 5.50977 17.7051C5.72852 17.0215 6.26172 15.791 6.68555 14.9707C7.10938 14.1367 7.72461 13.0977 8.05274 12.6465C8.38086 12.1953 8.80469 11.6621 8.99609 11.457C9.33789 11.0879 9.33789 11.0879 9.69336 11.334ZM17.9512 12.4551C18.2383 12.4414 18.6621 12.5234 18.9082 12.6191C19.1543 12.7285 19.5234 13.002 19.7285 13.2344C19.9336 13.4805 20.166 13.9043 20.248 14.1777C20.3301 14.4922 20.3711 18.1152 20.3711 23.584C20.3711 28.4648 20.3984 32.4434 20.4395 32.4023C20.4668 32.3613 20.9453 28.793 21.4785 24.4727C22.2852 18.0332 22.5039 16.502 22.75 15.9961C22.9141 15.668 23.2012 15.2852 23.3926 15.1484C23.5703 14.998 23.9805 14.834 24.2813 14.7656C24.6231 14.6836 25.0195 14.6836 25.334 14.7656C25.6211 14.8477 26.0449 15.0664 26.2773 15.2715C26.5234 15.4766 26.7969 15.8457 26.8926 16.0918C27.0293 16.4336 27.084 17.4453 27.084 20.0977C27.084 22.3809 27.125 23.6523 27.2207 23.6523C27.2891 23.6523 27.4805 23.2012 27.6445 22.6543C27.7949 22.1074 28.2324 20.6582 28.6016 19.4141C28.957 18.1699 29.3809 17.0078 29.5176 16.8164C29.6543 16.625 29.9824 16.3379 30.2422 16.1602C30.5703 15.9277 30.8984 15.8457 31.418 15.8594C31.8555 15.8594 32.3477 15.9688 32.6895 16.1328C32.9902 16.2832 33.3594 16.625 33.5371 16.9121C33.8379 17.418 33.8516 17.541 33.9199 25.9766H31.5957V21.9707C31.5957 19.4824 31.541 18.0332 31.4727 18.1152C31.3906 18.1836 30.9258 19.6328 30.4336 21.3281C29.9414 23.0234 29.4219 24.582 29.2852 24.8145C29.1484 25.0332 28.834 25.3613 28.5742 25.5391C28.3145 25.7031 27.8906 25.8809 27.6309 25.9219C27.3574 25.9629 26.9609 25.9629 26.7422 25.9219C26.5098 25.8809 26.1133 25.7031 25.8672 25.5391C25.6074 25.3613 25.2793 25.0059 25.1426 24.7461C24.9238 24.3223 24.8965 23.9121 24.8965 20.9453C24.8965 18.8262 24.8418 17.6367 24.7598 17.6367C24.6777 17.6367 24.6231 17.6641 24.6231 17.7051C24.6231 17.7461 24.1856 21.2598 23.6523 25.5254C22.7773 32.4844 22.6543 33.3457 22.3535 33.8652C22.1211 34.2617 21.834 34.5352 21.4375 34.7266C21.123 34.877 20.6582 35 20.4121 35C20.166 35 19.7969 34.9316 19.5918 34.8496C19.3867 34.7676 19.0176 34.5078 18.7715 34.2754C18.5254 34.0293 18.2656 33.6191 18.1836 33.3594C18.1152 33.0723 18.0605 29.2441 18.0605 23.9258C18.0605 19.0039 18.0332 14.998 17.9922 15.0391C17.9648 15.0801 17.5273 17.8145 17.0352 21.123C16.2422 26.4551 16.0918 27.2344 15.75 27.959C15.5313 28.4102 15.1074 28.9844 14.8203 29.2441C14.5332 29.5039 13.9863 29.8594 13.6172 30.0371C13.2344 30.2148 12.5781 30.3926 11.3477 30.5566L11.3613 28.1641H11.8672C12.1543 28.1504 12.6191 28.0137 12.8926 27.8496C13.1934 27.6719 13.5352 27.3164 13.6855 27.002C13.8906 26.5918 14.1914 24.8965 14.8477 20.2617C15.3398 16.8574 15.8184 13.9043 15.9277 13.6992C16.0234 13.4941 16.2559 13.1934 16.4336 13.0293C16.6113 12.8652 16.9121 12.6738 17.1035 12.5918C17.2813 12.5234 17.6777 12.4551 17.9512 12.4551ZM50.4082 27.5625C50.9277 27.6719 51.8848 27.9453 52.541 28.1641C53.1973 28.3965 54.25 28.8203 54.8652 29.1348C55.4941 29.4492 56.5195 30.0371 57.1621 30.4609C57.8184 30.8984 58.9668 31.8691 59.8281 32.7441C60.7852 33.6875 61.6602 34.7266 62.207 35.5469C62.6719 36.2578 63.3145 37.3652 63.6152 38.0078C63.916 38.6504 64.3399 39.6895 64.5449 40.332C64.75 40.9746 65.0234 42.0137 65.1465 42.6562C65.2695 43.2988 65.4063 44.4883 65.4473 45.3223C65.502 46.1562 65.4609 47.4688 65.3789 48.2617C65.2832 49.0547 65.0645 50.3125 64.8731 51.0645C64.6816 51.8164 64.2988 52.9512 64.0254 53.5938C63.752 54.2363 63.2324 55.2754 62.8633 55.918C62.4941 56.5605 61.8106 57.5723 61.332 58.1738C60.8535 58.7754 60.0742 59.6367 59.5957 60.0879C59.1172 60.5527 58.3652 61.1953 57.9141 61.5508C57.4629 61.8926 56.6152 62.4531 56.0274 62.8086C55.4531 63.1504 54.4004 63.6836 53.7031 63.9707C53.0059 64.2715 51.8301 64.668 51.0781 64.8594C50.3262 65.0508 49.1231 65.2695 48.4121 65.3652C47.6602 65.4473 46.4023 65.4883 45.4727 65.4473C44.5703 65.3926 43.2988 65.2559 42.6699 65.1328C42.0273 65.0098 40.9746 64.7363 40.3457 64.5312C39.7031 64.3262 38.6504 63.9023 38.0215 63.6016C37.3789 63.3008 36.2715 62.6719 35.5606 62.1934C34.7402 61.6465 33.7012 60.7852 32.7578 59.8281C31.9102 58.9805 30.9121 57.791 30.4746 57.1484C30.0508 56.5059 29.4492 55.4805 29.1484 54.8516C28.834 54.2363 28.3965 53.1836 28.1777 52.5273C27.959 51.8711 27.6856 50.9141 27.5625 50.4082C27.4531 49.9023 27.3984 49.4648 27.4531 49.4375C27.5078 49.4102 28.0137 49.3145 28.5879 49.2188C29.1484 49.1367 29.6133 49.082 29.6133 49.1094C29.6133 49.123 29.7773 49.8203 29.9961 50.6543C30.2012 51.5156 30.6523 52.7461 31.0215 53.5254C31.377 54.2773 32.0059 55.3848 32.416 55.9863C32.8262 56.5879 33.6875 57.5996 34.3301 58.2422C34.9727 58.8848 36.0938 59.8145 36.8594 60.3203C37.6113 60.8262 38.6231 61.4141 39.1152 61.6328C39.5938 61.8516 40.4004 62.166 40.8926 62.3301C41.3711 62.5078 42.3828 62.7539 43.1074 62.9043C44.0098 63.082 45.0352 63.1641 46.252 63.1641C47.3184 63.1641 48.5488 63.082 49.2324 62.959C49.8613 62.8359 50.8867 62.5762 51.4883 62.3848C52.0899 62.1797 52.9785 61.8516 53.4707 61.6328C53.9492 61.4141 54.9746 60.8262 55.7266 60.3203C56.4785 59.8145 57.6133 58.8848 58.2559 58.2422C58.8984 57.5996 59.8281 56.4648 60.334 55.7129C60.8262 54.9609 61.4141 53.9492 61.6328 53.457C61.8516 52.9648 62.1934 52.0762 62.3984 51.4746C62.5899 50.873 62.8496 49.8613 62.959 49.2188C63.082 48.5352 63.1777 47.3047 63.1777 46.2383C63.1777 45.0215 63.082 43.9961 62.918 43.0938C62.7676 42.3691 62.5078 41.3711 62.3438 40.8789C62.1797 40.3867 61.8516 39.5938 61.6328 39.1016C61.4141 38.6094 60.8262 37.5977 60.334 36.8457C59.8281 36.0801 58.8984 34.959 58.2559 34.3164C57.6133 33.6738 56.5879 32.8125 56 32.4023C55.3984 31.9922 54.291 31.3633 53.5391 31.0078C52.7598 30.6387 51.5156 30.2012 50.668 29.9824C49.834 29.7773 49.1367 29.5996 49.1231 29.5996C49.0957 29.5996 49.1504 29.1348 49.2324 28.5742C49.3281 28.0137 49.4102 27.5078 49.4375 27.4668C49.4512 27.4121 49.8887 27.4668 50.4082 27.5625ZM33.8516 28.2324L33.9199 30.4883H31.5957L31.5684 29.4219C31.5547 28.8203 31.5957 28.3008 31.6641 28.2461C31.7324 28.1914 32.252 28.1641 33.8516 28.2324ZM56.793 53.2793C56.875 53.3203 57.3125 53.6074 58.5293 54.4141L58.2285 54.8516C58.0645 55.0977 57.2852 55.9453 56.4785 56.7383C55.4805 57.7363 54.6875 58.3789 53.8809 58.8574C53.2383 59.2266 52.1856 59.7324 51.5156 59.9785C50.8594 60.2246 49.875 60.5254 49.3281 60.6348C48.7813 60.7578 47.7559 60.8809 47.0449 60.9355C46.293 60.9766 45.2129 60.9355 44.5156 60.8398C43.832 60.7578 42.7793 60.5254 42.1504 60.3477C41.5352 60.1699 40.4961 59.7598 39.8398 59.4316C39.1973 59.1172 38.6504 58.8301 38.6367 58.7891C38.6094 58.748 38.8691 58.2969 39.7988 56.875L40.8516 57.4082C41.4395 57.709 42.3691 58.0781 42.9434 58.2422C43.6406 58.4473 44.5156 58.5566 45.7461 58.6113C47.1133 58.666 47.7832 58.6387 48.6856 58.4473C49.3145 58.3242 50.2988 58.0371 50.8731 57.832C51.4336 57.6133 52.3906 57.1074 52.9922 56.7246C53.5938 56.3281 54.4414 55.6719 54.8789 55.248C55.3164 54.8242 55.8906 54.1816 56.1641 53.8262C56.4375 53.4434 56.6973 53.2246 56.793 53.2793ZM36.9688 54.5781L37.6113 55.1387C37.9668 55.4531 38.2676 55.7402 38.2813 55.7812C38.2813 55.8223 37.9668 56.2324 36.8594 57.5586L35.3555 56.082L36.9688 54.5781Z" fill="url(#paint0_linear_1913_4111)"/>
</g>
<defs>
<linearGradient id="paint0_linear_1913_4111" x1="-7.27294" y1="-25.3448" x2="83.3772" y2="-25.1436" gradientUnits="userSpaceOnUse">
<stop stop-color="#BF8327"/>
<stop offset="0.485" stop-color="#F4DC60"/>
<stop offset="1" stop-color="#BF8327"/>
</linearGradient>
<clipPath id="clip0_1913_4111">
<rect width="70" height="70" fill="white"/>
</clipPath>
</defs>
</svg>
