<svg width="53" height="55" viewBox="0 0 53 55" fill="none" xmlns="http://www.w3.org/2000/svg">
<mask id="mask0_1968_3817" style="mask-type:luminance" maskUnits="userSpaceOnUse" x="2" y="17" width="49" height="28">
<path d="M50.3072 31.4721C46.6088 23.4183 36.9499 17.9725 26.1584 17.9883C15.3966 18.0059 5.79398 23.4552 2.11133 31.4721C5.80979 39.5258 15.4704 44.9716 26.2585 44.9541C37.0219 44.9383 46.6263 39.4907 50.3072 31.4721Z" fill="white"/>
</mask>
<g mask="url(#mask0_1968_3817)">
<path d="M14.2516 4.3446H12.2285V58.3446H14.2516V4.3446Z" fill="url(#paint0_linear_1968_3817)"/>
</g>
<mask id="mask1_1968_3817" style="mask-type:luminance" maskUnits="userSpaceOnUse" x="2" y="17" width="49" height="28">
<path d="M50.3072 31.4721C46.6088 23.4183 36.9499 17.9725 26.1584 17.9883C15.3966 18.0059 5.79398 23.4552 2.11133 31.4721C5.80979 39.5258 15.4704 44.9716 26.2585 44.9541C37.0219 44.9383 46.6263 39.4907 50.3072 31.4721Z" fill="white"/>
</mask>
<g mask="url(#mask1_1968_3817)">
<path d="M10.6344 4.3446H8.61133V58.3446H10.6344V4.3446Z" fill="url(#paint1_linear_1968_3817)"/>
</g>
<mask id="mask2_1968_3817" style="mask-type:luminance" maskUnits="userSpaceOnUse" x="2" y="17" width="49" height="28">
<path d="M50.3072 31.4721C46.6088 23.4183 36.9499 17.9725 26.1584 17.9883C15.3966 18.0059 5.79398 23.4552 2.11133 31.4721C5.80979 39.5258 15.4704 44.9716 26.2585 44.9541C37.0219 44.9383 46.6263 39.4907 50.3072 31.4721Z" fill="white"/>
</mask>
<g mask="url(#mask2_1968_3817)">
<path d="M7.01821 4.3446H4.99512V58.3446H7.01821V4.3446Z" fill="url(#paint2_linear_1968_3817)"/>
</g>
<mask id="mask3_1968_3817" style="mask-type:luminance" maskUnits="userSpaceOnUse" x="2" y="17" width="49" height="28">
<path d="M50.3072 31.4721C46.6088 23.4183 36.9499 17.9725 26.1584 17.9883C15.3966 18.0059 5.79398 23.4552 2.11133 31.4721C5.80979 39.5258 15.4704 44.9716 26.2585 44.9541C37.0219 44.9383 46.6263 39.4907 50.3072 31.4721Z" fill="white"/>
</mask>
<g mask="url(#mask3_1968_3817)">
<path d="M28.7174 22.1924V4.3446H26.6943V21.8728C27.3915 21.9062 28.0676 22.0168 28.7174 22.1924Z" fill="url(#paint3_linear_1968_3817)"/>
</g>
<mask id="mask4_1968_3817" style="mask-type:luminance" maskUnits="userSpaceOnUse" x="2" y="17" width="49" height="28">
<path d="M50.3072 31.4721C46.6088 23.4183 36.9499 17.9725 26.1584 17.9883C15.3966 18.0059 5.79398 23.4552 2.11133 31.4721C5.80979 39.5258 15.4704 44.9716 26.2585 44.9541C37.0219 44.9383 46.6263 39.4907 50.3072 31.4721Z" fill="white"/>
</mask>
<g mask="url(#mask4_1968_3817)">
<path d="M26.6963 41.0728V58.3446H28.7194V40.7515C28.0678 40.9271 27.3917 41.0377 26.6963 41.0728Z" fill="url(#paint4_linear_1968_3817)"/>
</g>
<mask id="mask5_1968_3817" style="mask-type:luminance" maskUnits="userSpaceOnUse" x="2" y="17" width="49" height="28">
<path d="M50.3072 31.4721C46.6088 23.4183 36.9499 17.9725 26.1584 17.9883C15.3966 18.0059 5.79398 23.4552 2.11133 31.4721C5.80979 39.5258 15.4704 44.9716 26.2585 44.9541C37.0219 44.9383 46.6263 39.4907 50.3072 31.4721Z" fill="white"/>
</mask>
<g mask="url(#mask5_1968_3817)">
<path d="M23.0781 40.5601V58.3429H25.1012V41.0184C24.4005 40.9394 23.7244 40.7831 23.0781 40.5601Z" fill="url(#paint5_linear_1968_3817)"/>
</g>
<mask id="mask6_1968_3817" style="mask-type:luminance" maskUnits="userSpaceOnUse" x="2" y="17" width="49" height="28">
<path d="M50.3072 31.4721C46.6088 23.4183 36.9499 17.9725 26.1584 17.9883C15.3966 18.0059 5.79398 23.4552 2.11133 31.4721C5.80979 39.5258 15.4704 44.9716 26.2585 44.9541C37.0219 44.9383 46.6263 39.4907 50.3072 31.4721Z" fill="white"/>
</mask>
<g mask="url(#mask6_1968_3817)">
<path d="M25.1012 21.9255V4.3446H23.0781V22.3838C23.7244 22.1625 24.4005 22.0063 25.1012 21.9255Z" fill="url(#paint6_linear_1968_3817)"/>
</g>
<mask id="mask7_1968_3817" style="mask-type:luminance" maskUnits="userSpaceOnUse" x="2" y="17" width="49" height="28">
<path d="M50.3072 31.4721C46.6088 23.4183 36.9499 17.9725 26.1584 17.9883C15.3966 18.0059 5.79398 23.4552 2.11133 31.4721C5.80979 39.5258 15.4704 44.9716 26.2585 44.9541C37.0219 44.9383 46.6263 39.4907 50.3072 31.4721Z" fill="white"/>
</mask>
<g mask="url(#mask7_1968_3817)">
<path d="M21.484 23.1021V4.3446H19.4609V24.6282C20.0633 24.0346 20.7429 23.5218 21.484 23.1021Z" fill="url(#paint7_linear_1968_3817)"/>
</g>
<mask id="mask8_1968_3817" style="mask-type:luminance" maskUnits="userSpaceOnUse" x="2" y="17" width="49" height="28">
<path d="M50.3072 31.4721C46.6088 23.4183 36.9499 17.9725 26.1584 17.9883C15.3966 18.0059 5.79398 23.4552 2.11133 31.4721C5.80979 39.5258 15.4704 44.9716 26.2585 44.9541C37.0219 44.9383 46.6263 39.4907 50.3072 31.4721Z" fill="white"/>
</mask>
<g mask="url(#mask8_1968_3817)">
<path d="M19.4629 38.3157V58.3429H21.486V39.8418C20.7431 39.4238 20.0635 38.9093 19.4629 38.3157Z" fill="url(#paint8_linear_1968_3817)"/>
</g>
<mask id="mask9_1968_3817" style="mask-type:luminance" maskUnits="userSpaceOnUse" x="2" y="17" width="49" height="28">
<path d="M50.3072 31.4721C46.6088 23.4183 36.9499 17.9725 26.1584 17.9883C15.3966 18.0059 5.79398 23.4552 2.11133 31.4721C5.80979 39.5258 15.4704 44.9716 26.2585 44.9541C37.0219 44.9383 46.6263 39.4907 50.3072 31.4721Z" fill="white"/>
</mask>
<g mask="url(#mask9_1968_3817)">
<path d="M16.5964 31.4719C16.5964 29.7333 17.06 28.1054 17.8661 26.6987V4.3446H15.8447V58.3446H17.8678V36.2452C17.06 34.8385 16.5964 33.2105 16.5964 31.4719Z" fill="url(#paint9_linear_1968_3817)"/>
</g>
<mask id="mask10_1968_3817" style="mask-type:luminance" maskUnits="userSpaceOnUse" x="2" y="17" width="49" height="28">
<path d="M50.3072 31.4721C46.6088 23.4183 36.9499 17.9725 26.1584 17.9883C15.3966 18.0059 5.79398 23.4552 2.11133 31.4721C5.80979 39.5258 15.4704 44.9716 26.2585 44.9541C37.0219 44.9383 46.6263 39.4907 50.3072 31.4721Z" fill="white"/>
</mask>
<g mask="url(#mask10_1968_3817)">
<path d="M46.7653 4.3446H44.7422V58.3446H46.7653V4.3446Z" fill="url(#paint10_linear_1968_3817)"/>
</g>
<mask id="mask11_1968_3817" style="mask-type:luminance" maskUnits="userSpaceOnUse" x="2" y="17" width="49" height="28">
<path d="M50.3072 31.4721C46.6088 23.4183 36.9499 17.9725 26.1584 17.9883C15.3966 18.0059 5.79398 23.4552 2.11133 31.4721C5.80979 39.5258 15.4704 44.9716 26.2585 44.9541C37.0219 44.9383 46.6263 39.4907 50.3072 31.4721Z" fill="white"/>
</mask>
<g mask="url(#mask11_1968_3817)">
<path d="M43.1491 4.3446H41.126V58.3446H43.1491V4.3446Z" fill="url(#paint11_linear_1968_3817)"/>
</g>
<mask id="mask12_1968_3817" style="mask-type:luminance" maskUnits="userSpaceOnUse" x="2" y="17" width="49" height="28">
<path d="M50.3072 31.4721C46.6088 23.4183 36.9499 17.9725 26.1584 17.9883C15.3966 18.0059 5.79398 23.4552 2.11133 31.4721C5.80979 39.5258 15.4704 44.9716 26.2585 44.9541C37.0219 44.9383 46.6263 39.4907 50.3072 31.4721Z" fill="white"/>
</mask>
<g mask="url(#mask12_1968_3817)">
<path d="M50.3815 4.3446H48.3584V58.3446H50.3815V4.3446Z" fill="url(#paint12_linear_1968_3817)"/>
</g>
<mask id="mask13_1968_3817" style="mask-type:luminance" maskUnits="userSpaceOnUse" x="2" y="17" width="49" height="28">
<path d="M50.3072 31.4721C46.6088 23.4183 36.9499 17.9725 26.1584 17.9883C15.3966 18.0059 5.79398 23.4552 2.11133 31.4721C5.80979 39.5258 15.4704 44.9716 26.2585 44.9541C37.0219 44.9383 46.6263 39.4907 50.3072 31.4721Z" fill="white"/>
</mask>
<g mask="url(#mask13_1968_3817)">
<path d="M32.2985 24.0346V4.3446H30.2754V22.7614C31.0042 23.1021 31.6838 23.5306 32.2985 24.0346Z" fill="url(#paint13_linear_1968_3817)"/>
</g>
<mask id="mask14_1968_3817" style="mask-type:luminance" maskUnits="userSpaceOnUse" x="2" y="17" width="49" height="28">
<path d="M50.3072 31.4721C46.6088 23.4183 36.9499 17.9725 26.1584 17.9883C15.3966 18.0059 5.79398 23.4552 2.11133 31.4721C5.80979 39.5258 15.4704 44.9716 26.2585 44.9541C37.0219 44.9383 46.6263 39.4907 50.3072 31.4721Z" fill="white"/>
</mask>
<g mask="url(#mask14_1968_3817)">
<path d="M30.2754 40.1825V58.3429H32.2985V38.911C31.6838 39.415 31.0042 39.8418 30.2754 40.1825Z" fill="url(#paint14_linear_1968_3817)"/>
</g>
<mask id="mask15_1968_3817" style="mask-type:luminance" maskUnits="userSpaceOnUse" x="2" y="17" width="49" height="28">
<path d="M50.3072 31.4721C46.6088 23.4183 36.9499 17.9725 26.1584 17.9883C15.3966 18.0059 5.79398 23.4552 2.11133 31.4721C5.80979 39.5258 15.4704 44.9716 26.2585 44.9541C37.0219 44.9383 46.6263 39.4907 50.3072 31.4721Z" fill="white"/>
</mask>
<g mask="url(#mask15_1968_3817)">
<path d="M35.9139 24.6949V4.3446H33.8926V25.6942C33.9979 25.8329 34.0928 25.9787 34.1894 26.1227L35.9139 24.6949Z" fill="url(#paint15_linear_1968_3817)"/>
</g>
<mask id="mask16_1968_3817" style="mask-type:luminance" maskUnits="userSpaceOnUse" x="2" y="17" width="49" height="28">
<path d="M50.3072 31.4721C46.6088 23.4183 36.9499 17.9725 26.1584 17.9883C15.3966 18.0059 5.79398 23.4552 2.11133 31.4721C5.80979 39.5258 15.4704 44.9716 26.2585 44.9541C37.0219 44.9383 46.6263 39.4907 50.3072 31.4721Z" fill="white"/>
</mask>
<g mask="url(#mask16_1968_3817)">
<path d="M35.3274 28.4267C35.647 29.3838 35.8226 30.4077 35.8226 31.4719C35.8226 33.6408 35.1043 35.641 33.8926 37.2497V58.3446H35.9157V28.2318L35.3274 28.4267Z" fill="url(#paint16_linear_1968_3817)"/>
</g>
<mask id="mask17_1968_3817" style="mask-type:luminance" maskUnits="userSpaceOnUse" x="2" y="17" width="49" height="28">
<path d="M50.3072 31.4721C46.6088 23.4183 36.9499 17.9725 26.1584 17.9883C15.3966 18.0059 5.79398 23.4552 2.11133 31.4721C5.80979 39.5258 15.4704 44.9716 26.2585 44.9541C37.0219 44.9383 46.6263 39.4907 50.3072 31.4721Z" fill="white"/>
</mask>
<g mask="url(#mask17_1968_3817)">
<path d="M37.5088 27.7015V58.3446H39.5319V27.0271L37.5088 27.7015Z" fill="url(#paint17_linear_1968_3817)"/>
</g>
<mask id="mask18_1968_3817" style="mask-type:luminance" maskUnits="userSpaceOnUse" x="2" y="17" width="49" height="28">
<path d="M50.3072 31.4721C46.6088 23.4183 36.9499 17.9725 26.1584 17.9883C15.3966 18.0059 5.79398 23.4552 2.11133 31.4721C5.80979 39.5258 15.4704 44.9716 26.2585 44.9541C37.0219 44.9383 46.6263 39.4907 50.3072 31.4721Z" fill="white"/>
</mask>
<g mask="url(#mask18_1968_3817)">
<path d="M37.7773 23.9363C38.3902 24.2436 38.9767 24.5896 39.5299 24.9636V4.3446H37.5068V23.8485C37.5999 23.866 37.6912 23.8924 37.7773 23.9363Z" fill="url(#paint18_linear_1968_3817)"/>
</g>
<path d="M36.5618 29.0834C36.4881 28.7532 36.3933 28.4266 36.2896 28.1052C36.1825 27.7856 36.0578 27.4712 35.9226 27.1656L34.9585 27.4853L33.9908 27.8084C34.1366 28.1122 34.263 28.4248 34.3684 28.7462C34.4755 29.0623 34.5669 29.3924 34.6353 29.7261C34.753 30.2898 34.8145 30.8729 34.8145 31.4717C34.8145 36.2151 30.9544 40.0734 26.2128 40.0734C21.4695 40.0734 17.6112 36.2134 17.6112 31.4717C17.6112 26.7284 21.4712 22.8701 26.2128 22.8701C28.8594 22.8701 31.2319 24.0731 32.8089 25.9574C33.0285 26.2173 33.2269 26.486 33.4131 26.7705C33.5992 27.0532 33.7696 27.3536 33.9223 27.6609L34.7249 26.9971L35.5134 26.3438C35.3483 26.0435 35.1692 25.7537 34.9778 25.4745C34.7864 25.1952 34.5827 24.9283 34.3684 24.6684C32.4173 22.3362 29.4881 20.8488 26.2146 20.8488C20.356 20.8488 15.5898 25.615 15.5898 31.4735C15.5898 37.332 20.356 42.0982 26.2146 42.0982C32.0731 42.0982 36.8393 37.332 36.8393 31.4735C36.834 30.6499 36.7392 29.8526 36.5618 29.0834Z" fill="url(#paint19_linear_1968_3817)"/>
<path d="M51.2278 31.0519C47.3607 22.6294 37.3103 16.9799 26.2096 16.9799H26.1587C15.0826 16.9974 5.05145 22.6522 1.19142 31.0519L1 31.4734L1.19142 31.8949C5.05847 40.3156 15.1054 45.9669 26.2096 45.9669H26.2605C37.3366 45.9494 47.3678 40.2946 51.2278 31.8949L51.4192 31.4734L51.2278 31.0519ZM26.257 43.9439H26.2096C16.0731 43.9439 6.91473 38.9546 3.23207 31.4716C6.90595 24.008 16.0502 19.0135 26.1639 18.9994H26.2114C36.3479 18.9994 45.5062 23.9887 49.1889 31.4716C45.5133 38.9353 36.369 43.9281 26.257 43.9439Z" fill="url(#paint20_linear_1968_3817)"/>
<path d="M51.2278 31.0519C47.3607 22.6294 37.3103 16.9799 26.2096 16.9799H26.1587C15.0826 16.9974 5.05145 22.6522 1.19142 31.0519L1 31.4734L1.19142 31.8949C5.05847 40.3156 15.1054 45.9669 26.2096 45.9669H26.2605C37.3366 45.9494 47.3678 40.2946 51.2278 31.8949L51.4192 31.4734L51.2278 31.0519ZM26.257 43.9439H26.2096C16.0731 43.9439 6.91473 38.9546 3.23207 31.4716C6.90595 24.008 16.0502 19.0135 26.1639 18.9994H26.2114C36.3479 18.9994 45.5062 23.9887 49.1889 31.4716C45.5133 38.9353 36.369 43.9281 26.257 43.9439Z" fill="url(#paint21_linear_1968_3817)"/>
<path d="M26.2094 25.7114C23.2608 25.7114 20.8672 28.2895 20.8672 31.4716C20.8672 34.6538 23.2608 37.2318 26.2094 37.2318C29.158 37.2318 31.5516 34.6538 31.5516 31.4716C31.5516 28.2912 29.1598 25.7114 26.2094 25.7114ZM26.1585 35.0226C25.8617 35.0226 25.5649 34.9822 25.2786 34.8979C24.0827 34.5607 23.1274 33.5421 22.7902 32.2443C22.6514 31.7052 22.9763 31.152 23.519 31.0133C24.0581 30.871 24.6113 31.1994 24.75 31.7386C24.9081 32.3427 25.319 32.8063 25.8283 32.9521C25.9355 32.9819 26.0478 32.9995 26.1585 32.9995C26.7187 32.9995 27.17 33.4508 27.17 34.011C27.17 34.5677 26.7187 35.0226 26.1585 35.0226Z" fill="url(#paint22_linear_1968_3817)"/>
<path d="M40.4889 24.3944C39.7882 23.8886 39.0295 23.4303 38.234 23.0334C37.9442 22.8876 37.6334 22.8174 37.3278 22.8174C36.8624 22.8174 36.4076 22.9754 36.0371 23.2828L34.3652 24.6684L33.5907 25.3129L32.8092 25.9609L32.2859 26.3929C31.5378 27.0128 31.3358 28.0788 31.81 28.9306C32.1735 29.5874 32.8584 29.972 33.5767 29.972C33.7892 29.972 34.0052 29.9386 34.2177 29.8683L34.6356 29.7296L35.5998 29.4065L36.5639 29.0869L39.948 27.9576C40.6663 27.7188 41.1914 27.0954 41.3073 26.3473C41.4179 25.5904 41.1053 24.8387 40.4889 24.3944ZM33.9191 27.6609L34.7217 26.997L35.5102 26.3437L37.3243 24.8405C38.0285 25.1952 38.6924 25.5921 39.307 26.0364L35.9229 27.1656L34.9588 27.4852L33.9911 27.8084L33.5767 27.9471L33.9191 27.6609Z" fill="url(#paint23_linear_1968_3817)"/>
<path d="M18.5751 15.7418C18.2134 15.7418 17.8621 15.5468 17.6813 15.2026L16.1639 12.3366C15.9023 11.8431 16.0902 11.232 16.5837 10.9703C17.0771 10.7086 17.6883 10.8965 17.95 11.3918L19.4673 14.2561C19.7289 14.7495 19.541 15.3607 19.0476 15.6223C18.8965 15.7049 18.735 15.7418 18.5751 15.7418Z" fill="url(#paint24_linear_1968_3817)"/>
<path d="M26.076 14.955C25.5175 14.955 25.0645 14.5019 25.0645 13.9435V10.0114C25.0645 9.45297 25.5175 8.99988 26.076 8.99988C26.6345 8.99988 27.0875 9.45297 27.0875 10.0114V13.9435C27.0858 14.5037 26.6327 14.955 26.076 14.955Z" fill="url(#paint25_linear_1968_3817)"/>
<path d="M33.5746 15.7418C33.4148 15.7418 33.2533 15.7032 33.1022 15.6242C32.6087 15.3625 32.4208 14.7513 32.6825 14.2579L34.1998 11.3936C34.4615 10.9001 35.0726 10.7122 35.5661 10.9721C36.0596 11.2338 36.2475 11.8449 35.9858 12.3384L34.4685 15.2044C34.2876 15.5469 33.9364 15.7418 33.5746 15.7418Z" fill="url(#paint26_linear_1968_3817)"/>
<defs>
<linearGradient id="paint0_linear_1968_3817" x1="12.0183" y1="-15.2071" x2="14.639" y2="-15.2069" gradientUnits="userSpaceOnUse">
<stop stop-color="#BF8327"/>
<stop offset="0.485" stop-color="#F4DC60"/>
<stop offset="1" stop-color="#BF8327"/>
</linearGradient>
<linearGradient id="paint1_linear_1968_3817" x1="8.40106" y1="-15.2071" x2="11.0218" y2="-15.2069" gradientUnits="userSpaceOnUse">
<stop stop-color="#BF8327"/>
<stop offset="0.485" stop-color="#F4DC60"/>
<stop offset="1" stop-color="#BF8327"/>
</linearGradient>
<linearGradient id="paint2_linear_1968_3817" x1="4.78485" y1="-15.2071" x2="7.40562" y2="-15.2069" gradientUnits="userSpaceOnUse">
<stop stop-color="#BF8327"/>
<stop offset="0.485" stop-color="#F4DC60"/>
<stop offset="1" stop-color="#BF8327"/>
</linearGradient>
<linearGradient id="paint3_linear_1968_3817" x1="26.4841" y1="-2.11752" x2="29.1048" y2="-2.11686" gradientUnits="userSpaceOnUse">
<stop stop-color="#BF8327"/>
<stop offset="0.485" stop-color="#F4DC60"/>
<stop offset="1" stop-color="#BF8327"/>
</linearGradient>
<linearGradient id="paint4_linear_1968_3817" x1="26.486" y1="34.3815" x2="29.1068" y2="34.3822" gradientUnits="userSpaceOnUse">
<stop stop-color="#BF8327"/>
<stop offset="0.485" stop-color="#F4DC60"/>
<stop offset="1" stop-color="#BF8327"/>
</linearGradient>
<linearGradient id="paint5_linear_1968_3817" x1="22.8679" y1="34.1215" x2="25.4886" y2="34.1221" gradientUnits="userSpaceOnUse">
<stop stop-color="#BF8327"/>
<stop offset="0.485" stop-color="#F4DC60"/>
<stop offset="1" stop-color="#BF8327"/>
</linearGradient>
<linearGradient id="paint6_linear_1968_3817" x1="22.8679" y1="-2.18683" x2="25.4886" y2="-2.18618" gradientUnits="userSpaceOnUse">
<stop stop-color="#BF8327"/>
<stop offset="0.485" stop-color="#F4DC60"/>
<stop offset="1" stop-color="#BF8327"/>
</linearGradient>
<linearGradient id="paint7_linear_1968_3817" x1="19.2507" y1="-2.99945" x2="21.8714" y2="-2.99887" gradientUnits="userSpaceOnUse">
<stop stop-color="#BF8327"/>
<stop offset="0.485" stop-color="#F4DC60"/>
<stop offset="1" stop-color="#BF8327"/>
</linearGradient>
<linearGradient id="paint8_linear_1968_3817" x1="19.2526" y1="31.0645" x2="21.8734" y2="31.065" gradientUnits="userSpaceOnUse">
<stop stop-color="#BF8327"/>
<stop offset="0.485" stop-color="#F4DC60"/>
<stop offset="1" stop-color="#BF8327"/>
</linearGradient>
<linearGradient id="paint9_linear_1968_3817" x1="15.6345" y1="-15.2071" x2="18.2552" y2="-15.2069" gradientUnits="userSpaceOnUse">
<stop stop-color="#BF8327"/>
<stop offset="0.485" stop-color="#F4DC60"/>
<stop offset="1" stop-color="#BF8327"/>
</linearGradient>
<linearGradient id="paint10_linear_1968_3817" x1="44.5319" y1="-15.2071" x2="47.1527" y2="-15.2069" gradientUnits="userSpaceOnUse">
<stop stop-color="#BF8327"/>
<stop offset="0.485" stop-color="#F4DC60"/>
<stop offset="1" stop-color="#BF8327"/>
</linearGradient>
<linearGradient id="paint11_linear_1968_3817" x1="40.9157" y1="-15.2071" x2="43.5365" y2="-15.2069" gradientUnits="userSpaceOnUse">
<stop stop-color="#BF8327"/>
<stop offset="0.485" stop-color="#F4DC60"/>
<stop offset="1" stop-color="#BF8327"/>
</linearGradient>
<linearGradient id="paint12_linear_1968_3817" x1="48.1481" y1="-15.2071" x2="50.7689" y2="-15.2069" gradientUnits="userSpaceOnUse">
<stop stop-color="#BF8327"/>
<stop offset="0.485" stop-color="#F4DC60"/>
<stop offset="1" stop-color="#BF8327"/>
</linearGradient>
<linearGradient id="paint13_linear_1968_3817" x1="30.0651" y1="-2.78453" x2="32.6859" y2="-2.78393" gradientUnits="userSpaceOnUse">
<stop stop-color="#BF8327"/>
<stop offset="0.485" stop-color="#F4DC60"/>
<stop offset="1" stop-color="#BF8327"/>
</linearGradient>
<linearGradient id="paint14_linear_1968_3817" x1="30.0651" y1="31.8753" x2="32.6859" y2="31.876" gradientUnits="userSpaceOnUse">
<stop stop-color="#BF8327"/>
<stop offset="0.485" stop-color="#F4DC60"/>
<stop offset="1" stop-color="#BF8327"/>
</linearGradient>
<linearGradient id="paint15_linear_1968_3817" x1="33.6825" y1="-3.54055" x2="36.301" y2="-3.54001" gradientUnits="userSpaceOnUse">
<stop stop-color="#BF8327"/>
<stop offset="0.485" stop-color="#F4DC60"/>
<stop offset="1" stop-color="#BF8327"/>
</linearGradient>
<linearGradient id="paint16_linear_1968_3817" x1="33.6823" y1="17.3289" x2="36.3031" y2="17.3293" gradientUnits="userSpaceOnUse">
<stop stop-color="#BF8327"/>
<stop offset="0.485" stop-color="#F4DC60"/>
<stop offset="1" stop-color="#BF8327"/>
</linearGradient>
<linearGradient id="paint17_linear_1968_3817" x1="37.2985" y1="15.688" x2="39.9193" y2="15.6884" gradientUnits="userSpaceOnUse">
<stop stop-color="#BF8327"/>
<stop offset="0.485" stop-color="#F4DC60"/>
<stop offset="1" stop-color="#BF8327"/>
</linearGradient>
<linearGradient id="paint18_linear_1968_3817" x1="37.2966" y1="-3.12089" x2="39.9173" y2="-3.12032" gradientUnits="userSpaceOnUse">
<stop stop-color="#BF8327"/>
<stop offset="0.485" stop-color="#F4DC60"/>
<stop offset="1" stop-color="#BF8327"/>
</linearGradient>
<linearGradient id="paint19_linear_1968_3817" x1="13.3813" y1="13.155" x2="40.9083" y2="13.2161" gradientUnits="userSpaceOnUse">
<stop stop-color="#BF8327"/>
<stop offset="0.485" stop-color="#F4DC60"/>
<stop offset="1" stop-color="#BF8327"/>
</linearGradient>
<linearGradient id="paint20_linear_1968_3817" x1="-4.2402" y1="6.48454" x2="61.0732" y2="6.73672" gradientUnits="userSpaceOnUse">
<stop stop-color="#BF8327"/>
<stop offset="0.485" stop-color="#F4DC60"/>
<stop offset="1" stop-color="#BF8327"/>
</linearGradient>
<linearGradient id="paint21_linear_1968_3817" x1="-4.2402" y1="6.48454" x2="61.0732" y2="6.73672" gradientUnits="userSpaceOnUse">
<stop stop-color="#BF8327"/>
<stop offset="0.485" stop-color="#F4DC60"/>
<stop offset="1" stop-color="#BF8327"/>
</linearGradient>
<linearGradient id="paint22_linear_1968_3817" x1="19.7567" y1="21.5403" x2="33.5976" y2="21.5688" gradientUnits="userSpaceOnUse">
<stop stop-color="#BF8327"/>
<stop offset="0.485" stop-color="#F4DC60"/>
<stop offset="1" stop-color="#BF8327"/>
</linearGradient>
<linearGradient id="paint23_linear_1968_3817" x1="30.5388" y1="20.2269" x2="43.2009" y2="20.2653" gradientUnits="userSpaceOnUse">
<stop stop-color="#BF8327"/>
<stop offset="0.485" stop-color="#F4DC60"/>
<stop offset="1" stop-color="#BF8327"/>
</linearGradient>
<linearGradient id="paint24_linear_1968_3817" x1="15.678" y1="9.08197" x2="20.2631" y2="9.08934" gradientUnits="userSpaceOnUse">
<stop stop-color="#BF8327"/>
<stop offset="0.485" stop-color="#F4DC60"/>
<stop offset="1" stop-color="#BF8327"/>
</linearGradient>
<linearGradient id="paint25_linear_1968_3817" x1="24.8542" y1="6.84372" x2="27.475" y2="6.84569" gradientUnits="userSpaceOnUse">
<stop stop-color="#BF8327"/>
<stop offset="0.485" stop-color="#F4DC60"/>
<stop offset="1" stop-color="#BF8327"/>
</linearGradient>
<linearGradient id="paint26_linear_1968_3817" x1="32.1966" y1="9.08594" x2="36.7816" y2="9.09331" gradientUnits="userSpaceOnUse">
<stop stop-color="#BF8327"/>
<stop offset="0.485" stop-color="#F4DC60"/>
<stop offset="1" stop-color="#BF8327"/>
</linearGradient>
</defs>
</svg>
