<svg width="14" height="13" viewBox="0 0 14 13" fill="none" xmlns="http://www.w3.org/2000/svg">
<path d="M14 7.9717V13H10.9865V8.2783C10.9865 7.11321 10.5471 6.31604 9.47982 6.31604C8.66368 6.31604 8.16144 6.86793 7.97309 7.35849C7.91031 7.54245 7.84754 7.78773 7.84754 8.09434V13H4.83408C4.83408 13 4.89686 5.0283 4.83408 4.23113H7.84754V5.45755C8.22422 4.84434 8.97758 3.98585 10.5471 3.98585C12.4933 3.98585 14 5.27359 14 7.9717ZM1.69507 0C0.690581 0 0 0.674528 0 1.53302C0 2.39151 0.627802 3.06604 1.63229 3.06604C2.69955 3.06604 3.32735 2.39151 3.32735 1.53302C3.39013 0.613208 2.76233 0 1.69507 0ZM0.18834 13H3.20179V4.23113H0.18834V13Z" fill="#0E76A8"/>
</svg>
