<svg width="18" height="18" viewBox="0 0 18 18" fill="none" xmlns="http://www.w3.org/2000/svg">
<path d="M9.00015 18L8.51895 17.4784C8.36215 17.3084 4.66535 13.2992 3.78815 12.296C2.98855 11.3816 2.27375 10.1164 2.00975 9.1476C1.84015 8.5296 1.75415 7.8868 1.75415 7.2384C1.75415 3.2532 5.00455 0.006 8.99975 0C12.997 0.006 16.2473 3.2528 16.2473 7.2384C16.2473 7.8868 16.1613 8.5296 15.9913 9.1484C15.7273 10.1164 15.0125 11.3816 14.2129 12.296C13.3353 13.2996 9.63895 17.3084 9.48215 17.4784L9.00015 18ZM8.99935 1.3092C5.72695 1.314 3.06295 3.9736 3.06295 7.2384C3.06295 7.7696 3.13335 8.2956 3.27215 8.802C3.48575 9.5856 4.10335 10.6676 4.77335 11.4344C5.46295 12.2232 7.94055 14.918 8.99975 16.0688C10.0594 14.918 12.5365 12.2232 13.2261 11.4344C13.8965 10.668 14.5137 9.5856 14.7273 8.8032C14.8665 8.296 14.9369 7.77 14.9369 7.2388C14.9373 3.9736 12.2733 1.314 8.99935 1.3092Z" fill="#BF8327"/>
<path d="M9.0003 10.8327C6.9575 10.8327 5.2959 9.17474 5.2959 7.13634C5.2959 5.09794 6.9579 3.43994 9.0003 3.43994C11.0427 3.43994 12.7047 5.09794 12.7047 7.13634C12.7047 9.17474 11.0431 10.8327 9.0003 10.8327ZM9.0003 4.74954C7.6795 4.74954 6.6051 5.82034 6.6051 7.13674C6.6051 8.45314 7.6795 9.52394 9.0003 9.52394C10.3211 9.52394 11.3955 8.45314 11.3955 7.13674C11.3955 5.82034 10.3211 4.74954 9.0003 4.74954Z" fill="#BF8327"/>
</svg>
