<svg width="36" height="37" viewBox="0 0 36 37" fill="none" xmlns="http://www.w3.org/2000/svg">
<path d="M25.9499 34.7317C25.2665 34.7317 24.6999 34.1651 24.6999 33.4817C24.6999 31.2317 22.8665 29.3984 20.6165 29.3984C19.9332 29.3984 19.3665 28.8317 19.3665 28.1484C19.3665 27.4651 19.9332 26.8984 20.6165 26.8984C22.8665 26.8984 24.6999 25.0651 24.6999 22.8151C24.6999 22.1317 25.2665 21.5651 25.9499 21.5651C26.6332 21.5651 27.1999 22.1317 27.1999 22.8151C27.1999 25.0651 29.0332 26.8984 31.2832 26.8984C31.9665 26.8984 32.5332 27.4651 32.5332 28.1484C32.5332 28.8317 31.9665 29.3984 31.2832 29.3984C29.0332 29.3984 27.1999 31.2317 27.1999 33.4817C27.1999 34.1651 26.6332 34.7317 25.9499 34.7317ZM24.4665 28.1484C25.0332 28.5651 25.5332 29.0651 25.9499 29.6317C26.3665 29.0651 26.8665 28.5651 27.4332 28.1484C26.8665 27.7317 26.3665 27.2317 25.9499 26.6651C25.5332 27.2317 25.0332 27.7317 24.4665 28.1484ZM31.5165 9.36506C30.8332 9.36506 30.2665 8.79839 30.2665 8.11506C30.2665 7.08172 29.4165 6.23172 28.3832 6.23172C27.6999 6.23172 27.1332 5.66506 27.1332 4.98172C27.1332 4.29839 27.6999 3.73172 28.3832 3.73172C29.4165 3.73172 30.2665 2.88172 30.2665 1.84839C30.2665 1.16506 30.8332 0.598389 31.5165 0.598389C32.1999 0.598389 32.7665 1.16506 32.7665 1.84839C32.7665 2.88172 33.6165 3.73172 34.6499 3.73172C35.3332 3.73172 35.8999 4.29839 35.8999 4.98172C35.8999 5.66506 35.3332 6.23172 34.6499 6.23172C33.6165 6.23172 32.7665 7.08172 32.7665 8.11506C32.7665 8.79839 32.1999 9.36506 31.5165 9.36506ZM31.4499 4.98172L31.5165 5.04839L31.5832 4.98172L31.5165 4.91506L31.4499 4.98172ZM7.94987 17.2317C7.26654 17.2317 6.69987 16.6651 6.69987 15.9817C6.69987 12.9984 4.26654 10.5651 1.2832 10.5651C0.59987 10.5651 0.0332031 9.99839 0.0332031 9.31506C0.0332031 8.63172 0.59987 8.06506 1.2832 8.06506C4.26654 8.06506 6.69987 5.63172 6.69987 2.64839C6.69987 1.96506 7.26654 1.39839 7.94987 1.39839C8.6332 1.39839 9.19987 1.96506 9.19987 2.64839C9.19987 5.63172 11.6332 8.06506 14.6165 8.06506C15.2999 8.06506 15.8665 8.63172 15.8665 9.31506C15.8665 9.99839 15.2999 10.5651 14.6165 10.5651C11.6332 10.5651 9.19987 12.9984 9.19987 15.9817C9.19987 16.6651 8.6332 17.2317 7.94987 17.2317ZM5.54987 9.31506C6.51654 9.93172 7.3332 10.7484 7.94987 11.7151C8.56654 10.7484 9.3832 9.93172 10.3499 9.31506C9.38442 8.69965 8.56528 7.8805 7.94987 6.91506C7.33446 7.8805 6.51532 8.69965 5.54987 9.31506ZM4.49987 36.3317C3.64987 36.3317 2.7832 35.9984 2.1332 35.3484L1.1332 34.3484C-0.116797 33.0984 -0.183464 31.0651 1.01654 29.7484L20.5665 8.03172C21.3165 7.19839 22.3665 6.71506 23.4999 6.68172C24.6332 6.68172 25.6999 7.08172 26.4999 7.88172L28.6165 10.0151C29.4165 10.8151 29.8499 11.8817 29.8165 13.0151C29.7832 14.1317 29.2999 15.1984 28.4665 15.9484L6.74987 35.4984C6.11654 36.0651 5.31654 36.3651 4.51654 36.3651L4.49987 36.3317ZM23.5999 9.18172H23.5499C23.1165 9.18172 22.6999 9.38172 22.4165 9.69839L2.8832 31.4151C2.5832 31.7484 2.59987 32.2651 2.91654 32.5817L3.91654 33.5817C4.2332 33.8984 4.74987 33.9151 5.0832 33.6151L26.7999 14.0651C27.1332 13.7651 27.3165 13.3651 27.3332 12.9317C27.3332 12.4984 27.1832 12.0817 26.8665 11.7651L24.7499 9.63172C24.6036 9.4843 24.4297 9.36719 24.238 9.28711C24.0464 9.20703 23.8409 9.16555 23.6332 9.16506L23.5999 9.18172Z" fill="black"/>
<path d="M21.8163 21.465C21.4997 21.465 21.183 21.3484 20.933 21.0984L15.383 15.5484C14.8997 15.065 14.8997 14.265 15.383 13.7817C15.8663 13.2984 16.6663 13.2984 17.1497 13.7817L22.6997 19.3317C23.183 19.815 23.183 20.615 22.6997 21.0984C22.4497 21.3484 22.133 21.465 21.8163 21.465ZM30.7163 19.3817C30.7163 19.9817 30.233 20.4484 29.6497 20.4484C29.0663 20.4484 28.583 19.965 28.583 19.3817C28.583 18.7984 29.0663 18.315 29.6497 18.315C30.233 18.315 30.7163 18.7984 30.7163 19.3817Z" fill="black"/>
<path d="M16.9998 6.21488C17.5889 6.21488 18.0664 5.73731 18.0664 5.14821C18.0664 4.55911 17.5889 4.08154 16.9998 4.08154C16.4107 4.08154 15.9331 4.55911 15.9331 5.14821C15.9331 5.73731 16.4107 6.21488 16.9998 6.21488Z" fill="black"/>
<path d="M33.75 14.5483C33.25 14.5483 32.7666 14.2316 32.5833 13.7316C32.35 13.0816 32.6666 12.3649 33.3166 12.1316L34.2833 11.7816C34.9333 11.5483 35.65 11.8649 35.8833 12.5149C36.1166 13.1649 35.8 13.8816 35.15 14.1149L34.1833 14.4649C34.0333 14.5149 33.9 14.5483 33.75 14.5483ZM23.2 3.99827C23.05 3.99827 22.9166 3.96493 22.7666 3.91493C22.6125 3.85929 22.471 3.77348 22.3504 3.66254C22.2298 3.5516 22.1326 3.41774 22.0643 3.26878C21.996 3.11982 21.9581 2.95875 21.9528 2.79498C21.9475 2.6312 21.9748 2.46801 22.0333 2.31493L22.3833 1.34827C22.6166 0.698267 23.3333 0.364933 23.9833 0.614933C24.6333 0.848267 24.9666 1.5816 24.7166 2.21493L24.3666 3.1816C24.1833 3.6816 23.7 3.99827 23.2 3.99827Z" fill="black"/>
</svg>
