<svg width="24" height="18" viewBox="0 0 24 18" fill="none" xmlns="http://www.w3.org/2000/svg">
<path d="M1.33333 10.3327C2.06971 10.3327 2.66667 9.73573 2.66667 8.99935C2.66667 8.26297 2.06971 7.66602 1.33333 7.66602C0.596954 7.66602 0 8.26297 0 8.99935C0 9.73573 0.596954 10.3327 1.33333 10.3327Z" fill="#BF8327"/>
<path d="M22.7467 7.66602H6.58671C5.89451 7.66602 5.33337 8.22715 5.33337 8.91935V9.07935C5.33337 9.77155 5.89451 10.3327 6.58671 10.3327H22.7467C23.4389 10.3327 24 9.77155 24 9.07935V8.91935C24 8.22715 23.4389 7.66602 22.7467 7.66602Z" fill="black"/>
<path d="M22.7467 15.334H1.25333C0.561136 15.334 0 15.8951 0 16.5873V16.7473C0 17.4395 0.561136 18.0007 1.25333 18.0007H22.7467C23.4389 18.0007 24 17.4395 24 16.7473V16.5873C24 15.8951 23.4389 15.334 22.7467 15.334Z" fill="black"/>
<path d="M22.7467 0H1.25333C0.561136 0 0 0.561136 0 1.25333V1.41333C0 2.10553 0.561136 2.66667 1.25333 2.66667H22.7467C23.4389 2.66667 24 2.10553 24 1.41333V1.25333C24 0.561136 23.4389 0 22.7467 0Z" fill="black"/>
</svg>
