<svg width="40" height="41" viewBox="0 0 40 41" fill="none" xmlns="http://www.w3.org/2000/svg">
<path fill-rule="evenodd" clip-rule="evenodd" d="M2.9165 7.09839C2.9165 6.10383 3.31159 5.15 4.01485 4.44674C4.71811 3.74348 5.67194 3.34839 6.6665 3.34839H28.3332C29.3277 3.34839 30.2816 3.74348 30.9848 4.44674C31.6881 5.15 32.0832 6.10383 32.0832 7.09839V28.7651C32.0832 29.7596 31.6881 30.7134 30.9848 31.4167C30.2816 32.12 29.3277 32.5151 28.3332 32.5151H6.6665C5.67194 32.5151 4.71811 32.12 4.01485 31.4167C3.31159 30.7134 2.9165 29.7596 2.9165 28.7651V7.09839ZM6.6665 5.84839C6.33498 5.84839 6.01704 5.98008 5.78262 6.21451C5.5482 6.44893 5.4165 6.76687 5.4165 7.09839V28.7651C5.4165 29.4551 5.9765 30.0151 6.6665 30.0151H28.3332C28.6647 30.0151 28.9826 29.8834 29.2171 29.6489C29.4515 29.4145 29.5832 29.0966 29.5832 28.7651V7.09839C29.5832 6.76687 29.4515 6.44893 29.2171 6.21451C28.9826 5.98008 28.6647 5.84839 28.3332 5.84839H6.6665Z" fill="black"/>
<path fill-rule="evenodd" clip-rule="evenodd" d="M36.6663 10.0166C36.9978 10.0166 37.3157 10.1483 37.5502 10.3827C37.7846 10.6171 37.9163 10.9351 37.9163 11.2666V35.4316C37.9163 36.2052 37.609 36.947 37.062 37.494C36.515 38.041 35.7732 38.3483 34.9996 38.3483H10.8329C10.5014 38.3483 10.1835 38.2166 9.94906 37.9822C9.71464 37.7477 9.58294 37.4298 9.58294 37.0983C9.58294 36.7667 9.71464 36.4488 9.94906 36.2144C10.1835 35.98 10.5014 35.8483 10.8329 35.8483H34.9996C35.1101 35.8483 35.2161 35.8044 35.2942 35.7262C35.3724 35.6481 35.4163 35.5421 35.4163 35.4316V11.2666C35.4163 10.9351 35.548 10.6171 35.7824 10.3827C36.0168 10.1483 36.3348 10.0166 36.6663 10.0166ZM25.0379 12.6349C25.2754 12.866 25.4114 13.1818 25.4161 13.5131C25.4207 13.8444 25.2937 14.1639 25.0629 14.4016L16.7296 22.9783C16.5028 23.2121 16.1937 23.3482 15.8681 23.3575C15.5425 23.3669 15.2261 23.2487 14.9863 23.0283L9.98628 18.4233C9.86535 18.3121 9.76751 18.1782 9.69834 18.0292C9.62917 17.8802 9.59002 17.719 9.58313 17.5549C9.57624 17.3908 9.60175 17.2269 9.6582 17.0726C9.71464 16.9183 9.80092 16.7767 9.91211 16.6558C10.0233 16.5348 10.1572 16.437 10.3062 16.3678C10.4552 16.2987 10.6164 16.2595 10.7805 16.2526C10.9446 16.2457 11.1085 16.2712 11.2628 16.3277C11.417 16.3841 11.5587 16.4704 11.6796 16.5816L15.7846 20.3616L23.2696 12.6583C23.5007 12.4208 23.8165 12.2848 24.1478 12.2802C24.479 12.2755 24.7986 12.4025 25.0363 12.6333L25.0379 12.6349Z" fill="black"/>
</svg>
