<svg width="77" height="77" viewBox="0 0 77 77" fill="none" xmlns="http://www.w3.org/2000/svg">
<path d="M66.0852 53.4897C63.0931 49.6974 50.8837 45.7343 47.3887 44.6599C47.2804 43.2823 47.2359 42.5244 46.8316 39.8955C48.8829 37.8999 50.3014 35.3445 50.9102 32.5481C52.1559 31.6937 53.0604 30.4273 53.4647 28.9719C53.8689 27.5164 53.747 25.965 53.1204 24.5906C53.5996 22.5808 53.7495 20.5065 53.5643 18.4486C53.4046 16.7546 53.022 15.0892 52.4261 13.4954C53.3627 12.4414 53.9802 11.1429 54.2068 9.75125C54.2445 9.50544 54.2247 9.25422 54.1488 9.01738C54.0729 8.78055 53.9431 8.56457 53.7695 8.38646C53.596 8.20834 53.3834 8.07297 53.1486 7.991C52.9138 7.90902 52.6632 7.88269 52.4165 7.91408C50.3309 8.24225 48.1952 7.87574 46.3383 6.87097C41.5747 4.92224 36.2362 4.92224 31.4725 6.87097C29.5296 7.85644 27.8251 9.25411 26.4781 10.9664C25.1311 12.6787 24.1741 14.6643 23.6739 16.7847C22.9217 19.528 22.9237 22.4235 23.6799 25.1657C23.2532 26.5491 23.2926 28.0343 23.7918 29.3932C24.2911 30.7521 25.2227 31.9095 26.4435 32.6876C27.0753 35.3803 28.4048 37.8591 30.2983 39.8751C29.8928 42.5135 29.8435 43.3497 29.74 44.6515C26.2654 45.6826 14.2522 49.4508 11.2576 53.1432C8.44351 56.6142 7.43529 68.9041 7.32942 70.2937C7.31002 70.6091 7.41552 70.9195 7.62311 71.1578C7.8307 71.3961 8.12371 71.5432 8.43883 71.5672C8.75395 71.5912 9.06586 71.4903 9.30717 71.2862C9.54849 71.0821 9.69981 70.7913 9.72845 70.4766C10.0004 66.9069 11.1409 57.1075 13.1273 54.6591C15.2376 52.0567 24.3404 48.836 29.3743 47.2779L28.4599 55.3112C28.4339 55.542 28.4753 55.7755 28.5789 55.9834C28.6826 56.1912 28.8442 56.3647 29.0442 56.4828C29.2443 56.601 29.4742 56.6587 29.7063 56.6492C29.9384 56.6396 30.1628 56.5631 30.3524 56.4289L34.5946 53.4175C34.5946 54.9466 34.4936 54.5243 35.136 55.7973C34.7101 57.8281 32.9524 66.4894 33.0859 70.2263C33.0976 70.5454 33.2355 70.8468 33.4694 71.0642C33.7032 71.2816 34.0139 71.3972 34.333 71.3855C34.652 71.3739 34.9534 71.236 35.1708 71.0021C35.3882 70.7682 35.5038 70.4576 35.4922 70.1385C35.3526 66.2789 37.5531 55.9898 37.576 55.8851C37.6999 55.31 37.2812 54.7096 37.0009 54.155V51.709L37.5303 51.3325H39.4685L39.9979 51.709V54.155C39.7175 54.7108 39.3001 55.31 39.424 55.8851C39.4468 55.9885 41.6474 66.2777 41.5078 70.1385C41.4961 70.4576 41.6117 70.7682 41.8291 71.0021C42.0465 71.236 42.3479 71.3739 42.667 71.3855C42.9861 71.3972 43.2967 71.2816 43.5306 71.0642C43.7645 70.8468 43.9024 70.5454 43.914 70.2263C44.0464 66.4894 42.2898 57.8281 41.8651 55.7973C42.5028 54.5316 42.4053 54.9575 42.4053 53.4175L46.6475 56.4289C46.8372 56.5631 47.0615 56.6396 47.2937 56.6492C47.5258 56.6587 47.7557 56.601 47.9557 56.4828C48.1557 56.3647 48.3173 56.1912 48.421 55.9834C48.5247 55.7755 48.566 55.542 48.5401 55.3112L47.6233 47.2563C52.6908 48.8733 62.068 52.2829 64.1951 54.9803C66.0973 57.3902 67.0585 66.9695 67.2703 70.4573C67.2955 70.7713 67.4427 71.0628 67.6804 71.2694C67.9182 71.476 68.2274 71.5811 68.5418 71.5622C68.8562 71.5433 69.1506 71.4019 69.3619 71.1683C69.5731 70.9347 69.6844 70.6276 69.6717 70.313C69.5899 68.9522 68.7935 56.9234 66.0852 53.4897ZM44.9993 44.9427C44.7983 45.0618 38.6768 48.6675 38.5 48.8191C38.3231 48.6675 32.3243 45.134 32.1234 45.0148C32.3027 42.6567 32.3159 42.9587 32.4723 41.7544C34.1008 42.8019 36.002 43.346 37.9381 43.3184C40.2825 43.2935 42.5829 42.6791 44.6275 41.5318C44.8031 42.8649 44.8152 42.5749 44.9993 44.9427ZM25.9923 17.4272C26.3921 15.6383 27.1821 13.9598 28.3058 12.5116C29.4295 11.0635 30.8592 9.88136 32.4928 9.04983C37.0358 6.92029 43.0827 7.99829 45.3927 9.08592C47.2941 10.0431 49.4075 10.5018 51.5346 10.419C50.7935 12.2971 49.3871 12.3765 49.9886 13.8659C50.6144 15.4023 51.0116 17.0221 51.1677 18.6736C51.3188 20.2896 51.2333 21.9189 50.9138 23.5102C49.8042 21.8159 49.1945 19.8431 49.1548 17.8182C49.1487 17.5712 49.0858 17.329 48.9708 17.1103C48.8559 16.8916 48.6921 16.7023 48.4922 16.5572C48.2922 16.4121 48.0615 16.315 47.818 16.2735C47.5744 16.232 47.3246 16.2472 47.0879 16.3179C44.3502 17.1177 41.5156 17.5375 38.6636 17.5655C35.6619 17.6019 32.6709 17.2015 29.7845 16.3769C29.5508 16.3085 29.3045 16.2943 29.0645 16.3353C28.8244 16.3763 28.5968 16.4714 28.399 16.6135C28.2012 16.7555 28.0383 16.9407 27.9228 17.1551C27.8072 17.3695 27.742 17.6074 27.732 17.8507C27.6539 19.8613 26.9587 21.799 25.7408 23.4007C25.3703 21.4167 25.4562 19.3743 25.9923 17.4284V17.4272ZM28.6921 31.6926C28.6577 31.5167 28.5844 31.3506 28.4776 31.2066C28.3709 31.0625 28.2333 30.9442 28.0749 30.8601C27.3113 30.4645 26.6873 29.8444 26.287 29.0833C25.8866 28.3223 25.7292 27.4567 25.8359 26.6034C25.8359 26.6034 28.3624 25.2872 29.6558 20.9006C29.8462 20.2609 29.9811 19.606 30.0589 18.9431C32.8795 19.6546 35.78 20.0003 38.6889 19.9718C41.429 19.9444 44.1554 19.582 46.8076 18.8926C47.1841 22.7787 49.6951 26.9535 51.3193 26.9138C51.3423 27.6989 51.1551 28.4759 50.7771 29.1644C50.3991 29.853 49.844 30.428 49.1693 30.83C49.0286 30.9206 48.9083 31.0397 48.8163 31.1796C48.7243 31.3194 48.6626 31.477 48.6351 31.6421C48.3546 33.3146 47.7054 34.9037 46.7346 36.2941C45.7639 37.6846 44.4959 38.8417 43.0225 39.6814C42.83 39.78 38.287 42.1021 34.3889 40.0941C32.9113 39.1622 31.6425 37.9348 30.6621 36.489C29.6817 35.0431 29.011 33.4102 28.6921 31.6926ZM31.7601 47.5968L35.5114 49.8165L31.1561 52.9086L31.7601 47.5968ZM41.4885 49.8165L45.2399 47.5968L45.8451 52.9073L41.4885 49.8165Z" fill="black"/>
<path d="M60.7578 69.7812H49.9297C49.6106 69.7812 49.3046 69.6545 49.0789 69.4289C48.8533 69.2032 48.7266 68.8972 48.7266 68.5781C48.7266 68.259 48.8533 67.953 49.0789 67.7274C49.3046 67.5018 49.6106 67.375 49.9297 67.375H60.7578C61.0769 67.375 61.3829 67.5018 61.6086 67.7274C61.8342 67.953 61.9609 68.259 61.9609 68.5781C61.9609 68.8972 61.8342 69.2032 61.6086 69.4289C61.3829 69.6545 61.0769 69.7812 60.7578 69.7812Z" fill="black"/>
</svg>
