<svg width="77" height="77" viewBox="0 0 77 77" fill="none" xmlns="http://www.w3.org/2000/svg">
<g clip-path="url(#clip0_84_1041)">
<path d="M2.55549 49.0305L2.6239 49.2746C4.50297 55.9792 10.6044 60.6288 17.5905 60.6288C25.6685 60.6288 32.4185 54.3833 33.0817 46.3573L33.0991 46.1467L33.2623 46.0124C34.4518 45.0334 36.2867 43.9181 38.5647 43.9181H38.5677H38.5783L38.5783 43.9182C40.6375 43.962 42.4714 45.0861 43.6775 46.0467L43.8459 46.1808L43.8641 46.3954C44.5456 54.3987 51.2942 60.6286 59.3532 60.6286C66.3259 60.6286 72.4196 55.9934 74.3101 49.3055L74.3814 49.0531L74.6296 48.9683C75.2999 48.7394 75.8312 48.1799 76.1581 47.2449C76.4878 46.3016 76.5941 45.0085 76.4107 43.4152L2.55549 49.0305ZM2.55549 49.0305L2.31819 48.9414M2.55549 49.0305L2.31819 48.9414M2.31819 48.9414C1.6658 48.6965 1.14745 48.1281 0.829855 47.1951C0.509996 46.2553 0.408646 44.9786 0.588297 43.4157C0.639829 42.9822 0.748469 42.6404 0.88566 42.3597L1.23728 41.6402H1.18656M2.31819 48.9414L1.18656 41.6402M1.18656 41.6402L14.209 18.4175C14.3747 18.1225 14.6716 17.8223 15.0379 17.5853C15.4039 17.3484 15.7993 17.2006 16.1359 17.17C16.1361 17.17 16.1362 17.17 16.1363 17.17L25.0277 16.3779L25.032 16.3775C25.6963 16.3125 26.2338 16.813 26.2338 17.4805V19.1011C26.2338 19.7616 25.6945 20.2389 25.0366 20.1674C25.0362 20.1673 25.0357 20.1673 25.0353 20.1672L15.692 19.0845L15.3542 19.0453L15.1937 19.345L8.92027 31.0554L8.06567 32.6507L9.61802 31.7204C11.9703 30.3108 14.7012 29.5068 17.5906 29.5068C25 29.5068 31.3832 34.8071 32.8305 41.987L32.9647 42.6529L33.5607 42.3268C35.1679 41.4474 36.8138 41.009 38.4692 41.0086C38.4699 41.0086 38.4706 41.0086 38.4712 41.0086L38.6384 41.0099C38.6395 41.01 38.6406 41.01 38.6417 41.01C40.2091 41.044 41.7967 41.4905 43.3767 42.3543L43.9738 42.6807L44.1069 42.0134C45.5422 34.8171 51.9288 29.5054 59.3534 29.5054C62.2576 29.5054 65.0035 30.3174 67.3621 31.7397L68.9202 32.6793L68.061 31.0754L61.7757 19.3424L61.6151 19.0427L61.2774 19.0818L51.9349 20.1643C51.9343 20.1644 51.9337 20.1644 51.9331 20.1645C51.2684 20.2352 50.7364 19.7597 50.7364 19.0983V17.4776C50.7364 16.8152 51.2728 16.3162 51.9406 16.3754C51.9406 16.3754 51.9407 16.3754 51.9407 16.3754L60.8327 17.1672L60.8329 17.1672C61.1688 17.197 61.5641 17.3446 61.9305 17.5817C62.2968 17.8187 62.5938 18.1191 62.7591 18.4135L75.7826 41.64H75.7667L76.1152 42.3583C76.2519 42.6398 76.3605 42.983 76.4106 43.4147L1.18656 41.6402ZM15.6344 19.5811L9.8032 30.4661C9.56683 30.5927 9.3337 30.725 9.10399 30.8626L9.36101 31.2915L9.80175 31.5276L10.172 30.8365C12.4073 29.6653 14.934 29.0068 17.5906 29.0068C25.0641 29.0068 31.5232 34.2281 33.2096 41.3799C33.1665 41.4029 33.1236 41.4261 33.0807 41.4495L33.3207 41.8882L33.8108 41.7894C33.8013 41.7422 33.7916 41.6951 33.7817 41.648C35.3116 40.8911 36.8835 40.5086 38.4712 40.5086L38.6491 40.51L15.6344 19.5811ZM15.6344 19.5811L24.9807 20.6642L15.6344 19.5811ZM66.8072 30.8526L67.1795 31.5476L67.6203 31.3115L67.8785 30.8834C67.6479 30.7443 67.4137 30.6107 67.1763 30.4827L61.3349 19.5785L51.9885 20.6614C51.0322 20.7646 50.2364 20.0626 50.2364 19.0983V17.4776L66.8072 30.8526ZM72.0043 45.2783C72.0043 38.2931 66.3218 32.611 59.3371 32.611C52.3521 32.611 46.6697 38.2931 46.6697 45.2783C46.6697 52.2636 52.3522 57.9448 59.3371 57.9448C66.3218 57.9448 72.0043 52.2638 72.0043 45.2783ZM30.4838 45.2783C30.4838 38.2931 24.8013 32.611 17.8155 32.611C10.8315 32.611 5.14884 38.2931 5.14902 45.2783C5.14902 52.2636 10.8315 57.9448 17.8155 57.9448C24.8011 57.9448 30.4838 52.2638 30.4838 45.2783Z" fill="black" stroke="white"/>
</g>
<defs>
<clipPath id="clip0_84_1041">
<rect width="77" height="77" fill="white"/>
</clipPath>
</defs>
</svg>
