<svg width="78" height="83" viewBox="0 0 78 83" fill="none" xmlns="http://www.w3.org/2000/svg">
<path d="M3.64645 4.14645C3.45118 4.34171 3.45118 4.65829 3.64645 4.85355L6.82843 8.03553C7.02369 8.2308 7.34027 8.2308 7.53553 8.03553C7.7308 7.84027 7.7308 7.52369 7.53553 7.32843L4.70711 4.5L7.53553 1.67157C7.7308 1.47631 7.7308 1.15973 7.53553 0.964466C7.34027 0.769204 7.02369 0.769204 6.82843 0.964466L3.64645 4.14645ZM73.3536 4.85355C73.5488 4.65829 73.5488 4.34171 73.3536 4.14645L70.1716 0.964466C69.9763 0.769204 69.6597 0.769204 69.4645 0.964466C69.2692 1.15973 69.2692 1.47631 69.4645 1.67157L72.2929 4.5L69.4645 7.32843C69.2692 7.52369 69.2692 7.84027 69.4645 8.03553C69.6597 8.2308 69.9763 8.2308 70.1716 8.03553L73.3536 4.85355ZM4 5H5.01471V4H4V5ZM7.04412 5H9.07353V4H7.04412V5ZM11.1029 5H13.1324V4H11.1029V5ZM15.1618 5H17.1912V4H15.1618V5ZM19.2206 5H21.25V4H19.2206V5ZM23.2794 5H25.3088V4H23.2794V5ZM27.3382 5H29.3676V4H27.3382V5ZM31.3971 5H33.4265V4H31.3971V5ZM35.4559 5H37.4853V4H35.4559V5ZM39.5147 5H41.5441V4H39.5147V5ZM43.5735 5H45.6029V4H43.5735V5ZM47.6323 5H49.6618V4H47.6323V5ZM51.6912 5H53.7206V4H51.6912V5ZM55.75 5H57.7794V4H55.75V5ZM59.8088 5H61.8382V4H59.8088V5ZM63.8676 5H65.897V4H63.8676V5ZM67.9265 5H69.9559V4H67.9265V5ZM71.9853 5H73V4H71.9853V5Z" fill="black"/>
<path d="M1.26894 27.4798C-0.0305052 17.699 -0.353943 11.6248 0.400585 11.1563C0.899356 10.8471 1.07557 11.5237 1.3511 14.81C2.98848 34.334 4.81702 42.2733 10.238 53.3983C16.0488 65.3233 25.4059 76.0835 33.4469 80.0875C38.3129 82.5107 41.3104 82.0855 46.9348 78.1751C59.6541 69.3325 70.468 51.1234 73.7283 33.059C74.2275 30.2924 74.9763 24.2396 75.3925 19.6087C76.1303 11.403 76.1742 11.1887 77.134 11.1887C78.0309 11.1887 78.1008 11.3545 77.9193 13.0477C77.8094 14.0699 77.5075 16.875 77.2482 19.2807C76.6014 25.2871 75.1732 33.8848 74.1246 38.0891C71.056 50.3903 63.8807 63.6432 55.649 72.2137C47.3334 80.8721 40.9614 84.1531 35.6824 82.4954C27.4432 79.9077 16.4061 68.3711 9.85351 55.4974C5.10003 46.1579 2.71691 38.3813 1.26894 27.4798Z" fill="black"/>
<path d="M11.2299 16.1126C13.921 14.4692 16.7423 13.4107 19.4818 13.017C22.6058 12.5678 26.6294 13.0849 28.8666 14.223C31.1025 15.3602 32.8726 16.9931 32.8726 17.9177C32.8726 18.4225 32.4555 18.3311 30.9597 17.4987C24.4906 13.9002 17.1698 13.6911 10.8036 16.924C8.48727 18.1001 8.72896 17.64 11.2299 16.1126Z" fill="black"/>
<path d="M50.7048 14.2339C51.7999 13.706 53.7234 13.1457 54.9789 12.9882C58.5828 12.5368 62.3915 13.1793 65.9299 14.8358C70.352 16.9065 71.6211 18.0376 67.5888 16.3151C64.5096 14.9989 63.9612 14.9071 59.2393 14.9114C54.2195 14.9158 54.1602 14.9281 50.3405 16.742C48.2259 17.7463 46.4954 18.3989 46.4954 18.1924C46.4954 17.3399 48.8455 15.1297 50.7048 14.2339Z" fill="black"/>
<path d="M24.6501 24.2662C23.6222 23.7711 21.8385 23.1915 20.6858 22.9781L18.5906 22.5905L20.8972 22.7738C25.2983 23.1237 29.4792 25.9485 31.5362 29.9617C32.7609 32.3517 32.6845 32.454 30.7852 30.9686C29.2419 29.7614 26.6258 28.2475 26.0831 28.2475C25.95 28.2475 25.8414 28.7488 25.8414 29.362C25.8414 30.9082 23.878 32.6215 22.1061 32.6215C20.1141 32.6215 18.3572 30.9135 18.4157 29.034L18.4609 27.5914L18.82 29.1118C19.5222 32.0827 22.3386 33.0861 24.3517 31.0823C25.6731 29.767 25.6714 27.6911 24.3491 27.4414C23.7229 27.3233 23.5862 27.4659 23.7984 28.0161C24.2673 29.2334 23.2944 30.5045 22.0112 30.3514C20.4402 30.1638 19.7419 28.964 20.5004 27.7559C21.0677 26.8513 21.0348 26.8321 19.3983 27.112C17.448 27.4453 14.4158 28.6731 14.4158 29.1293C14.4158 29.8278 16.9576 31.9309 18.7839 32.7432C20.7245 33.6062 23.2004 33.6354 28.4781 32.8582C29.8645 32.6539 29.821 32.6994 28.0387 33.3188C26.951 33.6971 24.7257 34.1149 23.0936 34.2474C19.4668 34.5426 16.998 33.7286 14.8605 31.5333C13.6907 30.3322 13.1586 30.075 12.2924 30.2915C11.3525 30.5264 11.4707 30.3042 13.137 28.7072C15.6564 26.2927 17.2907 25.6231 20.6639 25.6235C22.7974 25.6235 24.0366 25.9118 26.1183 26.892C27.5996 27.5896 28.9461 28.377 29.1105 28.6416C29.2744 28.9058 29.636 29.1223 29.9138 29.1223C30.8265 29.1223 26.5604 25.1865 24.6501 24.2662Z" fill="black"/>
<path d="M50.4895 27.1767C52.0069 25.4564 54.212 23.9972 56.5508 23.1653C57.4253 22.8543 58.9317 22.6067 59.8985 22.615C61.5033 22.6295 61.422 22.6815 58.962 23.2143C55.5752 23.9474 54.0363 24.7378 51.7107 26.9397C49.8541 28.698 49.5996 30.0487 51.4409 28.3735C53.2949 26.686 55.4377 25.9166 58.8425 25.7158C62.8107 25.4813 64.3835 26.0705 66.9643 28.7588C68.4958 30.354 68.5701 30.5255 67.6332 30.2994C66.8545 30.1113 66.3632 30.3177 65.755 31.0876C65.3019 31.661 63.8386 32.6618 62.5035 33.3122C60.3291 34.3712 59.7464 34.4683 56.9111 34.243C55.1705 34.1052 52.9552 33.6823 51.9884 33.3035L50.2307 32.615L51.7687 32.8372C58.9497 33.8738 61.4137 33.4907 64.2007 30.903L65.987 29.2443L64.7895 28.4631C64.1312 28.034 63.0089 27.6618 62.2957 27.6369C61.5824 27.6119 60.9989 27.444 60.998 27.2633C60.9975 27.0827 60.5946 26.9353 60.1028 26.9353C59.3931 26.9353 59.2903 27.0936 59.604 27.7007C60.3665 29.1765 59.0227 30.9625 57.4565 30.5548C56.5521 30.3195 55.8749 28.628 56.3675 27.835C56.5253 27.5809 56.3579 27.3727 55.9953 27.3727C55.6328 27.3727 55.214 27.5695 55.0646 27.8101C54.9152 28.0507 54.4836 28.2475 54.1053 28.2475C53.7269 28.2475 52.2266 29.0388 50.7716 30.0063C49.3162 30.9738 48.0405 31.6811 47.9372 31.5779C47.6261 31.2687 49.0582 28.7991 50.4895 27.1767Z" fill="black"/>
<path d="M57.921 32.6215C56.5846 32.6215 54.4054 31.1317 54.4054 30.2176C54.4054 29.8786 54.9525 30.1716 55.6899 30.9056C56.3965 31.609 57.4002 32.1841 57.921 32.1841C58.4417 32.1841 59.4454 31.609 60.152 30.9056C60.8894 30.1716 61.4365 29.8786 61.4365 30.2176C61.4365 31.1317 59.2573 32.6215 57.921 32.6215Z" fill="black"/>
<path d="M32.3896 50.6868C32.1237 50.4222 32.038 49.7923 32.1993 49.2871C32.619 47.971 32.8726 48.1521 32.8726 49.7678C32.8726 50.7852 32.7407 51.0363 32.3896 50.6868Z" fill="black"/>
<path d="M45.5822 51.3232C45.8999 50.9033 46.0647 50.067 45.9487 49.4643C45.8331 48.8615 45.9087 48.3681 46.117 48.3681C46.952 48.3681 46.6659 50.5525 45.7158 51.43C45.0738 52.0231 45.061 52.0126 45.5822 51.3232Z" fill="black"/>
<path d="M35.7808 51.43C35.4183 51.43 34.9995 51.2331 34.8501 50.9926C34.7007 50.752 34.8751 50.5552 35.2376 50.5552C35.6002 50.5552 36.019 50.752 36.1684 50.9926C36.3178 51.2331 36.1434 51.43 35.7808 51.43Z" fill="black"/>
<path d="M43.1477 51.43C42.7851 51.43 42.6107 51.2331 42.7601 50.9926C42.9095 50.752 43.3283 50.5552 43.6908 50.5552C44.0534 50.5552 44.2278 50.752 44.0784 50.9926C43.929 51.2331 43.5102 51.43 43.1477 51.43Z" fill="black"/>
<path d="M39.4642 53.6034C38.86 53.6034 38.1371 53.4591 37.8581 53.2824C37.5795 53.1057 38.3019 52.9609 39.4642 52.9609C40.6266 52.9609 41.349 53.1057 41.0704 53.2824C40.7914 53.4591 40.0685 53.6034 39.4642 53.6034Z" fill="black"/>
<path d="M28.9175 59.3142C29.5218 59.1209 30.906 58.5518 31.9937 58.0492C34.4036 56.9356 35.8753 56.887 37.9112 57.8533C39.3676 58.5444 39.5609 58.5444 41.0172 57.8533C43.1503 56.8411 44.4054 56.9242 47.5391 58.2859C52.2618 60.3382 51.6822 60.5363 46.1153 58.7727L43.3182 57.8861L41.3912 58.844L39.4642 59.8019L37.5316 58.8414L35.5989 57.8804L32.8321 58.8107C31.3103 59.3221 29.56 59.7236 28.9422 59.7031L27.8189 59.6654L28.9175 59.3142Z" fill="black"/>
<path d="M43.073 62.8349C40.0026 63.9481 38.1165 63.8951 34.4106 62.5912C32.7188 61.9959 31.7858 61.5047 32.3373 61.4995C32.8888 61.4942 34.0753 61.8017 34.974 62.1823C37.0868 63.0776 40.9267 63.082 43.3648 62.1923C44.4221 61.8061 45.7075 61.513 46.2212 61.541C47.1049 61.5891 47.108 61.6023 46.2757 61.7921C45.7923 61.9023 44.3513 62.3717 43.073 62.8349Z" fill="black"/>
<path d="M39.2445 69.1221C35.3502 69.0968 33.1063 68.2482 31.1148 66.048L30.0162 64.8343L31.3345 65.7349C35.6969 68.7153 42.8326 68.7718 46.9432 65.8582C48.2874 64.9056 48.3147 64.9034 47.7601 65.7873C47.4446 66.2904 46.1904 67.2518 44.9731 67.9237C43.0523 68.9835 42.296 69.1418 39.2445 69.1221Z" fill="black"/>
</svg>
