<svg width="76" height="77" viewBox="0 0 76 77" fill="none" xmlns="http://www.w3.org/2000/svg">
<path d="M2.46429 36.4763C1.02217 28.8098 0.43189 22.3702 0.159725 11.3312C-0.115974 0.165899 -0.106695 0 0.772097 0C1.64117 0 1.67077 0.333998 1.91112 12.8714C2.31584 33.9526 4.48255 44.4821 10.6041 55.1149C13.6292 60.3699 14.9574 62.138 18.9201 66.1878C28.9677 76.4549 39.3563 78.5056 49.699 72.2626C57.009 67.8503 65.5606 56.8989 68.9317 47.6324C72.4182 38.0495 73.7759 28.7196 74.1179 11.9913C74.3489 0.676353 74.4095 0 75.1858 0C75.9594 0 76.008 0.493733 75.9992 8.25087C75.9815 24.6298 73.7401 39.3841 69.8383 48.8073C64.4383 61.8498 54.397 72.697 44.6644 76.0017C41.1077 77.2092 35.7506 77.3372 32.2376 76.2987C18.5879 72.2626 6.03955 55.4793 2.46429 36.4763Z" fill="black"/>
<path d="M45.9877 6.77011C47.109 5.00597 50.7819 3.04556 53.6348 2.68736C57.3492 2.22179 61.2236 2.8999 65.0419 4.68429C66.9492 5.57582 68.7537 6.59805 69.0519 6.95625C69.4204 7.3985 69.0245 7.31753 67.8179 6.70411C61.2457 3.36504 54.0298 3.56306 47.3786 7.2656C46.2837 7.87507 45.3303 8.31599 45.2596 8.24559C45.1889 8.17518 45.5167 7.51115 45.9877 6.77011Z" fill="black"/>
<path d="M8.18815 6.80487C9.55295 5.69992 13.9699 3.55205 15.8114 3.09749C16.7216 2.87306 19.2559 2.72785 21.4429 2.77493C24.6413 2.84358 25.8086 3.06184 27.4076 3.89133C29.7961 5.12962 31.2241 6.38419 31.5174 7.50191C31.7101 8.23458 31.4507 8.18486 29.2164 7.06186C22.3045 3.58682 15.7261 3.45568 9.08505 6.66098C7.76841 7.29641 7.53469 7.33381 8.18815 6.80487Z" fill="black"/>
<path d="M27.8936 17.7594C26.0035 15.2058 22.9606 13.4276 19.365 12.7759L17.0247 12.3517L19.5086 12.5189C22.2687 12.7046 24.8158 13.8271 27.1911 15.9046C28.7702 17.2855 31.2342 20.9779 30.8392 21.3713C30.7235 21.4866 29.4316 20.7847 27.9683 19.8113C26.5054 18.8379 24.997 18.0419 24.6166 18.0419C24.2362 18.0419 23.8023 17.8439 23.6521 17.6018C23.1055 16.7209 22.225 17.1451 22.426 18.1924C22.5382 18.7768 22.3235 19.5222 21.9307 19.9134C20.4563 21.3823 18.116 19.3238 19.1114 17.4342C19.513 16.6725 19.4123 16.6298 17.8443 16.8978C15.8605 17.2375 12.8273 18.4705 12.8273 18.9378C12.8273 19.6415 16.3456 22.3689 17.9225 22.8872C19.5095 23.4087 22.9584 23.3286 26.9658 22.6773L28.5121 22.4256L26.7448 23.1271C25.7728 23.513 23.4621 23.9394 21.6099 24.0745C18.6815 24.2884 17.9777 24.1889 16.2122 23.3106C15.0957 22.7552 13.6628 21.7612 13.0284 21.1015C12.2286 20.2703 11.5805 19.9728 10.9151 20.1312C9.35589 20.5031 13.6049 16.3847 15.3842 15.7999C18.7425 14.6962 24.3616 15.8505 27.8308 18.3574L28.9164 19.142L27.8936 17.7594Z" fill="black"/>
<path d="M46.6222 21.0932C47.6043 17.8764 52.3787 13.5697 55.8925 12.731C56.6286 12.5554 57.9267 12.4067 58.7772 12.4014C59.9057 12.3939 59.5588 12.5563 57.4946 13.0025C54.4394 13.6626 52.1335 14.9651 50.0048 17.2335C48.5976 18.7337 48.4716 19.586 49.8395 18.353C51.6364 16.7336 55.7255 15.2916 58.5214 15.2916C61.7357 15.2916 63.1721 15.9367 65.6255 18.4837C67.061 19.9737 67.2201 20.2905 66.4716 20.1708C65.9052 20.0806 64.8961 20.5955 63.8525 21.5081C61.6173 23.4628 59.7373 24.2025 57.0046 24.2025C54.9594 24.2025 48.8264 22.9656 49.1706 22.6223C49.2506 22.5427 51.1261 22.7051 53.3388 22.9832C58.2117 23.5957 60.2092 23.1394 62.7811 20.8252C63.7381 19.964 64.521 19.1147 64.521 18.9378C64.521 18.4736 61.4927 17.2384 59.5363 16.9039L57.8653 16.6183L58.4158 17.8219C58.9107 18.9035 58.8607 19.1103 57.9245 19.8654C56.9998 20.6113 56.7784 20.6351 55.9522 20.0758C55.3544 19.6714 55.0513 19.0377 55.1048 18.3042C55.1927 17.0989 54.8375 16.9207 53.5796 17.5389C50.7846 18.9132 49.5174 19.6626 48.0073 20.8349C46.3146 22.1484 46.2987 22.1515 46.6222 21.0932Z" fill="black"/>
<path d="M57.2034 21.8285C58.8236 21.4232 60.1027 20.012 60.1027 18.6285C60.1027 17.9834 60.226 17.5781 60.3766 17.7281C60.9316 18.2808 60.0378 21.1178 59.1033 21.7695C56.835 23.3519 52.9694 21.7493 53.0777 19.2718L53.1214 18.2619L53.4192 19.3224C53.8615 20.8956 55.7998 22.1792 57.2034 21.8285Z" fill="black"/>
<path d="M17.1055 19.0047C16.9646 19.3554 16.8599 19.2511 16.8387 18.7385C16.8197 18.2747 16.9239 18.0151 17.0706 18.1611C17.2173 18.3072 17.2332 18.687 17.1055 19.0047Z" fill="black"/>
<path d="M18.1182 20.6712C20.0035 22.5489 23.155 21.9807 23.7979 19.6472C24.0431 18.7574 24.0687 18.7521 24.2362 19.5623C24.4655 20.6681 22.4397 22.4424 20.9472 22.4424C19.2325 22.4424 17.2747 21.2181 17.2522 20.1321C17.2487 19.9508 17.6384 20.1933 18.1182 20.6712Z" fill="black"/>
<path d="M31.5117 45.0519C31.1392 44.5446 31.1101 44.0741 31.4167 43.5038C32.0092 42.4011 32.0468 42.4442 32.0468 44.2326C32.0468 45.5527 31.9677 45.6737 31.5117 45.0519Z" fill="black"/>
<path d="M45.3979 45.4885C44.9092 46.1534 44.8549 46.0134 45.002 44.4746C45.0961 43.4928 45.351 42.7989 45.5688 42.9331C46.1414 43.2856 46.054 44.5943 45.3979 45.4885Z" fill="black"/>
<path d="M34.9372 45.8973C34.4335 45.7661 33.913 45.4845 33.7809 45.2715C33.3802 44.6255 34.7728 44.8398 35.3317 45.51C35.7594 46.0236 35.6887 46.0931 34.9372 45.8973Z" fill="black"/>
<path d="M42.4297 45.8924C41.4722 46.1415 41.1939 45.5395 42.0983 45.176C42.9687 44.8262 43.3133 44.8539 43.3133 45.2733C43.3133 45.4871 42.9157 45.7657 42.4297 45.8924Z" fill="black"/>
<path d="M39.8874 47.8612C38.9786 48.1771 38.2619 48.1397 37.3244 47.7278C35.926 47.1135 36.3241 46.916 37.7905 47.4968C38.2765 47.6891 39.1491 47.6698 39.7297 47.4533C40.3098 47.2372 40.8669 47.1422 40.9672 47.2416C41.0675 47.3415 40.5815 47.6205 39.8874 47.8612Z" fill="black"/>
<path d="M27.2578 55.43C26.402 55.4159 27.283 55.0256 32.6755 53.0304C34.1945 52.468 35.3339 52.6172 37.6186 53.6764C38.5668 54.116 39.0157 54.0861 40.1375 53.5083C42.0996 52.498 43.7096 52.6322 47.3706 54.1134C51.1951 55.6606 50.5792 55.8326 46.0266 54.4887C43.2108 53.6575 42.5892 53.6042 41.3874 54.0918C38.9931 55.063 38.1095 55.1189 36.6457 54.3919C34.8417 53.4955 34.4163 53.5087 31.0133 54.5714C29.4727 55.0524 27.7827 55.4388 27.2578 55.43Z" fill="black"/>
<path d="M43.5342 57.9299C39.3148 59.5655 37.9884 59.6333 34.4503 58.3946C30.9245 57.1598 31.0716 56.7875 34.6575 57.8709C37.411 58.703 39.6108 58.7013 41.9878 57.8661C44.4683 56.9943 45.8052 57.0494 43.5342 57.9299Z" fill="black"/>
<path d="M32.9936 63.6368C31.6699 62.9917 30.2472 61.9471 29.8314 61.3152L29.0755 60.1658L30.5781 61.3077C32.0927 62.458 36.3422 63.8067 38.4532 63.8067C40.365 63.8067 44.6662 62.5253 46.1291 61.5198L47.5107 60.5702L46.4061 61.808C43.6049 64.9477 37.4154 65.7913 32.9936 63.6368Z" fill="black"/>
</svg>
