<svg width="76" height="76" viewBox="0 0 76 76" fill="none" xmlns="http://www.w3.org/2000/svg">
<path d="M71.25 74.8124C70.5375 74.8124 70.0625 74.3374 70.0625 73.6249C70.0625 70.7749 68.875 65.3124 60.4438 60.6812C58.9 59.8499 57 59.1374 54.8625 58.3062C49.7563 56.4062 43.8188 54.1499 43.8188 49.3999V44.6499C43.8188 43.9374 44.2938 43.4624 45.0063 43.4624C45.7188 43.4624 46.1938 43.9374 46.1938 44.6499V49.3999C46.1938 52.4874 51.0625 54.3874 55.6938 56.1687C57.8313 56.9999 59.85 57.7124 61.5125 58.6624C71.0125 63.8874 72.4375 70.2999 72.4375 73.6249C72.4375 74.3374 71.9625 74.8124 71.25 74.8124ZM4.75 74.8124C4.0375 74.8124 3.5625 74.3374 3.5625 73.6249C3.5625 70.2999 4.9875 63.7687 14.3688 58.6624C16.0313 57.7124 18.05 56.9999 20.1875 56.1687C24.8188 54.3874 29.6875 52.6062 29.6875 49.3999V44.6499C29.6875 43.9374 30.1625 43.4624 30.875 43.4624C31.5875 43.4624 32.0625 43.9374 32.0625 44.6499V49.3999C32.0625 54.1499 26.2438 56.4062 21.0188 58.3062C19 59.1374 16.9812 59.8499 15.4375 60.6812C7.125 65.3124 5.9375 70.7749 5.9375 73.6249C5.9375 74.3374 5.4625 74.8124 4.75 74.8124Z" fill="black"/>
<path d="M38 67.6876C30.875 67.6876 24.3438 63.5313 21.4938 57.0001C21.2563 56.4063 21.4938 55.6939 22.0875 55.4564C22.6813 55.2189 23.3937 55.4564 23.6312 56.0501C26.125 61.6314 31.825 65.3126 38 65.3126C44.175 65.3126 49.875 61.6314 52.3687 56.0501C52.6062 55.4564 53.3188 55.2189 53.9125 55.4564C54.5063 55.6939 54.7438 56.4063 54.5063 57.0001C51.6563 63.5313 45.125 67.6876 38 67.6876ZM38 48.6876C31.7062 48.6876 25.65 42.7501 23.8688 35.1501C22.2063 34.5563 20.1875 32.7751 20.1875 28.5001C20.1875 27.4313 20.3062 26.3626 20.6625 25.5313C21.0187 24.4626 21.9688 23.7501 23.1562 23.6313C26.3625 23.2751 27.3125 20.7813 28.3812 17.1001C29.0937 14.4876 29.925 11.7563 32.6562 11.7563C34.0813 11.7563 35.2687 12.2313 36.1 12.5876C36.6937 12.1126 37.7625 11.7563 39.5437 11.7563C42.275 11.7563 44.175 14.4876 46.3125 17.4563C48.3313 20.3063 50.4688 23.2751 53.0813 23.6313C54.15 23.7501 54.9813 24.4626 55.4563 25.4126C55.6938 26.3626 55.8125 27.3126 55.8125 28.5001C55.8125 32.7751 53.675 34.5563 52.1313 35.1501C50.35 42.7501 44.2938 48.6876 38 48.6876ZM23.3938 26.1251C23.1563 26.1251 23.0375 26.2438 22.9187 26.4813C22.6812 26.9563 22.5625 27.6688 22.5625 28.5001C22.5625 32.6563 24.9375 33.0126 25.0563 33.0126C25.5313 33.0126 26.0062 33.4876 26.125 33.9626C27.55 41.5626 33.3687 46.3126 38 46.3126C42.6313 46.3126 48.45 41.5626 49.875 33.9626C49.9938 33.4876 50.35 33.0126 50.9438 33.0126C51.1813 33.0126 53.4375 32.5376 53.4375 28.5001C53.4375 27.4313 53.2 26.8376 53.0813 26.4813C52.9625 26.2438 52.8437 26.1251 52.6062 26.1251C48.925 25.6501 46.4313 22.0876 44.175 19.0001C42.5125 16.7438 40.85 14.3688 39.425 14.3688C37.6438 14.3688 37.1687 14.9626 37.1687 14.9626C37.05 15.2001 36.8125 15.4376 36.4563 15.4376C36.1 15.5563 35.7437 15.4376 35.5062 15.2001C35.5062 15.2001 34.3187 14.2501 32.6562 14.2501C31.825 14.2501 31.35 15.6751 30.6375 17.9313C29.6875 21.1376 28.3813 25.6501 23.3938 26.1251Z" fill="black"/>
<path d="M57.1187 48.6875C52.8437 48.6875 51.1812 47.8562 51.0624 47.8562C50.4687 47.6187 50.2312 46.9062 50.5874 46.3125C50.8249 45.7188 51.5374 45.4812 52.1312 45.8375C52.7249 46.1937 53.5562 46.4312 57.1187 46.4312C60.5624 46.4312 61.7499 43.9375 61.7499 41.6812C61.7499 38.1187 59.9687 34.3187 59.1374 32.5375C58.4249 30.9937 58.5437 29.0937 58.6624 27.1937C58.7812 25.4125 58.8999 23.6312 58.4249 21.85C57.8312 19.475 56.2874 17.6938 54.8624 16.15C54.1499 15.4375 53.5562 14.725 53.0812 14.0125C52.6062 13.3 52.1312 12.35 51.6562 11.2812C50.1124 7.71875 48.2124 3.5625 42.7499 3.5625C38.2374 3.5625 36.5749 5.4625 36.5749 5.4625C36.2187 5.9375 35.3874 6.05625 34.9124 5.58125C34.4374 5.225 34.3187 4.39375 34.6749 3.91875C34.7937 3.91875 36.9312 1.1875 42.7499 1.1875C49.7562 1.1875 52.2499 6.53125 53.9124 10.0938C54.3874 11.0438 54.7437 11.875 55.0999 12.35C55.5749 12.9437 56.1687 13.6562 56.7624 14.25C58.3062 16.0312 60.2062 18.05 60.9187 21.0188C61.3937 23.1563 61.2749 25.2937 61.1562 27.075C61.0374 28.8562 60.9187 30.2812 61.3937 31.35C62.3437 33.3687 64.1249 37.4063 64.1249 41.4438C64.1249 45.125 61.9874 48.6875 57.1187 48.6875Z" fill="black"/>
<path d="M18.8812 48.6875C14.0125 48.6875 11.875 45.125 11.875 41.5625C11.875 37.525 13.775 33.3688 14.6063 31.4688C15.0813 30.5187 14.9625 28.975 14.8438 27.1937C14.725 25.2937 14.6062 23.275 15.0812 21.1375C15.7937 18.05 17.575 16.15 19.2375 14.3688C19.8313 13.6563 20.425 13.0625 20.9 12.4688C21.2563 11.875 21.7313 11.0438 22.0875 10.2125C23.5125 7.00625 25.65 2.375 32.0625 2.375C34.0813 2.375 36.1 3.5625 36.2188 3.8C36.8125 4.15625 36.9312 4.86875 36.575 5.4625C36.2187 6.05625 35.5062 6.175 34.9125 5.81875C34.5562 5.4625 33.1312 4.75 32.0625 4.75C27.1938 4.75 25.65 8.075 24.225 11.1625C23.75 12.1125 23.3938 13.0625 22.8 13.775L21.0188 15.9125C19.5938 17.575 18.05 19.2375 17.4562 21.6125C17.1 23.3938 17.1 25.2938 17.2188 26.9563C17.3375 28.975 17.4563 30.7563 16.7438 32.3C16.0313 34.2 14.25 38 14.25 41.5625C14.25 43.8187 15.4375 46.3125 18.8812 46.3125C22.5625 46.3125 23.8688 45.7188 23.9875 45.7188C24.5813 45.4812 25.2937 45.7188 25.5312 46.3125C25.7688 46.9062 25.5313 47.6187 25.0563 47.8562C24.8188 47.8562 23.1562 48.6875 18.8812 48.6875Z" fill="black"/>
</svg>
