<svg width="83" height="77" viewBox="0 0 83 77" fill="none" xmlns="http://www.w3.org/2000/svg">
<path d="M1.35028 17.6319C-0.0324607 7.1756 -0.376632 0.681819 0.426264 0.181003C0.957007 -0.149601 1.14452 0.573799 1.43771 4.08699C3.18005 24.9595 5.12581 33.4472 10.8943 45.3405C17.0776 58.0891 27.0345 69.5925 35.591 73.873C40.7689 76.4636 43.9585 76.0091 49.9435 71.8286C63.4781 62.3753 74.9852 42.9084 78.4545 23.5964C78.9857 20.6387 79.7825 14.1679 80.2253 9.21721C81.0104 0.444741 81.0572 0.215609 82.0785 0.215609C83.0329 0.215609 83.1072 0.392835 82.9141 2.20298C82.7972 3.29579 82.476 6.29461 82.2001 8.8665C81.5117 15.2878 79.992 24.4792 78.8762 28.974C75.6109 42.1247 67.9756 56.293 59.2163 65.4554C50.3676 74.7119 43.5872 78.2195 37.9697 76.4472C29.2024 73.6808 17.4578 61.3475 10.4851 47.5846C5.42695 37.6001 2.89107 29.2863 1.35028 17.6319Z" fill="black"/>
<path d="M11.9497 5.47955C14.8134 3.72272 17.8155 2.59109 20.7306 2.17024C24.0549 1.69 28.3364 2.24273 30.717 3.45946C33.0962 4.67526 34.9798 6.42087 34.9798 7.40941C34.9798 7.94904 34.536 7.8513 32.9442 6.96143C26.0605 3.11435 18.2705 2.89084 11.4961 6.34698C9.03133 7.6044 9.28852 7.11246 11.9497 5.47955Z" fill="black"/>
<path d="M53.9551 3.47115C55.1204 2.90674 57.1672 2.30773 58.5032 2.13939C62.3381 1.65681 66.3909 2.34373 70.1562 4.11459C74.8618 6.32828 76.2122 7.53753 71.9214 5.69606C68.6448 4.28901 68.0612 4.1908 63.0367 4.19548C57.6951 4.20015 57.632 4.21326 53.5675 6.15246C51.3173 7.22611 49.4759 7.92378 49.4759 7.70307C49.4759 6.79168 51.9767 4.42883 53.9551 3.47115Z" fill="black"/>
<path d="M26.2302 14.1964C25.1365 13.667 23.2384 13.0474 22.0119 12.8193L19.7823 12.4049L22.2368 12.6009C26.92 12.975 31.3689 15.9948 33.5578 20.2852C34.861 22.8403 34.7796 22.9497 32.7586 21.3617C31.1163 20.071 28.3326 18.4526 27.7551 18.4526C27.6134 18.4526 27.4979 18.9885 27.4979 19.6441C27.4979 21.2971 25.4086 23.1288 23.5232 23.1288C21.4035 23.1288 19.534 21.3027 19.5962 19.2934L19.6443 17.7512L20.0264 19.3766C20.7736 22.5527 23.7706 23.6254 25.9127 21.4832C27.3188 20.0771 27.317 17.8578 25.9099 17.5908C25.2436 17.4645 25.0981 17.617 25.324 18.2052C25.8229 19.5066 24.7876 20.8655 23.4222 20.7018C21.7505 20.5012 21.0074 19.2186 21.8145 17.927C22.4182 16.96 22.3832 16.9394 20.6418 17.2387C18.5665 17.595 15.3399 18.9076 15.3399 19.3953C15.3399 20.1421 18.0446 22.3904 19.988 23.2588C22.053 24.1814 24.6876 24.2127 30.3036 23.3817C31.7789 23.1634 31.7327 23.212 29.836 23.8741C28.6787 24.2786 26.3107 24.7252 24.5739 24.8669C20.7147 25.1825 18.0876 24.3123 15.8131 21.9653C14.5684 20.6813 14.0021 20.4063 13.0804 20.6378C12.0802 20.8889 12.206 20.6513 13.9792 18.9441C16.66 16.3628 18.3991 15.6469 21.9885 15.6474C24.2587 15.6474 25.5774 15.9555 27.7925 17.0035C29.3689 17.7493 30.8016 18.591 30.9765 18.8739C31.1509 19.1564 31.5358 19.3878 31.8313 19.3878C32.8026 19.3878 28.2629 15.1802 26.2302 14.1964Z" fill="black"/>
<path d="M53.726 17.3079C55.3407 15.4688 57.6872 13.9088 60.1758 13.0194C61.1064 12.6869 62.7094 12.4222 63.7381 12.4311C65.4459 12.4466 65.3593 12.5022 62.7416 13.0718C59.1377 13.8555 57.5001 14.7005 55.0255 17.0544C53.0498 18.9343 52.7791 20.3783 54.7384 18.5873C56.7113 16.7832 58.9914 15.9607 62.6144 15.7461C66.837 15.4954 68.5106 16.1253 71.2569 18.9993C72.8866 20.7047 72.9656 20.888 71.9686 20.6462C71.14 20.4451 70.6172 20.6658 69.97 21.4888C69.4879 22.1019 67.9308 23.1718 66.5102 23.8671C64.1964 24.9992 63.5763 25.103 60.5593 24.8622C58.7071 24.7149 56.3498 24.2627 55.321 23.8578L53.4506 23.1217L55.0872 23.3593C62.7285 24.4676 65.3505 24.0579 68.3161 21.2915L70.2169 19.5183L68.9427 18.6832C68.2422 18.2244 67.0479 17.8265 66.289 17.7998C65.53 17.7732 64.909 17.5936 64.9081 17.4005C64.9076 17.2074 64.4788 17.0498 63.9556 17.0498C63.2004 17.0498 63.0909 17.219 63.4248 17.8681C64.2361 19.4458 62.8062 21.3551 61.1396 20.9193C60.1772 20.6677 59.4566 18.8594 59.9808 18.0117C60.1487 17.74 59.9706 17.5174 59.5848 17.5174C59.199 17.5174 58.7533 17.7278 58.5944 17.985C58.4354 18.2422 57.9762 18.4526 57.5735 18.4526C57.1709 18.4526 55.5745 19.2985 54.0262 20.3329C52.4775 21.3673 51.12 22.1234 51.0101 22.013C50.679 21.6824 52.203 19.0423 53.726 17.3079Z" fill="black"/>
<path d="M61.6339 23.1288C60.2118 23.1288 57.8929 21.5361 57.8929 20.5588C57.8929 20.1964 58.4751 20.5097 59.2598 21.2943C60.0117 22.0462 61.0797 22.6612 61.6339 22.6612C62.188 22.6612 63.256 22.0462 64.0079 21.2943C64.7926 20.5097 65.3748 20.1964 65.3748 20.5588C65.3748 21.5361 63.0559 23.1288 61.6339 23.1288Z" fill="black"/>
<path d="M34.4659 42.4418C34.183 42.1588 34.0918 41.4855 34.2634 40.9454C34.71 39.5383 34.9798 39.7319 34.9798 41.4593C34.9798 42.547 34.8395 42.8154 34.4659 42.4418Z" fill="black"/>
<path d="M48.5041 43.1221C48.8422 42.6732 49.0176 41.7791 48.8941 41.1348C48.7712 40.4904 48.8516 39.9629 49.0732 39.9629C49.9617 39.9629 49.6573 42.2982 48.6463 43.2362C47.9631 43.8703 47.9496 43.8591 48.5041 43.1221Z" fill="black"/>
<path d="M38.0745 43.2362C37.6887 43.2362 37.243 43.0258 37.084 42.7686C36.9251 42.5114 37.1107 42.301 37.4965 42.301C37.8823 42.301 38.3279 42.5114 38.4869 42.7686C38.6459 43.0258 38.4602 43.2362 38.0745 43.2362Z" fill="black"/>
<path d="M45.9136 43.2362C45.5278 43.2362 45.3421 43.0258 45.5011 42.7686C45.6601 42.5114 46.1058 42.301 46.4915 42.301C46.8773 42.301 47.063 42.5114 46.904 42.7686C46.745 43.0258 46.2993 43.2362 45.9136 43.2362Z" fill="black"/>
<path d="M41.994 45.5598C41.351 45.5598 40.5818 45.4055 40.2849 45.2166C39.9884 45.0277 40.7572 44.8729 41.994 44.8729C43.2309 44.8729 43.9996 45.0277 43.7031 45.2166C43.4062 45.4055 42.637 45.5598 41.994 45.5598Z" fill="black"/>
<path d="M30.7712 51.665C31.4142 51.4583 32.8872 50.8499 34.0445 50.3127C36.6089 49.1221 38.175 49.0702 40.3415 50.1032C41.8911 50.842 42.0969 50.842 43.6466 50.1032C45.9164 49.0211 47.2519 49.11 50.5864 50.5656C55.6119 52.7597 54.9951 52.9715 49.0714 51.0861L46.095 50.1382L44.0445 51.1623L41.994 52.1864L39.9374 51.1595L37.8809 50.1322L34.9367 51.1268C33.3174 51.6734 31.4549 52.1027 30.7974 52.0807L29.6022 52.0405L30.7712 51.665Z" fill="black"/>
<path d="M45.8341 55.4288C42.5668 56.6189 40.5598 56.5623 36.6164 55.1684C34.8161 54.532 33.8234 54.0068 34.4102 54.0012C34.9971 53.9956 36.2596 54.3243 37.2159 54.7312C39.4642 55.6884 43.5502 55.693 46.1446 54.7419C47.2696 54.329 48.6374 54.0157 49.1841 54.0456C50.1244 54.0971 50.1277 54.1111 49.242 54.314C48.7277 54.4319 47.1944 54.9336 45.8341 55.4288Z" fill="black"/>
<path d="M41.7602 62.1503C37.6162 62.1232 35.2285 61.216 33.1093 58.8639L31.9403 57.5663L33.3431 58.5291C37.9851 61.7155 45.5783 61.7758 49.9524 58.661C51.3828 57.6425 51.4118 57.6402 50.8216 58.5852C50.4859 59.123 49.1513 60.1508 47.856 60.8691C45.8121 62.0021 45.0073 62.1714 41.7602 62.1503Z" fill="black"/>
</svg>
