<svg width="79" height="79" viewBox="0 0 79 79" fill="none" xmlns="http://www.w3.org/2000/svg">
<path d="M11.233 64.588C6.19696 54.6498 1.57105 29.776 0.107071 4.76249C-0.10245 1.18151 -0.0544175 0.870117 0.707598 0.870117C1.43091 0.870117 1.5706 1.36211 1.81126 4.76249C3.44116 27.7657 4.91226 38.6746 8.07153 51.1916C9.8251 58.1405 11.7615 63.447 13.4119 65.8287C16.415 70.1619 23.3456 73.6842 32.6922 75.6277C37.7221 76.6735 40.4036 76.7113 45.1834 75.8047C54.8739 73.9662 62.3508 70.29 65.4277 65.8501C70.5523 58.4554 75.2628 34.0474 77.0448 5.65217C77.3135 1.37412 77.4332 0.870117 78.1814 0.870117C79.2326 0.870117 79.249 1.93151 78.3593 12.2136C75.8851 40.8027 70.4362 63.3861 64.7124 68.7731C60.4726 72.7638 53.6158 75.7945 45.1709 77.4102C39.6042 78.4751 37.844 78.4075 31.1976 76.8741C21.3243 74.5961 14.0297 70.1067 11.233 64.588Z" fill="black"/>
<path d="M9.82999 11.126C10.2548 10.4387 14.29 8.43377 17.185 7.47158C21.0031 6.202 26.0138 6.50494 29.3982 8.21002C31.7558 9.39775 34.1411 11.6424 33.6099 12.174C33.5014 12.2821 32.0134 11.6914 30.3034 10.8604C26.778 9.1473 23.9422 8.43244 20.6748 8.43244C18.0111 8.43244 13.7059 9.48138 11.2708 10.7234C10.3131 11.2123 9.66496 11.3933 9.82999 11.126Z" fill="black"/>
<path d="M45.6549 11.9694C45.6549 10.9792 48.7346 8.50762 51.102 7.59792C53.9989 6.48448 58.3979 6.39017 61.6995 7.37016C64.4469 8.186 69.0172 10.3942 69.4682 11.1242C69.6337 11.3924 68.954 11.1958 67.9571 10.6873C63.9442 8.64018 58.4184 7.92132 54.1888 8.89686C52.6688 9.24739 49.0326 10.7736 45.9886 12.3386C45.8049 12.4329 45.6549 12.267 45.6549 11.9694Z" fill="black"/>
<path d="M21.8336 17.3293C21.2629 17.3293 20.6917 17.1603 20.564 16.9534C20.4364 16.747 21.3416 16.7372 22.5756 16.9325C26.6023 17.5691 30.2487 20.4072 32.3626 24.5504L33.3106 26.4085L32.2541 25.6487C31.6731 25.231 30.1976 24.2942 28.9756 23.5669C26.9756 22.3765 26.7229 22.3213 26.4489 23.0117C26.1628 23.7328 26.1424 23.7332 26.113 23.0166C26.0796 22.2008 24.8132 21.3329 23.6561 21.3329C23.1375 21.3329 23.0205 21.6105 23.214 22.3809C23.3821 23.05 23.2126 23.6937 22.746 24.1603C21.8278 25.0785 21.0044 25.0887 20.1081 24.1928C19.7237 23.808 19.4092 23.7003 19.4092 23.953C19.4092 24.8409 21.3701 26.2261 22.6272 26.2261C23.3835 26.2261 24.3403 25.784 24.9898 25.1341C25.5903 24.5335 26.0819 24.2332 26.0819 24.4668C26.0819 25.5015 24.2376 26.671 22.6072 26.671C20.327 26.671 18.9724 25.3978 19.0502 23.328C19.0823 22.473 18.9929 21.6576 18.851 21.5162C18.7095 21.3742 17.641 21.6799 16.4768 22.195L14.3598 23.1314L15.8545 24.6732C18.1401 27.0313 20.4924 27.7462 24.871 27.4125C26.8826 27.2595 29.029 27.0264 29.6406 26.8947C30.2523 26.7631 29.6517 27.0673 28.3061 27.5709C23.2215 29.4739 17.5017 28.5398 14.8358 25.3712C14.0106 24.3903 13.5991 24.2146 12.81 24.5068C11.9265 24.8333 11.9728 24.683 13.2375 23.1087C16.5231 19.0206 21.9947 18.4036 27.6072 21.4886C30.2207 22.925 30.4716 22.9908 29.8777 22.0847C28.5294 20.0273 23.9653 17.3293 21.8336 17.3293Z" fill="black"/>
<path d="M48.2493 23.0793C50.3458 19.7733 53.3961 17.6011 56.921 16.904C59.4887 16.3965 59.4451 16.3987 59.4451 16.7897C59.4451 16.9823 58.865 17.1843 58.1564 17.2381C56.0051 17.4022 53.6834 18.6082 51.3921 20.7515C48.8253 23.1523 48.485 24.1741 50.8818 22.2826C54.0825 19.7568 59.4757 18.8111 62.7876 20.195C64.0532 20.7234 67.8971 24.0718 67.8971 24.6456C67.8971 24.735 67.4989 24.7043 67.0123 24.5771C66.43 24.4245 65.5919 24.816 64.5599 25.7226C63.6973 26.4797 62.377 27.417 61.6257 27.8058C59.6915 28.8058 54.9579 28.7008 51.6603 27.5847C50.1923 27.0878 49.4917 26.7875 50.1034 26.9179C50.715 27.0482 52.7595 27.2742 54.6466 27.4201C59.1408 27.768 61.5198 27.0945 63.7044 24.8574L65.3882 23.1332L63.2498 22.187C61.6697 21.4881 61.026 21.3791 60.7849 21.7693C60.5505 22.1483 60.3824 22.0984 60.1884 21.5927C60.0394 21.2052 59.6239 20.888 59.2645 20.888C58.7742 20.888 58.6706 21.2532 58.8494 22.3542C59.1639 24.2929 58.1426 25.2515 56.5402 24.5215C55.9361 24.2461 55.4384 23.7666 55.4348 23.4552C55.4308 23.1443 55.2462 22.6025 55.0238 22.251C54.6888 21.7217 54.4997 21.7123 53.9183 22.1945C53.5327 22.5144 53.2173 22.6478 53.2173 22.4904C53.2173 22.038 49.9179 23.8409 48.3836 25.1323C46.6047 26.6287 46.5482 25.7617 48.2493 23.0793Z" fill="black"/>
<path d="M61.9936 17.1531C61.8459 17.3008 61.462 17.3168 61.1412 17.1883C60.7863 17.0464 60.8917 16.9409 61.4099 16.9196C61.8788 16.9005 62.1413 17.0054 61.9936 17.1531Z" fill="black"/>
<path d="M57.2208 26.671C55.2484 26.671 54.2724 26.0211 53.728 24.3449C53.3454 23.1656 53.3574 23.0513 53.7925 23.7404C54.8881 25.4766 55.9219 26.2261 57.2208 26.2261C58.6395 26.2261 60.3347 24.8943 60.3347 23.7795C60.3347 23.4125 60.5247 23.1122 60.7565 23.1122C61.4491 23.1122 60.3241 25.7555 59.4277 26.2355C58.9802 26.4748 57.9869 26.671 57.2208 26.671Z" fill="black"/>
<path d="M32.6758 47.7525C32.2372 47.4812 32.1864 45.6257 32.6064 45.2062C32.7692 45.043 32.9195 44.91 32.94 44.9109C32.96 44.9118 32.9916 45.6021 33.0094 46.4456C33.0272 47.2885 32.8773 47.8766 32.6758 47.7525Z" fill="black"/>
<path d="M46.6558 47.2863C46.4721 47.3989 46.3008 46.9104 46.275 46.2005C46.2488 45.4905 46.3987 44.9095 46.6087 44.9095C47.0767 44.9095 47.1185 47.0021 46.6558 47.2863Z" fill="black"/>
<path d="M35.6985 48.0234C35.3315 48.0234 34.9075 47.8232 34.7563 47.5786C34.6051 47.3339 34.7817 47.1337 35.1487 47.1337C35.5157 47.1337 35.9396 47.3339 36.0908 47.5786C36.2421 47.8232 36.0655 48.0234 35.6985 48.0234Z" fill="black"/>
<path d="M43.2933 48.0168C42.501 48.011 42.4436 47.9291 42.9859 47.5786C43.8622 47.0123 44.8929 47.0123 44.5428 47.5786C44.3916 47.8232 43.8293 48.0203 43.2933 48.0168Z" fill="black"/>
<path d="M41.3667 49.9033C41.0935 50.3455 38.2105 50.3544 37.9409 49.914C37.8284 49.7307 38.6011 49.5755 39.658 49.5697C40.715 49.5639 41.4836 49.7138 41.3667 49.9033Z" fill="black"/>
<path d="M32.8413 55.5288C28.4088 56.8753 27.5365 56.6769 31.1976 55.1551C34.8457 53.6391 36.1963 53.5252 38.0335 54.58C39.2172 55.2592 39.5602 55.2801 40.8498 54.7512C43.5166 53.6587 44.4837 53.7041 47.8881 55.0822C51.6888 56.6209 50.7804 56.9461 46.6127 55.5386L43.8391 54.6022L41.6171 55.5582L39.3947 56.5141L37.6763 55.5484L35.9574 54.5822L32.8413 55.5288Z" fill="black"/>
<path d="M35.5205 59.7588C34.6108 59.3625 33.2661 58.8825 32.5321 58.6921C31.2265 58.3536 31.2229 58.3451 32.3666 58.3002C33.0094 58.2753 34.2821 58.5666 35.1945 58.9479C37.3915 59.866 41.4521 59.8811 43.5962 58.9795C44.5437 58.5809 45.8449 58.2819 46.4877 58.3153L47.6567 58.3758L46.5629 58.5809C45.9614 58.6939 44.5028 59.1667 43.3213 59.6325C40.6918 60.669 37.7207 60.717 35.5205 59.7588Z" fill="black"/>
<path d="M35.5294 65.5449C33.3346 64.8358 31.8128 63.7651 30.5432 62.036C30.0134 61.3144 30.1068 61.3389 31.0374 62.1663C34.7256 65.4439 43.7234 65.8033 47.1033 62.8078C47.5331 62.427 47.9966 62.2277 48.1336 62.3643C48.5891 62.8202 45.2799 64.9937 43.1576 65.6321C40.4307 66.4528 38.2643 66.4279 35.5294 65.5449Z" fill="black"/>
<path d="M5 1H6.01471V0H5V1ZM8.04412 1H10.0735V0H8.04412V1ZM12.1029 1H14.1324V0H12.1029V1ZM16.1618 1H18.1912V0H16.1618V1ZM20.2206 1H22.25V0H20.2206V1ZM24.2794 1H26.3088V0H24.2794V1ZM28.3382 1H30.3676V0H28.3382V1ZM32.3971 1H34.4265V0H32.3971V1ZM36.4559 1H38.4853V0H36.4559V1ZM40.5147 1H42.5441V0H40.5147V1ZM44.5735 1H46.6029V0H44.5735V1ZM48.6323 1H50.6618V0H48.6323V1ZM52.6912 1H54.7206V0H52.6912V1ZM56.75 1H58.7794V0H56.75V1ZM60.8088 1H62.8382V0H60.8088V1ZM64.8676 1H66.897V0H64.8676V1ZM68.9265 1H70.9559V0H68.9265V1ZM72.9853 1H74V0H72.9853V1Z" fill="black"/>
</svg>
