<svg width="80" height="79" viewBox="0 0 80 79" fill="none" xmlns="http://www.w3.org/2000/svg">
<path d="M0 18.6981C0 13.6454 0.958743 3.2713 1.58713 1.52082C1.69953 1.20821 2.12133 0.952034 2.52449 0.952034C3.08098 0.952034 3.19747 1.25326 3.00863 2.20336C1.88199 7.87162 1.65994 10.4694 1.6381 18.243C1.60442 30.1515 2.73653 37.5885 5.99042 46.8328C8.85754 54.9786 12.3376 60.8803 17.5253 66.3948C24.161 73.4486 30.2961 76.4755 38.6772 76.8299C47.9106 77.2203 54.2423 74.6017 61.4627 67.4054C63.8588 65.017 66.5708 61.8837 67.489 60.4426C73.1031 51.6278 76.6628 41.0881 78.0525 29.1637C78.791 22.8261 78.5625 10.9453 77.597 5.48591C76.7474 0.679929 76.7379 0.952034 77.754 0.952034C78.4688 0.952034 78.7009 1.53037 79.1686 4.47849C80.0186 9.8305 80.2757 22.0084 79.6632 27.8787C77.0978 52.4551 65.6703 71.0138 49.5096 76.8504C46.5355 77.9243 45.5372 78.0512 40.0423 78.0512C34.5474 78.0512 33.5491 77.9243 30.575 76.8504C12.2316 70.2257 0 46.9615 0 18.6981Z" fill="black"/>
<path d="M9.78306 10.2428C11.2405 9.09564 14.1368 7.68824 16.836 6.8155C22.3045 5.04727 28.9251 6.08519 32.1567 9.21759C34.3545 11.3476 34.1452 12.1607 31.7381 10.8443C24.9473 7.12992 18.5264 6.82824 11.3757 9.88784C9.8454 10.5426 9.22656 10.6805 9.78306 10.2428Z" fill="black"/>
<path d="M48.5381 10.159C49.5683 8.77712 51.574 7.48576 54.083 6.58935C56.5889 5.69432 61.7925 5.81809 65.1347 6.85191C67.7821 7.67141 73.6696 10.9239 72.5539 10.9508C72.2914 10.9571 71.8818 10.7715 71.6439 10.5381C71.4063 10.3046 69.6399 9.58798 67.7188 8.94548C61.8067 6.96839 55.5437 7.60725 50.1016 10.7424C47.7623 12.0902 47.2431 11.8963 48.5381 10.159Z" fill="black"/>
<path d="M50.1025 23.2483C52.0509 20.0031 54.9967 17.6715 58.4709 16.6254C59.4719 16.3237 60.4934 16.1977 60.7414 16.3447C60.989 16.4912 60.4275 16.7706 59.4933 16.9644C58.5591 17.1587 57.0257 17.8103 56.0851 18.4132C54.0626 19.7096 51.0153 22.7933 51.7569 22.7933C52.0413 22.7933 52.4031 22.5844 52.561 22.3296C53.2526 21.2103 57.6755 19.4757 60.3947 19.2577C64.024 18.9661 66.558 19.8866 68.8837 22.341C70.4521 23.9959 70.5163 24.1584 69.6035 24.1584C69.0525 24.1584 67.8726 24.7981 66.9821 25.5803C66.0912 26.3625 64.631 27.3108 63.7369 27.688C61.5459 28.6117 57.2632 28.4647 53.9206 27.3513C52.419 26.8508 51.8047 26.5445 52.5555 26.6706C59.886 27.9 63.6158 27.293 66.4038 24.4168L67.9063 22.8665L65.9883 21.8882C64.9336 21.3499 63.7897 21.0173 63.4466 21.1493C63.1035 21.2808 62.7017 21.1925 62.5538 20.9532C62.4059 20.7138 61.995 20.5182 61.6406 20.5182C61.14 20.5182 61.0932 20.7739 61.4317 21.6639C61.7793 22.579 61.6856 22.9912 60.9653 23.7115C60.4693 24.2075 59.8733 24.6134 59.6407 24.6134C58.7484 24.6134 57.7155 23.074 57.9134 22.0389C58.0254 21.4528 58.0491 20.9732 57.9658 20.9732C57.23 20.9732 52.196 23.5782 50.8492 24.6557C48.9267 26.1942 48.6487 25.67 50.1025 23.2483Z" fill="black"/>
<path d="M18.9878 16.6978C18.8367 16.8488 18.444 16.8652 18.1159 16.7337C17.7528 16.5886 17.8607 16.4807 18.3908 16.4589C18.8704 16.4393 19.1389 16.5467 18.9878 16.6978Z" fill="black"/>
<path d="M30.5359 22.4302C29.4447 20.3917 25.345 17.535 22.5238 16.8484L21.1587 16.5162L22.4282 16.4693C25.2226 16.367 30.5313 20.2911 32.3446 23.7989C32.8242 24.7276 33.2169 25.5776 33.2169 25.6886C33.2169 25.7992 31.8445 24.9883 30.1669 23.8867C28.4892 22.7846 26.9535 21.8832 26.7542 21.8832C26.5549 21.8832 26.3915 22.4042 26.3915 23.0413C26.3915 24.7695 24.4941 26.4335 22.5238 26.4335C20.3388 26.4335 18.6383 24.7722 18.7025 22.7L18.7493 21.2007L19.1211 22.7824C19.5475 24.5938 21.0168 25.9785 22.5129 25.9785C24.146 25.9785 25.9365 24.2953 25.9365 22.7601C25.9365 22.0275 25.8509 21.4282 25.7463 21.4282C25.6416 21.4282 25.1966 21.2903 24.7571 21.1215C24.1237 20.8785 24.024 20.9859 24.2752 21.6407C24.6483 22.6131 23.4844 24.6134 22.5456 24.6134C21.3271 24.6134 20.4107 23.2178 20.716 21.8268C21.0486 20.312 20.9521 20.2906 17.883 21.2021C14.7183 22.1422 14.1154 22.943 15.4795 24.395C16.0583 25.0111 17.4416 25.9557 18.5528 26.4936C20.3228 27.3504 21.0622 27.4373 24.5063 27.1929C26.6695 27.0396 28.951 26.8084 29.5767 26.6788C30.2024 26.5495 29.4857 26.8612 27.9841 27.3713C24.621 28.5139 20.2004 28.5971 18.0131 27.5592C17.1427 27.1461 15.7739 26.1368 14.9717 25.3164C13.952 24.2735 13.2258 23.8935 12.5583 24.0533C11.8047 24.2339 11.9799 23.8881 13.3873 22.4152C15.702 19.9926 17.5467 19.1526 20.5449 19.1558C23.8638 19.159 25.9033 19.7974 28.6648 21.6971C30.3603 22.8634 30.8758 23.0654 30.5359 22.4302Z" fill="black"/>
<path d="M64.4904 16.6978C64.3393 16.8488 63.9466 16.8652 63.6186 16.7337C63.2555 16.5886 63.3633 16.4807 63.8934 16.4589C64.373 16.4393 64.6415 16.5467 64.4904 16.6978Z" fill="black"/>
<path d="M59.5224 26.4335C57.6327 26.4335 55.955 25.1922 55.9864 23.8171C55.9996 23.2479 56.1971 23.3757 56.6803 24.2662C57.9053 26.5236 61.4981 26.4544 62.6635 24.1506C63.0693 23.3484 63.2372 23.2465 63.2418 23.7994C63.2532 25.1326 61.4162 26.4335 59.5224 26.4335Z" fill="black"/>
<path d="M48.3574 45.1178C47.9406 46.7117 47.5075 46.441 47.5293 44.6C47.5461 43.1416 47.6476 42.9387 48.0708 43.5138C48.3575 43.9033 48.4862 44.625 48.3574 45.1178Z" fill="black"/>
<path d="M33.8134 45.7316C33.1591 44.8366 33.0508 44.0421 33.5204 43.573C33.9873 43.1061 34.0146 43.158 34.2189 44.9085C34.3872 46.3504 34.3385 46.4492 33.8134 45.7316Z" fill="black"/>
<path d="M37.1383 46.4546C36.7629 46.4546 36.3293 46.2499 36.1746 45.9996C36.0199 45.7494 36.2005 45.5446 36.5759 45.5446C36.9513 45.5446 37.3849 45.7494 37.5397 45.9996C37.6944 46.2499 37.5137 46.4546 37.1383 46.4546Z" fill="black"/>
<path d="M44.7664 46.4546C44.391 46.4546 44.2103 46.2499 44.365 45.9996C44.5198 45.7494 44.9534 45.5446 45.3288 45.5446C45.7042 45.5446 45.8848 45.7494 45.7301 45.9996C45.5754 46.2499 45.1418 46.4546 44.7664 46.4546Z" fill="black"/>
<path d="M40.9524 48.7298C40.2971 48.7298 39.3639 48.429 38.8779 48.0609C38.0793 47.4562 38.1367 47.4439 39.4735 47.933C40.6161 48.3512 41.2886 48.3512 42.4312 47.933C43.7681 47.4439 43.8254 47.4562 43.0268 48.0609C42.5408 48.429 41.6076 48.7298 40.9524 48.7298Z" fill="black"/>
<path d="M29.1472 55.9888C28.4182 55.967 31.5884 54.5741 34.8095 53.5007C36.707 52.8687 37.6061 52.9661 39.701 54.0317C40.7813 54.5814 41.1303 54.5764 42.256 53.9944C44.5439 52.8114 45.6764 52.8787 49.6211 54.4344C54.1372 56.2154 53.5588 56.4593 48.4348 54.9345L44.8201 53.8588L42.8862 54.7976L40.9524 55.7367L39.0185 54.7976L37.0846 53.8588L33.4699 54.9345C31.4819 55.526 29.5367 56.0006 29.1472 55.9888Z" fill="black"/>
<path d="M45.7301 58.5256C41.3095 60.3034 39.3325 60.2943 35.4074 58.4783C34.3422 57.9855 34.2334 57.8599 35.037 58.0505C40.3026 59.3023 40.9059 59.3583 43.0741 58.8018C46.789 57.848 47.6326 57.7602 45.7301 58.5256Z" fill="black"/>
<path d="M36.1746 63.7688C40.2853 65.103 46.9501 64.0323 49.1569 61.683C50.4724 60.2829 50.8301 60.2383 49.9482 61.5843C47.8323 64.8127 41.6544 66.4867 36.8935 65.1212C35.0552 64.5938 32.0247 62.5771 31.6657 61.6425C31.511 61.2385 31.9851 61.4086 32.8834 62.0793C33.6924 62.6836 35.1735 63.444 36.1746 63.7688Z" fill="black"/>
</svg>
