<svg width="58" height="41" viewBox="0 0 58 41" fill="none" xmlns="http://www.w3.org/2000/svg">
<path d="M14.8271 11.3158L14.8271 11.3158C19.2138 16.3081 23.0223 20.6428 24.5603 22.3937C24.8165 22.098 25.1326 21.7256 25.4986 21.2882C26.5293 20.0563 27.9364 18.3322 29.4701 16.4142C31.0081 14.4908 32.4286 12.7281 33.4785 11.4373C34.0031 10.7923 34.4368 10.2631 34.7469 9.89002C34.9015 9.70408 35.0283 9.55334 35.1215 9.44526C35.1675 9.39202 35.21 9.34352 35.2458 9.30445C35.2631 9.28561 35.2853 9.26186 35.3091 9.23823C35.3207 9.22663 35.3391 9.20872 35.3616 9.18874L35.3625 9.18802C35.3765 9.17555 35.4307 9.12755 35.5071 9.08047L14.8271 11.3158ZM14.8271 11.3158C11.9891 8.08617 9.40957 5.13694 7.53999 2.98725C6.8898 2.23965 6.32601 1.58937 5.86734 1.05793M14.8271 11.3158L5.86734 1.05793M5.86734 1.05793L6.59678 1.08302L14.9747 10.6028C17.3585 13.3116 19.546 15.7751 21.1503 17.5623C21.9521 18.4555 22.6103 19.1822 23.0753 19.6868C23.307 19.9383 23.495 20.1393 23.6303 20.2795C23.6967 20.3482 23.7584 20.4107 23.8097 20.4595C23.8333 20.482 23.8687 20.515 23.9083 20.5473C23.926 20.5618 23.9648 20.5929 24.016 20.6256C24.041 20.6416 24.0889 20.6708 24.1527 20.6991C24.196 20.7183 24.3504 20.7859 24.5613 20.7859C24.797 20.7859 24.9674 20.702 25.0112 20.6804C25.0791 20.6468 25.1301 20.6122 25.157 20.5931C25.2124 20.5538 25.2563 20.515 25.2801 20.4934C25.3321 20.4462 25.3848 20.3923 25.4303 20.3443C25.5253 20.2441 25.6474 20.1074 25.7874 19.9465C26.0701 19.6218 26.4565 19.1634 26.9081 18.6195C27.8127 17.5299 28.995 16.078 30.1664 14.6224C31.3378 13.1668 32.5016 11.7034 33.3693 10.5907C33.8023 10.0353 34.1655 9.56225 34.4199 9.21964C34.5458 9.05006 34.6523 8.90269 34.7288 8.78961C34.7651 8.73589 34.8068 8.67216 34.8421 8.60984C34.8578 8.58216 34.8886 8.52637 34.9164 8.4571C34.9296 8.42421 34.9553 8.35644 34.9728 8.26814L34.973 8.26726C34.9837 8.2131 35.0314 7.97305 34.9202 7.69552C34.92 7.69504 34.9198 7.69456 34.9196 7.69408L33.9919 8.06735L5.86734 1.05793ZM42.0963 16.9757L41.3155 16.351L36.4323 22.4544L34.7658 20.5616C34.7658 20.5615 34.7658 20.5615 34.7658 20.5615C34.4721 20.2279 34.2086 19.9301 33.9721 19.6628C33.5412 19.1757 33.2 18.7899 32.9282 18.4729C32.6471 18.1449 32.4749 17.9289 32.3711 17.7843C32.4301 17.7148 32.5029 17.6282 32.5726 17.5403L31.789 16.919L32.5726 17.5403C32.6142 17.4878 32.6556 17.4363 32.6964 17.3864C33.0035 17.704 33.3845 18.1172 33.788 18.5746C34.2766 19.1284 34.7417 19.6311 35.0998 19.9961C35.2767 20.1765 35.4388 20.3349 35.5696 20.4513C35.6316 20.5065 35.7083 20.5717 35.7874 20.6275C35.8233 20.6528 35.8934 20.7004 35.9838 20.7422C36.0286 20.763 36.1105 20.7976 36.2175 20.8195C36.3121 20.8389 36.5285 20.8701 36.7795 20.7758L36.4278 19.8397L36.7796 20.7758C36.9207 20.7227 37.0179 20.648 37.0372 20.6332L37.0391 20.6318C37.0737 20.6054 37.1003 20.5817 37.1148 20.5685C37.1449 20.5411 37.1705 20.5149 37.1866 20.4981C37.221 20.4622 37.2591 20.42 37.2962 20.3779C37.3724 20.2914 37.4744 20.172 37.5961 20.027C37.8411 19.7352 38.183 19.3204 38.5957 18.8147C39.4219 17.8022 40.5401 16.4151 41.7514 14.8972C42.9608 13.3817 44.0915 11.9683 44.9389 10.9119C45.3627 10.3836 45.7152 9.94512 45.9712 9.62802C46.0992 9.46937 46.2024 9.34187 46.2781 9.24902C46.316 9.20251 46.3461 9.16563 46.3687 9.1383C46.3939 9.10776 46.4028 9.09732 46.4021 9.09818L42.0963 16.9757ZM42.0963 16.9757L41.3155 16.351C42.8643 14.4153 44.2883 12.649 45.3354 11.3622C45.8586 10.7193 46.2893 10.194 46.5949 9.8266C46.7472 9.64359 46.8716 9.49585 46.9622 9.39114C47.0065 9.33985 47.0485 9.29216 47.084 9.25378C47.1006 9.23586 47.125 9.20999 47.1521 9.18374C47.1648 9.17149 47.1896 9.14797 47.2217 9.12168C47.2377 9.10855 47.2652 9.08675 47.301 9.06266C47.3278 9.04466 47.4048 8.99395 47.5143 8.95346C47.7956 8.84944 48.0373 8.90217 48.0943 8.91462L48.0949 8.91475C48.1873 8.93491 48.2611 8.96371 48.3025 8.98113C48.389 9.01744 48.4673 9.06108 48.5234 9.09406C48.6425 9.16397 48.7798 9.25644 48.9194 9.35574C49.204 9.55817 49.5636 9.83601 49.9342 10.142L49.9343 10.1421L50.078 10.2607M42.0963 16.9757L50.078 10.2607M50.078 10.2607L51.4516 5.76414C51.8963 4.30854 52.3002 2.96841 52.6085 1.92999C51.6489 2.39842 50.416 3.00676 49.0785 3.673C47.5727 4.4232 46.2079 5.12025 45.2231 5.6384C45.0715 5.71816 44.9296 5.79337 44.7979 5.86362L50.078 10.2607ZM56.3605 39.5161C55.6945 37.9966 54.5583 36.4435 52.9261 34.8923C49.0653 31.2233 42.7523 28.4964 35.4779 27.4743C32.818 27.1005 27.1242 26.949 24.6966 27.1837C13.1832 28.2968 4.52155 33.0671 1.49868 39.4229L56.3605 39.5161ZM56.3605 39.5161C55.7513 39.3589 55.0169 39.1715 54.271 38.9831L54.2709 38.9831C39.2439 35.1876 18.7452 35.1886 3.51148 38.9827C3.51146 38.9827 3.51144 38.9827 3.51142 38.9827L3.7531 39.953C2.66882 40.223 1.64691 40.487 1.00437 40.6614C1.01647 40.602 1.04881 40.4825 1.12309 40.2852C1.20086 40.0787 1.31171 39.8203 1.45959 39.5056C1.3804 39.5263 1.30359 39.5465 1.22941 39.5661C0.917699 39.6484 0.64973 39.7208 0.445766 39.7779L56.3605 39.5161ZM33.0203 5.8536L37.1806 3.76384L37.1807 3.76382C38.5548 3.07352 39.8182 2.45162 40.7893 1.98484C40.4864 3.01727 40.0907 4.32887 39.6869 5.64351C39.254 7.05318 38.8131 8.4619 38.469 9.5292C38.3866 9.78464 38.3102 10.0194 38.2409 10.2292C38.1854 10.1834 38.128 10.1351 38.0692 10.0844C38.0692 10.0844 38.0692 10.0844 38.0692 10.0844L33.0203 5.8536ZM22.5164 6.62538C20.5276 4.3554 18.6932 2.26391 17.583 1H18.33L23.3582 6.71079L23.3582 6.71082L28.1355 12.1363L27.8363 12.5173L27.8363 12.5173C27.811 12.5495 27.7867 12.5802 27.7633 12.6096C27.4566 12.2605 27.0397 11.7854 26.5397 11.2154C25.484 10.0117 24.0579 8.38487 22.5164 6.62541L22.5164 6.62538Z" stroke="black" stroke-width="2"/>
</svg>
