<svg width="70" height="70" viewBox="0 0 70 70" fill="none" xmlns="http://www.w3.org/2000/svg">
<path d="M8.17161 12.9533L11.773 19.2554C11.8332 19.3608 11.914 19.4529 12.0107 19.5262C12.1074 19.5995 12.2179 19.6525 12.3356 19.682L15.6955 20.5221L27.2192 32.0457L28.4925 30.7728L16.7884 19.0691C16.6733 18.9536 16.5288 18.8717 16.3707 18.8321L13.1423 18.0221L10.0761 12.6534L12.7048 10.0245L18.0758 13.0938L18.8861 16.3221C18.9255 16.4805 19.0073 16.6252 19.1228 16.7406L30.8269 28.4448L32.0998 27.1714L20.5761 15.6477L19.7361 12.2897C19.7066 12.1718 19.6536 12.0611 19.5803 11.9643C19.507 11.8674 19.4149 11.7864 19.3094 11.726L13.007 8.12496C12.8359 8.02767 12.6376 7.98916 12.4425 8.0153C12.2474 8.04145 12.0662 8.13082 11.9267 8.26974L8.32577 11.8712C8.18491 12.0096 8.0935 12.1906 8.06564 12.3862C8.03778 12.5817 8.07502 12.781 8.17161 12.9533ZM45.602 25.7434L25.7955 45.55L24.5222 44.2767L44.3291 24.4705L45.602 25.7434ZM22.329 46.2508C22.249 46.1176 22.1358 46.0074 22.0006 45.9308C21.8653 45.8543 21.7126 45.8141 21.5571 45.8142H16.1554C16.0001 45.8142 15.8474 45.8544 15.7122 45.9309C15.577 46.0074 15.464 46.1176 15.384 46.2508L12.6829 50.7522C12.5988 50.8922 12.5544 51.0525 12.5544 51.2159C12.5544 51.3792 12.5988 51.5395 12.6829 51.6795L15.384 56.1809C15.464 56.3141 15.5771 56.4242 15.7123 56.5007C15.8474 56.5772 16.0001 56.6175 16.1554 56.6175H21.5571C21.7125 56.6175 21.8652 56.5773 22.0005 56.5008C22.1357 56.4243 22.2488 56.3141 22.3289 56.1809L25.0296 51.6795C25.1138 51.5395 25.1582 51.3792 25.1582 51.2159C25.1582 51.0525 25.1138 50.8922 25.0296 50.7522L22.329 46.2508ZM21.0479 54.8169H16.665L14.5044 51.216L16.6651 47.6146H21.0479L23.2086 51.216L21.0479 54.8169Z" fill="url(#paint0_linear_1913_4105)"/>
<path d="M51.2661 29.6089C57.2121 29.6289 62.049 24.8247 62.0689 18.8785C62.0719 17.9735 61.9608 17.0717 61.7383 16.1945C61.6183 15.712 61.1298 15.4182 60.6472 15.5383C60.4889 15.5779 60.3443 15.6597 60.2287 15.7749L54.6244 21.3754L50.1779 19.8936L48.695 15.4483L54.2993 9.84291C54.4121 9.73001 54.4929 9.58914 54.5334 9.43473C54.5739 9.28032 54.5726 9.11792 54.5296 8.96419C54.4866 8.81045 54.4036 8.6709 54.2889 8.55985C54.1742 8.44879 54.0321 8.37022 53.8771 8.33218C48.1106 6.87189 42.2526 10.3625 40.7923 16.1286C40.5704 17.0034 40.4597 17.9026 40.4626 18.8051C40.4649 19.514 40.5378 20.2206 40.6815 20.9147L20.9648 40.6313C20.2708 40.4881 19.5642 40.4148 18.8556 40.4123C12.8887 40.4123 8.05176 45.2492 8.05176 51.2161C8.05176 57.1827 12.8887 62.0195 18.8556 62.0195C24.8221 62.0195 29.6589 57.1826 29.6589 51.2161C29.6567 50.5074 29.5833 49.8007 29.44 49.1066L34.1603 44.3863L36.2246 46.4507C36.3935 46.6195 36.6225 46.7143 36.8613 46.7143C37.1001 46.7143 37.3291 46.6195 37.498 46.4507L37.9479 46.0004C38.3427 45.6081 38.9808 45.6081 39.3756 46.0004C39.77 46.3936 39.7708 47.0322 39.3775 47.4266L39.3756 47.4285L38.9256 47.8784C38.5742 48.2299 38.5742 48.8 38.9256 49.1513L49.6653 59.891C52.4901 62.7416 57.0906 62.7623 59.9412 59.9376C62.7916 57.1129 62.8123 52.5119 59.9876 49.6616C59.9724 49.6461 59.9569 49.6305 59.9412 49.615L49.2017 38.8756C48.8503 38.5242 48.2802 38.5242 47.9288 38.8756L47.4788 39.3256C47.0836 39.7182 46.4459 39.7182 46.0507 39.3256C45.6566 38.9323 45.6556 38.2939 46.0488 37.8997C46.0496 37.8991 46.0504 37.8987 46.0507 37.8978L46.5011 37.4475C46.8526 37.0961 46.8526 36.5261 46.5011 36.1746L44.4367 34.1103L49.1569 29.39C49.8509 29.5334 50.5575 29.6067 51.2662 29.609L51.2661 29.6089ZM54.8033 60.2191C54.1493 60.2181 53.5008 60.0998 52.8886 59.8698L59.9198 52.8382C60.9809 55.6607 59.5532 58.8088 56.7306 59.8698C56.1145 60.1014 55.4615 60.2198 54.8033 60.2191ZM44.604 36.8202C43.607 38.0094 43.7633 39.7819 44.9525 40.7786C45.9976 41.6545 47.521 41.6537 48.565 40.7759L58.6684 50.8883C58.778 50.9983 58.8806 51.1141 58.9799 51.232L51.2823 58.9295C51.163 58.8308 51.0482 58.7269 50.9382 58.618L40.8271 48.5061C41.8241 47.3169 41.6678 45.5443 40.4786 44.5477C39.4334 43.6714 37.9097 43.6726 36.8657 44.5499L35.4254 43.1096L43.1633 35.3831L44.604 36.8202ZM48.2395 27.7653L27.816 48.1846C27.7059 48.2946 27.6261 48.4312 27.5845 48.5811C27.5428 48.731 27.5406 48.8891 27.5782 49.0401C28.8133 53.8907 25.8823 58.8243 21.0313 60.0592C16.1807 61.2942 11.2472 58.3632 10.012 53.5122C8.77726 48.6616 11.7082 43.7281 16.5592 42.493C18.0265 42.1197 19.564 42.1197 21.0313 42.493C21.1823 42.5299 21.3403 42.5275 21.49 42.4859C21.6398 42.4444 21.7764 42.365 21.8868 42.2556L42.3055 21.8359C42.4155 21.7259 42.4951 21.5893 42.5366 21.4395C42.578 21.2896 42.58 21.1315 42.5421 20.9806C41.3155 16.1868 44.2072 11.3061 49.0012 10.0792C49.9072 9.84749 50.844 9.759 51.7774 9.81693L47.0283 14.568C46.91 14.686 46.827 14.8347 46.7886 14.9973C46.7501 15.1599 46.7577 15.33 46.8105 15.4886L48.6109 20.8907C48.6552 21.0232 48.7298 21.1436 48.8287 21.2423C48.9276 21.341 49.0482 21.4154 49.1808 21.4595L54.5829 23.2602C54.7413 23.313 54.9114 23.3207 55.074 23.2823C55.2365 23.244 55.3853 23.1612 55.5035 23.0432L60.2526 18.2941C60.2634 18.4642 60.2689 18.6346 60.269 18.8051C60.2941 23.7521 56.3046 27.7826 51.3577 27.8082C50.593 27.812 49.8309 27.7179 49.09 27.5283C48.9391 27.4905 48.781 27.4925 48.6311 27.5339C48.4812 27.5754 48.3446 27.655 48.2345 27.7649H48.2393L48.2395 27.7653Z" fill="url(#paint1_linear_1913_4105)"/>
<path d="M54.6045 53.281L53.3312 54.5543L44.3286 45.5516L45.6015 44.2783L54.6045 53.281Z" fill="url(#paint2_linear_1913_4105)"/>
<defs>
<linearGradient id="paint0_linear_1913_4105" x1="4.15445" y1="-9.59291" x2="52.7916" y2="-9.50952" gradientUnits="userSpaceOnUse">
<stop stop-color="#BF8327"/>
<stop offset="0.485" stop-color="#F4DC60"/>
<stop offset="1" stop-color="#BF8327"/>
</linearGradient>
<linearGradient id="paint1_linear_1913_4105" x1="2.43515" y1="-11.5671" x2="72.4408" y2="-11.4117" gradientUnits="userSpaceOnUse">
<stop stop-color="#BF8327"/>
<stop offset="0.485" stop-color="#F4DC60"/>
<stop offset="1" stop-color="#BF8327"/>
</linearGradient>
<linearGradient id="paint2_linear_1913_4105" x1="43.2606" y1="40.5577" x2="56.5722" y2="40.5873" gradientUnits="userSpaceOnUse">
<stop stop-color="#BF8327"/>
<stop offset="0.485" stop-color="#F4DC60"/>
<stop offset="1" stop-color="#BF8327"/>
</linearGradient>
</defs>
</svg>
