<svg width="54" height="55" viewBox="0 0 54 55" fill="none" xmlns="http://www.w3.org/2000/svg">
<path d="M3.01606 7.25868C3.01606 7.00575 3.63867 6.22749 4.78661 5.07955C5.75943 4.08727 6.7128 3.28955 6.88791 3.28955C7.06302 3.28955 7.99693 3.73705 8.96976 4.28183C9.94259 4.84607 11.11 5.50759 11.5964 5.77999C12.0828 6.05238 12.6665 6.46096 12.9194 6.67499C13.1529 6.90846 13.4058 7.33651 13.4642 7.66727C13.5226 7.97857 13.7172 8.67901 13.8728 9.22379C14.1452 10.0993 14.69 10.7025 19.165 15.2164C23.4649 19.5357 24.1069 20.2556 23.9318 20.5669C23.8151 20.7421 23.5622 20.9755 23.387 21.0923C23.1341 21.2479 22.1224 20.3335 12.5887 10.7803L12.1995 9.32107C11.9855 8.5039 11.6548 7.7451 11.4602 7.6089C11.2656 7.4727 10.2733 6.86955 9.26161 6.28586C8.24987 5.70216 7.27704 5.21575 7.10193 5.2352C6.92683 5.2352 6.30422 5.72162 4.68933 7.35596L5.93454 9.55455C6.61552 10.7609 7.23813 11.831 7.31596 11.9477C7.39378 12.045 8.11367 12.2979 10.3317 12.8622L15.5461 18.0376C18.4062 20.8977 20.741 23.3687 20.741 23.5243C20.741 23.68 20.6437 23.9329 20.5075 24.0497C20.3713 24.1859 20.1378 24.3026 19.9627 24.3026C19.807 24.3026 17.4333 22.0651 9.74802 14.3798L8.1915 13.9906C7.33541 13.7766 6.5377 13.5042 6.4015 13.368C6.28476 13.2318 5.46759 11.8893 4.6115 10.3912C3.73596 8.89303 3.03552 7.49216 3.01606 7.25868Z" fill="url(#paint0_linear_1937_2501)"/>
<path d="M36.598 4.55422C37.1234 4.24292 38.0962 3.83433 38.7382 3.65922C39.3803 3.46466 40.5088 3.30901 41.2676 3.30901C42.0264 3.28955 42.9409 3.38683 43.3105 3.48412C43.6802 3.60086 44.0499 3.79542 44.1277 3.93162C44.2055 4.04836 44.2834 4.26238 44.2639 4.35966C44.2639 4.45694 43.1354 5.6827 41.754 7.08357C40.3726 8.48444 39.2441 9.74912 39.2247 9.90477C39.2247 10.0604 39.497 10.9749 39.8084 11.9477C40.1391 12.9205 40.431 13.7182 40.4504 13.7377C40.4699 13.7572 41.3454 14.0879 44.2834 15.158L46.9489 12.5314C48.4276 11.0916 49.7117 9.90477 49.8285 9.90477C49.9452 9.90477 50.1981 10.0215 50.4122 10.1772C50.7429 10.4106 50.8207 10.7219 50.8791 12.3757C50.918 13.7377 50.8597 14.5938 50.6262 15.3915C50.4511 16.0141 50.0814 16.9286 49.809 17.4344C49.5172 17.9598 48.7973 18.8742 48.1941 19.4968C47.591 20.1194 46.7154 20.8393 46.229 21.1117C45.7426 21.3841 44.8281 21.7927 44.1861 22.0067C43.3494 22.2791 42.5128 22.3764 39.3219 22.3764L37.4152 24.2637C36.384 25.2949 35.5279 26.2872 35.5279 26.4428C35.5279 26.5985 35.917 27.1238 36.4035 27.6102C36.8899 28.0966 37.279 28.6609 37.279 28.8749C37.279 29.0889 37.1039 29.478 36.8899 29.7504C36.6759 30.0228 36.5007 30.373 36.5007 30.5287C36.5007 30.6843 36.598 30.9373 36.7342 31.0735C36.8704 31.2097 37.1428 31.3069 37.3179 31.3069C37.5125 31.3069 37.9016 31.1318 38.1935 30.9178C38.5048 30.6843 38.8744 30.5092 39.0301 30.5287C39.1857 30.5287 41.6956 32.9218 44.6141 35.8209C48.9335 40.1597 50.0036 41.3271 50.3927 42.2026C50.7818 43.0392 50.8986 43.584 50.8986 44.7319C50.8986 45.6269 50.7624 46.5609 50.5678 47.164C50.3538 47.7477 49.8479 48.5454 49.2448 49.1875C48.7194 49.7517 47.9606 50.3743 47.591 50.5689C47.2213 50.7635 46.3847 51.0164 45.7426 51.1526C45.1005 51.2888 44.1861 51.3277 43.6997 51.2499C43.2132 51.1915 42.3377 50.8997 41.754 50.6467C40.8785 50.2381 39.7694 49.2459 35.489 44.9654C31.7534 41.2492 30.2747 39.6538 30.2747 39.3425C30.2747 39.0896 30.4498 38.6615 30.6832 38.3697C30.9362 38.0194 31.0529 37.6692 30.9751 37.3968C30.9167 37.1439 30.7027 36.9104 30.5081 36.8521C30.333 36.7937 29.8466 36.9299 29.438 37.1439C29.0489 37.3579 28.5819 37.533 28.4263 37.533C28.2706 37.533 27.7259 37.1439 27.2005 36.6575C26.6947 36.1905 26.2277 35.8014 26.1693 35.7819C26.111 35.7819 25.177 36.638 22.1029 39.576V41.0352C22.1029 41.8329 22.0251 42.9809 21.9083 43.5646C21.7916 44.1483 21.4414 45.1795 21.1301 45.8604C20.7993 46.5219 20.0794 47.5531 19.5152 48.1563C18.9704 48.74 18.1143 49.4988 17.6279 49.7906C17.1415 50.102 16.266 50.53 15.6823 50.7246C15.0986 50.9386 14.1257 51.1526 13.542 51.2304C12.9583 51.3083 11.8493 51.2693 11.11 51.1526C10.2733 51.0164 9.18378 50.6662 8.28878 50.2187C7.49107 49.8296 6.44041 49.1097 5.93454 48.6233C5.44813 48.1368 4.76715 47.3002 4.41693 46.7749C4.08617 46.2301 3.61922 45.2378 3.40519 44.5374C3.19117 43.8369 2.99661 42.6696 2.99661 41.9108C2.97715 41.1714 3.07443 40.0624 3.23009 39.4787C3.36628 38.895 3.73596 37.9222 4.0278 37.3385C4.31965 36.7548 5.059 35.743 5.68161 35.0815C6.32367 34.4394 7.21867 33.7001 7.70509 33.4277C8.1915 33.1553 9.06704 32.7662 9.65074 32.5716C10.3901 32.3187 11.3045 32.2019 14.5149 32.1825L31.8506 14.8662L31.909 12.726C31.9479 11.15 32.0647 10.3523 32.337 9.7102C32.5511 9.22379 32.9207 8.44553 33.1737 7.95912C33.4461 7.4727 34.0881 6.63607 34.6329 6.11075C35.1777 5.56596 36.0727 4.86553 36.598 4.55422Z" fill="url(#paint1_linear_1937_2501)"/>
<path d="M3.01606 7.25868C3.01606 7.00575 3.63867 6.22749 4.78661 5.07955C5.75943 4.08727 6.7128 3.28955 6.88791 3.28955C7.06302 3.28955 7.99693 3.73705 8.96976 4.28183C9.94259 4.84607 11.11 5.50759 11.5964 5.77999C12.0828 6.05238 12.6665 6.46096 12.9194 6.67499C13.1529 6.90846 13.4058 7.33651 13.4642 7.66727C13.5226 7.97857 13.7172 8.67901 13.8728 9.22379C14.1452 10.0993 14.69 10.7025 19.165 15.2164C23.4649 19.5357 24.1069 20.2556 23.9318 20.5669C23.8151 20.7421 23.5622 20.9755 23.387 21.0923C23.1341 21.2479 22.1224 20.3335 12.5887 10.7803L12.1995 9.32107C11.9855 8.5039 11.6548 7.7451 11.4602 7.6089C11.2656 7.4727 10.2733 6.86955 9.26161 6.28586C8.24987 5.70216 7.27704 5.21575 7.10193 5.2352C6.92683 5.2352 6.30422 5.72162 4.68933 7.35596L5.93454 9.55455C6.61552 10.7609 7.23813 11.831 7.31596 11.9477C7.39378 12.045 8.11367 12.2979 10.3317 12.8622L15.5461 18.0376C18.4062 20.8977 20.741 23.3687 20.741 23.5243C20.741 23.68 20.6437 23.9329 20.5075 24.0497C20.3713 24.1859 20.1378 24.3026 19.9627 24.3026C19.807 24.3026 17.4333 22.0651 9.74802 14.3798L8.1915 13.9906C7.33541 13.7766 6.5377 13.5042 6.4015 13.368C6.28476 13.2318 5.46759 11.8893 4.6115 10.3912C3.73596 8.89303 3.03552 7.49216 3.01606 7.25868Z" stroke="url(#paint2_linear_1937_2501)" stroke-width="0.194565"/>
<path d="M36.598 4.55422C37.1234 4.24292 38.0962 3.83433 38.7382 3.65922C39.3803 3.46466 40.5088 3.30901 41.2676 3.30901C42.0264 3.28955 42.9409 3.38683 43.3105 3.48412C43.6802 3.60086 44.0499 3.79542 44.1277 3.93162C44.2055 4.04836 44.2834 4.26238 44.2639 4.35966C44.2639 4.45694 43.1354 5.6827 41.754 7.08357C40.3726 8.48444 39.2441 9.74912 39.2247 9.90477C39.2247 10.0604 39.497 10.9749 39.8084 11.9477C40.1391 12.9205 40.431 13.7182 40.4504 13.7377C40.4699 13.7572 41.3454 14.0879 44.2834 15.158L46.9489 12.5314C48.4276 11.0916 49.7117 9.90477 49.8285 9.90477C49.9452 9.90477 50.1981 10.0215 50.4122 10.1772C50.7429 10.4106 50.8207 10.7219 50.8791 12.3757C50.918 13.7377 50.8597 14.5938 50.6262 15.3915C50.4511 16.0141 50.0814 16.9286 49.809 17.4344C49.5172 17.9598 48.7973 18.8742 48.1941 19.4968C47.591 20.1194 46.7154 20.8393 46.229 21.1117C45.7426 21.3841 44.8281 21.7927 44.1861 22.0067C43.3494 22.2791 42.5128 22.3764 39.3219 22.3764L37.4152 24.2637C36.384 25.2949 35.5279 26.2872 35.5279 26.4428C35.5279 26.5985 35.917 27.1238 36.4035 27.6102C36.8899 28.0966 37.279 28.6609 37.279 28.8749C37.279 29.0889 37.1039 29.478 36.8899 29.7504C36.6759 30.0228 36.5007 30.373 36.5007 30.5287C36.5007 30.6843 36.598 30.9373 36.7342 31.0735C36.8704 31.2097 37.1428 31.3069 37.3179 31.3069C37.5125 31.3069 37.9016 31.1318 38.1935 30.9178C38.5048 30.6843 38.8744 30.5092 39.0301 30.5287C39.1857 30.5287 41.6956 32.9218 44.6141 35.8209C48.9335 40.1597 50.0036 41.3271 50.3927 42.2026C50.7818 43.0392 50.8986 43.584 50.8986 44.7319C50.8986 45.6269 50.7624 46.5609 50.5678 47.164C50.3538 47.7477 49.8479 48.5454 49.2448 49.1875C48.7194 49.7517 47.9606 50.3743 47.591 50.5689C47.2213 50.7635 46.3847 51.0164 45.7426 51.1526C45.1005 51.2888 44.1861 51.3277 43.6997 51.2499C43.2132 51.1915 42.3377 50.8997 41.754 50.6467C40.8785 50.2381 39.7694 49.2459 35.489 44.9654C31.7534 41.2492 30.2747 39.6538 30.2747 39.3425C30.2747 39.0896 30.4498 38.6615 30.6832 38.3697C30.9362 38.0194 31.0529 37.6692 30.9751 37.3968C30.9167 37.1439 30.7027 36.9104 30.5081 36.8521C30.333 36.7937 29.8466 36.9299 29.438 37.1439C29.0489 37.3579 28.5819 37.533 28.4263 37.533C28.2706 37.533 27.7259 37.1439 27.2005 36.6575C26.6947 36.1905 26.2277 35.8014 26.1693 35.7819C26.111 35.7819 25.177 36.638 22.1029 39.576V41.0352C22.1029 41.8329 22.0251 42.9809 21.9083 43.5646C21.7916 44.1483 21.4414 45.1795 21.1301 45.8604C20.7993 46.5219 20.0794 47.5531 19.5152 48.1563C18.9704 48.74 18.1143 49.4988 17.6279 49.7906C17.1415 50.102 16.266 50.53 15.6823 50.7246C15.0986 50.9386 14.1257 51.1526 13.542 51.2304C12.9583 51.3083 11.8493 51.2693 11.11 51.1526C10.2733 51.0164 9.18378 50.6662 8.28878 50.2187C7.49107 49.8296 6.44041 49.1097 5.93454 48.6233C5.44813 48.1368 4.76715 47.3002 4.41693 46.7749C4.08617 46.2301 3.61922 45.2378 3.40519 44.5374C3.19117 43.8369 2.99661 42.6696 2.99661 41.9108C2.97715 41.1714 3.07443 40.0624 3.23009 39.4787C3.36628 38.895 3.73596 37.9222 4.0278 37.3385C4.31965 36.7548 5.059 35.743 5.68161 35.0815C6.32367 34.4394 7.21867 33.7001 7.70509 33.4277C8.1915 33.1553 9.06704 32.7662 9.65074 32.5716C10.3901 32.3187 11.3045 32.2019 14.5149 32.1825L31.8506 14.8662L31.909 12.726C31.9479 11.15 32.0647 10.3523 32.337 9.7102C32.5511 9.22379 32.9207 8.44553 33.1737 7.95912C33.4461 7.4727 34.0881 6.63607 34.6329 6.11075C35.1777 5.56596 36.0727 4.86553 36.598 4.55422Z" stroke="url(#paint3_linear_1937_2501)" stroke-width="0.194565"/>
<path fill-rule="evenodd" clip-rule="evenodd" d="M40.5864 4.86557C40.8588 4.84612 41.1896 4.92394 41.3063 5.00177C41.462 5.09905 40.8783 5.81894 39.5163 7.1809C38.2906 8.40666 37.4734 9.37949 37.4734 9.61297C37.4734 9.82699 37.8042 11.0138 38.2322 12.2396C38.6408 13.4654 39.0688 14.6327 39.1467 14.8273C39.2634 15.0608 40.1584 15.4499 41.7538 15.9558C43.0963 16.3838 44.3221 16.7924 44.4777 16.8313C44.6529 16.8702 45.6062 16.0725 46.9098 14.7689C48.0967 13.6016 49.1279 12.6287 49.2446 12.6287C49.3613 12.6287 49.4002 13.0762 49.303 13.835C49.2446 14.516 48.9528 15.5667 48.6804 16.1698C48.3885 16.8313 47.727 17.7458 47.1044 18.3684C46.4623 19.0105 45.5089 19.6914 44.7112 20.0611C43.466 20.6643 43.3104 20.7032 38.8354 20.7032L20.3906 39.1869L20.41 41.4244C20.4489 43.5646 20.4295 43.7203 19.8458 44.9266C19.515 45.627 18.8924 46.5804 18.4838 47.0473C18.0558 47.5143 17.3748 48.1369 16.9468 48.4287C16.5187 48.7206 15.5459 49.1486 14.8065 49.3821C14.0672 49.6156 12.9971 49.7907 12.4718 49.7907C11.927 49.7907 11.0514 49.674 10.5261 49.5183C9.98133 49.3821 9.20307 49.0903 8.77503 48.8762C8.34698 48.6428 7.54927 48.0785 7.02394 47.6116C6.44024 47.0862 5.79818 46.2496 5.40905 45.4908C5.07829 44.8098 4.68916 43.7203 4.57242 43.0782C4.45568 42.4361 4.41677 41.4244 4.49459 40.8407C4.57242 40.257 4.8059 39.3231 5.01992 38.7978C5.23394 38.253 5.68144 37.4358 6.0122 36.9883C6.36242 36.5213 7.12122 35.782 7.70492 35.3345C8.28861 34.9065 9.02796 34.4395 9.35872 34.3033C9.68948 34.1671 10.5067 33.9725 11.2071 33.8558C11.9854 33.7391 12.9193 33.7196 14.8065 33.992L33.5626 15.2554L33.5237 13.2124C33.4848 11.4419 33.5432 11.0138 33.9712 9.94373C34.2631 9.20438 34.8468 8.27046 35.4305 7.6284C35.9558 7.02525 36.7535 6.30536 37.1816 6.05242C37.6096 5.78003 38.4462 5.3909 39.0299 5.21579C39.6136 5.02122 40.3141 4.86557 40.5864 4.86557ZM34.2436 27.8437C34.4382 27.8826 34.7884 28.1161 34.983 28.3885C35.2943 28.7776 35.3332 28.9528 35.1581 29.3224C35.0413 29.5559 34.9441 30.0812 34.9441 30.4898C34.9441 30.879 35.1192 31.4626 35.3137 31.7934C35.5083 32.1242 36.0336 32.5328 36.4811 32.7273C37.201 33.0192 37.3567 33.0386 39.1272 32.4744L43.5633 36.9105C45.9954 39.3425 47.9799 41.4633 47.9799 41.6189C47.9799 41.7746 46.5012 43.409 41.3647 48.526L36.7924 43.9537C33.0957 40.2765 32.2201 39.3036 32.3174 38.9923C32.3952 38.7783 32.4925 38.253 32.5509 37.8249C32.6287 37.2218 32.5509 36.891 32.1812 36.3657C31.8894 35.9182 31.4419 35.5874 30.9555 35.4318C30.3134 35.2178 30.041 35.2178 29.36 35.4318C28.5623 35.6653 28.5039 35.6653 28.037 35.1983C27.7646 34.9259 27.5311 34.5757 27.4922 34.42C27.4727 34.2644 28.8931 32.7079 30.6636 30.9568C32.8817 28.7776 33.9907 27.8048 34.2436 27.8437ZM49.1668 43.6619C49.2446 43.8759 49.3224 44.4985 49.3224 45.0238C49.3224 45.5686 49.1862 46.3469 48.9722 46.7749C48.7776 47.203 48.3301 47.845 47.9605 48.2147C47.5908 48.5844 46.9487 49.0319 46.5207 49.2265C46.0926 49.421 45.4311 49.6156 45.0614 49.6934C44.6918 49.7518 44.147 49.7323 43.8357 49.6156C43.5438 49.4988 43.3104 49.2848 43.3298 49.1486C43.3493 48.993 44.6334 47.631 46.1899 46.0745C48.6609 43.623 49.0306 43.3117 49.1668 43.6619Z" fill="#FCFCFC" stroke="url(#paint4_linear_1937_2501)" stroke-width="0.194565"/>
<path d="M17.764 35.5873C17.7446 35.4316 21.6164 31.4236 26.3833 26.6762C31.1501 21.9482 35.1582 18.0959 35.3138 18.1153C35.45 18.1542 35.7224 18.3682 35.8975 18.6212C36.2088 19.0687 36.131 19.1465 27.5507 27.7268C22.7838 32.4742 18.7563 36.3655 18.6007 36.3655C18.445 36.3655 18.1921 36.2682 18.0559 36.1321C17.9197 35.9959 17.803 35.7429 17.764 35.5873Z" fill="url(#paint5_linear_1937_2501)"/>
<path d="M35.4889 36.5406C35.4695 36.385 35.5668 36.1515 35.7224 36.0153C35.8781 35.8791 36.131 35.7818 36.2867 35.7818C36.4618 35.7818 38.2907 37.4746 40.3531 39.5369C42.396 41.5799 44.0887 43.4088 44.0887 43.5644C44.0887 43.7201 43.9914 43.973 43.8552 44.1092C43.719 44.226 43.4856 44.3427 43.3299 44.3427C43.1548 44.3427 41.3259 42.65 39.2635 40.5876C37.2206 38.5447 35.5084 36.7157 35.4889 36.5406Z" fill="url(#paint6_linear_1937_2501)"/>
<path d="M8.13306 39.4786C8.79458 38.3501 9.45611 37.3189 9.63121 37.2022C9.84524 37.0271 10.7597 36.9492 12.5691 36.9492C14.8456 36.9298 15.2347 36.9881 15.5071 37.28C15.6822 37.4746 16.3243 38.4474 16.9274 39.4397C17.5306 40.4125 18.017 41.4242 18.017 41.6772C18.017 41.9106 17.5306 42.9418 16.9274 43.9536C16.3243 44.9653 15.6822 45.9576 15.5071 46.1522C15.2347 46.4635 14.8845 46.5024 9.5923 46.3856L8.2498 44.1481C7.52991 42.9224 6.92676 41.8328 6.92676 41.7161C6.92676 41.5993 7.47154 40.607 8.13306 39.4786Z" fill="url(#paint7_linear_1937_2501)"/>
<path d="M17.764 35.5873C17.7446 35.4316 21.6164 31.4236 26.3833 26.6762C31.1501 21.9482 35.1582 18.0959 35.3138 18.1153C35.45 18.1542 35.7224 18.3682 35.8975 18.6212C36.2088 19.0687 36.131 19.1465 27.5507 27.7268C22.7838 32.4742 18.7563 36.3655 18.6007 36.3655C18.445 36.3655 18.1921 36.2682 18.0559 36.1321C17.9197 35.9959 17.803 35.7429 17.764 35.5873Z" stroke="url(#paint8_linear_1937_2501)" stroke-width="0.194565"/>
<path d="M35.4889 36.5406C35.4695 36.385 35.5668 36.1515 35.7224 36.0153C35.8781 35.8791 36.131 35.7818 36.2867 35.7818C36.4618 35.7818 38.2907 37.4746 40.3531 39.5369C42.396 41.5799 44.0887 43.4088 44.0887 43.5644C44.0887 43.7201 43.9914 43.973 43.8552 44.1092C43.719 44.226 43.4856 44.3427 43.3299 44.3427C43.1548 44.3427 41.3259 42.65 39.2635 40.5876C37.2206 38.5447 35.5084 36.7157 35.4889 36.5406Z" stroke="url(#paint9_linear_1937_2501)" stroke-width="0.194565"/>
<path d="M8.13306 39.4786C8.79458 38.3501 9.45611 37.3189 9.63121 37.2022C9.84524 37.0271 10.7597 36.9492 12.5691 36.9492C14.8456 36.9298 15.2347 36.9881 15.5071 37.28C15.6822 37.4746 16.3243 38.4474 16.9274 39.4397C17.5306 40.4125 18.017 41.4242 18.017 41.6772C18.017 41.9106 17.5306 42.9418 16.9274 43.9536C16.3243 44.9653 15.6822 45.9576 15.5071 46.1522C15.2347 46.4635 14.8845 46.5024 9.5923 46.3856L8.2498 44.1481C7.52991 42.9224 6.92676 41.8328 6.92676 41.7161C6.92676 41.5993 7.47154 40.607 8.13306 39.4786Z" stroke="url(#paint10_linear_1937_2501)" stroke-width="0.194565"/>
<path d="M8.67773 41.8132L9.61165 40.1594L10.5261 38.5056L14.5731 38.6029L16.3631 41.6576L15.7794 42.7277C15.4486 43.3308 14.9622 44.0702 14.6703 44.362C14.1645 44.8874 14.0283 44.9263 12.5301 44.9263C11.5184 44.9263 10.7985 44.8484 10.6039 44.6928C10.4288 44.5566 9.92295 43.8562 8.67773 41.8132Z" fill="#FCFCFC" stroke="url(#paint11_linear_1937_2501)" stroke-width="0.194565"/>
<defs>
<linearGradient id="paint0_linear_1937_2501" x1="-1.98469" y1="-14.0897" x2="60.0717" y2="-13.9523" gradientUnits="userSpaceOnUse">
<stop stop-color="#BF8327"/>
<stop offset="0.485" stop-color="#F4DC60"/>
<stop offset="1" stop-color="#BF8327"/>
</linearGradient>
<linearGradient id="paint1_linear_1937_2501" x1="-1.98469" y1="-14.0897" x2="60.0717" y2="-13.9523" gradientUnits="userSpaceOnUse">
<stop stop-color="#BF8327"/>
<stop offset="0.485" stop-color="#F4DC60"/>
<stop offset="1" stop-color="#BF8327"/>
</linearGradient>
<linearGradient id="paint2_linear_1937_2501" x1="-1.98469" y1="-14.0897" x2="60.0717" y2="-13.9523" gradientUnits="userSpaceOnUse">
<stop stop-color="#BF8327"/>
<stop offset="0.485" stop-color="#F4DC60"/>
<stop offset="1" stop-color="#BF8327"/>
</linearGradient>
<linearGradient id="paint3_linear_1937_2501" x1="-1.98469" y1="-14.0897" x2="60.0717" y2="-13.9523" gradientUnits="userSpaceOnUse">
<stop stop-color="#BF8327"/>
<stop offset="0.485" stop-color="#F4DC60"/>
<stop offset="1" stop-color="#BF8327"/>
</linearGradient>
<linearGradient id="paint4_linear_1937_2501" x1="-0.212888" y1="-11.4045" x2="57.9567" y2="-11.2755" gradientUnits="userSpaceOnUse">
<stop stop-color="#BF8327"/>
<stop offset="0.485" stop-color="#F4DC60"/>
<stop offset="1" stop-color="#BF8327"/>
</linearGradient>
<linearGradient id="paint5_linear_1937_2501" x1="3.06442" y1="7.85749" x2="51.2046" y2="7.99766" gradientUnits="userSpaceOnUse">
<stop stop-color="#BF8327"/>
<stop offset="0.485" stop-color="#F4DC60"/>
<stop offset="1" stop-color="#BF8327"/>
</linearGradient>
<linearGradient id="paint6_linear_1937_2501" x1="3.06442" y1="7.85749" x2="51.2046" y2="7.99766" gradientUnits="userSpaceOnUse">
<stop stop-color="#BF8327"/>
<stop offset="0.485" stop-color="#F4DC60"/>
<stop offset="1" stop-color="#BF8327"/>
</linearGradient>
<linearGradient id="paint7_linear_1937_2501" x1="3.06442" y1="7.85749" x2="51.2046" y2="7.99766" gradientUnits="userSpaceOnUse">
<stop stop-color="#BF8327"/>
<stop offset="0.485" stop-color="#F4DC60"/>
<stop offset="1" stop-color="#BF8327"/>
</linearGradient>
<linearGradient id="paint8_linear_1937_2501" x1="3.06442" y1="7.85749" x2="51.2046" y2="7.99766" gradientUnits="userSpaceOnUse">
<stop stop-color="#BF8327"/>
<stop offset="0.485" stop-color="#F4DC60"/>
<stop offset="1" stop-color="#BF8327"/>
</linearGradient>
<linearGradient id="paint9_linear_1937_2501" x1="3.06442" y1="7.85749" x2="51.2046" y2="7.99766" gradientUnits="userSpaceOnUse">
<stop stop-color="#BF8327"/>
<stop offset="0.485" stop-color="#F4DC60"/>
<stop offset="1" stop-color="#BF8327"/>
</linearGradient>
<linearGradient id="paint10_linear_1937_2501" x1="3.06442" y1="7.85749" x2="51.2046" y2="7.99766" gradientUnits="userSpaceOnUse">
<stop stop-color="#BF8327"/>
<stop offset="0.485" stop-color="#F4DC60"/>
<stop offset="1" stop-color="#BF8327"/>
</linearGradient>
<linearGradient id="paint11_linear_1937_2501" x1="7.87898" y1="36.1809" x2="17.8347" y2="36.2074" gradientUnits="userSpaceOnUse">
<stop stop-color="#BF8327"/>
<stop offset="0.485" stop-color="#F4DC60"/>
<stop offset="1" stop-color="#BF8327"/>
</linearGradient>
</defs>
</svg>
