<svg width="35" height="35" viewBox="0 0 35 35" fill="none" xmlns="http://www.w3.org/2000/svg">
<path d="M12.4456 7.24802C12.1429 7.24241 11.8458 7.33104 11.5956 7.50165C11.3454 7.67227 11.1545 7.91643 11.0491 8.20034C10.9438 8.48426 10.9293 8.7939 11.0077 9.08641C11.0861 9.37892 11.2534 9.63984 11.4866 9.83306L20.4102 17.4724L11.4811 25.1118C11.3179 25.2307 11.1812 25.3822 11.0796 25.5566C10.9779 25.731 10.9135 25.9246 10.8904 26.1251C10.8674 26.3256 10.8861 26.5288 10.9455 26.7217C11.0049 26.9147 11.1036 27.0932 11.2354 27.2461C11.3673 27.3989 11.5294 27.5228 11.7115 27.6099C11.8936 27.697 12.0918 27.7453 12.2936 27.7519C12.4954 27.7586 12.6963 27.7233 12.8837 27.6484C13.0712 27.5734 13.2411 27.4604 13.3826 27.3165L23.5905 18.5913C23.7511 18.4542 23.88 18.2839 23.9683 18.0922C24.0567 17.9004 24.1025 17.6918 24.1025 17.4807C24.1025 17.2696 24.0567 17.061 23.9683 16.8692C23.88 16.6775 23.7511 16.5072 23.5905 16.3701L13.3826 7.61731C13.124 7.38702 12.7919 7.25614 12.4456 7.24802Z" fill="black"/>
</svg>
