<svg width="21" height="16" viewBox="0 0 21 16" fill="none" xmlns="http://www.w3.org/2000/svg">
<path fill-rule="evenodd" clip-rule="evenodd" d="M20.3317 0.835434C20.4397 0.930021 20.5279 1.04514 20.591 1.17411C20.6542 1.30307 20.6911 1.4433 20.6995 1.58664C20.708 1.72999 20.6879 1.87358 20.6404 2.00908C20.5928 2.14458 20.5188 2.26928 20.4227 2.37593L9.03253 15.0174C8.93592 15.1244 8.8189 15.2111 8.68835 15.2723C8.55779 15.3336 8.41633 15.3681 8.27224 15.374C8.12815 15.3798 7.98435 15.3569 7.84926 15.3064C7.71417 15.256 7.59051 15.1791 7.48553 15.0802L0.89453 8.87593C0.696799 8.68714 0.577078 8.43104 0.559025 8.15824C0.540973 7.88545 0.625902 7.61581 0.797031 7.4026C0.889401 7.28701 1.0043 7.1914 1.13475 7.12157C1.2652 7.05174 1.40848 7.00915 1.55589 6.99639C1.7033 6.98362 1.85177 7.00095 1.99228 7.04731C2.13279 7.09368 2.26241 7.16811 2.37328 7.2661L7.48661 11.8659C7.70012 12.0581 7.9812 12.1576 8.26805 12.1426C8.5549 12.1275 8.82403 11.9992 9.01628 11.7858L18.8129 0.923184C19.0036 0.711758 19.2698 0.583904 19.5541 0.56728C19.8383 0.550655 20.1177 0.646596 20.3317 0.83435V0.835434Z" fill="#29993C"/>
</svg>
