<svg width="40" height="40" viewBox="0 0 40 40" fill="none" xmlns="http://www.w3.org/2000/svg">
<g clip-path="url(#clip0_88_397)">
<path d="M39.4129 36.9103H36.7147V25.9238C36.7147 25.7681 36.6528 25.6188 36.5427 25.5087C36.4326 25.3986 36.2833 25.3367 36.1276 25.3367C35.9719 25.3367 35.8226 25.3986 35.7125 25.5087C35.6024 25.6188 35.5405 25.7681 35.5405 25.9238V36.9103H30.9681V17.5859C30.9681 17.478 31.0559 17.3902 31.1638 17.3902H35.3448C35.4527 17.3902 35.5405 17.478 35.5405 17.5859V23.5755C35.5405 23.7312 35.6024 23.8805 35.7125 23.9906C35.8226 24.1007 35.9719 24.1625 36.1276 24.1625C36.2833 24.1625 36.4326 24.1007 36.5427 23.9906C36.6528 23.8805 36.7147 23.7312 36.7147 23.5755V17.5859C36.7147 16.8306 36.1002 16.216 35.3448 16.216H31.1638C30.4085 16.216 29.794 16.8306 29.794 17.5859V36.9104H27.8784V21.8584C27.8784 21.1031 27.2639 20.4886 26.5086 20.4886H22.3276C21.5722 20.4886 20.9577 21.1031 20.9577 21.8584V36.9104H19.0422V26.131C19.0422 25.3757 18.4277 24.7611 17.6723 24.7611H13.4914C12.736 24.7611 12.1215 25.3757 12.1215 26.131V31.2646C12.1215 31.4203 12.1833 31.5697 12.2934 31.6798C12.4035 31.7899 12.5529 31.8517 12.7086 31.8517C12.8643 31.8517 13.0136 31.7899 13.1237 31.6798C13.2338 31.5697 13.2957 31.4203 13.2957 31.2646V26.131C13.2957 26.0231 13.3835 25.9353 13.4914 25.9353H17.6723C17.7803 25.9353 17.868 26.0231 17.868 26.131V36.9103H13.2957V33.613C13.2957 33.4573 13.2338 33.3079 13.1237 33.1978C13.0136 33.0877 12.8643 33.0259 12.7086 33.0259C12.5529 33.0259 12.4035 33.0877 12.2934 33.1978C12.1833 33.3079 12.1215 33.4573 12.1215 33.613V36.9103H10.2059V30.4036C10.2059 29.6483 9.59147 29.0337 8.83609 29.0337H4.65519C3.89988 29.0337 3.28532 29.6483 3.28532 30.4036V36.9103H0.587084C0.43138 36.9103 0.282053 36.9722 0.171953 37.0823C0.0618533 37.1924 0 37.3417 0 37.4974C0 37.6531 0.0618533 37.8025 0.171953 37.9126C0.282053 38.0227 0.43138 38.0845 0.587084 38.0845H39.4129C39.5686 38.0845 39.7179 38.0227 39.828 37.9126C39.9381 37.8025 40 37.6531 40 37.4974C40 37.3417 39.9381 37.1924 39.828 37.0823C39.7179 36.9722 39.5686 36.9103 39.4129 36.9103ZM22.1319 21.8584C22.1319 21.7506 22.2197 21.6627 22.3276 21.6627H26.5086C26.6164 21.6627 26.7043 21.7506 26.7043 21.8584V36.9104H22.1319V21.8584ZM4.45949 30.4036C4.45949 30.2957 4.54732 30.2079 4.65519 30.2079H8.83616C8.94411 30.2079 9.03186 30.2957 9.03186 30.4036V36.9103H4.45949V30.4036ZM6.2692 22.0249C6.30137 22.0249 6.33386 22.0238 6.36642 22.0216C10.6961 21.7208 14.7676 20.7759 18.4679 19.2131C23.4504 17.1087 27.5753 13.9366 30.7363 9.77993L32.715 11.1557C33.1048 11.4464 33.6988 11.097 33.6343 10.6151L32.8142 2.44537C32.7875 2.09648 32.4186 1.83981 32.082 1.93586L24.1307 4.00678C23.656 4.11386 23.5352 4.79253 23.9435 5.05695L25.9403 6.44529C25.543 7.06948 24.6677 8.30713 23.1415 9.82102C23.031 9.93067 22.9685 10.0797 22.9679 10.2354C22.9673 10.3911 23.0285 10.5407 23.1382 10.6512C23.2478 10.7618 23.3969 10.8242 23.5526 10.8249C23.7083 10.8255 23.8578 10.7642 23.9684 10.6546C26.3212 8.32075 27.2095 6.61429 27.2461 6.54282C27.3109 6.41634 27.3277 6.27062 27.2933 6.13272C27.2588 5.99481 27.1756 5.87408 27.0589 5.79292L25.6616 4.82141L31.7144 3.24497L32.3388 9.46392L30.9404 8.49163C30.8145 8.4041 30.6594 8.36928 30.5082 8.39462C30.357 8.41995 30.2217 8.50343 30.1312 8.62721C27.055 12.8362 22.9771 16.0339 18.011 18.1314C13.551 20.0151 9.17268 20.6495 6.28517 20.8501C6.11648 20.8934 6.06536 20.5836 6.23335 20.5656C12.6658 18.5806 18.0378 15.7899 22.2001 12.2714C22.259 12.2216 22.3075 12.1607 22.3428 12.0922C22.3782 12.0237 22.3997 11.9489 22.4061 11.8721C22.4126 11.7952 22.4038 11.7179 22.3804 11.6445C22.3569 11.571 22.3192 11.5029 22.2694 11.444C22.2197 11.3852 22.1588 11.3367 22.0903 11.3013C22.0218 11.2659 21.947 11.2444 21.8701 11.238C21.7933 11.2316 21.716 11.2403 21.6425 11.2638C21.5691 11.2872 21.501 11.3249 21.4421 11.3747C17.4013 14.7907 12.1678 17.5054 5.8872 19.4436C5.23499 19.6449 4.85229 20.2775 4.97722 20.9477C5.09597 21.585 5.63115 22.0249 6.2692 22.0249Z" fill="black"/>
</g>
<defs>
<clipPath id="clip0_88_397">
<rect width="40" height="40" fill="white"/>
</clipPath>
</defs>
</svg>
