<svg width="54" height="60" viewBox="0 0 54 60" fill="none" xmlns="http://www.w3.org/2000/svg">
<path d="M32.6254 3.40001H32.625C30.7016 3.40001 28.8214 3.97037 27.2221 5.03896C25.6228 6.10756 24.3763 7.6264 23.6403 9.40341C22.9042 11.1804 22.7116 13.1358 23.0869 15.0223C23.4621 16.9087 24.3883 18.6416 25.7484 20.0016C27.1085 21.3617 28.8413 22.2879 30.7278 22.6631C32.6142 23.0384 34.5696 22.8458 36.3466 22.1097C38.1236 21.3737 39.6425 20.1272 40.711 18.5279C41.7796 16.9287 42.35 15.0484 42.35 13.125V13.1246C42.3469 10.5464 41.3214 8.07472 39.4983 6.25168C37.6753 4.42864 35.2036 3.40309 32.6254 3.40001ZM32.6246 25.9C30.0981 25.8999 27.6283 25.1507 25.5276 23.747C23.4268 22.3433 21.7894 20.3481 20.8224 18.0138C19.8555 15.6795 19.6025 13.1108 20.0955 10.6327C20.5884 8.15462 21.8051 5.87833 23.5917 4.09172C25.3783 2.3051 27.6546 1.0884 30.1327 0.595474C32.6108 0.102548 35.1795 0.355535 37.5138 1.32244C39.8481 2.28935 41.8433 3.92676 43.247 6.0276C44.6507 8.12832 45.3999 10.5981 45.4 13.1246C45.3961 16.5117 44.0489 19.7589 41.6539 22.1539C39.2589 24.5489 36.0117 25.8961 32.6246 25.9Z" fill="black" stroke="#FCFCFC" stroke-width="0.7"/>
<path d="M14.6528 56.5511L14.7353 56.6H14.8313H49.5H49.85V56.25V41.7188V41.7183C49.8449 37.5246 48.1767 33.5041 45.2113 30.5387C42.2459 27.5733 38.2254 25.9051 34.0317 25.9H34.0312H31.2188C31.2188 25.9 31.2188 25.9 31.2188 25.9C27.5602 25.8995 24.0146 27.1666 21.1852 29.4858C20.8725 29.7338 20.4751 29.8495 20.0781 29.8079C19.6804 29.7661 19.3149 29.5698 19.0605 29.2612C18.8061 28.9526 18.6831 28.5564 18.718 28.158C18.7529 27.7607 18.942 27.3928 19.2448 27.1333C22.6206 24.3637 26.8521 22.85 31.2188 22.85H34.0311C39.0338 22.8554 43.83 24.8451 47.3674 28.3826C50.9049 31.92 52.8946 36.7164 52.9 41.7191V58.125C52.9 58.5295 52.7393 58.9174 52.4533 59.2033C52.1674 59.4893 51.7795 59.65 51.375 59.65H13.875C13.4705 59.65 13.0827 59.4893 12.7967 59.2033C12.5107 58.9173 12.35 58.5295 12.35 58.125V57.8626C12.35 57.8625 12.35 57.8625 12.35 57.8625C12.3501 57.5934 12.4213 57.329 12.5566 57.0963L12.2545 56.9207L12.5566 57.0963C12.6919 56.8636 12.8864 56.6709 13.1203 56.5377L12.9471 56.2335L13.1203 56.5377C13.3542 56.4045 13.6192 56.3355 13.8883 56.3379C14.1575 56.3402 14.4212 56.4138 14.6528 56.5511Z" fill="black" stroke="#FCFCFC" stroke-width="0.7"/>
<path d="M42 59.65C41.5955 59.65 41.2077 59.4893 40.9217 59.2033C40.6357 58.9173 40.475 58.5295 40.475 58.125V39.375C40.475 38.9705 40.6357 38.5827 40.9217 38.2967C41.2077 38.0107 41.5955 37.85 42 37.85C42.4045 37.85 42.7923 38.0107 43.0783 38.2967C43.3643 38.5827 43.525 38.9705 43.525 39.375V58.125C43.525 58.5295 43.3643 58.9173 43.0783 59.2033C42.7923 59.4893 42.4045 59.65 42 59.65ZM23.25 59.65C22.8455 59.65 22.4577 59.4893 22.1717 59.2033C21.8857 58.9173 21.725 58.5295 21.725 58.125V54.7313C21.725 54.3268 21.8857 53.9389 22.1717 53.6529C22.4577 53.3669 22.8455 53.2063 23.25 53.2063C23.6545 53.2063 24.0423 53.3669 24.3283 53.6529C24.6143 53.9389 24.775 54.3268 24.775 54.7313V58.125C24.775 58.5295 24.6143 58.9173 24.3283 59.2033C24.0423 59.4893 23.6545 59.65 23.25 59.65Z" fill="black" stroke="#FCFCFC" stroke-width="0.7"/>
<path d="M1.1035 45.5325L1.10368 45.5325V45.5212L1.10368 30.7031L1.10368 30.7027C1.1033 30.3788 1.20629 30.0633 1.39765 29.802C1.58901 29.5408 1.85876 29.3474 2.16764 29.25L2.16792 29.25L14.7192 25.2825L14.7199 25.2822C15.0192 25.1869 15.3407 25.1869 15.6399 25.2822L15.6407 25.2825L28.1919 29.25L28.1922 29.25C28.5011 29.3474 28.7708 29.5408 28.9622 29.802C29.1536 30.0633 29.2566 30.3788 29.2562 30.7027V30.7031V45.57H29.256L29.2563 45.5806C29.3182 47.6259 28.8709 49.6546 27.9546 51.4843C26.3421 54.6908 23.6029 56.6709 21.0524 57.8812C18.5034 59.0907 16.169 59.5184 15.4084 59.6331C15.3322 59.644 15.2554 59.6496 15.1784 59.65C15.1028 59.65 15.0272 59.645 14.9523 59.6348C14.1896 59.5188 11.857 59.0913 9.31001 57.883C6.75979 56.6733 4.02068 54.6937 2.40722 51.4863C1.4852 49.6407 1.03716 47.5945 1.1035 45.5325ZM4.39818 31.7419L4.15368 31.8192V32.0756V45.5635C4.09573 47.1388 4.43173 48.7038 5.13127 50.1165L5.13226 50.1185C6.35159 52.5425 8.48632 54.086 10.478 55.054C12.4716 56.023 14.3538 56.4311 15.1181 56.5682L15.1799 56.5793L15.2417 56.5682C16.006 56.4311 17.8887 56.023 19.8828 55.054C21.8749 54.086 24.0101 52.5426 25.2295 50.1185L25.2302 50.117C25.9249 48.7193 26.2609 47.1708 26.2081 45.6109V32.0756V31.8192L25.9635 31.7419L15.2854 28.3669L15.1799 28.3335L15.0744 28.3669L4.39818 31.7419Z" fill="black" stroke="#FCFCFC" stroke-width="0.7"/>
<path d="M13.3317 46.1872L13.3314 46.187L9.46362 42.3173C9.18707 42.0299 9.03409 41.6456 9.03756 41.2467C9.04103 40.8468 9.20141 40.4643 9.48416 40.1816L9.23667 39.9341L9.48416 40.1816C9.76691 39.8988 10.1494 39.7385 10.5492 39.735C10.9481 39.7315 11.3325 39.8845 11.6199 40.161L14.162 42.7031L14.4094 42.9506L14.6569 42.7032L20.6344 36.7275L20.6344 36.7276L20.6387 36.7232C20.7794 36.5775 20.9477 36.4613 21.1337 36.3814C21.3198 36.3015 21.5199 36.2594 21.7224 36.2577C21.9249 36.2559 22.1257 36.2945 22.3131 36.3712C22.5005 36.4478 22.6708 36.5611 22.814 36.7043L23.0592 36.459L22.814 36.7043C22.9572 36.8474 23.0704 37.0177 23.1471 37.2051C23.2237 37.3925 23.2623 37.5934 23.2606 37.7958C23.2588 37.9983 23.2167 38.1984 23.1368 38.3845C23.0569 38.5706 22.9407 38.7388 22.7951 38.8795L22.795 38.8795L22.7907 38.8838L15.4876 46.1869L15.4871 46.1873C15.3459 46.3291 15.178 46.4415 14.9931 46.5181C14.8083 46.5948 14.6101 46.6341 14.41 46.6338L14.4091 46.6338C14.209 46.634 14.0107 46.5946 13.8258 46.518L13.6918 46.8413L13.8258 46.518C13.6409 46.4414 13.473 46.329 13.3317 46.1872Z" fill="black" stroke="#FCFCFC" stroke-width="0.7"/>
</svg>
