<svg width="39" height="39" viewBox="0 0 39 39" fill="none" xmlns="http://www.w3.org/2000/svg">
<path d="M34.8755 13.0938C35.5029 13.0833 36.117 12.9116 36.6589 12.5953C37.2008 12.2789 37.6522 11.8284 37.9697 11.2872C38.4086 10.5795 38.6632 9.77302 38.7102 8.94154C38.7572 8.11006 38.5951 7.28006 38.2387 6.52736L35.452 0.646423C35.4001 0.537406 35.3184 0.445284 35.2164 0.380677C35.1144 0.316069 34.9962 0.281608 34.8755 0.281266C34.7536 0.280394 34.6341 0.314284 34.5308 0.378962C34.4276 0.443639 34.3449 0.53642 34.2925 0.646423L31.5058 6.52736C31.1492 7.28028 30.9875 8.11075 31.0356 8.94246C31.0838 9.77417 31.3402 10.5804 31.7812 11.2872C32.0983 11.8288 32.5496 12.2796 33.0915 12.5961C33.6335 12.9125 34.2479 13.0839 34.8755 13.0938ZM32.6653 7.07189L34.8755 2.41455L37.0856 7.07189C37.3444 7.63146 37.4616 8.24607 37.427 8.86161C37.3924 9.47714 37.2069 10.0747 36.887 10.6017C36.6939 10.9679 36.4045 11.2744 36.05 11.4882C35.6955 11.702 35.2894 11.815 34.8755 11.815C34.4615 11.815 34.0554 11.702 33.7009 11.4882C33.3464 11.2744 33.057 10.9679 32.8639 10.6017C32.5413 10.0757 32.3543 9.47791 32.3196 8.86185C32.285 8.24578 32.4037 7.63075 32.6653 7.07189Z" fill="black"/>
<path d="M35.7206 9.67922C35.9619 9.29455 36.1076 8.8577 36.1455 8.40521C36.1834 7.95271 36.1124 7.49772 35.9384 7.07828L34.7597 7.57797C34.8514 7.80209 34.8893 8.04457 34.8703 8.28598C34.8514 8.52739 34.7762 8.76101 34.6508 8.96813C34.6079 9.04413 34.548 9.10915 34.4757 9.15806C34.4035 9.20697 34.3209 9.23845 34.2344 9.25V10.5312C34.5333 10.5233 34.8255 10.4413 35.0849 10.2926C35.3443 10.1439 35.5627 9.93314 35.7206 9.67922ZM3.48438 6.6875C3.48438 7.32102 3.67224 7.94031 4.0242 8.46706C4.37616 8.99381 4.87642 9.40436 5.46172 9.6468C6.04701 9.88924 6.69105 9.95267 7.3124 9.82908C7.93374 9.70548 8.50449 9.40042 8.95245 8.95245C9.40042 8.50449 9.70548 7.93374 9.82908 7.3124C9.95267 6.69105 9.88924 6.04701 9.6468 5.46172C9.40436 4.87642 8.99381 4.37616 8.46706 4.0242C7.94031 3.67224 7.32102 3.48438 6.6875 3.48438C5.83798 3.48438 5.02325 3.82185 4.42255 4.42255C3.82185 5.02325 3.48438 5.83798 3.48438 6.6875ZM6.6875 4.76562C7.06761 4.76562 7.43919 4.87834 7.75524 5.08952C8.07129 5.3007 8.31762 5.60085 8.46308 5.95203C8.60854 6.30321 8.6466 6.68963 8.57245 7.06244C8.49829 7.43525 8.31525 7.77769 8.04647 8.04647C7.77769 8.31525 7.43525 8.49829 7.06244 8.57245C6.68963 8.6466 6.30321 8.60854 5.95203 8.46308C5.60085 8.31762 5.3007 8.07129 5.08952 7.75524C4.87834 7.43919 4.76562 7.06761 4.76562 6.6875C4.76562 6.17779 4.96811 5.68895 5.32853 5.32853C5.68895 4.96811 6.17779 4.76562 6.6875 4.76562ZM6.04688 11.1719H7.32812V13.0938H6.04688V11.1719ZM6.04688 0.28125H7.32812V2.20312H6.04688V0.28125ZM0.28125 6.04688H2.20312V7.32812H0.28125V6.04688ZM11.1719 6.04688H13.0938V7.32812H11.1719V6.04688ZM1.70344 10.7632L3.06284 9.40439L3.96869 10.3102L2.60992 11.6684L1.70344 10.7632ZM9.40375 3.06477L10.7632 1.70664L11.669 2.61184L10.3102 3.97061L9.40375 3.06477ZM1.70472 2.61056L2.61056 1.70472L3.96933 3.06348L3.06348 3.96997L1.70472 2.61056ZM9.40311 10.3115L10.309 9.40567L11.6671 10.7638L10.7619 11.6696L9.40311 10.3115ZM2.84375 34.875C2.84375 37.918 13.7344 38.7188 19.5 38.7188C25.2656 38.7188 36.1562 37.918 36.1562 34.875C36.1562 26.3995 28.6866 19.5 19.5 19.5C10.3134 19.5 2.84375 26.3995 2.84375 34.875ZM15.8741 21.1784C15.9397 21.346 16.0212 21.5069 16.1175 21.6589L14.3302 23.4462C13.7058 23.1329 13.1226 22.7435 12.5941 22.2867C13.645 21.8021 14.7445 21.4306 15.8741 21.1784ZM17.008 22.575C17.5593 22.958 18.194 23.2039 18.8594 23.2925V24.5737C17.7524 24.5104 16.6595 24.2948 15.6114 23.9331L17.008 22.575ZM34.875 34.875C34.875 35.6437 29.6411 37.4375 19.5 37.4375C9.35891 37.4375 4.125 35.6437 4.125 34.875C4.125 34.1063 9.3525 32.3125 19.5 32.3125C29.6475 32.3125 34.875 34.1063 34.875 34.875ZM34.7597 33.1838C31.6334 31.5245 23.9844 31.0312 19.5 31.0312C15.0156 31.0312 7.36016 31.5245 4.24031 33.1838C4.56359 31.0405 5.37683 29.0008 6.61681 27.223C7.85678 25.4453 9.49007 23.9775 11.3897 22.9338C13.6166 24.9202 16.5169 25.9831 19.5 25.9062C22.4849 25.9777 25.3842 24.9051 27.6039 22.9081C29.5078 23.9537 31.1443 25.4251 32.3856 27.2076C33.6269 28.9901 34.4394 31.0354 34.7597 33.1838ZM23.1259 21.1784C24.2552 21.4316 25.3546 21.8031 26.4059 22.2867C25.8774 22.7435 25.2942 23.1329 24.6698 23.4462L22.8825 21.6589C22.9763 21.5055 23.0577 21.3448 23.1259 21.1784ZM23.3886 23.9844C22.3405 24.3461 21.2476 24.5617 20.1406 24.625V23.3438C20.8044 23.2564 21.4372 23.0103 21.9856 22.6263L23.3886 23.9844ZM19.5 22.0625C19.0521 22.0799 18.6068 21.9868 18.2034 21.7912C17.8001 21.5957 17.4511 21.3038 17.1873 20.9414C18.7217 20.7279 20.2783 20.7279 21.8127 20.9414C21.5489 21.3038 21.1999 21.5957 20.7966 21.7912C20.3932 21.9868 19.9479 22.0799 19.5 22.0625ZM10.448 12.7798L9.33328 13.4205L12.0047 18.2188H8.60938V16.9375C8.60918 16.824 8.57882 16.7126 8.52142 16.6146C8.46401 16.5167 8.38161 16.4358 8.28266 16.3802C8.18527 16.3239 8.0748 16.2943 7.96234 16.2943C7.84989 16.2943 7.73942 16.3239 7.64203 16.3802L4.43891 18.302C4.34331 18.3588 4.26412 18.4394 4.20912 18.536C4.15411 18.6326 4.12519 18.7418 4.12519 18.853C4.12519 18.9641 4.15411 19.0734 4.20912 19.17C4.26412 19.2666 4.34331 19.3472 4.43891 19.4039L7.64203 21.3258C7.74112 21.3848 7.85349 21.4178 7.96875 21.4219C8.0788 21.4215 8.18691 21.3929 8.28266 21.3386C8.38161 21.283 8.46401 21.2021 8.52142 21.1041C8.57882 21.0062 8.60918 20.8948 8.60938 20.7812V19.5H13.0938C13.2049 19.5 13.3142 19.471 13.4108 19.416C13.5074 19.361 13.588 19.2817 13.6447 19.1861C13.7009 19.0887 13.7305 18.9782 13.7305 18.8658C13.7305 18.7533 13.7009 18.6429 13.6447 18.5455L10.448 12.7798ZM7.32812 19.6473L6.00844 18.8594L7.32812 18.0714V19.6473ZM28.5456 12.7798L25.3425 18.5455C25.2863 18.6429 25.2567 18.7533 25.2567 18.8658C25.2567 18.9782 25.2863 19.0887 25.3425 19.1861C25.4003 19.2836 25.4829 19.3641 25.582 19.4192C25.681 19.4744 25.7929 19.5022 25.9062 19.5H30.3906V20.7812C30.3908 20.8948 30.4212 21.0062 30.4786 21.1041C30.536 21.2021 30.6184 21.283 30.7173 21.3386C30.8131 21.3929 30.9212 21.4215 31.0312 21.4219C31.1462 21.4218 31.2591 21.3909 31.358 21.3322L34.5611 19.4103C34.6567 19.3536 34.7359 19.273 34.7909 19.1764C34.8459 19.0798 34.8748 18.9705 34.8748 18.8594C34.8748 18.7482 34.8459 18.639 34.7909 18.5424C34.7359 18.4458 34.6567 18.3652 34.5611 18.3084L31.358 16.3866C31.2607 16.3289 31.1499 16.298 31.0368 16.297C30.9238 16.296 30.8125 16.325 30.7142 16.3809C30.6159 16.4369 30.5343 16.5179 30.4774 16.6156C30.4206 16.7134 30.3906 16.8244 30.3906 16.9375V18.2188H26.9953L29.6667 13.4077L28.5456 12.7798ZM31.6719 18.0714L32.9531 18.8594L31.6719 19.6473V18.0714Z" fill="black"/>
</svg>
