<svg width="70" height="70" viewBox="0 0 70 70" fill="none" xmlns="http://www.w3.org/2000/svg">
<path d="M31.3096 11.1592C31.741 10.5652 32.5468 10.4045 33.168 10.7656L33.29 10.8447C33.8841 11.2762 34.045 12.083 33.6836 12.7041L33.6045 12.8252C33.5479 12.9031 32.7312 14.0213 31.2549 15.7803L31.0781 15.9902L31.2119 16.2305C34.1149 21.4426 35.1201 28.9299 35.1201 35C35.1201 41.066 34.1161 48.5551 31.2119 53.7695L31.0791 54.0098L31.2549 54.2197C31.9929 55.099 32.5663 55.818 32.9619 56.3271L33.6045 57.1748C34.0354 57.7686 33.9388 58.5847 33.4033 59.0635L33.29 59.1543C32.6935 59.5874 31.8775 59.487 31.4004 58.9531L31.3096 58.8408V58.8398L30.8223 58.1826C25.6297 51.3007 15.5838 41.5991 5.18066 36.2676H5.18164L5.17285 36.2627L5.16992 36.2617L5.00293 36.1611C4.89698 36.0869 4.80172 35.9985 4.71973 35.8984L4.60645 35.7393C4.47043 35.5167 4.39846 35.2608 4.39844 35C4.39844 34.8044 4.43903 34.6116 4.5166 34.4336L4.60645 34.2607C4.70847 34.0939 4.84388 33.9503 5.00293 33.8389L5.16992 33.7383L5.17285 33.7363L5.18164 33.7324L5.18066 33.7314C14.7759 28.8135 25.1037 19.3975 30.7754 11.8809L31.3096 11.1592ZM45.6504 44.2168C45.8942 43.5243 46.6213 43.1397 47.3193 43.3086L47.459 43.3496L64.6543 49.4043C65.3465 49.6481 65.7303 50.375 65.5615 51.0732L65.5205 51.2129C65.2774 51.9033 64.5516 52.2895 63.8516 52.1201L63.7119 52.0791L46.5176 46.0244C45.8251 45.7806 45.4403 45.0539 45.6094 44.3555L45.6504 44.2168ZM28.6934 18.7012C23.1739 24.7378 16.4872 30.5116 9.39258 34.6553L8.80371 35L9.39258 35.3438C16.5006 39.4954 23.1913 45.2808 28.6934 51.2988L29.0967 51.7393L29.3486 51.1982C30.2758 49.2076 31.0037 46.7716 31.5029 44.0537L31.5771 43.6484L31.1699 43.5869C26.9903 42.9631 23.7735 39.3496 23.7734 35C23.7734 30.6503 26.9905 27.0368 31.1699 26.4131L31.5771 26.3516L31.5029 25.9463C31.004 23.2284 30.2758 20.7924 29.3486 18.8018L29.0967 18.2607L28.6934 18.7012ZM31.5566 29.2217C28.758 29.6561 26.6094 32.0808 26.6094 35C26.6095 37.9192 28.758 40.3439 31.5566 40.7783L31.9717 40.8428L32.0146 40.4248C32.1916 38.6845 32.2842 36.8658 32.2842 35C32.2842 33.1343 32.1916 31.3156 32.0146 29.5752L31.9717 29.1572L31.5566 29.2217ZM46.9883 33.582H64.1826C64.9656 33.582 65.6006 34.217 65.6006 35C65.6005 35.7829 64.9656 36.418 64.1826 36.418H46.9883C46.2053 36.418 45.5704 35.7829 45.5703 35C45.5703 34.217 46.2053 33.582 46.9883 33.582ZM63.7119 17.9209C64.4041 17.6773 65.1599 18.0024 65.4658 18.6523L65.5205 18.7871C65.7643 19.4794 65.4384 20.2341 64.7881 20.54L64.6543 20.5957L47.459 26.6504C46.7666 26.8943 46.0119 26.5677 45.7061 25.918L45.6504 25.7832C45.4067 25.091 45.7326 24.3362 46.3828 24.0303L46.5176 23.9756L63.7119 17.9209Z" fill="url(#paint0_linear_1913_4100)" stroke="#FCFCFC" stroke-width="0.797141"/>
<defs>
<linearGradient id="paint0_linear_1913_4100" x1="-2.44382" y1="-7.80029" x2="77.872" y2="-7.57765" gradientUnits="userSpaceOnUse">
<stop stop-color="#BF8327"/>
<stop offset="0.485" stop-color="#F4DC60"/>
<stop offset="1" stop-color="#BF8327"/>
</linearGradient>
</defs>
</svg>
