<svg width="39" height="39" viewBox="0 0 39 39" fill="none" xmlns="http://www.w3.org/2000/svg">
<path d="M37.7963 28.2061C37.7266 28.2533 37.6481 28.2863 37.5656 28.3031C37.483 28.32 37.3979 28.3204 37.3152 28.3043C37.2325 28.2883 37.1538 28.256 37.0835 28.2095C37.0133 28.1629 36.9529 28.103 36.9059 28.0331C36.0026 26.2714 28.9942 18.3212 19.7051 18.6543C16.2667 18.6794 12.8869 19.5468 9.86145 21.1807C6.83599 22.8146 4.25712 25.1652 2.35057 28.0267C2.28569 28.1187 2.2403 28.2229 2.21717 28.3331C2.19403 28.4433 2.19365 28.557 2.21603 28.6673C2.2508 28.83 2.33211 28.9791 2.45007 29.0965C2.56803 29.2138 2.71755 29.2944 2.88044 29.3283C3.04333 29.3623 3.21258 29.3481 3.36758 29.2876C3.52259 29.2271 3.65668 29.1229 3.75353 28.9876C3.80058 28.9177 3.86095 28.8578 3.93119 28.8112C4.00143 28.7647 4.08017 28.7325 4.16288 28.7164C4.2456 28.7003 4.33067 28.7007 4.41323 28.7176C4.49579 28.7345 4.57421 28.7674 4.644 28.8147C9.30775 33.9397 14.5801 36.957 19.6154 36.8032C24.7454 36.7164 29.6435 34.6507 33.2863 31.0376C33.407 30.917 33.5706 30.8492 33.7412 30.8492C33.9118 30.8492 34.0754 30.917 34.196 31.0376C34.3167 31.1583 34.3844 31.3219 34.3844 31.4925C34.3844 31.6631 34.3167 31.8267 34.196 31.9473C30.3125 35.7893 25.0967 37.9853 19.6346 38.0781C14.3367 38.1293 9.22447 35.5156 4.25963 30.2368C3.85329 30.5182 3.36141 30.6488 2.869 30.6061C2.37659 30.5633 1.91458 30.3499 1.56282 30.0027C1.21105 29.6555 0.991621 29.1963 0.942453 28.7045C0.893285 28.2127 1.01746 27.7192 1.29353 27.3092C3.48166 24.0214 6.50503 21.375 10.0535 19.6413C13.6019 17.9076 17.5477 17.1491 21.486 17.4436C31.4606 18.2828 36.9699 25.8165 37.9693 27.322C38.0627 27.4625 38.0968 27.6341 38.0645 27.7996C38.0321 27.9651 37.9357 28.1111 37.7963 28.2061ZM35.5157 28.9748C35.5991 29.1158 35.6252 29.2833 35.5889 29.443C35.5526 29.6026 35.4565 29.7423 35.3204 29.8334C35.1842 29.9244 35.0184 29.9598 34.857 29.9324C34.6955 29.905 34.5507 29.8168 34.4523 29.6859C32.5287 26.9427 29.9352 24.7373 26.9185 23.2797C29.7757 28.5648 25.6373 35.3362 19.6474 35.2273C13.6384 35.3298 9.52557 28.5904 12.3571 23.3053C10.0833 24.3598 8.0492 25.8685 6.3801 27.7384C6.26371 27.8675 6.1008 27.9451 5.9272 27.9541C5.75359 27.9632 5.58352 27.9028 5.45439 27.7864C5.32527 27.6701 5.24766 27.5071 5.23865 27.3335C5.22964 27.1599 5.28996 26.9899 5.40635 26.8607C7.36898 24.6382 9.81924 22.8999 12.5654 21.7819C15.3116 20.6638 18.2793 20.1964 21.2362 20.4161C28.219 20.7812 34.0423 26.5468 35.5157 28.9748ZM24.7724 22.4212C21.4047 21.3628 17.7911 21.3785 14.4328 22.4661C10.5313 26.8415 13.7345 33.9653 19.6282 33.9204C25.522 33.8756 28.7571 26.7775 24.7724 22.4212ZM19.6474 21.7806C20.9444 21.7823 22.1877 22.2987 23.1041 23.2164C24.0206 24.1341 24.5354 25.378 24.5354 26.675C24.292 33.1581 14.9965 33.1581 14.7531 26.675C14.7598 25.3841 15.2756 24.148 16.1884 23.2351C17.1012 22.3223 18.3373 21.8065 19.6282 21.7998L19.6474 21.7806ZM16.092 26.0279C16.2124 26.1864 16.3692 26.3135 16.5491 26.3988C16.7289 26.484 16.9266 26.5248 17.1255 26.5177C17.3244 26.5106 17.5187 26.4558 17.692 26.358C17.8654 26.2602 18.0127 26.1222 18.1216 25.9556C18.2304 25.789 18.2977 25.5987 18.3177 25.4007C18.3378 25.2026 18.3099 25.0027 18.2366 24.8177C18.1633 24.6327 18.0466 24.468 17.8963 24.3374C17.7461 24.2069 17.5667 24.1144 17.3732 24.0676C16.6685 24.1573 16.2137 25.4065 16.0728 26.0472L16.092 26.0279ZM19.6474 23.0618C19.2756 23.0631 18.9061 23.1214 18.552 23.2348C18.8772 23.4814 19.1388 23.8022 19.315 24.1703C19.4912 24.5385 19.5769 24.9434 19.565 25.3514C19.5531 25.7594 19.4439 26.1586 19.2466 26.5159C19.0492 26.8731 18.7693 27.178 18.4303 27.4053C18.0986 27.6238 17.7182 27.7574 17.3228 27.7942C16.9273 27.8311 16.5288 27.7701 16.1624 27.6167C16.3703 28.3824 16.8239 29.0585 17.4536 29.5412C18.0832 30.0239 18.8541 30.2863 19.6474 30.2881C24.4009 30.16 24.4009 23.2348 19.6282 23.0811L19.6474 23.0618ZM5.22697 11.4025C4.65609 11.4025 4.1086 11.1757 3.70492 10.772C3.30125 10.3683 3.07447 9.82084 3.07447 9.24996C3.07447 8.67909 3.30125 8.13159 3.70492 7.72792C4.1086 7.32425 4.65609 7.09747 5.22697 7.09747H7.0976V5.22684C7.0976 4.65596 7.32438 4.10846 7.72805 3.70479C8.13172 3.30112 8.67922 3.07434 9.2501 3.07434C9.82098 3.07434 10.3685 3.30112 10.7721 3.70479C11.1758 4.10846 11.4026 4.65596 11.4026 5.22684V7.09747H13.2732C13.8441 7.09747 14.3916 7.32425 14.7953 7.72792C15.1989 8.13159 15.4257 8.67909 15.4257 9.24996C15.4257 9.82084 15.1989 10.3683 14.7953 10.772C14.3916 11.1757 13.8441 11.4025 13.2732 11.4025H11.4026V13.2731C11.4026 13.844 11.1758 14.3915 10.7721 14.7951C10.3685 15.1988 9.82098 15.4256 9.2501 15.4256C8.67922 15.4256 8.13172 15.1988 7.72805 14.7951C7.32438 14.3915 7.0976 13.844 7.0976 13.2731V11.4025H5.22697ZM5.22697 10.1212H7.73822C7.90813 10.1212 8.07107 10.1887 8.19121 10.3088C8.31135 10.429 8.37885 10.5919 8.37885 10.7618V13.2731C8.37885 13.5042 8.47064 13.7258 8.63403 13.8892C8.79742 14.0525 9.01903 14.1443 9.2501 14.1443C9.48117 14.1443 9.70277 14.0525 9.86616 13.8892C10.0296 13.7258 10.1213 13.5042 10.1213 13.2731V10.7618C10.1213 10.5919 10.1888 10.429 10.309 10.3088C10.4291 10.1887 10.5921 10.1212 10.762 10.1212H13.2732C13.5043 10.1212 13.7259 10.0294 13.8893 9.86603C14.0527 9.70264 14.1445 9.48103 14.1445 9.24996C14.1445 9.0189 14.0527 8.79729 13.8893 8.6339C13.7259 8.47051 13.5043 8.37872 13.2732 8.37872C9.50635 8.32747 10.179 8.9745 10.1213 5.22684C10.1213 4.99577 10.0296 4.77416 9.86616 4.61077C9.70277 4.44738 9.48117 4.35559 9.2501 4.35559C9.01903 4.35559 8.79742 4.44738 8.63403 4.61077C8.47064 4.77416 8.37885 4.99577 8.37885 5.22684V7.73809C8.37885 7.90799 8.31135 8.07094 8.19121 8.19108C8.07107 8.31122 7.90813 8.37872 7.73822 8.37872H5.22697C4.9959 8.37872 4.7743 8.47051 4.61091 8.6339C4.44751 8.79729 4.35572 9.0189 4.35572 9.24996C4.35572 9.48103 4.44751 9.70264 4.61091 9.86603C4.7743 10.0294 4.9959 10.1212 5.22697 10.1212ZM3.36275 15.1373C-1.87115 9.96746 1.89572 0.883402 9.2501 0.921839C15.7076 0.838558 19.782 8.23778 16.297 13.6575L16.739 16.0086C16.7586 16.1112 16.7528 16.2172 16.7221 16.3171C16.6914 16.417 16.6367 16.5079 16.5628 16.5819C16.4888 16.6558 16.3979 16.7105 16.298 16.7412C16.1981 16.7719 16.0922 16.7777 15.9895 16.7581L13.6576 16.2968C12.0629 17.2947 10.1773 17.7232 8.30793 17.5127C6.43857 17.3021 4.69556 16.4649 3.36275 15.1373ZM2.20322 9.24996C2.10713 14.785 8.60947 18.2507 13.1643 15.1117C13.3028 15.0167 13.473 14.9799 13.6384 15.0092L15.3232 15.3231L15.0157 13.6382C14.9846 13.4737 15.0191 13.3036 15.1118 13.1642C16.0175 11.8084 16.4251 10.1806 16.265 8.55802C16.105 6.93545 15.3873 5.41858 14.2342 4.2659C9.89072 -0.167223 2.13916 3.04871 2.20322 9.24996ZM28.2446 17.104C28.3199 17.1427 28.402 17.166 28.4863 17.1727C28.5706 17.1795 28.6554 17.1694 28.7358 17.1432C28.8162 17.117 28.8906 17.0752 28.9547 17.0201C29.0189 16.9649 29.0715 16.8977 29.1095 16.8222L29.9038 15.227C29.9769 15.0748 29.9869 14.8999 29.9317 14.7404C29.8766 14.5808 29.7606 14.4495 29.6092 14.375C29.4579 14.299 29.2826 14.286 29.1218 14.3388C28.9609 14.3916 28.8275 14.506 28.7507 14.6568L27.9563 16.2456C27.8808 16.3977 27.8688 16.5735 27.9228 16.7345C27.9769 16.8954 28.0926 17.0284 28.2446 17.104ZM26.2074 16.1943C26.2465 16.3642 26.3515 16.5117 26.4993 16.6042C26.5724 16.65 26.6539 16.6809 26.739 16.6952C26.8242 16.7096 26.9113 16.707 26.9954 16.6876C27.0795 16.6683 27.159 16.6325 27.2293 16.5825C27.2997 16.5324 27.3594 16.469 27.4052 16.3958C27.451 16.3226 27.482 16.2412 27.4963 16.156C27.5106 16.0709 27.508 15.9838 27.4887 15.8997L27.0274 13.9457C26.978 13.7923 26.8726 13.6632 26.7322 13.5841C26.5918 13.5049 26.4267 13.4816 26.2699 13.5188C26.113 13.556 25.976 13.6509 25.8861 13.7847C25.7961 13.9184 25.7599 14.0812 25.7846 14.2404L26.2074 16.1943ZM29.3465 17.8536C29.3805 17.9306 29.4294 18.0001 29.4903 18.0582C29.5513 18.1163 29.6231 18.1619 29.7016 18.1922C29.7801 18.2225 29.8639 18.2371 29.948 18.2351C30.0322 18.233 30.1152 18.2144 30.1921 18.1803L32.0307 17.3731C32.1858 17.3055 32.3079 17.1794 32.3703 17.0221C32.4327 16.8649 32.4304 16.6894 32.3638 16.5339C32.3304 16.4563 32.282 16.3861 32.2213 16.3273C32.1606 16.2685 32.0889 16.2223 32.0103 16.1914C31.9317 16.1604 31.8478 16.1453 31.7633 16.1469C31.6789 16.1485 31.5956 16.1668 31.5182 16.2007L29.6796 17.0079C29.6021 17.0414 29.5319 17.0898 29.4731 17.1505C29.4143 17.2112 29.3681 17.2828 29.3371 17.3614C29.3062 17.44 29.2911 17.524 29.2927 17.6084C29.2943 17.6929 29.3126 17.7762 29.3465 17.8536Z" fill="black"/>
</svg>
