<svg width="40" height="40" viewBox="0 0 40 40" fill="none" xmlns="http://www.w3.org/2000/svg">
<g clip-path="url(#clip0_88_430)">
<path d="M38.1818 20.1678V14.5458C38.1818 12.6395 36.7031 11.0892 34.8349 10.9388L29.6139 1.81965C29.1301 0.976257 28.3488 0.373454 27.414 0.123146C26.4836 -0.125458 25.5106 0.00510802 24.6779 0.489788L6.78021 10.9095H3.63682C1.63137 10.9095 0.000488281 12.5403 0.000488281 14.5458V36.3637C0.000488281 38.3691 1.63129 40 3.63682 40H34.5454C36.5509 40 38.1818 38.3692 38.1818 36.3637V30.7417C39.2376 30.3652 39.9999 29.3656 39.9999 28.182V22.7275C39.9999 21.5439 39.2376 20.5443 38.1818 20.1678ZM32.7222 10.9095H24.7987L30.7414 7.44967L32.7222 10.9095ZM29.8381 5.87189L21.1852 10.9095H17.5961L28.9406 4.3045L29.8381 5.87189ZM25.5931 2.0611C26.0042 1.8205 26.4844 1.75658 26.9435 1.87914C27.4078 2.0034 27.7949 2.30348 28.0355 2.72339L28.0373 2.72671L13.9827 10.9095H10.3938L25.5931 2.0611ZM36.3636 36.3637C36.3636 37.3659 35.5477 38.1818 34.5454 38.1818H3.63682C2.63456 38.1818 1.8187 37.3659 1.8187 36.3637V14.5458C1.8187 13.5436 2.63456 12.7277 3.63682 12.7277H34.5454C35.5477 12.7277 36.3636 13.5436 36.3636 14.5458V20.0003H30.9091C27.9013 20.0003 25.4546 22.447 25.4546 25.4547C25.4546 28.4625 27.9013 30.9092 30.9091 30.9092H36.3636V36.3637ZM38.1818 28.182C38.1818 28.6835 37.7743 29.0911 37.2727 29.0911H30.9091C28.9037 29.0911 27.2728 27.4603 27.2728 25.4547C27.2728 23.4493 28.9036 21.8184 30.9091 21.8184H37.2727C37.7742 21.8184 38.1818 22.2259 38.1818 22.7275V28.182Z" fill="black"/>
<path d="M30.9089 23.6366C29.9067 23.6366 29.0908 24.4525 29.0908 25.4547C29.0908 26.457 29.9067 27.2728 30.9089 27.2728C31.9112 27.2728 32.7271 26.457 32.7271 25.4547C32.7272 24.4525 31.9113 23.6366 30.9089 23.6366Z" fill="black"/>
</g>
<defs>
<clipPath id="clip0_88_430">
<rect width="40" height="40" fill="white"/>
</clipPath>
</defs>
</svg>
